<?xml version="1.0" encoding="utf-8"?><svg viewBox="0 0 224 128" xmlns="http://www.w3.org/2000/svg" xmlns:xlink="http://www.w3.org/1999/xlink"><style>:root>svg{display:none}:root>svg:target{display:block}</style><svg fill="none" viewBox="0 0 27 14" id="icon-arrow-dropdown" xmlns="http://www.w3.org/2000/svg"><path d="M2 2l11.1 9.6M24.8 2.1l-11.4 9.3" stroke="#E30613" stroke-width="3" stroke-miterlimit="10" stroke-linecap="round"/></svg><svg fill="none" viewBox="0 0 27 14" id="icon-arrow-dropdown-white" xmlns="http://www.w3.org/2000/svg"><path d="M2 2l11.1 9.6M24.8 2.1l-11.4 9.3" stroke="#fff" stroke-width="3" stroke-miterlimit="10" stroke-linecap="round"/></svg><svg fill="none" viewBox="0 0 64 24" id="icon-arrow-next" xmlns="http://www.w3.org/2000/svg"><path d="M63.06 13.06a1.5 1.5 0 000-2.12l-9.545-9.547a1.5 1.5 0 10-2.122 2.122L59.88 12l-8.486 8.485a1.5 1.5 0 102.122 2.122l9.546-9.546zM0 13.5h62v-3H0v3z" fill="#E30613"/></svg><svg fill="none" viewBox="0 0 24 52" id="icon-arrow-right-slider" xmlns="http://www.w3.org/2000/svg"><g clip-path="url(#dclip0_154_11)" stroke="#E30613" stroke-width="7" stroke-miterlimit="10" stroke-linecap="round"><path d="M3.5 48L20 26.3M3.6 3.5l16 22.2"/></g><defs><clipPath id="dclip0_154_11"><path fill="#fff" transform="rotate(-90 25.75 25.75)" d="M0 0h51.5v23.5H0z"/></clipPath></defs></svg><svg fill="none" viewBox="0 0 31 36" id="icon-bonus" xmlns="http://www.w3.org/2000/svg"><g clip-path="url(#eclip0_26_73)"><path d="M4.163 10.125l22.893.225c.33.113 1.096.9 1.534 1.688H2.63c.548-1.013 1.205-1.913 1.534-1.913zm-.11-2.25C1.972 7.987.329 11.25 0 13.162c-.22 1.013 1.205 1.125 2.41 1.125h26.837c1.096 0 2.191-.45 1.753-2.025-.438-1.687-2.081-3.937-3.724-4.162L4.053 7.875z" fill="#fff"/><path d="M25.742 14.85c.876 0 1.643.787 1.643 1.687v15.638c0 .9-.767 1.687-1.643 1.687H5.915c-.876 0-1.643-.787-1.643-1.687V16.537c0-.9.767-1.687 1.643-1.687h19.827zm0-2.25H5.915c-2.081 0-3.834 1.8-3.834 3.937v15.638c0 2.137 1.753 3.937 3.834 3.937h19.937c2.08 0 3.834-1.8 3.834-3.937V16.537c-.11-2.25-1.863-3.937-3.944-3.937z" fill="#fff"/><path d="M16.431 7.987h-1.534c-.876 0-1.533-.787-1.533-1.575 0-.9.767-1.575 1.534-1.575h1.533c.876 0 1.534.788 1.534 1.575 0 .9-.658 1.575-1.534 1.575zM25.633 8.1h-5.258c-.877 0-1.644-.788-1.644-1.688L18.293 4.5c0-.9 5.368-2.813 5.368-2.813 2.629-1.012 3.615.45 3.615 1.35v3.375c0 .9-.767 1.688-1.643 1.688zM5.915 7.875h5.258c.876 0 1.643-.788 1.643-1.688l.329-1.8c0-1.012-5.368-2.925-5.368-2.925-2.629-1.012-3.505.45-3.505 1.463V6.3c0 .9.767 1.575 1.643 1.575zM17.636 13.5h-3.615c-1.095 0-2.081-.9-2.081-2.138 0-1.125.876-2.137 2.081-2.137h3.615c1.095 0 2.081.9 2.081 2.137-.11 1.125-.986 2.138-2.081 2.138z" stroke="#fff" stroke-width="2" stroke-miterlimit="10"/><path d="M13.145 13.387h5.477c1.095 0 1.972.9 1.972 2.025V32.4c0 1.125-.877 2.025-1.972 2.025h-5.477c-1.095 0-1.972-.9-1.972-2.025V15.413c0-1.126.877-2.026 1.972-2.026z" stroke="#fff" stroke-width="2" stroke-miterlimit="10"/></g><defs><clipPath id="eclip0_26_73"><path fill="#fff" d="M0 0h31v36H0z"/></clipPath></defs></svg><svg fill="none" viewBox="0 0 24 32" id="icon-brend" xmlns="http://www.w3.org/2000/svg"><g clip-path="url(#fclip0_27_25)"><path d="M17.9 10.9c1.2 1.7 2.7 9 3.5 15.3 0 1.5-.6 3.1-3.3 3.1H5.5c-3.4 0-3.5-1.7-3.5-2.6.4-7.3 1.8-14.5 3.1-15.7l12.8-.1zm.5-2L4.9 9C.9 9 0 26.7 0 26.7c0 3.1 2.1 4.6 5.5 4.6h12.7c3.4 0 5.3-2.2 5.3-5.3 0 0-2.2-17.1-5.1-17.1z" fill="#fff"/><path d="M5 9.6S7.7 1 11.7 1 18 9 18 9" stroke="#fff" stroke-width="2" stroke-miterlimit="10"/></g><defs><clipPath id="fclip0_27_25"><path fill="#fff" d="M0 0h23.5v31.3H0z"/></clipPath></defs></svg><svg fill="none" viewBox="0 0 32 41" id="icon-complaints" xmlns="http://www.w3.org/2000/svg"><g clip-path="url(#gclip0_27_148)" fill="#fff"><path d="M8.133 0h15.6s.134 0 .134.13c.933.26 1.466.911 1.466 1.953v.39h1.734c2.8 0 4.8 1.822 4.8 4.686V36.444c0 2.213-1.2 3.905-3.2 4.426-.267.13-.534.13-.8.26H3.6C1.467 40.48 0 38.787 0 36.575V6.898c0-2.733 2-4.555 4.667-4.555H6.4c.133-.52.133-.911.4-1.302.267-.52.8-.78 1.333-1.041zm-1.6 4.816H4.667c-1.334 0-2.267.78-2.267 2.213v29.546c0 1.171.933 2.082 2.133 2.082h22.534c.666 0 1.2-.13 1.733-.65.4-.521.533-1.042.533-1.693V7.94 6.768c0-.91-.533-1.431-1.333-1.822-.933-.39-1.867-.13-2.8-.13.133 1.692-1.067 2.473-2.533 2.473-3.067-.13-6 0-9.067 0H8.4c-.933-.13-1.733-.911-1.867-2.083v-.39zm2.534 0h13.866V2.473H9.067v2.343z"/><path d="M20.8 32.02h-4.267c-.8 0-1.333-.522-1.333-1.172 0-.651.533-1.172 1.333-1.172h8.534c.8 0 1.333.52 1.333 1.172 0 .65-.533 1.171-1.333 1.171H20.8zM20.8 16.01h-4.133c-.8 0-1.334-.521-1.334-1.172 0-.65.534-1.171 1.334-1.171h8.4c.8 0 1.333.52 1.466 1.171 0 .651-.533 1.172-1.466 1.172H20.8zM20.8 21.606h4.133c.8 0 1.334.521 1.467 1.172 0 .65-.533 1.171-1.333 1.171h-8.4c-.8 0-1.334-.52-1.334-1.171 0-.65.534-1.172 1.334-1.172H20.8zM8.267 23.038l2.8-2.733c.266-.26.666-.39 1.066-.39.534 0 .8.26 1.067.65.267.52.133.911-.133 1.302-1.2 1.301-2.534 2.473-3.867 3.774-.4.39-1.067.39-1.6 0-.533-.52-1.2-1.041-1.733-1.692-.4-.52-.4-1.171 0-1.562.4-.39 1.2-.52 1.733-.13.267.13.4.39.667.781zM8.267 30.978l2.8-2.734c.4-.39.8-.52 1.333-.26.4.13.667.52.8.911.133.39 0 .781-.4 1.041l-3.733 3.645c-.534.52-1.2.52-1.734 0l-1.6-1.562c-.533-.52-.533-1.171 0-1.692.534-.52 1.2-.52 1.734 0 .4.13.666.39.8.65zM8.4 14.448c.133-.26.267-.39.4-.521l2.4-2.343c.533-.52 1.333-.52 1.733 0 .534.52.534 1.171 0 1.692l-3.6 3.514c-.533.521-1.2.521-1.866 0L6 15.36c-.533-.521-.533-1.302 0-1.692.533-.521 1.2-.521 1.733 0 .134.26.267.39.667.78z"/></g><defs><clipPath id="gclip0_27_148"><path fill="#fff" d="M0 0h32v41H0z"/></clipPath></defs></svg><svg fill="none" viewBox="0 0 38 31" id="icon-computer" xmlns="http://www.w3.org/2000/svg"><g clip-path="url(#hclip0_26_24)" fill="#fff"><path d="M35.5 25.6h.1c-.5 1.2-1.7 2.6-2.7 2.7L5 28.6c-.9-.1-2.1-1.6-2.7-3h33.2zm0-2H2.9c-1.4 0-3.1.1-2.9 1.2.4 2.1 2.4 5.7 4.9 5.8l28.2-.3c2.1-.2 4.1-2.8 4.6-4.5.5-1.7-.8-2.2-2.2-2.2z"/><path d="M30.58 2.04c.782 0 1.466.713 1.466 1.529V22.43c0 .816-.684 1.53-1.466 1.53H7.42c-.782 0-1.466-.714-1.466-1.53V3.57c0-.816.684-1.53 1.466-1.53h23.16zm0-2.04H7.42C5.564 0 4 1.631 4 3.569V22.43C4 24.37 5.564 26 7.42 26h23.16c1.857 0 3.42-1.631 3.42-3.569V3.57C34 1.63 32.437 0 30.58 0z"/></g><defs><clipPath id="hclip0_26_24"><path fill="#fff" d="M0 0h37.8v30.6H0z"/></clipPath></defs></svg><svg fill="none" viewBox="0 0 39 42" id="icon-cube" xmlns="http://www.w3.org/2000/svg"><path d="M19.5 2.836l15.818 10.669L19.5 23.363 3.545 13.1 19.5 2.836zM19.5 0a2.32 2.32 0 00-1.364.405L.955 11.48c-1.228.81-1.228 2.431 0 3.241l17.181 10.94c.41.27.819.404 1.364.404.41 0 .954-.135 1.364-.405L38.045 14.99c1.228-.81 1.364-2.43 0-3.24L20.864.404A2.32 2.32 0 0019.5 0zM38.045 27.685l-2.727 1.62L19.5 39.164 3.545 28.9l-2.59-1.62c-1.228.81-1.228 2.43 0 3.24l17.181 10.94c.41.27.819.405 1.364.405.41 0 .954-.135 1.364-.405L38.045 30.79c1.228-.675 1.228-2.296 0-3.106z" fill="#fff"/><path d="M1.5 13.1v15.665M19.636 24.714V40.38M37.5 13.505v15.53" stroke="#fff" stroke-width="2" stroke-miterlimit="10" stroke-linecap="round"/></svg><svg fill="none" viewBox="0 0 44 36" id="icon-delivery" xmlns="http://www.w3.org/2000/svg"><g clip-path="url(#jclip0_26_56)" fill="#fff"><path d="M28.995 2.271v23.395H2.256V2.27h26.739zM29.559 0H1.579C.677 0 0 .681 0 1.59v24.643c0 .909.677 1.59 1.58 1.59h27.979c.902 0 1.58-.681 1.58-1.59V1.59C31.25.68 30.462 0 29.559 0z"/><path d="M30.236 28.959a2.27 2.27 0 012.256 2.271 2.27 2.27 0 01-2.256 2.272 2.27 2.27 0 01-2.256-2.272 2.27 2.27 0 012.256-2.271zm0-2.271c-2.482 0-4.513 2.044-4.513 4.542 0 2.499 2.03 4.543 4.513 4.543 2.482 0 4.513-2.044 4.513-4.543 0-2.498-1.918-4.542-4.513-4.542zM7.22 29.073a2.27 2.27 0 012.257 2.27 2.27 2.27 0 01-2.256 2.272 2.27 2.27 0 01-2.257-2.271 2.27 2.27 0 012.257-2.271zm0-2.272c-2.482 0-4.512 2.044-4.512 4.543 0 2.498 2.03 4.542 4.513 4.542 2.482 0 4.512-2.044 4.512-4.542 0-2.499-2.03-4.543-4.512-4.543z"/><path d="M44 18.057c0-2.385-6.882-10.562-9.364-10.562h-5.19V9.54l5.077.227c1.805.568 6.77 6.473 7.22 8.29l.113 4.429c0 1.25-1.58 2.953-2.82 2.953 0 0-16.02.34-16.246.34-.113 0 1.918 1.93 3.497 1.93h12.749c2.37 0 5.077-2.838 5.077-5.223L44 18.056z"/></g><defs><clipPath id="jclip0_26_56"><path fill="#fff" d="M0 0h44v36H0z"/></clipPath></defs></svg><svg fill="none" viewBox="0 0 37 34" id="icon-escort" xmlns="http://www.w3.org/2000/svg"><g clip-path="url(#kclip0_27_55)"><path d="M0 11.45c1.671-1.519 3.223-3.038 4.894-4.556C6.923 4.907 9.07 2.92 11.1.934l.239-.233c.358.234.596.467.954.701l1.433 1.052c.358.233.597.584 1.074.7.358 0 .716-.233 1.193-.35.478-.117 1.075-.233 1.671-.233H22.2c.239 0 .358-.117.597-.234l2.267-2.22c4.059 4.09 8.117 8.062 12.175 12.151-1.552 1.402-2.984 2.804-4.655 4.206.239.234.477.35.716.584l1.671 1.636c2.029 1.87 1.194 5.141-1.552 5.842H33.3c.12 1.169-.12 2.22-1.074 2.921-.836.818-1.91 1.052-3.103.935-.24.935-.836 1.752-1.671 2.22-.836.467-1.79.584-2.865.234-.477 1.285-1.432 2.103-2.864 2.336-1.433.234-2.507-.467-3.462-1.402-.477.35-.835.818-1.313 1.169-1.074.934-2.267 1.285-3.7.817-.954-.35-1.551-.934-2.029-1.869 0-.117-.119-.117-.119-.234-.477 0-1.074.117-1.552 0-1.432-.116-2.745-1.402-2.983-2.804 0-.117 0-.35-.24-.35-1.67-.117-2.983-1.402-3.102-3.272v-.117c-.597-.233-1.194-.467-1.552-.818C0 23.017-.119 20.797 1.432 19.28c.716-.585 1.433-1.286 2.149-1.987 0 0-.12-.117-.12-.234-1.074-1.752-2.267-3.505-3.342-5.374 0 0-.119-.117-.119-.234 0 .117 0 0 0 0zm22.916 8.763c.12.117.12.234.239.35l5.251 5.142.359.35c.835.584 1.91.117 2.029-.818.119-.467-.12-.934-.478-1.285l-5.37-5.258c-.12-.117-.12-.233-.24-.233l1.552-1.52.239.234 2.984 2.921 1.91 1.87c.357.35.715.584 1.312.467.478-.117.836-.467.955-.935.12-.584 0-1.051-.477-1.402L22.558 9.698c-.12-.117-.358-.234-.477-.234h-3.223a.922.922 0 00-.597.234c-.954.934-1.91 1.87-2.745 2.804-.477.467-1.074.934-1.91 1.051-1.79.468-3.819-.584-4.296-2.336-.478-1.402-.12-2.688.954-3.74l2.865-2.803c-.597-.468-1.074-.818-1.67-1.169-2.985 2.804-5.85 5.609-8.833 8.413.955 1.519 1.91 3.154 2.864 4.673.12.234.358.35.597.35 1.432.234 2.507 1.403 2.626 2.805 0 .234.12.35.358.35 1.552.234 2.745 1.285 2.864 2.921 0 .234.12.35.358.35.359.118.717.118 1.075.351 1.074.468 1.67 1.402 1.91 2.57 0 .118 0 .351.238.351 1.671.234 2.626 1.169 2.984 2.804 0 .117.12.234.239.35.477.351.835.819 1.313 1.17.358.35.835.35 1.193.233.955-.234 1.194-1.402.478-2.103l-2.149-2.103-1.79-1.753 1.552-1.519c0 .117.119.234.238.234l4.536 4.44.238.233c.358.351.955.468 1.433.117.477-.233.716-.7.716-1.168 0-.35-.239-.701-.478-.935l-4.654-4.556c-.12-.117-.12-.234-.24-.234.717-.584 1.194-1.052 1.791-1.636zm1.91-17.175L23.393 4.44c-.119.117-.358.234-.477.234h-5.37c-.836 0-1.553.233-2.15.934-1.193 1.169-2.267 2.337-3.46 3.389-.12 0-.24.117-.359.233-.716.818-.238 2.103.836 2.337.597.117 1.074-.117 1.551-.467 1.194-1.169 2.268-2.337 3.462-3.505a.922.922 0 01.597-.234h4.893c.239 0 .477.117.716.234 2.268 2.336 4.655 4.556 7.042 6.893.12.117.12.234.239.35 1.074-.934 2.029-1.869 3.103-2.803l-9.19-8.997zM13.248 26.756c0-.7-.238-1.051-.716-1.285-.477-.234-.955-.117-1.313.234-.716.7-1.432 1.285-2.029 1.986a1.251 1.251 0 000 1.752c.478.468 1.194.468 1.79 0 .717-.7 1.433-1.285 2.03-1.986 0-.233.119-.584.238-.7zm-6.445-.234c.12 0 .478-.116.597-.233a20.139 20.139 0 002.268-2.22c.477-.467.358-1.169-.12-1.636-.477-.467-1.193-.467-1.551-.117a20.13 20.13 0 00-2.268 2.22c-.358.35-.358.818-.12 1.285.12.468.478.701 1.194.701zM3.82 23.134c.12 0 .358-.117.597-.234.716-.7 1.432-1.285 2.03-1.986.357-.467.357-1.168-.12-1.519-.478-.467-1.194-.467-1.552-.116a16.12 16.12 0 00-2.029 1.986.885.885 0 00-.12 1.168c.24.467.598.584 1.194.701zm12.652 6.777c0-.701-.239-1.052-.716-1.286-.478-.233-.955-.116-1.313.117l-1.074 1.052c-.478.467-.478 1.168 0 1.636.477.467 1.193.467 1.79 0 .358-.35.716-.584.955-.935.239-.117.358-.467.358-.584z" fill="#fff"/></g><defs><clipPath id="kclip0_27_55"><path fill="#fff" d="M0 0h37v34H0z"/></clipPath></defs></svg><svg fill="none" viewBox="0 0 132 38" id="icon-fb" xmlns="http://www.w3.org/2000/svg"><path d="M52.899 22.948v-7.896h1.73v.74c.247-.37.495-.493.865-.74.371-.123.742-.246 1.113-.246.494 0 .989.123 1.36.37.37.246.74.493.988.863.247-.37.618-.74 1.112-.863.371-.247.866-.37 1.484-.37.988 0 1.73.37 2.348.987.618.617.865 1.48.865 2.59v4.566H62.91v-4.195c0-.74-.123-1.234-.37-1.604-.248-.37-.619-.494-1.113-.494s-.865.247-1.112.494c-.248.37-.371.864-.371 1.604v4.194H58.09v-4.194c0-.74-.124-1.234-.37-1.604-.248-.37-.619-.494-1.113-.494-.495 0-.865.124-1.113.494-.247.37-.37.864-.37 1.604v4.194h-2.225zM66.247 25.539V15.052h1.73v.987c.248-.37.618-.74.99-.987.494-.247.988-.37 1.482-.37 1.113 0 1.978.37 2.843 1.11.742.74 1.112 1.727 1.112 2.961 0 1.11-.37 2.098-1.112 2.961-.741.864-1.73 1.234-2.843 1.234-.494 0-.865-.123-1.36-.247-.493-.123-.74-.493-1.111-.864v3.455h-1.73v.247zm4.079-8.883c-.742 0-1.236.246-1.73.74-.371.493-.618.987-.618 1.727 0 .74.247 1.357.618 1.727.37.37.988.617 1.606.617.618 0 1.236-.246 1.607-.74.494-.493.618-.987.618-1.727 0-.74-.247-1.234-.618-1.727-.247-.494-.742-.617-1.483-.617zM75.64 22.948v-7.896h1.73v.74c.124-.37.372-.616.742-.74.371-.123.742-.246 1.113-.246v1.85c-.495 0-.989.124-1.236.494s-.495.864-.371 1.604v4.194H75.64zM81.326 21.098h-1.854v1.85h1.854v-1.85zM82.685 20.481h1.854c0 .247.124.493.248.74.247.124.494.247.741.247s.494 0 .618-.247a.941.941 0 00.247-.617c0-.123-.123-.37-.123-.493a1.706 1.706 0 00-.495-.37h-.123s-.248-.124-.618-.247c-.742-.247-1.236-.494-1.483-.864-.371-.37-.495-.863-.495-1.357 0-.74.247-1.234.742-1.727.494-.494 1.112-.74 1.854-.74.741 0 1.36.246 1.73.617.494.493.742.987.742 1.727H86.27c0-.247-.124-.37-.248-.494-.123-.123-.247-.123-.494-.123s-.37 0-.494.123c-.124.124-.248.247-.248.494s.124.37.248.493c.123.124.494.247.988.37.866.247 1.484.494 1.73.864.372.37.495.864.495 1.48 0 .74-.247 1.481-.741 1.975-.495.493-1.236.74-2.102.74-.865 0-1.606-.247-2.1-.74a3.027 3.027 0 01-.619-1.851zM89.483 22.948V12.461h1.854v3.208c.247-.247.495-.494.865-.617.371-.123.742-.247 1.113-.247.865 0 1.606.37 2.224.987.618.617.865 1.48.865 2.591v4.565h-1.853v-4.195c0-.74-.124-1.234-.371-1.604-.247-.37-.618-.493-1.113-.493-.494 0-.988.123-1.235.493-.248.37-.371.864-.371 1.604v4.195h-1.978zM101.719 14.806c1.236 0 2.225.37 2.966 1.233.742.864 1.236 1.851 1.236 2.961 0 1.11-.37 2.098-1.236 2.962-.741.863-1.854 1.233-2.966 1.233-1.236 0-2.225-.37-2.966-1.233-.742-.864-1.236-1.851-1.236-2.962 0-1.11.37-2.097 1.236-2.96.741-.864 1.854-1.234 2.966-1.234zm0 1.85c-.741 0-1.236.247-1.607.74-.37.494-.618.988-.618 1.728 0 .617.248 1.234.618 1.727.371.494.989.74 1.607.74s1.236-.246 1.607-.74c.371-.493.618-.987.618-1.727 0-.617-.247-1.234-.618-1.727-.371-.494-.865-.74-1.607-.74zM107.034 25.539V15.052h1.73v.987c.247-.37.618-.74.989-.987.494-.247.989-.37 1.483-.37 1.112 0 1.977.37 2.843 1.11.741.74 1.112 1.727 1.112 2.961 0 1.11-.371 2.098-1.112 2.961-.742.864-1.731 1.234-2.843 1.234-.494 0-.865-.123-1.36-.247-.37-.123-.741-.493-1.112-.864v3.455h-1.73v.247zm4.078-8.883c-.741 0-1.236.246-1.73.74-.371.493-.618.987-.618 1.727 0 .74.247 1.357.618 1.727.371.37.989.617 1.607.617s1.236-.246 1.607-.74c.494-.493.617-.987.617-1.727 0-.74-.247-1.234-.617-1.727-.248-.494-.742-.617-1.484-.617zM118.528 21.098h-1.854v1.85h1.854v-1.85zM120.382 22.948v-7.896h1.73v.74c.124-.37.371-.616.742-.74.371-.123.618-.246 1.112-.246v1.85c-.494 0-.988.124-1.236.494-.247.37-.494.864-.37 1.604v4.194h-1.978zM132 15.052v7.896h-1.73v-.74c-.248.37-.495.493-.866.74-.37.123-.741.247-1.112.247-1.112 0-1.854-.37-2.348-.987-.495-.617-.742-1.604-.742-2.838v-4.195h1.854v3.948c0 .864.124 1.357.371 1.727.247.37.618.617 1.236.494.494 0 .989-.123 1.236-.494.247-.37.371-.987.371-1.727v-3.948H132v-.123zM34.607 0H3.337A3.32 3.32 0 000 3.331v31.214a3.32 3.32 0 003.337 3.332h31.27a3.32 3.32 0 003.337-3.332V3.331C38.067 1.481 36.46 0 34.607 0z" fill="#fff"/><path d="M21.135 33.189V20.728h4.202l.618-4.935h-4.82v-3.085c0-1.357.37-2.344 2.472-2.344h2.595V5.923c-.494 0-1.977-.247-3.831-.247-3.708 0-6.304 2.22-6.304 6.415v3.578h-4.202v4.935h4.202v12.461h5.068v.124z" fill="#ED1D24"/></svg><svg fill="none" viewBox="0 0 224 128" id="icon-inst" xmlns="http://www.w3.org/2000/svg"><path d="M139.021 23.842V15.77h1.768v.757c.253-.379.505-.505.884-.757.379-.126.758-.252 1.136-.252.506 0 1.011.126 1.389.378.379.252.758.505 1.011.883.252-.378.631-.757 1.136-.883.379-.252.884-.378 1.515-.378 1.01 0 1.768.378 2.399 1.009.632.63.884 1.514.884 2.649v4.667h-1.894v-4.289c0-.756-.126-1.261-.379-1.64-.252-.378-.631-.504-1.136-.504-.505 0-.884.252-1.136.504-.253.379-.379.884-.379 1.64v4.29h-1.894v-4.29c0-.756-.127-1.261-.379-1.64-.253-.378-.631-.504-1.137-.504-.505 0-.883.126-1.136.504-.252.379-.379.884-.379 1.64v4.29h-2.273zM152.658 26.618V15.895h1.768v1.01a3.845 3.845 0 011.01-1.01 3.366 3.366 0 011.516-.378c1.136 0 2.02.378 2.904 1.135.757.757 1.136 1.766 1.136 3.027 0 1.136-.379 2.145-1.136 3.028-.758.883-1.768 1.262-2.904 1.262-.506 0-.884-.127-1.389-.253-.506-.126-.758-.504-1.137-.883v3.532h-1.768v.253zm4.167-9.21c-.757 0-1.262.253-1.768.758-.378.504-.631 1.009-.631 1.766 0 .757.253 1.387.631 1.766.379.378 1.011.63 1.642.63s1.263-.252 1.641-.756c.506-.505.632-1.01.632-1.766 0-.757-.253-1.262-.632-1.766a2.089 2.089 0 00-1.515-.631zM162.255 23.842V15.77h1.768v.757c.126-.379.378-.631.757-.757s.758-.252 1.137-.252v1.892c-.506 0-1.011.126-1.263.504-.253.379-.505.884-.379 1.64v4.29h-2.02zM173.24 24.599h-7.197v1.261h7.197V24.6zM173.619 21.32h1.894c0 .252.126.504.253.756.252.127.505.253.757.253.253 0 .505 0 .631-.253a.96.96 0 00.253-.63c0-.127-.126-.379-.126-.505-.127-.126-.253-.252-.505-.378h-.127s-.252-.127-.631-.253c-.758-.252-1.263-.504-1.515-.883-.379-.378-.505-.883-.505-1.387 0-.757.252-1.262.757-1.767.505-.504 1.137-.756 1.894-.756.758 0 1.389.252 1.768.63.505.505.758 1.01.758 1.766h-1.894c0-.252-.127-.378-.253-.504s-.252-.126-.505-.126c-.252 0-.379 0-.505.126s-.252.252-.252.504c0 .253.126.379.252.505s.505.252 1.01.379c.884.252 1.515.504 1.768.883.379.378.505.883.505 1.513 0 .757-.253 1.514-.758 2.019-.505.504-1.262.757-2.146.757-.884 0-1.642-.253-2.147-.757-.379-.379-.631-1.136-.631-1.893zM180.437 23.842V13.119h1.894v3.28c.253-.252.506-.505.884-.63.379-.127.758-.253 1.137-.253.884 0 1.641.378 2.273 1.01.631.63.883 1.513.883 2.648v4.668h-1.894v-4.29c0-.756-.126-1.26-.378-1.64-.253-.378-.632-.504-1.137-.504s-1.01.126-1.262.505c-.253.378-.379.883-.379 1.64v4.289h-2.021zM193.064 15.643c1.263 0 2.273.378 3.031 1.261.757.883 1.262 1.892 1.262 3.028 0 1.135-.378 2.144-1.262 3.027-.758.883-1.894 1.262-3.031 1.262-1.262 0-2.273-.379-3.03-1.262-.758-.883-1.263-1.892-1.263-3.027 0-1.136.379-2.145 1.263-3.028.757-.883 1.768-1.261 3.03-1.261zm0 1.766c-.757 0-1.262.252-1.641.757-.379.504-.632 1.009-.632 1.766 0 .63.253 1.261.632 1.766.379.504 1.01.757 1.641.757.632 0 1.263-.253 1.642-.757.379-.505.631-1.01.631-1.766 0-.631-.252-1.262-.631-1.766-.379-.505-1.01-.757-1.642-.757zM198.494 26.618V15.895h1.768v1.01a3.83 3.83 0 011.01-1.01 3.365 3.365 0 011.515-.378c1.136 0 2.02.378 2.904 1.135.758.757 1.137 1.766 1.137 3.027 0 1.136-.379 2.145-1.137 3.028s-1.768 1.262-2.904 1.262c-.505 0-.884-.127-1.389-.253-.379-.126-.758-.504-1.136-.883v3.532h-1.768v.253zm4.167-9.21c-.758 0-1.263.253-1.768.758-.379.504-.631 1.009-.631 1.766 0 .757.252 1.387.631 1.766.379.378 1.01.63 1.641.63.632 0 1.263-.252 1.642-.756.505-.505.631-1.01.631-1.766 0-.757-.252-1.262-.631-1.766-.253-.379-.884-.631-1.515-.631zM210.237 21.95h-1.894v1.892h1.894V21.95zM212.131 23.842V15.77h1.768v.757c.126-.379.378-.631.757-.757s.631-.252 1.137-.252v1.892c-.506 0-1.011.126-1.263.504-.253.379-.505.884-.379 1.64v4.29h-2.02zM224 15.895v8.073h-1.768v-.757c-.252.379-.505.505-.884.757-.378.126-.757.252-1.136.252-1.136 0-1.894-.378-2.399-1.009-.505-.63-.758-1.64-.758-2.901v-4.29h1.894v4.037c0 .884.127 1.388.379 1.767.253.378.631.63 1.263.504.505 0 1.01-.126 1.262-.505.253-.378.379-1.009.379-1.766v-4.036H224v-.127zM120.334 0H88.388a3.393 3.393 0 00-3.41 3.406v31.916a3.393 3.393 0 003.41 3.406h31.946a3.393 3.393 0 003.409-3.406V3.406A3.393 3.393 0 00120.334 0z" fill="#fff"/><path d="M104.298 10.092h4.672c1.136 0 1.767.252 2.146.378.505.252.884.505 1.263.883.379.379.631.757.884 1.262.126.378.378 1.009.378 2.144 0 1.262.127 1.514.127 4.542 0 3.027 0 3.406-.127 4.541 0 1.135-.252 1.766-.378 2.145-.253.504-.505.883-.884 1.261-.379.378-.758.63-1.263.883-.379.126-1.01.378-2.146.378-1.263 0-1.516.127-4.546.127-3.031 0-3.409 0-4.546-.127-1.136 0-1.767-.252-2.146-.378-.505-.252-.884-.505-1.263-.883-.379-.378-.631-.757-.884-1.262-.126-.378-.379-1.009-.379-2.144 0-1.261-.126-1.514-.126-4.541 0-3.028 0-3.406.126-4.542 0-1.135.253-1.766.38-2.144.252-.505.504-.883.883-1.262.379-.378.758-.63 1.263-.883.252-.126.883-.252 2.02-.378h4.546zm0-2.145c-3.157 0-3.536 0-4.672.126-1.263 0-2.02.253-2.778.505s-1.39.63-2.02 1.261c-.632.631-1.01 1.262-1.263 2.019-.253.757-.505 1.514-.505 2.775 0 1.262-.127 1.64-.127 4.668 0 3.153 0 3.532.127 4.667 0 1.262.252 2.018.505 2.775.252.757.631 1.388 1.263 2.019.63.63 1.262 1.009 2.02 1.261.757.253 1.515.505 2.778.505 1.262 0 1.641.126 4.672.126 3.156 0 3.535 0 4.672-.126 1.262 0 2.02-.252 2.777-.505.758-.252 1.389-.63 2.021-1.261.631-.63 1.01-1.262 1.262-2.019.253-.756.506-1.513.506-2.775 0-1.261.126-1.64.126-4.667 0-3.154 0-3.532-.126-4.668 0-1.261-.253-2.018-.506-2.775-.252-.757-.631-1.388-1.262-2.019-.632-.63-1.263-1.009-2.021-1.261-.757-.252-1.515-.505-2.777-.505-1.137 0-1.516-.126-4.672-.126z" fill="#ED1D24"/><path d="M104.298 13.498a5.79 5.79 0 00-5.809 5.803c0 3.28 2.652 5.803 5.809 5.803a5.79 5.79 0 005.808-5.803c.126-3.154-2.525-5.803-5.808-5.803zm0 9.714c-2.147 0-3.788-1.64-3.788-3.785 0-2.145 1.641-3.784 3.788-3.784 2.146 0 3.788 1.64 3.788 3.784 0 2.018-1.642 3.785-3.788 3.785zM111.747 13.372a1.4 1.4 0 01-1.388 1.388 1.4 1.4 0 01-1.389-1.388 1.4 1.4 0 011.389-1.388 1.4 1.4 0 011.388 1.388z" fill="#ED1D24"/></svg><svg fill="none" viewBox="0 0 119 39" id="icon-ok" xmlns="http://www.w3.org/2000/svg"><path d="M54.59 23.882v-8.13h1.785v.762c.255-.38.51-.508.893-.762.383-.127.765-.254 1.148-.254.51 0 1.02.127 1.403.381s.765.508 1.02.89c.255-.382.638-.763 1.148-.89.383-.254.893-.381 1.53-.381 1.021 0 1.786.381 2.424 1.016.638.636.893 1.525.893 2.668v4.7H64.92v-4.319c0-.762-.128-1.27-.383-1.651s-.638-.508-1.148-.508c-.51 0-.893.254-1.148.508-.255.38-.382.889-.382 1.651v4.32h-1.914v-4.32c0-.762-.127-1.27-.382-1.651s-.638-.508-1.148-.508c-.51 0-.893.127-1.148.508-.255.38-.383.889-.383 1.651v4.32H54.59zM68.364 26.55V15.752h1.786v1.016a3.876 3.876 0 011.02-1.016 3.407 3.407 0 011.531-.38c1.148 0 2.04.38 2.934 1.142.765.763 1.147 1.779 1.147 3.05 0 1.143-.382 2.159-1.147 3.048-.766.89-1.786 1.27-2.934 1.27-.51 0-.893-.127-1.403-.254s-.765-.508-1.148-.889v3.557h-1.786v.254zm4.21-9.273c-.766 0-1.276.254-1.786.762-.383.508-.638 1.016-.638 1.778 0 .763.255 1.398.638 1.779.382.381 1.02.635 1.658.635.638 0 1.275-.254 1.658-.762.51-.508.638-1.017.638-1.779s-.255-1.27-.638-1.778c-.255-.381-.765-.635-1.53-.635zM78.058 23.882v-8.13h1.785v.762c.128-.38.383-.635.766-.762.382-.127.765-.254 1.148-.254v1.906c-.51 0-1.02.127-1.276.508-.255.38-.51.889-.382 1.651v4.32h-2.041zM83.925 21.85h-1.913v1.906h1.913v-1.905zM85.328 21.342h1.913c0 .254.128.508.255.762.255.127.51.254.766.254.255 0 .51 0 .637-.254a.968.968 0 00.255-.635c0-.127-.127-.381-.127-.508-.128-.127-.255-.255-.51-.381h-.128s-.255-.128-.638-.255c-.765-.254-1.275-.508-1.53-.889-.383-.38-.51-.89-.51-1.397 0-.763.255-1.27.765-1.779.51-.508 1.148-.762 1.913-.762.765 0 1.403.254 1.786.635.51.508.765 1.017.765 1.779h-1.913c0-.254-.128-.381-.255-.508-.128-.128-.255-.128-.51-.128-.256 0-.383 0-.51.128-.128.127-.256.254-.256.508s.128.38.255.508c.128.127.51.254 1.02.381.894.254 1.531.508 1.786.89.255.38.51.889.51 1.524 0 .762-.255 1.524-.765 2.032s-1.275.762-2.168.762c-.893 0-1.658-.254-2.168-.762a3.112 3.112 0 01-.638-1.905zM92.343 23.883V13.085h1.913v3.303c.255-.254.51-.508.893-.635s.765-.254 1.148-.254c.893 0 1.658.38 2.296 1.016.637.635.892 1.524.892 2.668v4.7h-1.913v-4.32c0-.761-.127-1.27-.382-1.65-.255-.382-.638-.509-1.148-.509-.51 0-1.02.127-1.276.508-.255.381-.382.89-.382 1.652v4.319h-2.041zM104.97 15.498c1.275 0 2.296.381 3.061 1.27.765.89 1.276 1.906 1.276 3.05 0 1.143-.383 2.159-1.276 3.048-.765.89-1.913 1.27-3.061 1.27-1.275 0-2.296-.38-3.061-1.27-.765-.89-1.276-1.905-1.276-3.049 0-1.143.383-2.16 1.276-3.049.765-.889 1.786-1.27 3.061-1.27zm0 1.778c-.765 0-1.275.255-1.658.763s-.638 1.016-.638 1.778c0 .635.255 1.27.638 1.779.383.508 1.02.762 1.658.762.638 0 1.275-.254 1.658-.762s.638-1.017.638-1.779-.255-1.27-.638-1.778-.893-.763-1.658-.763zM110.454 26.55V15.752h1.786v1.016a3.882 3.882 0 011.02-1.016 3.412 3.412 0 011.531-.38c1.148 0 2.041.38 2.934 1.142.765.763 1.147 1.779 1.147 3.05 0 1.143-.382 2.159-1.147 3.048-.766.89-1.786 1.27-2.934 1.27-.51 0-.893-.127-1.403-.254-.383-.127-.765-.508-1.148-.889v3.557h-1.786v.254zm4.209-9.273c-.765 0-1.275.254-1.785.762-.383.508-.638 1.016-.638 1.778 0 .763.255 1.398.638 1.779.382.381 1.02.635 1.658.635.638 0 1.275-.254 1.658-.762.51-.508.638-1.017.638-1.779s-.255-1.27-.638-1.778c-.255-.381-.765-.635-1.531-.635zM35.713 0H3.443A3.423 3.423 0 000 3.43v32.14C0 37.476 1.53 39 3.444 39h32.269a3.423 3.423 0 003.444-3.43V3.43C39.284 1.524 37.626 0 35.712 0z" fill="#fff"/><path d="M19.515 20.199c3.57 0 6.504-2.922 6.504-6.479s-2.933-6.479-6.504-6.479c-3.572 0-6.505 2.922-6.505 6.479s2.933 6.479 6.505 6.479zm0-9.274c1.53 0 2.678 1.27 2.678 2.668 0 1.524-1.276 2.668-2.678 2.668-1.531 0-2.679-1.27-2.679-2.668 0-1.397 1.148-2.668 2.679-2.668zM22.193 25.535c1.275-.255 2.678-.89 3.826-1.525.893-.508 1.148-1.778.638-2.668-.51-.889-1.786-1.143-2.678-.635a8.436 8.436 0 01-8.801 0c-.893-.508-2.04-.254-2.679.635-.51.89-.255 2.033.638 2.668a10.089 10.089 0 003.827 1.525l-3.7 3.684c-.764.762-.764 1.905 0 2.667.383.381.894.509 1.404.509.51 0 1.02-.128 1.403-.509l3.571-3.557 3.571 3.557c.766.763 1.913.763 2.679 0 .765-.762.765-1.905 0-2.667l-3.7-3.684z" fill="#ED1D24"/></svg><svg fill="none" viewBox="0 0 55 52" id="icon-percent" xmlns="http://www.w3.org/2000/svg"><g clip-path="url(#oclip0_14_6)" fill="#E30613"><path d="M40.526 23.111c-8.105 0-14.473 6.356-14.473 14.445 0 2.6.579 5.2 2.026 7.222 0 0 3.474 7.8 14.184 7.222 7.237-.289 10.71-7.222 10.71-7.222C54.133 42.756 55 40.156 55 37.556c0-8.09-6.368-14.445-14.474-14.445zm0 21.378c-3.763 0-6.947-3.178-6.947-6.933 0-3.756 3.184-6.934 6.947-6.934s6.948 3.178 6.948 6.934c0 3.755-3.184 6.933-6.948 6.933z"/><path d="M39.947.578c-1.736-1.156-4.052-.29-5.21 1.444L9.553 45.356c-.869 1.733-.58 4.333 1.736 5.488 3.474 1.734 4.632-1.733 7.527-6.355l22.868-39c.869-1.733.29-4.045-1.737-4.911zM12.158 26.289c6.658 0 12.158-5.489 12.158-11.845 0-6.644-5.5-11.844-12.158-11.844C5.5 2.311 0 7.8 0 14.444 0 21.09 5.5 26.29 12.158 26.29zm0-16.467c2.316 0 4.342 2.022 4.342 4.622s-2.026 4.623-4.632 4.623c-2.315 0-4.342-2.023-4.342-4.623s2.027-4.622 4.632-4.622z"/></g><defs><clipPath id="oclip0_14_6"><path fill="#fff" d="M0 0h55v52H0z"/></clipPath></defs></svg><svg fill="none" viewBox="0 0 36 33" id="icon-services" xmlns="http://www.w3.org/2000/svg"><g clip-path="url(#pclip0_25_7)"><path d="M15.2 22.1h19c.5 0 1.1-.4 1.1-.9V6.6c0-.6-.5-1.3-1.3-1.3H14.6c-.7 0-1.2.5-1.2 1.2s.5 1.2 1.2 1.2h18.8v2.7H17.2c-.6 0-1.2.5-1.2 1.2 0 .6.5 1.2 1.2 1.2h16.2v2.4H18.6c-.6 0-1.2.5-1.2 1.2 0 .6.5 1.2 1.2 1.2h14.8V20H16L9.5.5C9.4.2 9.1 0 8.7 0H1.2C.5 0 0 .5 0 1.2s.5 1.2 1.2 1.2h6.4l6.1 17.8c-.3.1-.5.3-.6.6l-1.8 4.5c-.1.3-.1.6.1.9.2.3.5.4.8.4h.9c-.6.6-.9 1.5-.9 2.4 0 2 1.6 3.5 3.6 3.5s3.6-1.6 3.6-3.5c0-.9-.3-1.7-.9-2.4h9.6c-.7.6-1.1 1.4-1.1 2.3 0 2 1.6 3.5 3.6 3.5s3.6-1.6 3.6-3.5c0-.9-.3-1.7-.9-2.4h1.1c.5 0 1-.4 1-1 0-.5-.4-1-1-1H13.6l1.1-2.6c.1.2.3.2.5.2zm15.4 5.3c.9 0 1.6.7 1.6 1.6 0 .9-.7 1.6-1.6 1.6-.9 0-1.6-.7-1.6-1.6 0-.9.7-1.6 1.6-1.6zm-14.8 0c.9 0 1.6.7 1.6 1.6 0 .9-.7 1.6-1.6 1.6-.9 0-1.6-.7-1.6-1.6 0-.9.7-1.6 1.6-1.6z" fill="#fff"/></g><defs><clipPath id="pclip0_25_7"><path fill="#fff" d="M0 0h35.3v32.5H0z"/></clipPath></defs></svg><svg fill="none" viewBox="0 0 36 36" id="icon-training" xmlns="http://www.w3.org/2000/svg"><path d="M0 8.577c.122-.604.488-.845.976-1.087 5.37-2.416 10.74-4.953 16.23-7.37a1.71 1.71 0 011.1 0c5.369 2.417 10.86 4.954 16.23 7.37.732.362.976.966.854 1.691-.122.484-.366.725-.732.967-.489.241-.977.483-1.465.604-.244.12-.244.241-.244.483V22.47c0 .242.122.483.244.604.732.966 1.587 1.933 2.319 2.9.244.24.366.603.61.966v.724c-.244.363-.488.846-.854 1.209-.61.845-1.343 1.69-2.075 2.537-.244.241-.244.483-.244.845v2.295c0 .846-.488 1.45-1.098 1.45-.61 0-.976-.604-1.098-1.45v-2.416a.918.918 0 00-.244-.604c-.855-1.087-1.587-2.053-2.441-3.14-.61-.726-.61-1.45 0-2.175.854-1.087 1.708-2.054 2.44-3.141.123-.12.123-.363.123-.483V12.08v-.242c-.733.362-1.343.604-2.075.966-.366.121-.488.363-.488.846v7.732c0 .604-.122 1.087-.488 1.45-1.22 1.449-2.563 2.295-4.15 2.778-2.318.966-5.003 1.208-7.566.966-1.83-.12-3.66-.483-5.491-1.329-1.098-.483-2.075-1.208-2.929-2.295a2.948 2.948 0 01-.61-1.812v-7.852c0-.363-.122-.484-.366-.604L.976 10.148C.488 10.027.244 9.785 0 9.18v-.604zm4.15.242c.121.12.243.12.365.12 4.271 1.934 8.42 3.987 12.692 5.92.244.12.488.12.61 0l11.35-5.074c.731-.362 1.341-.604 2.074-.966-.122-.12-.244-.12-.244-.12-4.272-1.934-8.665-3.867-12.936-5.92-.122-.121-.366 0-.61 0-3.173 1.45-6.224 2.778-9.397 4.228-1.22.604-2.562 1.208-3.905 1.812zm4.758 5.074V20.779c0 .241.123.362.245.483.61.725 1.342 1.087 2.196 1.45 3.661 1.45 7.322 1.57 11.105.483 1.22-.363 2.44-.967 3.417-1.933.244-.121.244-.363.244-.725v-6.282-.483c-.122.12-.244.12-.366.242-2.563 1.087-5.003 2.295-7.566 3.382-.366.12-.732.242-1.098 0-1.953-.966-3.905-1.812-5.736-2.658-.854-.12-1.586-.483-2.44-.845zM31.851 25.49c-.488.604-.976 1.329-1.465 1.933l1.465 1.812c.488-.604.976-1.329 1.464-1.933l-1.464-1.812z" fill="#fff"/></svg><svg fill="none" viewBox="0 0 36 36" id="icon-training-red" xmlns="http://www.w3.org/2000/svg"><path d="M0 8.577c.122-.604.488-.845.976-1.087 5.37-2.416 10.74-4.953 16.23-7.37a1.71 1.71 0 011.1 0c5.369 2.417 10.86 4.954 16.23 7.37.732.362.976.966.854 1.691-.122.484-.366.725-.732.967-.489.241-.977.483-1.465.604-.244.12-.244.241-.244.483V22.47c0 .242.122.483.244.604.732.966 1.587 1.933 2.319 2.9.244.24.366.603.61.966v.724c-.244.363-.488.846-.854 1.209-.61.845-1.343 1.69-2.075 2.537-.244.241-.244.483-.244.845v2.295c0 .846-.488 1.45-1.098 1.45-.61 0-.976-.604-1.098-1.45v-2.416a.918.918 0 00-.244-.604c-.855-1.087-1.587-2.053-2.441-3.14-.61-.726-.61-1.45 0-2.175.854-1.087 1.708-2.054 2.44-3.141.123-.12.123-.363.123-.483V12.08v-.242c-.733.362-1.343.604-2.075.966-.366.121-.488.363-.488.846v7.732c0 .604-.122 1.087-.488 1.45-1.22 1.449-2.563 2.295-4.15 2.778-2.318.966-5.003 1.208-7.566.966-1.83-.12-3.66-.483-5.491-1.329-1.098-.483-2.075-1.208-2.929-2.295a2.948 2.948 0 01-.61-1.812v-7.852c0-.363-.122-.484-.366-.604L.976 10.148C.488 10.027.244 9.785 0 9.18v-.604zm4.15.242c.121.12.243.12.365.12 4.271 1.934 8.42 3.987 12.692 5.92.244.12.488.12.61 0l11.35-5.074c.731-.362 1.341-.604 2.074-.966-.122-.12-.244-.12-.244-.12-4.272-1.934-8.665-3.867-12.936-5.92-.122-.121-.366 0-.61 0-3.173 1.45-6.224 2.778-9.397 4.228-1.22.604-2.562 1.208-3.905 1.812zm4.758 5.074V20.779c0 .241.123.362.245.483.61.725 1.342 1.087 2.196 1.45 3.661 1.45 7.322 1.57 11.105.483 1.22-.363 2.44-.967 3.417-1.933.244-.121.244-.363.244-.725v-6.282-.483c-.122.12-.244.12-.366.242-2.563 1.087-5.003 2.295-7.566 3.382-.366.12-.732.242-1.098 0-1.953-.966-3.905-1.812-5.736-2.658-.854-.12-1.586-.483-2.44-.845zM31.851 25.49c-.488.604-.976 1.329-1.465 1.933l1.465 1.812c.488-.604.976-1.329 1.464-1.933l-1.464-1.812z" fill="#E30613"/></svg><svg fill="none" viewBox="0 0 38 39" id="icon-umbrella" xmlns="http://www.w3.org/2000/svg"><g clip-path="url(#sclip0_27_31)" fill="#fff"><path d="M19.116 5.472h.232c7.878.116 12.164 3.841 14.018 6.17.927 1.164 1.506 2.212 1.853 3.027-1.39-.582-3.243-1.048-4.75-1.048h-.695c-2.085.233-3.939 1.048-5.097 1.746-1.39-.931-3.476-2.095-5.561-2.095h-.348c-2.2.116-4.286 1.164-5.56 1.979-1.507-.815-3.94-1.863-5.91-1.98H6.72a9.47 9.47 0 00-3.244.583c.463-.699.926-1.514 1.737-2.329 1.854-2.328 6.256-6.053 13.903-6.053zm0-2.329C3.128 3.143-2.317 18.045.926 18.045h.117S3.36 15.6 6.72 15.6h.463c2.549.116 6.256 2.445 6.256 2.445S16.104 15.833 19 15.6h.232c2.317 0 5.329 2.561 5.329 2.561s2.665-1.863 5.561-2.212h.463c2.55 0 6.488 2.096 6.488 2.096h.116c3.244 0-1.274-14.669-17.726-14.902h-.347z"/><path d="M15.64 39c-.927 0-1.738-.35-2.317-.931-1.274-1.281-1.274-3.26-1.274-3.493 0-.582.58-1.164 1.158-1.164.695 0 1.159.582 1.159 1.164 0 .35.116 1.397.58 1.863.115.116.347.233.694.233.232 0 .464-.117.695-.35 1.159-1.164 1.275-4.54 1.275-5.704l-.116-15.25c0-.7.463-1.165 1.159-1.165.579 0 1.158.466 1.158 1.164l.116 15.25c0 .466.116 5.24-1.97 7.335-.579.699-1.39 1.048-2.317 1.048zM18.42 5.239c-.694 0-1.158-.466-1.158-1.164v-2.91c0-.7.464-1.165 1.159-1.165.695 0 1.158.466 1.158 1.164v2.91c0 .583-.463 1.165-1.158 1.165z"/></g><defs><clipPath id="sclip0_27_31"><path fill="#fff" d="M0 0h38v39H0z"/></clipPath></defs></svg><svg fill="none" viewBox="0 0 117 39" id="icon-vk" xmlns="http://www.w3.org/2000/svg"><path d="M53.672 23.299v-8.104h1.756v.76c.25-.38.501-.507.878-.76.376-.127.752-.254 1.128-.254.502 0 1.003.127 1.38.38.376.254.752.507 1.003.887.25-.38.627-.76 1.128-.887.377-.253.878-.38 1.505-.38 1.003 0 1.756.38 2.383 1.013.627.633.878 1.52.878 2.66v4.684H63.83v-4.305c0-.76-.126-1.266-.377-1.646-.25-.38-.627-.506-1.128-.506-.502 0-.878.253-1.129.506-.25.253-.376.887-.376 1.646V23.3h-1.881v-4.306c0-.76-.126-1.266-.376-1.646-.251-.38-.627-.506-1.129-.506s-.878.126-1.128.506c-.251.38-.377.887-.377 1.646V23.3h-2.257zM67.215 25.957V15.194h1.756v1.013c.25-.38.627-.76 1.003-1.013a3.314 3.314 0 011.505-.38c1.129 0 2.007.38 2.884 1.14.753.76 1.129 1.773 1.129 3.039 0 1.14-.376 2.153-1.129 3.039-.752.886-1.755 1.266-2.884 1.266-.501 0-.878-.126-1.38-.253-.376-.127-.752-.507-1.128-.886v3.545h-1.756v.253zm4.139-9.117c-.753 0-1.254.254-1.756.76-.376.507-.627 1.013-.627 1.773s.25 1.393.627 1.773c.376.38 1.003.633 1.63.633s1.254-.253 1.63-.76c.502-.506.627-1.013.627-1.773s-.25-1.266-.626-1.772c-.251-.38-.753-.634-1.505-.634zM76.746 23.299v-8.104h1.756v.76c.125-.38.376-.634.752-.76.376-.127.752-.254 1.129-.254v1.9c-.502 0-1.004.126-1.254.506-.251.38-.502.887-.377 1.646V23.3h-2.006zM82.514 21.4h-1.88v1.899h1.88v-1.9zM83.894 20.766h1.88c0 .253.126.507.252.76.25.126.501.253.752.253.25 0 .502 0 .627-.253a.972.972 0 00.251-.633c0-.127-.126-.38-.126-.507-.125-.126-.25-.253-.501-.38h-.126s-.25-.126-.627-.253c-.752-.253-1.254-.506-1.504-.886-.377-.38-.502-.887-.502-1.393 0-.76.25-1.266.752-1.773.502-.506 1.13-.76 1.881-.76.753 0 1.38.254 1.756.633.502.507.753 1.013.753 1.773H87.53c0-.253-.125-.38-.25-.506-.126-.127-.251-.127-.502-.127-.25 0-.376 0-.502.127-.125.126-.25.253-.25.506s.125.38.25.507c.126.126.502.253 1.004.38.878.253 1.505.506 1.755.886.251.38.502.886.502 1.52 0 .76-.25 1.519-.752 2.025-.502.507-1.254.76-2.132.76-.878 0-1.63-.253-2.132-.76a3.13 3.13 0 01-.627-1.899zM90.791 23.3V12.535h1.881v3.292c.25-.253.502-.506.878-.633.376-.126.752-.253 1.129-.253.877 0 1.63.38 2.257 1.013.627.633.877 1.52.877 2.66v4.684h-1.88v-4.305c0-.76-.126-1.266-.377-1.646-.25-.38-.627-.507-1.128-.507-.502 0-1.004.127-1.254.507-.377.38-.502 1.013-.502 1.646v4.305h-1.881zM103.206 14.941c1.254 0 2.257.38 3.009 1.267.753.886 1.254 1.899 1.254 3.039 0 1.14-.376 2.152-1.254 3.039-.752.886-1.881 1.266-3.009 1.266-1.254 0-2.257-.38-3.01-1.266-.752-.887-1.254-1.9-1.254-3.04 0-1.139.376-2.152 1.254-3.038.753-.76 1.881-1.267 3.01-1.267zm0 1.9c-.753 0-1.254.253-1.63.76-.377.506-.627 1.012-.627 1.772 0 .633.25 1.267.627 1.773.376.506 1.003.76 1.63.76s1.254-.254 1.63-.76c.376-.506.627-1.013.627-1.773s-.251-1.266-.627-1.773c-.376-.506-.878-.76-1.63-.76zM108.598 25.957V15.194h1.756v1.013c.25-.38.627-.76 1.003-1.013a3.314 3.314 0 011.505-.38c1.128 0 2.006.38 2.884 1.14.752.76 1.129 1.773 1.129 3.039 0 1.14-.377 2.153-1.129 3.039-.752.886-1.756 1.266-2.884 1.266-.502 0-.878-.126-1.38-.253-.376-.127-.752-.507-1.128-.886v3.545h-1.756v.253zm4.138-9.117c-.752 0-1.254.254-1.755.76-.377.507-.627 1.013-.627 1.773s.25 1.393.627 1.773c.376.38 1.003.633 1.63.633s1.254-.253 1.63-.76c.502-.506.627-1.013.627-1.773s-.251-1.266-.627-1.772c-.251-.38-.752-.634-1.505-.634zM35.112 0H3.386C1.505 0 0 1.52 0 3.419v32.036c0 1.899 1.505 3.418 3.386 3.418h31.726c1.882 0 3.386-1.52 3.386-3.418V3.419C38.624 1.519 36.994 0 35.112 0z" fill="#fff"/><path fill-rule="evenodd" clip-rule="evenodd" d="M18.936 28.364h1.755s.502 0 .753-.38c.25-.253.25-.76.25-.76s0-2.406 1.004-2.659c1.128-.38 2.382 2.28 3.887 3.292 1.129.76 1.881.633 1.881.633h3.888s2.006-.126 1.128-1.772c-.125-.127-.501-1.14-2.884-3.42-2.383-2.278-2.132-1.899.878-5.824 1.755-2.406 2.508-3.925 2.257-4.558-.25-.633-1.505-.38-1.505-.38H27.84s-.376 0-.627.126c-.25.127-.376.507-.376.507s-.752 1.9-1.63 3.419c-2.007 3.292-2.76 3.545-3.01 3.292-.752-.507-.502-1.9-.502-3.039 0-3.292.502-4.559-1.003-4.938-.501-.127-.877-.254-2.006-.254-1.505 0-2.884 0-3.637.38-.501.254-.878.76-.627.887.251 0 1.003.126 1.254.633.502.633.377 2.026.377 2.026s.25 3.798-.628 4.305c-.627.38-1.379-.38-3.135-3.419-.877-1.52-1.504-3.292-1.504-3.292s0-.38-.251-.507c-.251-.253-.753-.253-.753-.253H5.643s-.627 0-.878.253c-.25.254 0 .76 0 .76s3.26 7.724 6.897 11.523c3.512 3.545 7.274 3.419 7.274 3.419z" fill="#ED1D24"/></svg></svg>