<svg width="120" height="39" fill="none" xmlns="http://www.w3.org/2000/svg"><path d="M57.018 17.896h-1.12V24h-1.862v-6.104h-.91v-1.652h.91V13.64h1.862v2.604h1.12v1.652zm9.42 2.226v.21c0 .196-.015.401-.043.616H60.32c.122.467.364.84.728 1.12.374.28.808.42 1.302.42.327 0 .63-.051.91-.154.336-.13.612-.322.826-.574h2.1c-.345.812-.858 1.433-1.54 1.862-.672.42-1.414.63-2.226.63-1.288 0-2.32-.457-3.094-1.372-.672-.793-1.008-1.694-1.008-2.702 0-1.027.336-1.946 1.008-2.758.784-.952 1.825-1.428 3.122-1.428 1.176 0 2.133.397 2.87 1.19.747.784 1.12 1.764 1.12 2.94zm-1.947-.826c-.13-.485-.382-.863-.756-1.134a2.138 2.138 0 00-1.288-.406c-.504 0-.952.14-1.344.42-.382.28-.653.653-.812 1.12h4.2zM70.171 24h-1.863V13.64h1.862V24zm9.985-3.878v.21c0 .196-.014.401-.042.616h-6.076c.121.467.364.84.728 1.12.373.28.807.42 1.302.42.326 0 .63-.051.91-.154.336-.13.611-.322.826-.574h2.1c-.346.812-.859 1.433-1.54 1.862-.672.42-1.414.63-2.226.63-1.288 0-2.32-.457-3.094-1.372-.672-.793-1.008-1.694-1.008-2.702 0-1.027.336-1.946 1.008-2.758.784-.952 1.824-1.428 3.122-1.428 1.176 0 2.132.397 2.87 1.19.746.784 1.12 1.764 1.12 2.94zm-1.946-.826c-.131-.485-.383-.863-.756-1.134a2.137 2.137 0 00-1.288-.406c-.504 0-.952.14-1.344.42a2.24 2.24 0 00-.812 1.12h4.2zm11.545 3.528c0 1.325-.425 2.37-1.274 3.136-.775.7-1.741 1.05-2.898 1.05-.943 0-1.769-.247-2.478-.742-.7-.495-1.167-1.195-1.4-2.1h2.142c.112.345.322.611.63.798.317.187.686.28 1.106.28.644 0 1.19-.205 1.638-.616.448-.41.672-.905.672-1.484v-.28c-.318.42-.668.728-1.05.924a2.73 2.73 0 01-1.288.294c-1.083 0-2.007-.397-2.772-1.19-.766-.793-1.148-1.755-1.148-2.884 0-1.176.382-2.137 1.148-2.884.774-.756 1.712-1.134 2.814-1.134.429 0 .816.07 1.162.21.541.215.961.583 1.26 1.106l.028-1.064h1.708v6.58zm-1.75-2.758c0-.7-.206-1.26-.616-1.68-.411-.42-.957-.63-1.638-.63-.7 0-1.26.229-1.68.686-.383.42-.574.938-.574 1.554 0 .653.191 1.195.574 1.624.42.467.98.7 1.68.7.681 0 1.227-.215 1.638-.644.41-.43.616-.966.616-1.61zm7.492-2.268c-.56 0-.98.173-1.26.518-.27.336-.406.835-.406 1.498V24h-1.862v-7.756h1.708v.7c.383-.644.929-.966 1.638-.966.084.01.145.014.182.014v1.806zM104.88 24h-1.708v-1.05a3.09 3.09 0 01-1.148.966 3.24 3.24 0 01-1.47.336 3.587 3.587 0 01-2.632-1.092c-.774-.775-1.162-1.764-1.162-2.968s.369-2.203 1.106-2.996c.747-.803 1.662-1.204 2.744-1.204 1.12 0 1.965.448 2.534 1.344l.028-1.092h1.708V24zm-1.75-3.892c0-.681-.205-1.241-.616-1.68-.401-.448-.938-.672-1.61-.672-.662 0-1.208.229-1.638.686-.43.457-.644 1.04-.644 1.75 0 .663.21 1.213.63 1.652.43.43.98.644 1.652.644.663 0 1.2-.22 1.61-.658.411-.439.616-1.013.616-1.722zM118.757 24h-1.862v-4.116c0-.57-.07-1.008-.21-1.316-.242-.541-.681-.812-1.316-.812-.616 0-1.045.266-1.288.798-.149.327-.224.77-.224 1.33V24h-1.862v-4.116c0-.57-.07-1.008-.21-1.316-.242-.541-.681-.812-1.316-.812-.616 0-1.045.266-1.288.798-.149.327-.224.77-.224 1.33V24h-1.862v-7.756h1.708v.714c.262-.355.574-.602.938-.742.374-.15.742-.224 1.106-.224a2.8 2.8 0 011.218.266 2.44 2.44 0 011.05.938c.252-.355.56-.63.924-.826a3.17 3.17 0 011.554-.378c.962 0 1.727.308 2.296.924.579.607.868 1.456.868 2.548V24z" fill="#fff"/><g clip-path="url(#clip0_401_1223)"><path d="M35.508 0H3.492A3.47 3.47 0 000 3.492v32.016A3.487 3.487 0 003.492 39h32.016A3.487 3.487 0 0039 35.508V3.492A3.487 3.487 0 0035.508 0zm-3.866 11.916c-1.172 5.518-2.345 11.036-3.518 16.528-.054.293-.16.56-.293.826-.267.48-.694.666-1.227.506a2.71 2.71 0 01-.746-.346 386.41 386.41 0 01-5.305-3.892c-.08-.053-.133-.107-.24-.16a.622.622 0 00-.186.187c-.907.853-1.813 1.732-2.72 2.585-.266.267-.586.4-.986.4l.08-1.04c.107-1.519.213-3.038.32-4.531 0-.107.08-.24.16-.32a3231.48 3231.48 0 0110.316-9.25c.027-.027.054-.027.08-.054.054-.106.134-.24.187-.373-.16-.026-.293-.106-.453-.08-.16.027-.32.134-.48.214-4.265 2.665-8.557 5.358-12.822 8.023a.535.535 0 01-.347.054l-5.438-1.68c-.373-.106-.693-.266-.906-.64v-.293c.213-.426.586-.666 1.013-.826 1.652-.64 3.332-1.28 4.985-1.92 5.704-2.185 11.382-4.371 17.087-6.53.133-.054.267-.107.427-.107.773-.107 1.306.346 1.28 1.146-.028.507-.16 1.04-.268 1.573z" fill="#fff"/></g><defs><clipPath id="clip0_401_1223"><path fill="#fff" d="M0 0h39v39H0z"/></clipPath></defs></svg>