<svg width="140" height="39" viewBox="0 0 140 39" fill="none" xmlns="http://www.w3.org/2000/svg">
<path d="M55.0215 23.8424V15.7689H56.7892V16.5258C57.0418 16.1473 57.2943 16.0212 57.6731 15.7689C58.0519 15.6427 58.4307 15.5166 58.8095 15.5166C59.3146 15.5166 59.8197 15.6428 60.1985 15.895C60.5773 16.1473 60.9561 16.3996 61.2086 16.7781C61.4612 16.3996 61.84 16.0212 62.345 15.895C62.7239 15.6428 63.2289 15.5166 63.8603 15.5166C64.8704 15.5166 65.628 15.895 66.2594 16.5258C66.8907 17.1565 67.1432 18.0396 67.1432 19.1749V23.8424H65.2492V19.5534C65.2492 18.7965 65.1229 18.2919 64.8704 17.9134C64.6179 17.535 64.2391 17.4088 63.734 17.4088C63.2289 17.4088 62.8501 17.6611 62.5976 17.9134C62.345 18.2919 62.2188 18.7965 62.2188 19.5534V23.8424H60.3248V19.5534C60.3248 18.7965 60.1985 18.2919 59.9459 17.9134C59.6934 17.535 59.3146 17.4088 58.8095 17.4088C58.3045 17.4088 57.9257 17.535 57.6731 17.9134C57.4206 18.2919 57.2943 18.7965 57.2943 19.5534V23.8424H55.0215Z" fill="white"/>
<path d="M68.6584 26.6177V15.895H70.4262V16.9042C70.6787 16.5258 71.0575 16.1473 71.4364 15.895C71.9414 15.6428 72.4465 15.5166 72.9516 15.5166C74.088 15.5166 74.9719 15.895 75.8558 16.6519C76.6134 17.4088 76.9922 18.418 76.9922 19.6795C76.9922 20.8148 76.6134 21.824 75.8558 22.7071C75.0981 23.5901 74.088 23.9686 72.9516 23.9686C72.4465 23.9686 72.0677 23.8424 71.5626 23.7163C71.0575 23.5901 70.805 23.2117 70.4262 22.8332V26.3654H68.6584V26.6177ZM72.8253 17.4088C72.0677 17.4088 71.5626 17.6611 71.0576 18.1657C70.6787 18.6703 70.4262 19.1749 70.4262 19.9318C70.4262 20.6887 70.6787 21.3194 71.0576 21.6979C71.4364 22.0763 72.0677 22.3286 72.699 22.3286C73.3304 22.3286 73.9617 22.0763 74.3405 21.5717C74.8456 21.0671 74.9719 20.5625 74.9719 19.8057C74.9719 19.0488 74.7193 18.5442 74.3405 18.0396C73.9617 17.6611 73.4566 17.4088 72.8253 17.4088Z" fill="white"/>
<path d="M78.2548 23.8424V15.7689H80.0225V16.5258C80.1488 16.1473 80.4013 15.895 80.7801 15.7689C81.1589 15.6427 81.5377 15.5166 81.9165 15.5166V17.4088C81.4115 17.4088 80.9064 17.535 80.6539 17.9134C80.4013 18.2919 80.1488 18.7965 80.2751 19.5534V23.8424H78.2548Z" fill="white"/>
<path d="M89.2401 24.5986H82.0428V25.8601H89.2401V24.5986Z" fill="white"/>
<path d="M89.6189 21.3194H91.5129C91.5129 21.5717 91.6392 21.824 91.7655 22.0763C92.018 22.2025 92.2705 22.3286 92.5231 22.3286C92.7756 22.3286 93.0282 22.3286 93.1544 22.0763C93.2807 21.9502 93.407 21.6979 93.407 21.4456C93.407 21.3194 93.2807 21.0671 93.2807 20.941C93.1544 20.8148 93.0281 20.6887 92.7756 20.5625H92.6493C92.6493 20.5625 92.3968 20.4364 92.018 20.3103C91.2604 20.058 90.7553 19.8057 90.5028 19.4272C90.124 19.0488 89.9977 18.5442 89.9977 18.0396C89.9977 17.2827 90.2502 16.7781 90.7553 16.2735C91.2604 15.7689 91.8917 15.5166 92.6493 15.5166C93.4069 15.5166 94.0383 15.7689 94.4171 16.1473C94.9222 16.6519 95.1747 17.1565 95.1747 17.9134H93.2807C93.2807 17.6611 93.1544 17.535 93.0281 17.4088C92.9019 17.2827 92.7756 17.2827 92.5231 17.2827C92.2705 17.2827 92.1443 17.2827 92.018 17.4088C91.8917 17.535 91.7655 17.6611 91.7655 17.9134C91.7655 18.1657 91.8917 18.2919 92.018 18.418C92.1443 18.5442 92.5231 18.6703 93.0281 18.7965C93.912 19.0488 94.5434 19.3011 94.7959 19.6795C95.1747 20.058 95.301 20.5625 95.301 21.1933C95.301 21.9502 95.0484 22.7071 94.5434 23.2117C94.0383 23.7163 93.2807 23.9686 92.3968 23.9686C91.5129 23.9686 90.7553 23.7163 90.2502 23.2117C89.8714 22.8332 89.6189 22.0763 89.6189 21.3194Z" fill="white"/>
<path d="M96.4375 23.8418V13.1191H98.3315V16.399C98.5841 16.1467 98.8366 15.8944 99.2154 15.7683C99.5942 15.6421 99.973 15.516 100.352 15.516C101.236 15.516 101.993 15.8944 102.625 16.5252C103.256 17.1559 103.509 18.0389 103.509 19.1743V23.8418H101.615V19.5527C101.615 18.7958 101.488 18.2912 101.236 17.9128C100.983 17.5343 100.604 17.4082 100.099 17.4082C99.5942 17.4082 99.0891 17.5343 98.8366 17.9128C98.5841 18.2912 98.4578 18.7958 98.4578 19.5527V23.8418H96.4375Z" fill="white"/>
<path d="M109.064 15.6426C110.327 15.6426 111.337 16.021 112.095 16.9041C112.852 17.7871 113.357 18.7963 113.357 19.9316C113.357 21.067 112.979 22.0762 112.095 22.9592C111.337 23.8422 110.201 24.2207 109.064 24.2207C107.802 24.2207 106.791 23.8422 106.034 22.9592C105.276 22.0762 104.771 21.067 104.771 19.9316C104.771 18.7963 105.15 17.7871 106.034 16.9041C106.791 16.021 107.802 15.6426 109.064 15.6426ZM109.064 17.4087C108.307 17.4087 107.802 17.661 107.423 18.1656C107.044 18.6701 106.791 19.1747 106.791 19.9316C106.791 20.5624 107.044 21.1931 107.423 21.6977C107.802 22.2023 108.433 22.4546 109.064 22.4546C109.696 22.4546 110.327 22.2023 110.706 21.6977C111.085 21.1931 111.337 20.6885 111.337 19.9316C111.337 19.3009 111.085 18.6701 110.706 18.1656C110.327 17.661 109.696 17.4087 109.064 17.4087Z" fill="white"/>
<path d="M114.494 26.6177V15.895H116.262V16.9042C116.514 16.5258 116.893 16.1473 117.272 15.895C117.777 15.6428 118.282 15.5166 118.787 15.5166C119.923 15.5166 120.807 15.895 121.691 16.6519C122.449 17.4088 122.827 18.418 122.827 19.6795C122.827 20.8148 122.449 21.824 121.691 22.7071C120.933 23.5901 119.923 23.9686 118.787 23.9686C118.282 23.9686 117.903 23.8424 117.398 23.7163C117.019 23.5901 116.64 23.2117 116.262 22.8332V26.3654H114.494V26.6177ZM118.661 17.4088C117.903 17.4088 117.398 17.6611 116.893 18.1657C116.514 18.6703 116.262 19.1749 116.262 19.9318C116.262 20.6887 116.514 21.3194 116.893 21.6979C117.272 22.0763 117.903 22.3286 118.534 22.3286C119.166 22.3286 119.797 22.0763 120.176 21.5717C120.681 21.0671 120.807 20.5625 120.807 19.8057C120.807 19.0488 120.555 18.5442 120.176 18.0396C119.923 17.6611 119.292 17.4088 118.661 17.4088Z" fill="white"/>
<path d="M126.237 21.9502H124.343V23.8424H126.237V21.9502Z" fill="white"/>
<path d="M128.131 23.8424V15.7689H129.899V16.5258C130.025 16.1473 130.277 15.895 130.656 15.7689C131.035 15.6427 131.288 15.5166 131.793 15.5166V17.4088C131.288 17.4088 130.782 17.535 130.53 17.9134C130.277 18.2919 130.025 18.7965 130.151 19.5534V23.8424H128.131Z" fill="white"/>
<path d="M140 15.8945V23.968H138.232V23.2112C137.98 23.5896 137.727 23.7158 137.348 23.968C136.969 24.0942 136.591 24.2203 136.212 24.2203C135.075 24.2203 134.318 23.8419 133.813 23.2112C133.308 22.5804 133.055 21.5712 133.055 20.3097V16.0207H134.949V20.0574C134.949 20.9405 135.075 21.4451 135.328 21.8235C135.581 22.202 135.959 22.4543 136.591 22.3281C137.096 22.3281 137.601 22.202 137.853 21.8235C138.106 21.4451 138.232 20.8143 138.232 20.0574V16.0207H140V15.8945Z" fill="white"/>
<path d="M36.3337 0H4.38782C2.49379 0 0.978577 1.51378 0.978577 3.40601V35.3216C0.978577 37.2139 2.49379 38.7277 4.38782 38.7277H36.3337C38.2277 38.7277 39.743 37.2139 39.743 35.3216V3.40601C39.743 1.51378 38.2277 0 36.3337 0Z" fill="white"/>
<path d="M20.2976 10.0918C23.3281 10.0918 23.7069 10.0918 24.9696 10.0918C26.106 10.0918 26.7373 10.3441 27.1161 10.4702C27.6212 10.7225 28 10.9748 28.3788 11.3533C28.7576 11.7317 29.0101 12.1102 29.2627 12.6148C29.3889 12.9932 29.6415 13.624 29.6415 14.7593C29.6415 16.0208 29.7677 16.2731 29.7677 19.3006C29.7677 22.3282 29.7677 22.7067 29.6415 23.842C29.6415 24.9773 29.3889 25.6081 29.2627 25.9865C29.0101 26.4911 28.7576 26.8696 28.3788 27.248C28 27.6265 27.6212 27.8788 27.1161 28.1311C26.7373 28.2572 26.106 28.5095 24.9696 28.5095C23.7069 28.5095 23.4543 28.6357 20.4239 28.6357C17.3934 28.6357 17.0146 28.6357 15.8782 28.5095C14.7418 28.5095 14.1105 28.2572 13.7317 28.1311C13.2266 27.8788 12.8478 27.6265 12.469 27.248C12.0902 26.8696 11.8376 26.4911 11.5851 25.9865C11.4588 25.6081 11.2063 24.9773 11.2063 23.842C11.2063 22.5805 11.08 22.3282 11.08 19.3006C11.08 16.2731 11.08 15.8946 11.2063 14.7593C11.2063 13.624 11.4588 12.9932 11.5851 12.6148C11.8376 12.1102 12.0902 11.7317 12.469 11.3533C12.8478 10.9748 13.2266 10.7225 13.7317 10.4702C13.9842 10.3441 14.6155 10.2179 15.752 10.0918C16.8884 10.0918 17.2672 10.0918 20.2976 10.0918ZM20.2976 7.94727C17.1409 7.94727 16.7621 7.94727 15.6257 8.07341C14.363 8.07341 13.6054 8.32571 12.8478 8.57801C12.0902 8.83031 11.4588 9.20875 10.8275 9.8395C10.1962 10.4702 9.81735 11.101 9.56481 11.8579C9.31228 12.6148 9.05974 13.3717 9.05974 14.6331C9.05974 15.8946 8.93347 16.2731 8.93347 19.3006C8.93347 22.4544 8.93347 22.8328 9.05974 23.9682C9.05974 25.2296 9.31228 25.9865 9.56481 26.7434C9.81735 27.5003 10.1962 28.1311 10.8275 28.7618C11.4588 29.3925 12.0902 29.771 12.8478 30.0233C13.6054 30.2756 14.363 30.5279 15.6257 30.5279C16.8884 30.5279 17.2672 30.654 20.2976 30.654C23.4543 30.654 23.8331 30.654 24.9696 30.5279C26.2322 30.5279 26.9898 30.2756 27.7475 30.0233C28.5051 29.771 29.1364 29.3925 29.7677 28.7618C30.3991 28.1311 30.7779 27.5003 31.0304 26.7434C31.283 25.9865 31.5355 25.2296 31.5355 23.9682C31.5355 22.7067 31.6618 22.3282 31.6618 19.3006C31.6618 16.1469 31.6618 15.7685 31.5355 14.6331C31.5355 13.3717 31.283 12.6148 31.0304 11.8579C30.7779 11.101 30.3991 10.4702 29.7677 9.8395C29.1364 9.20875 28.5051 8.83031 27.7475 8.57801C26.9898 8.32571 26.2322 8.07341 24.9696 8.07341C23.8331 8.07341 23.4543 7.94727 20.2976 7.94727Z" fill="#ED1D24"/>
<path d="M20.2976 13.498C17.0146 13.498 14.4893 16.1472 14.4893 19.3009C14.4893 22.5808 17.1409 25.1037 20.2976 25.1037C23.5806 25.1037 26.106 22.4546 26.106 19.3009C26.2322 16.1472 23.5806 13.498 20.2976 13.498ZM20.2976 23.2115C18.151 23.2115 16.5096 21.5716 16.5096 19.427C16.5096 17.2825 18.151 15.6426 20.2976 15.6426C22.4442 15.6426 24.0857 17.2825 24.0857 19.427C24.0857 21.4454 22.4442 23.2115 20.2976 23.2115Z" fill="#ED1D24"/>
<path d="M27.7475 13.372C27.7475 14.1289 27.1162 14.7596 26.3586 14.7596C25.6009 14.7596 24.9696 14.1289 24.9696 13.372C24.9696 12.6151 25.6009 11.9844 26.3586 11.9844C27.1162 11.9844 27.7475 12.6151 27.7475 13.372Z" fill="#ED1D24"/>
</svg>
