<svg width="120" height="39" fill="none" xmlns="http://www.w3.org/2000/svg"><path d="M54.627 23.883v-8.13h1.787v.762c.256-.381.51-.509.894-.763.383-.127.766-.254 1.148-.254.511 0 1.021.127 1.404.381.383.255.766.508 1.022.89.255-.381.638-.763 1.148-.89.383-.254.894-.38 1.532-.38 1.02 0 1.787.38 2.425 1.016.638.635.893 1.524.893 2.667v4.7h-1.914v-4.319c0-.762-.128-1.27-.383-1.651s-.638-.508-1.149-.508c-.51 0-.893.254-1.148.508-.256.381-.383.89-.383 1.651v4.32h-1.915v-4.32c0-.762-.128-1.27-.383-1.651s-.638-.508-1.148-.508c-.511 0-.894.127-1.15.508-.255.381-.382.89-.382 1.651v4.32h-2.298zm13.785 2.667V15.752H70.2v1.017a3.877 3.877 0 011.021-1.017 3.412 3.412 0 011.532-.38c1.148 0 2.042.38 2.935 1.143.766.762 1.149 1.778 1.149 3.049 0 1.143-.383 2.16-1.149 3.048-.766.89-1.787 1.27-2.935 1.27-.51 0-.894-.126-1.404-.253-.51-.127-.766-.509-1.149-.89v3.557h-1.787v.255zm4.212-9.273c-.766 0-1.276.254-1.787.762-.383.508-.638 1.016-.638 1.779 0 .762.255 1.397.638 1.778s1.021.635 1.66.635c.638 0 1.276-.254 1.659-.762.51-.508.638-1.016.638-1.778 0-.763-.255-1.27-.638-1.779-.256-.381-.766-.635-1.532-.635zm5.488 6.606v-8.13H79.9v.762c.128-.381.383-.636.766-.763s.766-.254 1.149-.254v1.906c-.51 0-1.021.127-1.277.508-.255.381-.51.89-.383 1.651v4.32h-2.042zm5.871-2.033H82.07v1.906h1.914V21.85zm1.404-.508h1.915c0 .254.127.508.255.762.255.127.51.254.766.254.255 0 .51 0 .638-.254a.968.968 0 00.255-.635c0-.127-.127-.381-.127-.508a1.763 1.763 0 00-.51-.381h-.129s-.255-.127-.638-.254c-.766-.254-1.276-.509-1.531-.89-.383-.38-.51-.889-.51-1.397 0-.762.254-1.27.765-1.779.51-.508 1.149-.762 1.914-.762.766 0 1.404.254 1.787.636.51.508.766 1.016.766 1.778H89.09c0-.254-.128-.381-.256-.508-.127-.127-.255-.127-.51-.127s-.383 0-.51.127c-.128.127-.256.254-.256.508s.128.381.255.508c.128.127.51.254 1.021.381.894.254 1.532.508 1.787.89.255.38.51.889.51 1.524 0 .762-.254 1.524-.765 2.032-.51.509-1.276.763-2.17.763-.893 0-1.66-.254-2.17-.763a3.111 3.111 0 01-.638-1.905zm7.02 2.541V13.085h1.915v3.303c.255-.254.51-.509.893-.636s.766-.254 1.149-.254c.893 0 1.66.382 2.297 1.017.638.635.894 1.524.894 2.667v4.7H97.64v-4.319c0-.762-.127-1.27-.383-1.65-.255-.382-.638-.51-1.148-.51-.51 0-1.021.128-1.277.51-.255.38-.383.888-.383 1.65v4.32h-2.042zm12.636-8.385c1.276 0 2.297.381 3.063 1.27.766.89 1.276 1.906 1.276 3.05 0 1.143-.383 2.16-1.276 3.048-.766.89-1.915 1.27-3.063 1.27-1.277 0-2.298-.38-3.064-1.27-.765-.889-1.276-1.905-1.276-3.049 0-1.143.383-2.16 1.276-3.048.766-.89 1.787-1.27 3.064-1.27zm0 1.779c-.766 0-1.277.254-1.66.762-.382.508-.638 1.016-.638 1.778 0 .636.256 1.27.638 1.779.383.508 1.022.762 1.66.762.638 0 1.276-.254 1.659-.762s.638-1.016.638-1.779c0-.762-.255-1.27-.638-1.778s-.894-.762-1.659-.762zm5.488 9.273V15.752h1.787v1.017a3.87 3.87 0 011.021-1.017 3.414 3.414 0 011.532-.38c1.149 0 2.042.38 2.935 1.143.766.762 1.149 1.778 1.149 3.049 0 1.143-.383 2.16-1.149 3.048-.765.89-1.786 1.27-2.935 1.27-.511 0-.894-.126-1.404-.253-.383-.127-.766-.509-1.149-.89v3.557h-1.787v.255zm4.212-9.273c-.766 0-1.276.254-1.787.762-.383.508-.638 1.016-.638 1.779 0 .762.255 1.397.638 1.778s1.021.635 1.66.635c.638 0 1.276-.254 1.659-.762.51-.508.638-1.016.638-1.778 0-.763-.255-1.27-.638-1.779-.255-.381-.766-.635-1.532-.635zM35.738 0H3.446A3.424 3.424 0 000 3.43v32.14A3.424 3.424 0 003.446 39h32.292a3.424 3.424 0 003.446-3.43V3.43C39.31 1.524 37.652 0 35.738 0z" fill="#fff"/><path d="M19.528 20.199c3.574 0 6.51-2.922 6.51-6.48 0-3.556-2.936-6.478-6.51-6.478s-6.51 2.922-6.51 6.479 2.936 6.479 6.51 6.479zm0-9.274c1.532 0 2.68 1.27 2.68 2.668 0 1.524-1.276 2.668-2.68 2.668-1.532 0-2.68-1.27-2.68-2.668 0-1.398 1.148-2.668 2.68-2.668zm2.68 14.609c1.277-.254 2.68-.89 3.83-1.524.893-.509 1.148-1.779.638-2.668-.51-.89-1.787-1.143-2.68-.635a8.446 8.446 0 01-8.807 0c-.894-.508-2.043-.254-2.68.635-.511.89-.256 2.033.637 2.668a10.1 10.1 0 003.83 1.524l-3.702 3.684c-.766.762-.766 1.906 0 2.668.383.381.894.508 1.404.508.51 0 1.021-.127 1.404-.508l3.574-3.557 3.574 3.557c.765.762 1.914.762 2.68 0 .766-.762.766-1.906 0-2.668l-3.702-3.684z" fill="#4E5A65"/></svg>