<svg width="118" height="39" fill="none" xmlns="http://www.w3.org/2000/svg"><path d="M53.71 23.299v-8.104h1.756v.76c.251-.38.502-.507.878-.76.377-.127.753-.253 1.13-.253.502 0 1.004.126 1.38.38.377.253.753.506 1.004.886.251-.38.628-.76 1.13-.886.376-.254.878-.38 1.505-.38 1.004 0 1.757.38 2.385 1.013.627.633.878 1.52.878 2.659v4.685h-1.882v-4.305c0-.76-.126-1.267-.377-1.646-.25-.38-.627-.507-1.129-.507s-.879.253-1.13.506c-.25.254-.376.887-.376 1.647v4.305H58.98v-4.305c0-.76-.126-1.267-.377-1.646-.25-.38-.627-.507-1.13-.507-.501 0-.877.127-1.129.506-.25.38-.376.887-.376 1.647v4.305h-2.259zm13.552 2.659V15.195h1.757v1.013c.251-.38.627-.76 1.004-1.013a3.318 3.318 0 011.506-.38c1.13 0 2.008.38 2.886 1.14.753.76 1.13 1.772 1.13 3.039 0 1.14-.377 2.152-1.13 3.038-.753.887-1.757 1.267-2.886 1.267-.502 0-.879-.127-1.38-.253-.377-.127-.754-.507-1.13-.887v3.546h-1.757v.253zm4.141-9.117c-.753 0-1.255.253-1.757.76-.376.506-.627 1.013-.627 1.772 0 .76.251 1.393.627 1.773.377.38 1.004.633 1.632.633.627 0 1.255-.253 1.631-.76.502-.506.628-1.012.628-1.772s-.251-1.267-.628-1.773c-.25-.38-.753-.633-1.506-.633zm5.397 6.458v-8.104h1.756v.76a1.14 1.14 0 01.753-.76c.377-.127.753-.253 1.13-.253v1.899c-.502 0-1.004.127-1.255.506-.251.38-.502.887-.377 1.647v4.305H76.8zm5.772-1.899h-1.883v1.899h1.883v-1.9zm1.38-.634h1.883c0 .254.125.507.25.76.251.127.502.253.753.253s.502 0 .628-.253a.972.972 0 00.25-.633c0-.127-.125-.38-.125-.506a1.697 1.697 0 00-.502-.38h-.125s-.251-.127-.628-.254c-.752-.253-1.254-.506-1.505-.886-.377-.38-.502-.886-.502-1.393 0-.76.25-1.266.753-1.773.502-.506 1.129-.76 1.882-.76.753 0 1.38.254 1.757.634.502.506.753 1.013.753 1.773H87.59c0-.254-.125-.38-.25-.507-.126-.127-.252-.127-.503-.127-.25 0-.376 0-.502.127-.125.127-.25.253-.25.506 0 .254.125.38.25.507.126.127.502.253 1.004.38.879.253 1.506.506 1.757.886.251.38.502.887.502 1.52 0 .76-.25 1.52-.753 2.026-.502.506-1.255.76-2.133.76-.878 0-1.631-.254-2.133-.76a3.128 3.128 0 01-.628-1.9zm6.902 2.533V12.536h1.882v3.292c.251-.253.502-.507.879-.633.376-.127.753-.254 1.13-.254.878 0 1.63.38 2.258 1.013.627.634.878 1.52.878 2.66v4.685H96v-4.306c0-.76-.125-1.266-.376-1.646-.251-.38-.628-.506-1.13-.506-.502 0-1.004.127-1.255.506-.376.38-.502 1.013-.502 1.646V23.3h-1.882zm12.423-8.357c1.255 0 2.259.38 3.012 1.266.753.886 1.255 1.9 1.255 3.039 0 1.14-.376 2.152-1.255 3.039-.753.886-1.882 1.266-3.012 1.266-1.255 0-2.258-.38-3.011-1.266-.753-.887-1.255-1.9-1.255-3.04 0-1.139.376-2.152 1.255-3.038.753-.76 1.882-1.266 3.011-1.266zm0 1.899c-.753 0-1.255.253-1.631.76-.376.506-.627 1.013-.627 1.773 0 .633.251 1.266.627 1.772.376.507 1.004.76 1.631.76.628 0 1.255-.253 1.632-.76.376-.506.627-1.013.627-1.773s-.251-1.266-.627-1.772c-.377-.507-.879-.76-1.632-.76zm5.397 9.117V15.195h1.756v1.013c.251-.38.628-.76 1.004-1.013a3.319 3.319 0 011.506-.38c1.13 0 2.008.38 2.886 1.14.753.76 1.13 1.772 1.13 3.039 0 1.14-.377 2.152-1.13 3.038-.752.887-1.756 1.267-2.886 1.267-.502 0-.878-.127-1.38-.253-.377-.127-.753-.507-1.13-.887v3.546h-1.756v.253zm4.141-9.117c-.753 0-1.255.253-1.757.76-.377.506-.628 1.013-.628 1.772 0 .76.251 1.393.628 1.773.376.38 1.004.633 1.631.633.628 0 1.255-.253 1.632-.76.502-.506.627-1.012.627-1.772s-.251-1.267-.627-1.773c-.251-.38-.753-.633-1.506-.633zM35.137 0H3.388C1.506 0 0 1.52 0 3.419v32.036c0 1.899 1.506 3.418 3.388 3.418h31.749c1.882 0 3.388-1.52 3.388-3.418V3.419C38.651 1.519 37.02 0 35.137 0z" fill="#fff"/><path fill-rule="evenodd" clip-rule="evenodd" d="M18.949 28.364h1.757s.502 0 .753-.38c.25-.253.25-.76.25-.76s0-2.406 1.005-2.659c1.129-.38 2.384 2.28 3.89 3.292 1.129.76 1.882.633 1.882.633h3.89s2.008-.126 1.13-1.772c-.126-.127-.502-1.14-2.887-3.42-2.384-2.278-2.133-1.899.879-5.824 1.756-2.406 2.51-3.925 2.259-4.558-.252-.633-1.506-.38-1.506-.38h-4.392s-.377 0-.628.126c-.25.127-.376.507-.376.507s-.753 1.9-1.632 3.419c-2.008 3.292-2.76 3.545-3.011 3.292-.753-.507-.503-1.9-.503-3.039 0-3.292.503-4.559-1.003-4.938-.502-.127-.879-.254-2.008-.254-1.506 0-2.886 0-3.64.38-.501.254-.878.76-.627.887.251 0 1.004.126 1.255.633.502.633.377 2.026.377 2.026s.25 3.798-.628 4.305c-.627.38-1.38-.38-3.137-3.419-.879-1.52-1.506-3.292-1.506-3.292s0-.38-.251-.507c-.251-.253-.753-.253-.753-.253H5.647s-.627 0-.878.253c-.251.254 0 .76 0 .76s3.262 7.724 6.901 11.523c3.514 3.545 7.279 3.419 7.279 3.419z" fill="#4E5A65"/></svg>