<svg width="185" height="40" fill="none" xmlns="http://www.w3.org/2000/svg"><g clip-path="url(#clip0_401_994)"><path d="M35.669 0H3.331C1.48 0 0 1.5 0 3.375v32.25C0 37.473 1.48 39 3.332 39h32.363c1.824 0 3.331-1.5 3.331-3.375V3.375C39 1.5 37.52 0 35.668 0zm-5.262 17.009v.295c-2.353 0-4.416-.75-6.293-2.143v.294c0 2.92.026 5.813.026 8.732 0 1.58-.37 3.054-1.269 4.367-1.428 2.142-3.437 3.321-6.002 3.535a.929.929 0 00-.264.054h-.476c-.555-.08-1.11-.134-1.666-.241-3.067-.697-5.473-3.402-5.843-6.563-.503-4.205 2.3-8.009 6.451-8.705.793-.134 1.613-.16 2.433 0v4.152c-.212-.054-.423-.08-.635-.107-2.01-.295-3.913 1.125-4.178 3.107-.29 2.116 1.111 3.99 3.173 4.259 2.063.294 4.178-1.34 4.152-3.804-.027-3 0-5.973 0-8.973V6.992h4.019c.052.428.105.856.185 1.258.581 2.813 3.04 4.929 5.87 5.009.238 0 .317.08.317.321v3.429z" fill="#fff"/></g><path fill="#fff" d="M62.096 7.435l1.508-.039.617 23.992-1.508.04z"/><path fill="#fff" d="M62.096 7.435l1.508-.039.617 23.992-1.508.04z"/><path fill="#fff" d="M62.096 7.435l1.508-.039.617 23.992-1.508.04zm8.292-.214l1.507-.039.618 23.992-1.508.04z"/><path fill="#fff" d="M78.47 13.163l.145 1.54-23.27 2.264-.144-1.54z"/><path fill="#fff" d="M78.47 13.163l.145 1.54-23.27 2.264-.144-1.54z"/><path fill="#fff" d="M78.47 13.163l.145 1.54-23.27 2.264-.144-1.54zm.794 8.478l.144 1.541-23.27 2.264-.144-1.541zM105.928 13h-1.918V5.244L101.252 13h-1.624L96.87 5.244V13h-1.918V2.64h2.604l2.884 7.924 2.884-7.924h2.604V13zm10.135 0h-1.708v-1.05c-.308.42-.691.742-1.148.966a3.24 3.24 0 01-1.47.336 3.587 3.587 0 01-2.632-1.092c-.775-.775-1.162-1.764-1.162-2.968s.369-2.203 1.106-2.996c.747-.803 1.661-1.204 2.744-1.204 1.12 0 1.965.448 2.534 1.344l.028-1.092h1.708V13zm-1.75-3.892c0-.681-.205-1.241-.616-1.68-.401-.448-.938-.672-1.61-.672-.663 0-1.209.229-1.638.686-.429.457-.644 1.04-.644 1.75 0 .663.21 1.213.63 1.652.429.43.98.644 1.652.644.663 0 1.199-.22 1.61-.658.411-.439.616-1.013.616-1.722zm8.36-2.212h-2.534V13h-1.862V5.244h4.396v1.652zm9.35 6.104h-1.708v-1.05a3.09 3.09 0 01-1.148.966 3.24 3.24 0 01-1.47.336 3.588 3.588 0 01-2.632-1.092c-.774-.775-1.162-1.764-1.162-2.968s.369-2.203 1.106-2.996c.747-.803 1.662-1.204 2.744-1.204 1.12 0 1.965.448 2.534 1.344l.028-1.092h1.708V13zm-1.75-3.892c0-.681-.205-1.241-.616-1.68-.401-.448-.938-.672-1.61-.672-.662 0-1.208.229-1.638.686-.429.457-.644 1.04-.644 1.75 0 .663.21 1.213.63 1.652.43.43.98.644 1.652.644.663 0 1.2-.22 1.61-.658.411-.439.616-1.013.616-1.722zm9.243 1.61c0 .756-.257 1.367-.77 1.834-.514.467-1.2.7-2.058.7-1.046 0-1.811-.327-2.296-.98-.374-.504-.56-1.134-.56-1.89h1.862c0 .308.079.56.238.756.196.233.471.35.826.35.261 0 .476-.07.644-.21.168-.14.252-.34.252-.602 0-.336-.112-.57-.336-.7a.977.977 0 00-.49-.112h-.434V8.268h.35c.289 0 .494-.07.616-.21a.803.803 0 00.196-.546c0-.308-.098-.523-.294-.644-.122-.075-.285-.112-.49-.112a.861.861 0 00-.616.224.796.796 0 00-.266.56h-1.862c0-.7.242-1.297.728-1.792.494-.504 1.152-.756 1.974-.756.868 0 1.54.224 2.016.672.42.392.63.891.63 1.498 0 .383-.117.723-.35 1.022-.224.29-.528.5-.91.63.457.112.802.34 1.036.686.242.345.364.751.364 1.218zM148.545 13h-1.862V7.974L143.239 13h-1.862V5.244h1.862v5.026l3.444-5.026h1.862V13zm8.822 0h-1.862V9.752h-2.884V13h-1.862V5.244h1.862V8.1h2.884V5.244h1.862V13zm-54.799 12h-1.918v-8.498h-3.78V25h-1.918V14.64h7.616V25zm10.244-3.864c0 1.139-.392 2.11-1.176 2.912-.784.803-1.764 1.204-2.94 1.204-1.167 0-2.147-.397-2.94-1.19-.784-.803-1.176-1.778-1.176-2.926 0-1.148.387-2.123 1.162-2.926.784-.812 1.768-1.218 2.954-1.218 1.176 0 2.156.401 2.94 1.204.784.803 1.176 1.783 1.176 2.94zm-1.862 0c0-.663-.206-1.223-.616-1.68-.411-.467-.957-.7-1.638-.7-.672 0-1.218.233-1.638.7-.411.457-.616 1.017-.616 1.68s.205 1.223.616 1.68c.41.448.956.672 1.638.672.662 0 1.204-.229 1.624-.686.42-.457.63-1.013.63-1.666zm11.461 1.344c-.299.85-.78 1.526-1.442 2.03-.654.495-1.452.742-2.394.742-1.363 0-2.441-.453-3.234-1.358-.7-.793-1.05-1.736-1.05-2.828 0-1.036.336-1.941 1.008-2.716.784-.905 1.852-1.358 3.206-1.358.961 0 1.787.257 2.478.77.69.513 1.166 1.2 1.428 2.058h-2.1a1.819 1.819 0 00-.742-.798c-.308-.177-.672-.266-1.092-.266-.719 0-1.288.229-1.708.686-.411.448-.616.999-.616 1.652 0 .681.21 1.25.63 1.708.42.457.984.686 1.694.686.438 0 .807-.084 1.106-.252.298-.168.541-.42.728-.756h2.1zm6.841-3.584h-1.862V25h-1.862v-6.104h-1.862v-1.652h5.586v1.652zm9.449 2.24c0 1.139-.392 2.11-1.176 2.912-.784.803-1.764 1.204-2.94 1.204-1.167 0-2.147-.397-2.94-1.19-.784-.803-1.176-1.778-1.176-2.926 0-1.148.387-2.123 1.162-2.926.784-.812 1.768-1.218 2.954-1.218 1.176 0 2.156.401 2.94 1.204.784.803 1.176 1.783 1.176 2.94zm-1.862 0c0-.663-.206-1.223-.616-1.68-.411-.467-.957-.7-1.638-.7-.672 0-1.218.233-1.638.7-.411.457-.616 1.017-.616 1.68s.205 1.223.616 1.68c.41.448.956.672 1.638.672.662 0 1.204-.229 1.624-.686.42-.457.63-1.013.63-1.666zM146.564 25h-1.862v-2.982L142.406 25h-2.324l2.338-2.744c-.635-.075-1.139-.336-1.512-.784-.364-.457-.546-1.008-.546-1.652 0-.71.242-1.307.728-1.792.522-.523 1.222-.784 2.1-.784h3.374V25zm-1.862-4.158v-1.946h-1.442c-.318 0-.57.093-.756.28-.187.187-.28.434-.28.742s.098.541.294.7c.196.15.443.224.742.224h1.442zM155.384 25h-1.862v-3.248h-2.884V25h-1.862v-7.756h1.862V20.1h2.884v-2.856h1.862V25zm8.821 0h-1.862v-3.248h-2.884V25h-1.862v-7.756h1.862V20.1h2.884v-2.856h1.862V25zm11.061 0h-1.862v-7.756h1.862V25zm-2.716-2.52c0 .765-.242 1.377-.728 1.834-.485.457-1.11.686-1.876.686h-3.528v-7.756h1.862v2.716h1.666c.859 0 1.517.252 1.974.756.42.457.63 1.045.63 1.764zm-1.862 0c0-.233-.06-.425-.182-.574-.168-.196-.42-.294-.756-.294h-1.47v1.736h1.47c.29 0 .518-.07.686-.21.168-.15.252-.369.252-.658zM184.51 25h-2.296l-1.568-2.506L179.078 25h-2.296l2.618-3.976-2.408-3.78h2.17l1.47 2.324 1.47-2.324h2.17l-2.464 3.78L184.51 25zm-82.95 4.874c0 .84-.238 1.535-.714 2.086-.644.747-1.643 1.12-2.996 1.12h-.98V37h-1.918V26.64h2.898c1.437 0 2.469.415 3.094 1.246.411.55.616 1.213.616 1.988zm-1.918-.014c0-.55-.21-.933-.63-1.148-.27-.14-.607-.21-1.008-.21H96.87v2.716h1.134c.57 0 .985-.117 1.246-.35.261-.233.392-.57.392-1.008zM111.018 37h-1.708v-1.05c-.308.42-.691.742-1.148.966a3.24 3.24 0 01-1.47.336 3.587 3.587 0 01-2.632-1.092c-.775-.775-1.162-1.764-1.162-2.968s.369-2.203 1.106-2.996c.747-.803 1.661-1.204 2.744-1.204 1.12 0 1.965.448 2.534 1.344l.028-1.092h1.708V37zm-1.75-3.892c0-.681-.205-1.241-.616-1.68-.401-.448-.938-.672-1.61-.672-.663 0-1.209.229-1.638.686-.429.457-.644 1.04-.644 1.75 0 .663.21 1.213.63 1.652.429.43.98.644 1.652.644.663 0 1.199-.22 1.61-.658.411-.439.616-1.013.616-1.722zm11.748 1.372c-.298.85-.779 1.526-1.442 2.03-.653.495-1.451.742-2.394.742-1.362 0-2.44-.453-3.234-1.358-.7-.793-1.05-1.736-1.05-2.828 0-1.036.336-1.941 1.008-2.716.784-.905 1.853-1.358 3.206-1.358.962 0 1.788.257 2.478.77.691.513 1.167 1.2 1.428 2.058h-2.1a1.808 1.808 0 00-.742-.798c-.308-.177-.672-.266-1.092-.266-.718 0-1.288.229-1.708.686-.41.448-.616.999-.616 1.652 0 .681.21 1.25.63 1.708.42.457.985.686 1.694.686.439 0 .808-.084 1.106-.252a1.89 1.89 0 00.728-.756h2.1zm8.479 2.52h-1.862v-6.104h-2.884V37h-1.862v-7.756h6.608V37zm10.333-3.878c0 1.12-.34 2.072-1.022 2.856-.737.85-1.694 1.274-2.87 1.274-.41 0-.788-.065-1.134-.196a2.7 2.7 0 01-1.204-.896l-.028 3.43h-1.862V29.244h1.708v1.008a2.63 2.63 0 011.288-1.036c.392-.15.803-.224 1.232-.224 1.092 0 2.012.383 2.758 1.148.756.756 1.134 1.75 1.134 2.982zm-1.862-.014c0-.597-.172-1.115-.518-1.554-.42-.532-.989-.798-1.708-.798-.672 0-1.222.224-1.652.672-.42.439-.63 1.003-.63 1.694 0 .728.206 1.307.616 1.736.42.42.952.63 1.596.63.672 0 1.223-.224 1.652-.672.43-.448.644-1.017.644-1.708zm11.525.028c0 1.139-.392 2.11-1.176 2.912-.784.803-1.764 1.204-2.94 1.204-1.167 0-2.147-.397-2.94-1.19-.784-.803-1.176-1.778-1.176-2.926 0-1.148.387-2.123 1.162-2.926.784-.812 1.768-1.218 2.954-1.218 1.176 0 2.156.401 2.94 1.204.784.803 1.176 1.783 1.176 2.94zm-1.862 0c0-.663-.206-1.223-.616-1.68-.411-.467-.957-.7-1.638-.7-.672 0-1.218.233-1.638.7-.411.457-.616 1.017-.616 1.68s.205 1.223.616 1.68c.41.448.956.672 1.638.672.662 0 1.204-.229 1.624-.686.42-.457.63-1.013.63-1.666zm12.287 5.824h-1.82V37h-5.572v1.96h-1.82v-3.612h.924l2.842-6.104h1.68l2.842 6.104h.924v3.612zm-3.024-3.612l-1.582-3.584-1.582 3.584h3.164zM169.249 37h-1.708v-1.05a3.09 3.09 0 01-1.148.966 3.24 3.24 0 01-1.47.336 3.588 3.588 0 01-2.632-1.092c-.774-.775-1.162-1.764-1.162-2.968s.369-2.203 1.106-2.996c.747-.803 1.662-1.204 2.744-1.204 1.12 0 1.965.448 2.534 1.344l.028-1.092h1.708V37zm-1.75-3.892c0-.681-.205-1.241-.616-1.68-.401-.448-.938-.672-1.61-.672-.662 0-1.208.229-1.638.686-.429.457-.644 1.04-.644 1.75 0 .663.21 1.213.63 1.652.43.43.98.644 1.652.644.663 0 1.2-.22 1.61-.658.411-.439.616-1.013.616-1.722zM182.243 37h-2.198l-2.52-3.724V37h-1.862v-3.724L173.143 37h-2.198l2.828-4.06-2.66-3.696h2.198l2.352 3.556v-3.556h1.862V32.8l2.352-3.556h2.198l-2.66 3.696 2.828 4.06z"/><defs><clipPath id="clip0_401_994"><path fill="#fff" d="M0 0h39v39H0z"/></clipPath></defs></svg>