<svg width="441" height="37" fill="none" xmlns="http://www.w3.org/2000/svg"><g clip-path="url(#clip0_3_3)" fill="#E30613"><path d="M25.751 8.377c1.024 0 1.89.854 1.89 1.862s-.866 1.862-1.89 1.862-1.89-.854-1.89-1.862.866-1.862 1.89-1.862zM14.57 35.216c-.788 0-1.497-.62-1.497-1.396 0-.776.63-1.474 1.497-1.474.787 0 1.496.62 1.496 1.474 0 .775-.709 1.396-1.496 1.396zm3.07-28.157c1.811 0 3.308-1.474 3.308-3.18 0-1.785-1.497-3.18-3.308-3.18-1.811 0-3.308 1.473-3.308 3.18.08 1.783 1.497 3.18 3.308 3.18zm0-4.422c.709 0 1.26.543 1.26 1.241 0 .699-.551 1.241-1.26 1.241s-1.26-.542-1.26-1.24c0-.699.551-1.242 1.26-1.242zm13.23 14.195H15.907c-.63 0-1.102.466-1.102 1.086 0 .62.473 1.086 1.103 1.086H30.87v2.172H17.167c-.63 0-1.102.466-1.102 1.086 0 .62.473 1.086 1.102 1.086H30.87v2.25H14.884L8.82 8.067c-.079-.311-.394-.466-.709-.466H1.102C.473 7.447 0 7.912 0 8.532c0 .621.472 1.086 1.103 1.086h5.906l5.591 16.29a.944.944 0 00-.551.543l-1.654 4.033c-.079.31-.079.543.079.853a.943.943 0 00.708.388h.867c-.551.543-.867 1.319-.867 2.172 0 1.784 1.497 3.258 3.308 3.258 1.811 0 3.307-1.474 3.307-3.258 0-.853-.314-1.551-.866-2.172h8.82c-.551.543-.866 1.319-.866 2.172 0 1.784 1.496 3.258 3.307 3.258 1.812 0 3.308-1.474 3.308-3.258 0-.853-.315-1.551-.866-2.172h1.023c.473 0 .945-.388.945-.93a.95.95 0 00-.944-.931H12.6l1.024-2.327c.157.077.236.077.393.077h17.64c.473 0 1.024-.388 1.024-.853V13.419c0-.543-.472-1.24-1.26-1.24h-2.284c.316-.544.552-1.242.552-1.94 0-2.094-1.733-3.878-3.938-3.878s-3.937 1.706-3.937 3.878c0 .698.157 1.396.551 1.94H19.53l6.379-10.705c.315-.466.079-1.086-.394-1.396-.473-.31-1.102-.078-1.418.387l-6.93 11.713h-3.622c-.63 0-1.102.466-1.102 1.086 0 .62.472 1.086 1.102 1.086H30.87v2.482zm-2.599 18.384c-.787 0-1.496-.62-1.496-1.396 0-.776.63-1.474 1.496-1.474.788 0 1.496.62 1.496 1.474 0 .775-.63 1.396-1.496 1.396z"/><path fill-rule="evenodd" clip-rule="evenodd" d="M55.282 18.461h-.157l-1.339 2.948-1.339 2.87c-.157.465-.393.698-.63.93-.236.156-.472.233-.866.233H49.22c-.473 0-.709-.077-.945-.232a2.416 2.416 0 01-.552-.931l-1.18-2.327-1.497-3.18h-.157v8.3c0 .232-.08.387-.158.465-.079.077-.236.077-.472.077h-3.623c-.157 0-.315 0-.472-.077-.08-.078-.158-.155-.158-.466v-15.59c0-.777.157-1.32.472-1.63.316-.31.788-.388 1.418-.388h2.047c.552 0 .946.078 1.182.31.236.233.472.544.709 1.009l2.126 4.266 2.047 4.266h.079l2.047-4.188 2.127-4.266c.236-.466.472-.776.787-1.009.315-.233.788-.31 1.418-.31h1.654c.314 0 .55 0 .787.077.236.078.394.156.551.233.158.155.315.31.394.543.079.233.157.543.157.931v15.746c0 .233-.078.388-.157.466-.079.077-.236.077-.473.077h-3.465c-.157 0-.315 0-.472-.077-.079-.078-.157-.155-.157-.466v-8.61zm17.326-4.344h2.834c.237 0 .473.233.473.466v12.566c0 .233-.236.465-.473.465h-2.834c-.237 0-.473-.232-.473-.465v-.62c-.63.542-1.26.93-1.89 1.085-.866.31-1.654.31-1.969.31-1.811 0-3.543-.698-4.803-2.094-1.182-1.24-1.89-2.87-1.89-4.964 0-2.095.708-3.879 1.968-5.12 1.26-1.318 2.914-2.094 4.883-2.094.945 0 1.89.233 2.599.62.393.233.787.466 1.102.854v-.543c.079-.31.236-.466.472-.466zm-1.418 4.267a3.227 3.227 0 00-2.284-.931c-.945 0-1.811.388-2.362 1.008-.63.62-.945 1.474-.945 2.56 0 .93.315 1.784.945 2.405.551.543 1.417.93 2.362.93.945 0 1.733-.31 2.284-.93.551-.621.866-1.474.866-2.483.079-1.086-.236-1.939-.866-2.56zm6.773 8.765V14.583c0-.233.236-.466.472-.466h7.245c.236 0 .472.233.472.466v2.637c0 .233-.236.466-.472.466H81.9v9.463c0 .233-.236.465-.473.465h-3.07c-.237-.077-.394-.232-.394-.465zM97.57 14.117h2.835c.236 0 .473.233.473.466v12.566c0 .233-.237.465-.473.465H97.57c-.236 0-.472-.232-.472-.465v-.62c-.63.542-1.26.93-1.89 1.085-.867.31-1.654.31-1.969.31-1.811 0-3.544-.698-4.804-2.094-1.181-1.24-1.89-2.87-1.89-4.964 0-2.095.709-3.879 1.969-5.12 1.26-1.318 2.914-2.094 4.882-2.094 1.024 0 1.89.233 2.6.62.393.233.787.466 1.102.854v-.543c0-.31.157-.466.472-.466zm-1.496 4.267a3.227 3.227 0 00-2.284-.931c-.945 0-1.811.388-2.362 1.008-.552.62-.945 1.474-.945 2.56 0 .93.315 1.784.945 2.405.551.543 1.417.93 2.362.93.945 0 1.733-.31 2.363-.93.551-.621.866-1.474.866-2.483 0-1.086-.315-1.939-.945-2.56zm10.71-.698c-.157.155-.236.387-.315.62 0 .233-.236.465-.472.465h-3.072c-.236 0-.472-.232-.394-.465.079-1.241.552-2.482 1.497-3.335.787-.776 1.968-1.241 3.386-1.241 1.496 0 2.677.387 3.465 1.008a3.798 3.798 0 011.418 2.948c0 .698-.237 1.396-.63 1.939-.237.31-.473.543-.788.698.394.233.709.543.945.853.473.62.709 1.396.709 2.25 0 1.318-.473 2.482-1.418 3.335-.866.776-2.126 1.241-3.701 1.241h-.158c-1.968-.078-3.228-.776-3.937-1.784-.788-1.008-1.024-2.172-1.024-3.18v-.078c0-.233.237-.465.473-.465h3.071c.236 0 .472.232.472.465 0 .388.079.776.394 1.009.236.232.473.31.945.31.079 0 .315 0 .63-.155.237-.078.394-.31.394-.776 0-.465-.157-.62-.315-.776-.236-.077-.473-.155-.551-.155h-.709c-.236 0-.473-.233-.473-.465v-2.56c0-.233.237-.465.473-.465h.551c.315 0 .552-.078.709-.233a.87.87 0 00.236-.62c0-.389-.157-.544-.236-.621-.157-.078-.394-.155-.551-.155-.63.155-.866.232-1.024.388zm7.166 9.463V14.583c0-.233.237-.466.473-.466h3.071c.236 0 .472.233.472.466v6.67l4.804-6.903a.434.434 0 01.394-.233h3.071c.237 0 .473.233.473.466v12.566c0 .233-.236.465-.473.465h-3.071c-.236 0-.472-.232-.472-.465V20.4l-4.804 6.904a.435.435 0 01-.394.233h-3.071c-.315 0-.473-.155-.473-.388zm14.726 0V14.583c0-.233.237-.466.473-.466h3.071c.236 0 .473.233.473.466v4.188h3.858v-4.188c0-.233.237-.466.473-.466h3.071c.236 0 .473.233.473.466v12.566c0 .233-.237.465-.473.465h-3.071c-.236 0-.473-.232-.473-.465v-4.81h-3.858v4.81c0 .233-.237.465-.473.465h-3.071c-.315-.077-.473-.232-.473-.465zm34.888-.155c0 .232 0 .31-.079.388-.079.077-.236.077-.551.077h-3.702c-.393 0-.63-.155-.63-.543V13.652h-5.827v13.342c0 .232 0 .31-.079.388-.079.077-.236.077-.551.077h-3.701c-.394 0-.63-.155-.63-.543V11.17c0-.543.078-1.009.315-1.319.236-.31.708-.388 1.417-.388h12.364c.709 0 1.181.155 1.417.388.237.31.315.698.315 1.319v15.824h-.078zm3.465-11.248c1.26-1.24 3.071-2.016 5.118-2.016 2.048 0 3.859.775 5.119 2.016 1.339 1.319 2.126 3.103 2.126 5.12 0 1.939-.787 3.8-2.126 5.042-1.26 1.24-3.071 2.016-5.119 2.016-2.047 0-3.858-.775-5.118-2.016a7.044 7.044 0 01-2.127-5.042c.079-2.017.867-3.801 2.127-5.12zm7.481 2.638a3.228 3.228 0 00-2.284-.931 3.23 3.23 0 00-2.284.93c-.63.621-.945 1.552-.945 2.483 0 .93.315 1.784.945 2.404a3.23 3.23 0 002.284.931c.945 0 1.733-.388 2.284-.93.63-.621.945-1.474.945-2.405 0-.931-.315-1.862-.945-2.482zm14.332 5.662c.473-.155 1.024-.543 1.418-1.163a.434.434 0 01.394-.233h3.622c.236.078.394.31.315.543-.551 1.474-1.417 2.715-2.599 3.568-1.102.776-2.52 1.241-4.173 1.241-2.284 0-4.095-.776-5.277-2.017-1.496-1.396-2.205-3.413-2.205-5.274 0-3.103 2.284-7.059 7.403-7.059 1.654 0 3.15.465 4.331 1.319 1.181.853 2.048 2.094 2.52 3.568v.155c0 .233-.236.465-.472.465h-3.465a.434.434 0 01-.394-.232 2.753 2.753 0 00-1.024-1.086 3.628 3.628 0 00-1.575-.388c-1.024 0-1.89.388-2.441.93-.63.621-.945 1.474-.945 2.405 0 1.009.315 1.862.945 2.482.551.621 1.417.931 2.441.931.158 0 .709 0 1.181-.155zm6.143-6.826v-2.715c0-.232.236-.465.472-.465h9.214c.236 0 .473.233.473.465v2.715c0 .233-.237.466-.473.466h-2.599v9.463c0 .233-.236.465-.472.465h-3.071c-.237 0-.473-.232-.473-.465v-9.463h-2.599c-.236 0-.472-.233-.472-.466zm12.679-1.474c1.26-1.24 3.071-2.016 5.118-2.016 2.048 0 3.859.775 5.119 2.016 1.339 1.319 2.126 3.103 2.126 5.12 0 1.939-.787 3.8-2.126 5.042-1.26 1.24-3.071 2.016-5.119 2.016-2.047 0-3.858-.775-5.118-2.016a7.044 7.044 0 01-2.127-5.042c0-2.017.788-3.801 2.127-5.12zm7.402 2.638a3.228 3.228 0 00-2.284-.931c-.945 0-1.732.388-2.283.93-.63.621-.945 1.552-.945 2.483 0 .93.315 1.784.945 2.404a3.225 3.225 0 002.283.931c.945 0 1.733-.388 2.284-.93.63-.621.945-1.474.945-2.405 0-.931-.315-1.862-.945-2.482zm11.183-4.267h5.591c.236 0 .472.233.472.466v12.566c0 .233-.236.465-.472.465h-3.071c-.237 0-.473-.232-.473-.465v-3.49l-2.914 3.8a.433.433 0 01-.393.233h-3.859c-.079 0-.236 0-.315-.078-.158-.155-.236-.465-.079-.62l3.386-3.879c-.787-.232-1.417-.698-1.968-1.24-.709-.776-1.024-1.862-1.024-2.948 0-1.241.472-2.482 1.496-3.336.866-1.008 2.048-1.474 3.623-1.474zm.078 5.818h1.89v-2.25h-1.89c-.393 0-.708.078-.945.31-.236.233-.315.544-.315.932 0 .31.158.62.315.775.237.155.63.233.945.233zm7.954 7.214V14.583c0-.233.236-.466.473-.466h3.071c.236 0 .472.233.472.466v4.188h3.859v-4.188c0-.233.236-.466.473-.466h3.071c.236 0 .472.233.472.466v12.566c0 .233-.236.465-.472.465h-3.15c-.236 0-.473-.232-.473-.465v-4.81h-3.858v4.81c0 .233-.237.465-.473.465h-3.071c-.158-.077-.394-.232-.394-.465zm13.86 0V14.583c0-.233.236-.466.473-.466h3.071c.236 0 .472.233.472.466v4.188h3.859v-4.188c0-.233.236-.466.473-.466h3.071c.236 0 .472.233.472.466v12.566c0 .233-.236.465-.472.465h-3.071c-.237 0-.473-.232-.473-.465v-4.81h-3.859v4.81c0 .233-.236.465-.472.465h-3.071c-.315-.077-.473-.232-.473-.465zm13.86 0V14.583a.45.45 0 01.473-.466h3.071c.236 0 .472.233.472.466v3.956h2.284c1.496 0 2.678.465 3.386 1.24.867.854 1.339 2.095 1.339 3.336 0 1.397-.472 2.483-1.339 3.258-.866.776-2.047 1.241-3.465 1.241h-5.827c-.236-.077-.394-.232-.394-.465zm5.906-5.042h-1.968v1.94h1.968c.079 0 .394 0 .63-.156.237-.078.473-.31.473-.853 0-.233-.079-.543-.236-.698-.237-.155-.473-.233-.867-.233zm9.057 5.43h-3.072c-.236 0-.472-.233-.472-.466V14.583c0-.233.236-.466.472-.466h3.072c.236 0 .472.233.472.466v12.566c0 .233-.236.388-.472.388zm5.591 0h-3.78c-.079 0-.158 0-.236-.078-.237-.155-.237-.388-.158-.62l4.174-6.206-3.78-5.817c-.079-.078-.079-.156-.079-.31 0-.233.236-.466.473-.466h3.543c.158 0 .315.077.394.233l2.048 3.18 2.047-3.18a.434.434 0 01.394-.233h3.544c.078 0 .157 0 .236.077.236.155.236.388.157.621l-3.858 5.895 4.252 6.206c.079.077.079.155.079.31 0 .233-.236.465-.473.465h-3.78a.433.433 0 01-.393-.232l-2.205-3.491-2.205 3.413a.435.435 0 01-.394.233zm26.381-11.946c0-.155 0-.388-.078-.62-.079-.233-.158-.466-.316-.62-.157-.156-.314-.389-.551-.466-.236-.155-.551-.233-.945-.233h-2.835v3.878h2.835c.63 0 1.103-.232 1.418-.62.315-.31.472-.776.472-1.319zm16.38-1.474h2.835c.237 0 .473.233.473.466v12.566c0 .233-.236.465-.473.465h-2.835c-.236 0-.472-.232-.472-.465v-.62c-.63.542-1.26.93-1.89 1.085-.866.31-1.654.31-1.969.31-1.811 0-3.544-.775-4.804-2.094-1.181-1.24-1.89-2.87-1.89-4.964 0-2.095.709-3.879 1.89-5.197 1.26-1.319 2.914-2.095 4.883-2.095.945 0 1.89.233 2.598.621.394.233.788.465 1.103.853v-.543a.592.592 0 01.551-.388zm-1.417 4.267a3.23 3.23 0 00-2.284-.931c-.945 0-1.811.388-2.363 1.008-.63.62-.944 1.474-.944 2.56 0 .93.314 1.784.944 2.405.552.543 1.418.93 2.363.93.945 0 1.732-.31 2.362-.93.552-.621.867-1.474.867-2.483-.079-1.086-.394-2.016-.945-2.56zm14.726 5.662a2.38 2.38 0 001.339-1.163.434.434 0 01.394-.233h3.622c.236.078.394.31.236.543-.551 1.474-1.417 2.715-2.599 3.568-1.102.776-2.52 1.241-4.173 1.241-2.284 0-4.095-.776-5.277-2.017-1.496-1.396-2.205-3.413-2.205-5.274 0-3.103 2.284-7.059 7.403-7.059 1.654 0 3.15.465 4.331 1.319 1.181.853 2.048 2.094 2.52 3.568v.155c0 .233-.236.465-.472.465h-3.465a.434.434 0 01-.394-.232 2.753 2.753 0 00-1.024-1.086c-.472-.233-.945-.388-1.575-.388-1.024 0-1.89.388-2.441.93-.63.621-.945 1.474-.945 2.405 0 1.009.315 1.862.945 2.482.551.621 1.417.931 2.441.931.394 0 .866 0 1.339-.155zm7.245 3.103V14.505c0-.232.236-.465.472-.465h10.868c.236 0 .473.233.473.465V27.15c0 .233-.237.465-.473.465h-3.071c-.236 0-.473-.232-.473-.465v-9.463h-3.858v9.463c0 .233-.237.465-.473.465h-3.071c-.236-.077-.394-.232-.394-.465zm17.325 4.654h-3.071c-.237 0-.473-.233-.473-.466V14.505c0-.232.236-.465.473-.465h2.835c.236 0 .472.233.472.465v.466c.315-.31.709-.543 1.024-.698 1.024-.466 2.048-.621 2.678-.621 1.89 0 3.701.776 4.961 2.094 1.181 1.241 1.89 2.948 1.89 5.12 0 1.939-.709 3.8-1.969 5.12-1.181 1.24-2.835 2.016-4.882 2.016-.552 0-1.26-.078-2.048-.388-.472-.155-.945-.465-1.418-.853v4.499c0 .31-.236.543-.472.543zm6.772-11.015c0-1.474-.944-3.335-3.228-3.335-.945 0-1.811.388-2.363.93a3.716 3.716 0 00-.945 2.483c0 1.086.315 1.861.867 2.482.551.62 1.417.93 2.283.93.945 0 1.811-.387 2.363-.93.708-.698 1.023-1.551 1.023-2.56zm6.852-5.042a7.31 7.31 0 015.119-2.094c2.047 0 3.858.776 5.118 2.094 1.339 1.319 2.127 3.103 2.127 5.12 0 1.939-.788 3.8-2.127 5.042a7.31 7.31 0 01-5.118 2.094c-2.048 0-3.859-.776-5.119-2.094a7.044 7.044 0 01-2.127-5.042c0-2.017.788-3.801 2.127-5.12zm7.402 2.638c-.551-.62-1.339-.931-2.283-.931a3.23 3.23 0 00-2.284.93c-.63.621-.945 1.552-.945 2.483 0 .93.315 1.784.945 2.404a3.226 3.226 0 002.284.931 3.23 3.23 0 002.283-.93c.63-.621.945-1.474.945-2.405 0-.931-.315-1.862-.945-2.482zm12.049-4.267h2.756c.158 0 .315.078.394.233l4.567 9.619h1.26c.237 0 .473.232.473.465v5.895c0 .233-.236.466-.473.466h-2.992c-.236 0-.472-.233-.472-.466v-2.715h-8.269v2.715c0 .233-.236.466-.473.466h-2.992c-.237 0-.473-.233-.473-.466v-5.895c0-.233.236-.465.473-.465h1.26l4.567-9.619c0-.155.158-.233.394-.233zm1.339 5.585l-1.89 4.267h3.78l-1.89-4.267zm19.451-5.585h2.835c.236 0 .472.233.472.466v12.566c0 .233-.236.465-.472.465h-2.835c-.236 0-.473-.232-.473-.465v-.62c-.63.542-1.26.93-1.89 1.085-.866.31-1.653.31-1.968.31-1.812 0-3.544-.775-4.804-2.094-1.181-1.24-1.89-2.87-1.89-4.964 0-2.095.709-3.879 1.969-5.197 1.26-1.319 2.913-2.095 4.882-2.095 1.024 0 1.89.233 2.678.621.394.233.787.465 1.102.853v-.543c-.079-.232.158-.388.394-.388zm-1.418 4.267a3.225 3.225 0 00-2.283-.931c-.945 0-1.811.388-2.363 1.008-.551.62-.945 1.474-.945 2.56 0 .93.315 1.784.945 2.405.552.543 1.418.93 2.363.93.945 0 1.732-.31 2.283-.93.552-.621.867-1.474.867-2.483.079-1.086-.315-2.016-.867-2.56zm17.168 9.153h-3.071c-.236 0-.473-.233-.473-.466v-4.576l-3.307 4.809a.434.434 0 01-.394.233h-3.623c-.078 0-.157 0-.236-.078-.236-.155-.236-.388-.078-.62l4.488-6.361-4.174-5.74c-.078-.078-.078-.155-.078-.31 0-.233.236-.466.472-.466h3.623c.157 0 .315.078.394.233l3.071 4.499v-4.266c0-.233.236-.466.472-.466h3.071c.237 0 .473.233.473.466v4.266l2.993-4.499a.433.433 0 01.393-.233h3.623c.078 0 .157 0 .236.078.236.155.236.388.079.62l-4.174 5.74 4.489 6.283c.078.078.079.156.079.233 0 .233-.237.466-.473.466h-3.623a.433.433 0 01-.393-.233l-3.308-4.81v4.81a.592.592 0 01-.551.388zm-128.599-.466c0 .233 0 .31-.078.388-.079.078-.237.078-.552.078h-3.701c-.394 0-.63-.155-.63-.543V11.17c0-.466.079-.853.315-1.241.236-.31.709-.543 1.418-.543h6.693c1.024 0 1.969.155 2.757.465.787.31 1.496.698 2.047 1.241.551.543.945 1.164 1.26 1.862.315.698.394 1.474.394 2.327 0 .31 0 .62-.079 1.008s-.158.854-.315 1.319c-.158.465-.394.93-.709 1.396-.315.466-.709.853-1.26 1.241-.551.388-1.181.62-1.969.854-.787.232-1.732.31-2.835.31h-2.598v5.662h-.158z"/></g><defs><clipPath id="clip0_3_3"><path fill="#fff" d="M0 0h441v37H0z"/></clipPath></defs></svg>