<svg width="30" height="30" fill="none" xmlns="http://www.w3.org/2000/svg"><path d="M26.969.033L2.6.337A2.59 2.59 0 00.032 2.97l.305 24.373a2.59 2.59 0 002.633 2.569l24.368-.305a2.59 2.59 0 002.568-2.633L29.602 2.6C29.68 1.155 28.414.015 26.969.033z" fill="#fff"/><path d="M14.983 15.841c2.388-.03 4.325-1.937 4.297-4.23-.029-2.291-2.014-4.15-4.402-4.12-2.387.03-4.325 1.937-4.297 4.23.03 2.292 2.014 4.15 4.402 4.12zm-.075-5.976c1.024-.013 1.801.796 1.813 1.697.012.982-.832 1.73-1.77 1.742-1.023.012-1.801-.797-1.812-1.697-.011-.9.746-1.73 1.77-1.742z" fill="#4E5A65"/><path d="M17.198 19.499c1.056-.197 2.214-.672 3.16-1.144.737-.377.937-1.3.506-1.939-.432-.638-1.492-.81-2.228-.432-2.208 1.224-5.065 1.26-7.302.091-.745-.358-1.696-.162-2.217.488-.415.65-.193 1.475.554 1.926.959.54 2.022.895 3.188 1.064L9.824 22.26c-.628.56-.618 1.388.024 1.932.32.272.745.359 1.168.354.424-.006.846-.103 1.16-.383l2.93-2.613 2.996 2.539a1.698 1.698 0 002.222-.028c.628-.56.618-1.388-.024-1.932l-3.102-2.63z" fill="#4E5A65"/></svg>