<svg width="30" height="30" fill="none" xmlns="http://www.w3.org/2000/svg"><path d="M26.927.033L2.648.336A2.632 2.632 0 00.033 3.017l.303 24.279a2.644 2.644 0 002.682 2.615l24.278-.303a2.644 2.644 0 002.615-2.682l-.303-24.278A2.644 2.644 0 0026.927.033zm-2.819 9.073c-.837 4.195-1.674 8.39-2.512 12.566a2.318 2.318 0 01-.214.63c-.198.366-.52.512-.925.395a2.056 2.056 0 01-.57-.255 293.184 293.184 0 01-4.06-2.901c-.06-.04-.101-.08-.183-.12a.473.473 0 00-.14.144c-.679.655-1.358 1.33-2.037 1.986a1 1 0 01-.744.313l.05-.79.2-3.439c0-.08.059-.183.119-.244 2.578-2.377 5.156-4.755 7.735-7.112.02-.02.04-.02.06-.041.04-.082.1-.184.138-.285-.121-.019-.223-.078-.344-.057-.121.022-.241.105-.362.167-3.21 2.062-6.438 4.144-9.647 6.206a.404.404 0 01-.263.044L6.27 15.09c-.283-.078-.528-.196-.693-.477 0-.08-.002-.142-.003-.222.158-.326.439-.511.76-.637 1.248-.5 2.516-1.002 3.763-1.502 4.305-1.712 8.59-3.423 12.896-5.115a.847.847 0 01.322-.085c.585-.088.994.25.981.857-.015.385-.111.79-.187 1.196z" fill="#fff"/></svg>