<svg width="160" height="37" fill="none" xmlns="http://www.w3.org/2000/svg"><path d="M27.03 3.032l-24.505.306C1.122 3.355.015 4.507.032 5.928l.305 24.456c.018 1.402 1.154 2.546 2.557 2.528l24.525-.306c1.383-.017 2.51-1.17 2.493-2.591l-.305-24.456c-.038-1.421-1.174-2.545-2.577-2.527zM23.204 15.98l.002.223c-1.783.022-3.353-.527-4.789-1.565l.003.223c.028 2.214.075 4.408.103 6.622.015 1.198-.252 2.319-.92 3.322-1.062 1.639-2.574 2.552-4.516 2.739-.06 0-.14.022-.2.043l-.36.004c-.421-.056-.843-.09-1.265-.167-2.33-.499-4.18-2.528-4.49-4.921-.42-3.184 1.667-6.095 4.807-6.663.6-.109 1.22-.137 1.843-.023l.04 3.149c-.161-.039-.322-.057-.482-.076-1.526-.204-2.955.89-3.137 2.396-.2 1.608.88 3.016 2.445 3.2 1.566.204 3.153-1.055 3.11-2.924-.049-2.274-.057-4.53-.085-6.804l-.076-6.033-.003-.244 3.046-.038c.044.325.088.65.152.953.468 2.127 2.351 3.709 4.496 3.743.18-.002.24.058.243.24l.033 2.6zM56.95 4.372l1.265-.033.517 20.117-1.264.032z" fill="#fff"/><path fill="#fff" d="M56.95 4.372l1.265-.033.517 20.117-1.264.032z"/><path fill="#fff" d="M56.95 4.372l1.265-.033.517 20.117-1.264.032zm6.952-.179l1.265-.033.517 20.117-1.264.032z"/><path fill="#fff" d="M70.68 9.175l.12 1.292-19.51 1.898-.122-1.292z"/><path fill="#fff" d="M70.68 9.175l.12 1.292-19.51 1.898-.122-1.292z"/><path fill="#fff" d="M70.68 9.175l.12 1.292-19.51 1.898-.122-1.292zm.665 7.109l.12 1.292-19.51 1.898-.121-1.292zM93.372 10h-1.507V3.906L89.698 10h-1.276l-2.167-6.094V10h-1.507V1.86h2.046l2.266 6.226 2.266-6.226h2.046V10zm7.963 0h-1.342v-.825c-.242.33-.542.583-.902.759a2.546 2.546 0 01-1.155.264 2.819 2.819 0 01-2.068-.858c-.608-.609-.913-1.386-.913-2.332s.29-1.73.87-2.354c.586-.63 1.304-.946 2.155-.946.88 0 1.544.352 1.991 1.056l.022-.858h1.342V10zM99.96 6.942c0-.535-.161-.975-.484-1.32-.315-.352-.737-.528-1.265-.528-.52 0-.95.18-1.287.539-.337.36-.506.818-.506 1.375 0 .52.165.953.495 1.298.338.337.77.506 1.298.506.52 0 .942-.172 1.265-.517.323-.345.484-.796.484-1.353zm6.569-1.738h-1.991V10h-1.463V3.906h3.454v1.298zM113.876 10h-1.342v-.825c-.242.33-.543.583-.902.759a2.546 2.546 0 01-1.155.264 2.818 2.818 0 01-2.068-.858c-.609-.609-.913-1.386-.913-2.332s.289-1.73.869-2.354c.586-.63 1.305-.946 2.156-.946.88 0 1.543.352 1.991 1.056l.022-.858h1.342V10zm-1.375-3.058c0-.535-.162-.975-.484-1.32-.316-.352-.737-.528-1.265-.528-.521 0-.95.18-1.287.539-.338.36-.506.818-.506 1.375 0 .52.165.953.495 1.298.337.337.77.506 1.298.506.52 0 .942-.172 1.265-.517.322-.345.484-.796.484-1.353zm7.261 1.265c0 .594-.201 1.074-.605 1.441-.403.367-.942.55-1.617.55-.821 0-1.422-.257-1.804-.77-.293-.396-.44-.891-.44-1.485h1.463c0 .242.063.44.187.594.154.183.371.275.649.275a.763.763 0 00.506-.165c.132-.11.198-.268.198-.473 0-.264-.088-.447-.264-.55a.765.765 0 00-.385-.088h-.341V6.282h.275c.228 0 .389-.055.484-.165a.627.627 0 00.154-.429c0-.242-.077-.41-.231-.506a.728.728 0 00-.385-.088.678.678 0 00-.484.176.633.633 0 00-.209.44h-1.463c0-.55.191-1.02.572-1.408.389-.396.906-.594 1.551-.594.682 0 1.21.176 1.584.528.33.308.495.7.495 1.177 0 .3-.091.568-.275.803a1.483 1.483 0 01-.715.495c.36.088.631.268.814.539.191.271.286.59.286.957zM126.857 10h-1.463V6.051L122.688 10h-1.463V3.906h1.463v3.949l2.706-3.949h1.463V10zm6.931 0h-1.463V7.448h-2.266V10h-1.463V3.906h1.463V6.15h2.266V3.906h1.463V10zM90.732 22h-1.507v-6.677h-2.97V22h-1.507v-8.14h5.984V22zm8.049-3.036c0 .895-.308 1.657-.924 2.288-.616.63-1.386.946-2.31.946-.917 0-1.687-.312-2.31-.935-.616-.63-.924-1.397-.924-2.299 0-.902.304-1.668.913-2.299.616-.638 1.39-.957 2.32-.957.925 0 1.695.315 2.31.946.617.63.925 1.4.925 2.31zm-1.463 0c0-.52-.162-.96-.484-1.32-.323-.367-.752-.55-1.287-.55-.528 0-.957.183-1.287.55-.323.36-.484.8-.484 1.32s.16.96.484 1.32c.322.352.751.528 1.287.528.52 0 .946-.18 1.276-.539.33-.36.495-.796.495-1.309zm9.005 1.056c-.235.667-.613 1.199-1.133 1.595-.514.389-1.141.583-1.881.583-1.071 0-1.918-.356-2.541-1.067-.55-.623-.825-1.364-.825-2.222 0-.814.264-1.525.792-2.134.616-.711 1.455-1.067 2.519-1.067.755 0 1.404.202 1.947.605.542.403.916.942 1.122 1.617h-1.65a1.43 1.43 0 00-.583-.627 1.69 1.69 0 00-.858-.209c-.565 0-1.012.18-1.342.539-.323.352-.484.785-.484 1.298 0 .535.165.983.495 1.342.33.36.773.539 1.331.539.344 0 .634-.066.869-.198.234-.132.425-.33.572-.594h1.65zm5.375-2.816h-1.463V22h-1.463v-4.796h-1.463v-1.298h4.389v1.298zm7.424 1.76c0 .895-.308 1.657-.924 2.288-.616.63-1.386.946-2.31.946-.917 0-1.687-.312-2.31-.935-.616-.63-.924-1.397-.924-2.299 0-.902.304-1.668.913-2.299.616-.638 1.39-.957 2.321-.957.924 0 1.694.315 2.31.946.616.63.924 1.4.924 2.31zm-1.463 0c0-.52-.161-.96-.484-1.32-.323-.367-.752-.55-1.287-.55-.528 0-.957.183-1.287.55-.323.36-.484.8-.484 1.32s.161.96.484 1.32c.323.352.752.528 1.287.528.521 0 .946-.18 1.276-.539.33-.36.495-.796.495-1.309zM125.3 22h-1.463v-2.343L122.033 22h-1.826l1.837-2.156c-.499-.059-.895-.264-1.188-.616-.286-.36-.429-.792-.429-1.298 0-.557.191-1.027.572-1.408.411-.41.961-.616 1.65-.616h2.651V22zm-1.463-3.267v-1.529h-1.133c-.249 0-.447.073-.594.22-.147.147-.22.341-.22.583 0 .242.077.425.231.55a.934.934 0 00.583.176h1.133zM132.231 22h-1.463v-2.552h-2.266V22h-1.463v-6.094h1.463v2.244h2.266v-2.244h1.463V22zm6.93 0h-1.463v-2.552h-2.266V22h-1.463v-6.094h1.463v2.244h2.266v-2.244h1.463V22zm8.691 0h-1.463v-6.094h1.463V22zm-2.134-1.98c0 .601-.19 1.082-.572 1.441-.381.36-.872.539-1.474.539H140.9v-6.094h1.463v2.134h1.309c.675 0 1.192.198 1.551.594.33.36.495.821.495 1.386zm-1.463 0a.689.689 0 00-.143-.451c-.132-.154-.33-.231-.594-.231h-1.155v1.364h1.155c.228 0 .407-.055.539-.165.132-.117.198-.29.198-.517zm10.86 1.98h-1.804l-1.232-1.969L150.847 22h-1.804l2.057-3.124-1.892-2.97h1.705l1.155 1.826 1.155-1.826h1.705l-1.936 2.97L155.115 22zM89.94 28.401c0 .66-.187 1.206-.561 1.639-.506.587-1.29.88-2.354.88h-.77V34h-1.507v-8.14h2.277c1.13 0 1.94.326 2.431.979.323.433.484.953.484 1.562zm-1.507-.011c0-.433-.165-.733-.495-.902-.213-.11-.477-.165-.792-.165h-.891v2.134h.891c.447 0 .774-.092.979-.275.205-.183.308-.447.308-.792zM97.371 34H96.03v-.825c-.242.33-.542.583-.902.759a2.546 2.546 0 01-1.155.264 2.818 2.818 0 01-2.068-.858c-.608-.609-.913-1.386-.913-2.332s.29-1.73.87-2.354c.586-.63 1.305-.946 2.155-.946.88 0 1.544.352 1.991 1.056l.022-.858h1.342V34zm-1.375-3.058c0-.535-.161-.975-.484-1.32-.315-.352-.737-.528-1.265-.528-.52 0-.95.18-1.287.539-.337.36-.506.818-.506 1.375 0 .52.165.953.495 1.298.338.337.77.506 1.298.506.52 0 .943-.172 1.265-.517.323-.345.484-.796.484-1.353zm9.231 1.078c-.235.667-.612 1.199-1.133 1.595-.513.389-1.14.583-1.881.583-1.071 0-1.918-.356-2.541-1.067-.55-.623-.825-1.364-.825-2.222 0-.814.264-1.525.792-2.134.616-.711 1.456-1.067 2.519-1.067.755 0 1.404.202 1.947.605.543.403.917.942 1.122 1.617h-1.65a1.425 1.425 0 00-.583-.627 1.69 1.69 0 00-.858-.209c-.565 0-1.012.18-1.342.539-.323.352-.484.785-.484 1.298 0 .535.165.983.495 1.342.33.36.774.539 1.331.539.345 0 .634-.066.869-.198a1.49 1.49 0 00.572-.594h1.65zm6.662 1.98h-1.463v-4.796h-2.266V34h-1.463v-6.094h5.192V34zm8.119-3.047c0 .88-.268 1.628-.803 2.244-.579.667-1.331 1.001-2.255 1.001-.323 0-.62-.051-.891-.154a2.122 2.122 0 01-.946-.704l-.022 2.695h-1.463v-8.129h1.342v.792a2.062 2.062 0 011.012-.814c.308-.117.631-.176.968-.176.858 0 1.58.3 2.167.902.594.594.891 1.375.891 2.343zm-1.463-.011c0-.47-.136-.876-.407-1.221-.33-.418-.777-.627-1.342-.627-.528 0-.961.176-1.298.528-.33.345-.495.788-.495 1.331 0 .572.161 1.027.484 1.364.33.33.748.495 1.254.495.528 0 .961-.176 1.298-.528.337-.352.506-.8.506-1.342zm9.055.022c0 .895-.308 1.657-.924 2.288-.616.63-1.386.946-2.31.946-.917 0-1.687-.312-2.31-.935-.616-.63-.924-1.397-.924-2.299 0-.902.304-1.668.913-2.299.616-.638 1.389-.957 2.321-.957.924 0 1.694.315 2.31.946.616.63.924 1.4.924 2.31zm-1.463 0c0-.52-.162-.96-.484-1.32-.323-.367-.752-.55-1.287-.55-.528 0-.957.183-1.287.55-.323.36-.484.8-.484 1.32s.161.96.484 1.32c.322.352.751.528 1.287.528.52 0 .946-.18 1.276-.539.33-.36.495-.796.495-1.309zm9.654 4.576h-1.43V34h-4.378v1.54h-1.43v-2.838h.726l2.233-4.796h1.32l2.233 4.796h.726v2.838zm-2.376-2.838l-1.243-2.816-1.243 2.816h2.486zM143.124 34h-1.342v-.825c-.242.33-.542.583-.902.759a2.546 2.546 0 01-1.155.264 2.82 2.82 0 01-2.068-.858c-.608-.609-.913-1.386-.913-2.332s.29-1.73.869-2.354c.587-.63 1.306-.946 2.156-.946.88 0 1.544.352 1.991 1.056l.022-.858h1.342V34zm-1.375-3.058c0-.535-.161-.975-.484-1.32-.315-.352-.737-.528-1.265-.528-.52 0-.949.18-1.287.539-.337.36-.506.818-.506 1.375 0 .52.165.953.495 1.298.338.337.77.506 1.298.506.521 0 .943-.172 1.265-.517.323-.345.484-.796.484-1.353zM153.334 34h-1.727l-1.98-2.926V34h-1.463v-2.926L146.184 34h-1.727l2.222-3.19-2.09-2.904h1.727l1.848 2.794v-2.794h1.463V30.7l1.848-2.794h1.727l-2.09 2.904 2.222 3.19z"/></svg>