<svg width="30" height="30" fill="none" xmlns="http://www.w3.org/2000/svg"><path d="M26.969.033L2.6.337A2.59 2.59 0 00.032 2.97l.305 24.373a2.59 2.59 0 002.633 2.569l24.368-.305a2.59 2.59 0 002.568-2.633L29.602 2.6C29.68 1.155 28.414.015 26.969.033z" fill="#fff"/><path fill-rule="evenodd" clip-rule="evenodd" d="M14.829 20.967l1.363-.017s.39-.005.58-.282c.193-.186.189-.552.189-.552s-.022-1.739.755-1.931c.873-.286 1.87 1.624 3.048 2.341.883.539 1.466.44 1.466.44l3.019-.038s1.556-.11.86-1.292c-.099-.09-.4-.819-2.27-2.443-1.871-1.624-1.673-1.352.629-4.219 1.341-1.755 1.912-2.861 1.711-3.316-.2-.455-1.172-.26-1.172-.26L21.6 9.44s-.292.004-.485.098c-.194.094-.288.37-.288.37s-.567 1.38-1.235 2.487c-1.528 2.399-2.11 2.589-2.307 2.408-.589-.359-.407-1.368-.417-2.191-.03-2.38.348-3.3-.824-3.56-.39-.086-.683-.174-1.56-.163-1.168.014-2.24.028-2.82.31-.387.187-.675.557-.479.646.195-.002.78.082.98.446.395.452.31 1.46.31 1.46s.229 2.743-.448 3.118c-.484.28-1.075-.261-2.465-2.44-.696-1.09-1.199-2.366-1.199-2.366s-.003-.273-.2-.363c-.197-.18-.586-.176-.586-.176l-3.214.04s-.486.006-.679.192c-.192.185.007.549.007.549s2.601 5.55 5.46 8.261c2.758 2.529 5.678 2.4 5.678 2.4z" fill="#4E5A65"/></svg>