<svg width="37" height="34" viewBox="0 0 37 34" fill="none" xmlns="http://www.w3.org/2000/svg">
<g clip-path="url(#clip0_27_55)">
<path d="M0 11.4503C1.67097 9.93138 3.22258 8.41248 4.89355 6.89358C6.92258 4.90732 9.07097 2.92107 11.1 0.934813C11.2194 0.817974 11.2194 0.817974 11.3387 0.701136C11.6968 0.934813 11.9355 1.16849 12.2935 1.40217C12.771 1.75268 13.2484 2.1032 13.7258 2.45371C14.0839 2.68739 14.3226 3.03791 14.8 3.15474C15.1581 3.15474 15.5161 2.92107 15.9935 2.80423C16.471 2.68739 17.0677 2.57055 17.6645 2.57055C19.2161 2.57055 20.6484 2.57055 22.2 2.57055C22.4387 2.57055 22.5581 2.45371 22.7968 2.33687C23.5129 1.63584 24.3484 0.817974 25.0645 0.116943C29.1226 4.20629 33.1806 8.1788 37.2387 12.2681C35.6871 13.6702 34.2548 15.0723 32.5839 16.4743C32.8226 16.708 33.0613 16.8248 33.3 17.0585C33.8968 17.6427 34.3742 18.1101 34.971 18.6943C37 20.5637 36.1645 23.8352 33.4194 24.5362H33.3C33.4194 25.7046 33.1806 26.7561 32.2258 27.4571C31.3903 28.275 30.3161 28.5087 29.1226 28.3919C28.8839 29.3266 28.2871 30.1444 27.4516 30.6118C26.6161 31.0791 25.6613 31.196 24.5871 30.8455C24.1097 32.1307 23.1548 32.9486 21.7226 33.1822C20.2903 33.4159 19.2161 32.7149 18.2613 31.7802C17.7839 32.1307 17.4258 32.598 16.9484 32.9486C15.8742 33.8833 14.6806 34.2338 13.2484 33.7664C12.2935 33.4159 11.6968 32.8317 11.2194 31.897C11.2194 31.7802 11.1 31.7802 11.1 31.6633C10.6226 31.6633 10.0258 31.7802 9.54839 31.6633C8.11613 31.5465 6.80323 30.2613 6.56452 28.8592C6.56452 28.7424 6.56452 28.5087 6.32581 28.5087C4.65484 28.3919 3.34194 27.1066 3.22258 25.2372V25.1204C2.62581 24.8867 2.02903 24.653 1.67097 24.3025C0 23.0173 -0.119355 20.7974 1.43226 19.2785C2.14839 18.6943 2.86452 17.9932 3.58065 17.2922C3.58065 17.2922 3.46129 17.1754 3.46129 17.0585C2.3871 15.3059 1.19355 13.5534 0.119355 11.684C0.119355 11.684 0 11.5671 0 11.4503C0 11.5671 0 11.4503 0 11.4503ZM22.9161 20.2132C23.0355 20.33 23.0355 20.4468 23.1548 20.5637C24.9452 22.3163 26.7355 24.0688 28.4064 25.7046C28.5258 25.8214 28.6452 25.9382 28.7645 26.0551C29.6 26.6393 30.6742 26.1719 30.7935 25.2372C30.9129 24.7699 30.6742 24.3025 30.3161 23.952C28.5258 22.1994 26.7355 20.4468 24.9452 18.6943C24.8258 18.5774 24.8258 18.4606 24.7065 18.4606C25.1839 17.9932 25.6613 17.5259 26.2581 16.9417C26.3774 17.0585 26.3774 17.0585 26.4968 17.1754C27.4516 18.1101 28.5258 19.1616 29.4806 20.0963C30.0774 20.6805 30.7935 21.3815 31.3903 21.9657C31.7484 22.3163 32.1064 22.5499 32.7032 22.4331C33.1806 22.3163 33.5387 21.9657 33.6581 21.4984C33.7774 20.9142 33.6581 20.4468 33.1806 20.0963C29.6 16.5912 26.1387 13.2029 22.5581 9.6977C22.4387 9.58086 22.2 9.46402 22.0806 9.46402C21.0065 9.46402 19.9323 9.46402 18.8581 9.46402C18.6194 9.46402 18.3806 9.58086 18.2613 9.6977C17.3065 10.6324 16.3516 11.5671 15.5161 12.5018C15.0387 12.9692 14.4419 13.4365 13.6065 13.5534C11.8161 14.0207 9.7871 12.9692 9.30968 11.2166C8.83226 9.81454 9.19032 8.52931 10.2645 7.47777C11.2194 6.54306 12.1742 5.60835 13.129 4.67364C12.5323 4.20629 12.0548 3.85577 11.4581 3.50526C8.47419 6.30938 5.60968 9.11351 2.62581 11.9176C3.58065 13.4365 4.53548 15.0723 5.49032 16.5912C5.60968 16.8248 5.84839 16.9417 6.0871 16.9417C7.51935 17.1754 8.59355 18.3437 8.7129 19.7458C8.7129 19.9795 8.83226 20.0963 9.07097 20.0963C10.6226 20.33 11.8161 21.3815 11.9355 23.0173C11.9355 23.251 12.0548 23.3678 12.2935 23.3678C12.6516 23.4846 13.0097 23.4846 13.3677 23.7183C14.4419 24.1857 15.0387 25.1204 15.2774 26.2888C15.2774 26.4056 15.2774 26.6393 15.5161 26.6393C17.1871 26.873 18.1419 27.8077 18.5 29.4434C18.5 29.5602 18.6194 29.6771 18.7387 29.7939C19.2161 30.1444 19.5742 30.6118 20.0516 30.9623C20.4097 31.3128 20.8871 31.3128 21.2452 31.196C22.2 30.9623 22.4387 29.7939 21.7226 29.0929C21.0065 28.3919 20.2903 27.6908 19.5742 26.9898C18.9774 26.4056 18.3806 25.8214 17.7839 25.2372C18.2613 24.7699 18.7387 24.3025 19.3355 23.7183C19.3355 23.8352 19.4548 23.952 19.5742 23.952C21.1258 25.4709 22.5581 26.873 24.1097 28.3919C24.229 28.5087 24.3484 28.6255 24.3484 28.6255C24.7064 28.976 25.3032 29.0929 25.7806 28.7424C26.2581 28.5087 26.4968 28.0413 26.4968 27.574C26.4968 27.2235 26.2581 26.873 26.0194 26.6393C24.4677 25.1204 22.9161 23.6015 21.3645 22.0826C21.2452 21.9657 21.2452 21.8489 21.1258 21.8489C21.8419 21.2647 22.3194 20.7974 22.9161 20.2132ZM24.8258 3.03791C24.3484 3.50526 23.871 3.97261 23.3935 4.43997C23.2742 4.55681 23.0355 4.67364 22.9161 4.67364C21.1258 4.67364 19.3355 4.67364 17.5452 4.67364C16.7097 4.67364 15.9935 4.90732 15.3968 5.60835C14.2032 6.77674 13.129 7.94512 11.9355 8.99667C11.8161 8.99667 11.6968 9.11351 11.5774 9.23034C10.8613 10.0482 11.3387 11.3334 12.4129 11.5671C13.0097 11.684 13.4871 11.4503 13.9645 11.0998C15.1581 9.93138 16.2323 8.76299 17.4258 7.59461C17.5452 7.47777 17.7839 7.36093 18.0226 7.36093C19.6935 7.36093 21.2452 7.36093 22.9161 7.36093C23.1548 7.36093 23.3935 7.47777 23.6323 7.59461C25.9 9.93138 28.2871 12.1513 30.6742 14.4881C30.7935 14.6049 30.7935 14.7218 30.9129 14.8386C31.9871 13.9039 32.9419 12.9692 34.0161 12.0345C30.9129 8.99667 27.929 6.07571 24.8258 3.03791ZM13.2484 26.7561C13.2484 26.0551 13.0097 25.7046 12.5323 25.4709C12.0548 25.2372 11.5774 25.3541 11.2194 25.7046C10.5032 26.4056 9.7871 26.9898 9.19032 27.6908C8.7129 28.1582 8.7129 28.976 9.19032 29.4434C9.66774 29.9108 10.3839 29.9108 10.9806 29.4434C11.6968 28.7424 12.4129 28.1582 13.0097 27.4571C13.0097 27.2235 13.129 26.873 13.2484 26.7561ZM6.80323 26.5224C6.92258 26.5224 7.28064 26.4056 7.4 26.2888C8.23548 25.5877 8.95161 24.8867 9.66774 24.0688C10.1452 23.6015 10.0258 22.9004 9.54839 22.4331C9.07097 21.9657 8.35484 21.9657 7.99677 22.3163C7.16129 23.0173 6.44516 23.7183 5.72903 24.5362C5.37097 24.8867 5.37097 25.3541 5.60968 25.8214C5.72903 26.2888 6.0871 26.5224 6.80323 26.5224ZM3.81935 23.1341C3.93871 23.1341 4.17742 23.0173 4.41613 22.9004C5.13226 22.1994 5.84839 21.6152 6.44516 20.9142C6.80323 20.4468 6.80323 19.7458 6.32581 19.3953C5.84839 18.9279 5.13226 18.9279 4.77419 19.2785C4.05806 19.8626 3.34194 20.5637 2.74516 21.2647C2.3871 21.6152 2.3871 22.0826 2.62581 22.4331C2.86452 22.9004 3.22258 23.0173 3.81935 23.1341ZM16.471 29.9108C16.471 29.2097 16.2323 28.8592 15.7548 28.6255C15.2774 28.3919 14.8 28.5087 14.4419 28.7424C14.0839 29.0929 13.7258 29.4434 13.3677 29.7939C12.8903 30.2613 12.8903 30.9623 13.3677 31.4297C13.8452 31.897 14.5613 31.897 15.1581 31.4297C15.5161 31.0791 15.8742 30.8455 16.1129 30.4949C16.3516 30.3781 16.471 30.0276 16.471 29.9108Z" fill="white"/>
</g>
<defs>
<clipPath id="clip0_27_55">
<rect width="37" height="34" fill="white"/>
</clipPath>
</defs>
</svg>
