<svg width="117" height="39" viewBox="0 0 117 39" fill="none" xmlns="http://www.w3.org/2000/svg">
<path d="M53.672 23.2985V15.1947H55.4277V15.9544C55.6785 15.5745 55.9293 15.4479 56.3055 15.1947C56.6817 15.068 57.0579 14.9414 57.4341 14.9414C57.9357 14.9414 58.4373 15.068 58.8135 15.3213C59.1897 15.5745 59.5659 15.8278 59.8167 16.2076C60.0675 15.8278 60.4437 15.4479 60.9453 15.3213C61.3215 15.068 61.8232 14.9414 62.4502 14.9414C63.4534 14.9414 64.2058 15.3213 64.8328 15.9544C65.4598 16.5875 65.7106 17.4739 65.7106 18.6135V23.2985H63.8296V18.9934C63.8296 18.2336 63.7042 17.7271 63.4534 17.3472C63.2026 16.9674 62.8264 16.8408 62.3248 16.8408C61.8232 16.8408 61.4469 17.094 61.1961 17.3472C60.9453 17.6005 60.8199 18.2336 60.8199 18.9934V23.2985H58.9389V18.9934C58.9389 18.2336 58.8135 17.7271 58.5627 17.3472C58.3119 16.9674 57.9357 16.8408 57.4341 16.8408C56.9325 16.8408 56.5563 16.9674 56.3055 17.3472C56.0547 17.7271 55.9293 18.2336 55.9293 18.9934V23.2985H53.672Z" fill="white"/>
<path d="M67.2154 25.9573V15.1943H68.9711V16.2073C69.2219 15.8274 69.5981 15.4476 69.9743 15.1943C70.4759 14.9411 70.9775 14.8145 71.4791 14.8145C72.6077 14.8145 73.4855 15.1943 74.3633 15.9541C75.1158 16.7138 75.492 17.7268 75.492 18.993C75.492 20.1326 75.1158 21.1456 74.3633 22.032C73.6109 22.9184 72.6077 23.2982 71.4791 23.2982C70.9775 23.2982 70.6013 23.1716 70.0997 23.045C69.7235 22.9184 69.3473 22.5385 68.9711 22.1586V25.7041H67.2154V25.9573ZM71.3537 16.8404C70.6013 16.8404 70.0997 17.0937 69.5981 17.6002C69.2219 18.1067 68.9711 18.6132 68.9711 19.3729C68.9711 20.1326 69.2219 20.7658 69.5981 21.1456C69.9743 21.5255 70.6013 21.7787 71.2283 21.7787C71.8553 21.7787 72.4823 21.5255 72.8585 21.019C73.3601 20.5125 73.4855 20.006 73.4855 19.2463C73.4855 18.4865 73.2347 17.98 72.8585 17.4735C72.6077 17.0937 72.1061 16.8404 71.3537 16.8404Z" fill="white"/>
<path d="M76.746 23.2985V15.1947H78.5016V15.9544C78.627 15.5745 78.8778 15.3213 79.254 15.1947C79.6302 15.068 80.0064 14.9414 80.3826 14.9414V16.8408C79.881 16.8408 79.3794 16.9674 79.1286 17.3472C78.8778 17.7271 78.627 18.2336 78.7524 18.9934V23.2985H76.746Z" fill="white"/>
<path d="M82.5145 21.3994H80.6334V23.2988H82.5145V21.3994Z" fill="white"/>
<path d="M83.8939 20.7661H85.7749C85.7749 21.0193 85.9003 21.2726 86.0257 21.5258C86.2765 21.6524 86.5273 21.7791 86.7781 21.7791C87.0289 21.7791 87.2797 21.7791 87.4051 21.5258C87.5305 21.3992 87.656 21.146 87.656 20.8927C87.656 20.7661 87.5305 20.5128 87.5305 20.3862C87.4051 20.2596 87.2797 20.133 87.0289 20.0063H86.9035C86.9035 20.0063 86.6527 19.8797 86.2765 19.7531C85.5241 19.4998 85.0225 19.2466 84.7717 18.8667C84.3955 18.4869 84.2701 17.9804 84.2701 17.4739C84.2701 16.7141 84.5209 16.2076 85.0225 15.7011C85.5241 15.1947 86.1511 14.9414 86.9035 14.9414C87.656 14.9414 88.283 15.1947 88.6592 15.5745C89.1608 16.081 89.4116 16.5875 89.4116 17.3472H87.5305C87.5305 17.094 87.4051 16.9674 87.2797 16.8408C87.1543 16.7141 87.0289 16.7141 86.7781 16.7141C86.5273 16.7141 86.4019 16.7141 86.2765 16.8408C86.1511 16.9674 86.0257 17.094 86.0257 17.3472C86.0257 17.6005 86.1511 17.7271 86.2765 17.8537C86.4019 17.9804 86.7781 18.107 87.2797 18.2336C88.1576 18.4869 88.7846 18.7401 89.0354 19.12C89.2862 19.4998 89.537 20.0063 89.537 20.6395C89.537 21.3992 89.2862 22.1589 88.7846 22.6654C88.283 23.1719 87.5305 23.4252 86.6527 23.4252C85.7749 23.4252 85.0225 23.1719 84.5209 22.6654C84.1447 22.1589 83.8939 21.5258 83.8939 20.7661Z" fill="white"/>
<path d="M90.791 23.2991V12.5361H92.672V15.8283C92.9228 15.5751 93.1736 15.3218 93.5499 15.1952C93.9261 15.0686 94.3023 14.942 94.6785 14.942C95.5563 14.942 96.3087 15.3218 96.9357 15.955C97.5627 16.5881 97.8135 17.4744 97.8135 18.6141V23.2991H95.9325V18.9939C95.9325 18.2342 95.8071 17.7277 95.5563 17.3478C95.3055 16.968 94.9293 16.8413 94.4277 16.8413C93.9261 16.8413 93.4245 16.968 93.1737 17.3478C92.7974 17.7277 92.672 18.3608 92.672 18.9939V23.2991H90.791Z" fill="white"/>
<path d="M103.206 14.9414C104.46 14.9414 105.463 15.3213 106.215 16.2076C106.968 17.094 107.469 18.107 107.469 19.2466C107.469 20.3862 107.093 21.3992 106.215 22.2856C105.463 23.1719 104.334 23.5518 103.206 23.5518C101.952 23.5518 100.949 23.1719 100.196 22.2856C99.4437 21.3992 98.9421 20.3862 98.9421 19.2466C98.9421 18.107 99.3183 17.094 100.196 16.2076C100.949 15.4479 102.077 14.9414 103.206 14.9414ZM103.206 16.8408C102.453 16.8408 101.952 17.094 101.576 17.6005C101.199 18.107 100.949 18.6135 100.949 19.3732C100.949 20.0063 101.199 20.6395 101.576 21.146C101.952 21.6524 102.579 21.9057 103.206 21.9057C103.833 21.9057 104.46 21.6524 104.836 21.146C105.212 20.6395 105.463 20.133 105.463 19.3732C105.463 18.6135 105.212 18.107 104.836 17.6005C104.46 17.094 103.958 16.8408 103.206 16.8408Z" fill="white"/>
<path d="M108.598 25.9573V15.1943H110.354V16.2073C110.604 15.8274 110.981 15.4476 111.357 15.1943C111.859 14.9411 112.36 14.8145 112.862 14.8145C113.99 14.8145 114.868 15.1943 115.746 15.9541C116.498 16.7138 116.875 17.7268 116.875 18.993C116.875 20.1326 116.498 21.1456 115.746 22.032C114.994 22.9184 113.99 23.2982 112.862 23.2982C112.36 23.2982 111.984 23.1716 111.482 23.045C111.106 22.9184 110.73 22.5385 110.354 22.1586V25.7041H108.598V25.9573ZM112.736 16.8404C111.984 16.8404 111.482 17.0937 110.981 17.6002C110.604 18.1067 110.354 18.6132 110.354 19.3729C110.354 20.1326 110.604 20.7658 110.981 21.1456C111.357 21.5255 111.984 21.7787 112.611 21.7787C113.238 21.7787 113.865 21.5255 114.241 21.019C114.743 20.5125 114.868 20.006 114.868 19.2463C114.868 18.4865 114.617 17.98 114.241 17.4735C113.99 17.0937 113.489 16.8404 112.736 16.8404Z" fill="white"/>
<path d="M35.1125 0H3.38585C1.50482 0 0 1.51948 0 3.41883V35.4545C0 37.3539 1.50482 38.8734 3.38585 38.8734H35.1125C36.9936 38.8734 38.4984 37.3539 38.4984 35.4545V3.41883C38.6238 1.51948 36.9936 0 35.1125 0Z" fill="white"/>
<path fill-rule="evenodd" clip-rule="evenodd" d="M18.9357 28.3637H20.6913C20.6913 28.3637 21.1929 28.3637 21.4437 27.9838C21.6945 27.7306 21.6945 27.2241 21.6945 27.2241C21.6945 27.2241 21.6945 24.8182 22.6978 24.565C23.8264 24.1851 25.0804 26.8442 26.5852 27.8572C27.7138 28.6169 28.4662 28.4903 28.4662 28.4903H32.3537C32.3537 28.4903 34.3601 28.3637 33.4823 26.7176C33.3569 26.591 32.9807 25.578 30.5981 23.2988C28.2154 21.0195 28.4662 21.3994 31.4759 17.4741C33.2315 15.0682 33.9839 13.5488 33.7331 12.9156C33.4823 12.2825 32.2283 12.5358 32.2283 12.5358H27.8392C27.8392 12.5358 27.463 12.5358 27.2122 12.6624C26.9614 12.789 26.836 13.1689 26.836 13.1689C26.836 13.1689 26.0836 15.0682 25.2058 16.5877C23.1994 19.8799 22.4469 20.1332 22.1961 19.8799C21.4437 19.3734 21.6945 17.9806 21.6945 16.841C21.6945 13.5488 22.1961 12.2825 20.6913 11.9027C20.1897 11.776 19.8135 11.6494 18.6849 11.6494C17.1801 11.6494 15.8006 11.6494 15.0482 12.0293C14.5466 12.2825 14.1704 12.789 14.4212 12.9156C14.672 12.9156 15.4244 13.0423 15.6752 13.5488C16.1769 14.1819 16.0515 15.5747 16.0515 15.5747C16.0515 15.5747 16.3023 19.3734 15.4244 19.8799C14.7974 20.2598 14.045 19.5001 12.2894 16.4611C11.4116 14.9416 10.7846 13.1689 10.7846 13.1689C10.7846 13.1689 10.7846 12.789 10.5338 12.6624C10.283 12.4092 9.78135 12.4092 9.78135 12.4092H5.64309C5.64309 12.4092 5.01608 12.4092 4.76528 12.6624C4.51447 12.9156 4.76528 13.4221 4.76528 13.4221C4.76528 13.4221 8.02573 21.1462 11.6624 24.9449C15.1736 28.4903 18.9357 28.3637 18.9357 28.3637Z" fill="#ED1D24"/>
</svg>
