<svg width="39" height="42" viewBox="0 0 39 42" fill="none" xmlns="http://www.w3.org/2000/svg">
<path d="M19.5 2.83601L35.3182 13.5048L19.5 23.3633L3.54545 13.0997L19.5 2.83601ZM19.5 0C18.9545 0 18.5455 0.135048 18.1364 0.405145L0.954546 11.4791C-0.272726 12.2894 -0.272726 13.91 0.954546 14.7203L18.1364 25.6592C18.5455 25.9293 18.9545 26.0643 19.5 26.0643C19.9091 26.0643 20.4545 25.9293 20.8636 25.6592L38.0455 14.9904C39.2727 14.1801 39.4091 12.5595 38.0455 11.7492L20.8636 0.405145C20.4545 0.135048 20.0455 0 19.5 0Z" fill="white"/>
<path d="M38.0455 27.6849L35.3182 29.3055L19.5 39.164L3.54546 28.9004L0.954546 27.2798C-0.272726 28.0901 -0.272726 29.7107 0.954546 30.5209L18.1364 41.4598C18.5455 41.7299 18.9545 41.865 19.5 41.865C19.9091 41.865 20.4545 41.7299 20.8636 41.4598L38.0455 30.791C39.2727 30.1158 39.2727 28.4952 38.0455 27.6849Z" fill="white"/>
<path d="M1.5 13.0996V28.7652" stroke="white" stroke-width="2" stroke-miterlimit="10" stroke-linecap="round"/>
<path d="M19.6364 24.7139V40.3795" stroke="white" stroke-width="2" stroke-miterlimit="10" stroke-linecap="round"/>
<path d="M37.5 13.5049V29.0354" stroke="white" stroke-width="2" stroke-miterlimit="10" stroke-linecap="round"/>
</svg>
