<svg width="119" height="39" viewBox="0 0 119 39" fill="none" xmlns="http://www.w3.org/2000/svg">
<path d="M54.5895 23.8824V15.7521H56.3751V16.5143C56.6302 16.1332 56.8853 16.0062 57.268 15.7521C57.6506 15.6251 58.0332 15.498 58.4159 15.498C58.926 15.498 59.4362 15.6251 59.8189 15.8792C60.2015 16.1332 60.5841 16.3873 60.8392 16.7684C61.0943 16.3873 61.4769 16.0062 61.9871 15.8792C62.3698 15.6251 62.8799 15.498 63.5177 15.498C64.538 15.498 65.3033 15.8792 65.941 16.5143C66.5788 17.1495 66.8339 18.0388 66.8339 19.1821V23.8824H64.9207V19.5632C64.9207 18.801 64.7931 18.2928 64.538 17.9117C64.2829 17.5306 63.9003 17.4036 63.3901 17.4036C62.88 17.4036 62.4973 17.6577 62.2422 17.9117C61.9871 18.2928 61.8596 18.801 61.8596 19.5632V23.8824H59.9464V19.5632C59.9464 18.801 59.8189 18.2928 59.5638 17.9117C59.3087 17.5306 58.926 17.4036 58.4159 17.4036C57.9057 17.4036 57.523 17.5306 57.268 17.9117C57.0129 18.2928 56.8853 18.801 56.8853 19.5632V23.8824H54.5895Z" fill="white"/>
<path d="M68.3644 26.5502V15.7522H70.15V16.7685C70.4051 16.3874 70.7878 16.0063 71.1704 15.7522C71.6806 15.4981 72.1908 15.3711 72.701 15.3711C73.8489 15.3711 74.7417 15.7522 75.6345 16.5144C76.3998 17.2766 76.7824 18.2929 76.7824 19.5633C76.7824 20.7066 76.3998 21.7229 75.6345 22.6121C74.8692 23.5014 73.8489 23.8825 72.701 23.8825C72.1908 23.8825 71.8081 23.7555 71.298 23.6284C70.7878 23.5014 70.5327 23.1203 70.15 22.7392V26.2962H68.3644V26.5502ZM72.5734 17.2766C71.8081 17.2766 71.298 17.5307 70.7878 18.0388C70.4051 18.547 70.15 19.0551 70.15 19.8173C70.15 20.5796 70.4051 21.2147 70.7878 21.5958C71.1704 21.977 71.8081 22.231 72.4459 22.231C73.0836 22.231 73.7213 21.977 74.104 21.4688C74.6141 20.9607 74.7417 20.4525 74.7417 19.6903C74.7417 18.9281 74.4866 18.42 74.104 17.9118C73.8489 17.5307 73.3387 17.2766 72.5734 17.2766Z" fill="white"/>
<path d="M78.0579 23.8824V15.7521H79.8435V16.5143C79.9711 16.1332 80.2261 15.8792 80.6088 15.7521C80.9914 15.6251 81.3741 15.498 81.7567 15.498V17.4036C81.2465 17.4036 80.7363 17.5306 80.4812 17.9117C80.2261 18.2928 79.9711 18.801 80.0986 19.5632V23.8824H78.0579Z" fill="white"/>
<path d="M83.925 21.8506H82.0118V23.7561H83.925V21.8506Z" fill="white"/>
<path d="M85.328 21.3417H87.2412C87.2412 21.5958 87.3687 21.8498 87.4962 22.1039C87.7513 22.2309 88.0064 22.358 88.2615 22.358C88.5166 22.358 88.7717 22.358 88.8992 22.1039C89.0268 21.9769 89.1543 21.7228 89.1543 21.4687C89.1543 21.3417 89.0268 21.0876 89.0268 20.9606C88.8993 20.8336 88.7717 20.7065 88.5166 20.5795H88.3891C88.3891 20.5795 88.134 20.4524 87.7513 20.3254C86.9861 20.0713 86.4759 19.8173 86.2208 19.4362C85.8382 19.0551 85.7106 18.5469 85.7106 18.0388C85.7106 17.2765 85.9657 16.7684 86.4759 16.2603C86.9861 15.7521 87.6238 15.498 88.3891 15.498C89.1543 15.498 89.7921 15.7521 90.1747 16.1332C90.6849 16.6414 90.94 17.1495 90.94 17.9117H89.0268C89.0268 17.6577 88.8992 17.5306 88.7717 17.4036C88.6442 17.2765 88.5166 17.2765 88.2615 17.2765C88.0064 17.2765 87.8789 17.2765 87.7513 17.4036C87.6238 17.5306 87.4962 17.6577 87.4962 17.9117C87.4962 18.1658 87.6238 18.2928 87.7513 18.4199C87.8789 18.5469 88.2615 18.6739 88.7717 18.801C89.6645 19.0551 90.3023 19.3091 90.5573 19.6902C90.8124 20.0713 91.0675 20.5795 91.0675 21.2147C91.0675 21.9769 90.8124 22.7391 90.3023 23.2472C89.7921 23.7554 89.0268 24.0094 88.134 24.0094C87.2412 24.0094 86.4759 23.7554 85.9657 23.2472C85.5831 22.7391 85.328 22.1039 85.328 21.3417Z" fill="white"/>
<path d="M92.343 23.883V13.085H94.2562V16.3879C94.5113 16.1338 94.7663 15.8797 95.149 15.7527C95.5316 15.6257 95.9143 15.4986 96.2969 15.4986C97.1897 15.4986 97.955 15.8797 98.5927 16.5149C99.2304 17.1501 99.4855 18.0394 99.4855 19.1827V23.883H97.5724V19.5638C97.5724 18.8016 97.4448 18.2934 97.1897 17.9123C96.9346 17.5312 96.552 17.4042 96.0418 17.4042C95.5316 17.4042 95.0214 17.5312 94.7664 17.9123C94.5113 18.2934 94.3837 18.8016 94.3837 19.5638V23.883H92.343Z" fill="white"/>
<path d="M104.97 15.498C106.245 15.498 107.266 15.8792 108.031 16.7684C108.796 17.6577 109.307 18.6739 109.307 19.8173C109.307 20.9606 108.924 21.9769 108.031 22.8661C107.266 23.7554 106.118 24.1365 104.97 24.1365C103.695 24.1365 102.674 23.7554 101.909 22.8661C101.144 21.9769 100.633 20.9606 100.633 19.8173C100.633 18.6739 101.016 17.6577 101.909 16.7684C102.674 15.8792 103.695 15.498 104.97 15.498ZM104.97 17.2765C104.205 17.2765 103.695 17.5306 103.312 18.0388C102.929 18.5469 102.674 19.0551 102.674 19.8173C102.674 20.4524 102.929 21.0876 103.312 21.5958C103.695 22.1039 104.332 22.358 104.97 22.358C105.608 22.358 106.245 22.1039 106.628 21.5958C107.011 21.0876 107.266 20.5795 107.266 19.8173C107.266 19.0551 107.011 18.5469 106.628 18.0388C106.245 17.5306 105.735 17.2765 104.97 17.2765Z" fill="white"/>
<path d="M110.454 26.5502V15.7522H112.24V16.7685C112.495 16.3874 112.878 16.0063 113.26 15.7522C113.771 15.4981 114.281 15.3711 114.791 15.3711C115.939 15.3711 116.832 15.7522 117.725 16.5144C118.49 17.2766 118.872 18.2929 118.872 19.5633C118.872 20.7066 118.49 21.7229 117.725 22.6121C116.959 23.5014 115.939 23.8825 114.791 23.8825C114.281 23.8825 113.898 23.7555 113.388 23.6284C113.005 23.5014 112.623 23.1203 112.24 22.7392V26.2962H110.454V26.5502ZM114.663 17.2766C113.898 17.2766 113.388 17.5307 112.878 18.0388C112.495 18.547 112.24 19.0551 112.24 19.8173C112.24 20.5796 112.495 21.2147 112.878 21.5958C113.26 21.977 113.898 22.231 114.536 22.231C115.174 22.231 115.811 21.977 116.194 21.4688C116.704 20.9607 116.832 20.4525 116.832 19.6903C116.832 18.9281 116.577 18.42 116.194 17.9118C115.939 17.5307 115.429 17.2766 114.663 17.2766Z" fill="white"/>
<path d="M35.7128 0H3.44373C1.53055 0 0 1.52443 0 3.42997V35.57C0 37.4756 1.53055 39 3.44373 39H35.7128C37.6259 39 39.1565 37.4756 39.1565 35.57V3.42997C39.284 1.52443 37.6259 0 35.7128 0Z" fill="white"/>
<path d="M19.5145 20.1989C23.0857 20.1989 26.0193 17.277 26.0193 13.72C26.0193 10.163 23.0857 7.24121 19.5145 7.24121C15.9432 7.24121 13.0096 10.163 13.0096 13.72C13.0096 17.277 15.9432 20.1989 19.5145 20.1989ZM19.5145 10.9253C21.045 10.9253 22.1929 12.1956 22.1929 13.593C22.1929 15.1174 20.9175 16.2608 19.5145 16.2608C17.9839 16.2608 16.836 14.9904 16.836 13.593C16.836 12.1956 17.9839 10.9253 19.5145 10.9253Z" fill="#ED1D24"/>
<path d="M22.1929 25.5346C23.4684 25.2805 24.8714 24.6453 26.0193 24.0102C26.9121 23.502 27.1672 22.2317 26.657 21.3424C26.1468 20.4532 24.8714 20.1991 23.9786 20.7072C21.3001 22.3587 17.8564 22.3587 15.1779 20.7072C14.2851 20.1991 13.1372 20.4532 12.4995 21.3424C11.9893 22.2317 12.2444 23.375 13.1372 24.0102C14.2851 24.7724 15.5606 25.2805 16.9636 25.5346L13.2647 29.2186C12.4995 29.9808 12.4995 31.1242 13.2647 31.8864C13.6474 32.2675 14.1576 32.3945 14.6677 32.3945C15.1779 32.3945 15.6881 32.2675 16.0707 31.8864L19.642 28.3294L23.2133 31.8864C23.9786 32.6486 25.1265 32.6486 25.8917 31.8864C26.657 31.1242 26.657 29.9808 25.8917 29.2186L22.1929 25.5346Z" fill="#ED1D24"/>
</svg>
