<svg width="44" height="36" viewBox="0 0 44 36" fill="none" xmlns="http://www.w3.org/2000/svg">
<g clip-path="url(#clip0_26_56)">
<path d="M28.9949 2.27129V25.6656H2.25641V2.27129H28.9949ZM29.559 0H1.57949C0.676923 0 0 0.681388 0 1.58991V26.2334C0 27.142 0.676923 27.8233 1.57949 27.8233H29.559C30.4615 27.8233 31.1385 27.142 31.1385 26.2334V1.58991C31.2513 0.681388 30.4615 0 29.559 0Z" fill="white"/>
<path d="M30.2359 28.959C31.4769 28.959 32.4923 29.9811 32.4923 31.2303C32.4923 32.4795 31.4769 33.5016 30.2359 33.5016C28.9949 33.5016 27.9795 32.4795 27.9795 31.2303C27.9795 29.9811 28.9949 28.959 30.2359 28.959ZM30.2359 26.6877C27.7538 26.6877 25.7231 28.7319 25.7231 31.2303C25.7231 33.7288 27.7538 35.7729 30.2359 35.7729C32.7179 35.7729 34.7487 33.7288 34.7487 31.2303C34.7487 28.7319 32.8308 26.6877 30.2359 26.6877Z" fill="white"/>
<path d="M7.22051 29.0726C8.46154 29.0726 9.47692 30.0946 9.47692 31.3439C9.47692 32.5931 8.46154 33.6152 7.22051 33.6152C5.97949 33.6152 4.9641 32.5931 4.9641 31.3439C4.9641 30.0946 5.97949 29.0726 7.22051 29.0726ZM7.22051 26.8013C4.73846 26.8013 2.70769 28.8454 2.70769 31.3439C2.70769 33.8423 4.73846 35.8864 7.22051 35.8864C9.70256 35.8864 11.7333 33.8423 11.7333 31.3439C11.7333 28.8454 9.70256 26.8013 7.22051 26.8013Z" fill="white"/>
<path d="M44 18.0569C44 15.672 37.1179 7.49536 34.6359 7.49536H29.4462C29.4462 7.83606 29.4462 9.19883 29.4462 9.53953L34.5231 9.76666C36.3282 10.3345 41.2923 16.2398 41.7436 18.0569L41.8564 22.4859C41.8564 23.7351 40.2769 25.4386 39.0359 25.4386C39.0359 25.4386 23.0154 25.7793 22.7897 25.7793C22.6769 25.7793 24.7077 27.7099 26.2872 27.7099H39.0359C41.4051 27.7099 44.1128 24.8708 44.1128 22.4859L44 18.0569Z" fill="white"/>
</g>
<defs>
<clipPath id="clip0_26_56">
<rect width="44" height="36" fill="white"/>
</clipPath>
</defs>
</svg>
