<svg width="120" height="39" viewBox="0 0 120 39" fill="none" xmlns="http://www.w3.org/2000/svg">
<path d="M54.6274 23.8827V15.7524H56.4143V16.5146C56.6696 16.1335 56.9249 16.0064 57.3078 15.7524C57.6907 15.6253 58.0736 15.4983 58.4565 15.4983C58.967 15.4983 59.4775 15.6253 59.8604 15.8794C60.2433 16.1335 60.6262 16.3875 60.8815 16.7686C61.1368 16.3875 61.5197 16.0064 62.0302 15.8794C62.4131 15.6253 62.9237 15.4983 63.5618 15.4983C64.5829 15.4983 65.3487 15.8794 65.9869 16.5146C66.625 17.1498 66.8803 18.039 66.8803 19.1823V23.8827H64.9658V19.5634C64.9658 18.8012 64.8382 18.2931 64.5829 17.912C64.3276 17.5309 63.9447 17.4038 63.4342 17.4038C62.9237 17.4038 62.5408 17.6579 62.2855 17.912C62.0302 18.2931 61.9026 18.8012 61.9026 19.5634V23.8827H59.9881V19.5634C59.9881 18.8012 59.8604 18.2931 59.6052 17.912C59.3499 17.5309 58.967 17.4038 58.4565 17.4038C57.9459 17.4038 57.563 17.5309 57.3078 17.912C57.0525 18.2931 56.9249 18.8012 56.9249 19.5634V23.8827H54.6274Z" fill="white"/>
<path d="M68.4121 26.5505V15.7524H70.199V16.7687C70.4543 16.3876 70.8372 16.0065 71.2201 15.7524C71.7306 15.4984 72.2411 15.3713 72.7517 15.3713C73.9004 15.3713 74.7938 15.7524 75.6873 16.5147C76.4531 17.2769 76.836 18.2932 76.836 19.5635C76.836 20.7068 76.4531 21.7231 75.6873 22.6124C74.9214 23.5016 73.9004 23.8827 72.7517 23.8827C72.2411 23.8827 71.8582 23.7557 71.3477 23.6287C70.8372 23.5016 70.5819 23.1205 70.199 22.7394V26.2964H68.4121V26.5505ZM72.624 17.2769C71.8582 17.2769 71.3477 17.5309 70.8372 18.0391C70.4543 18.5472 70.199 19.0554 70.199 19.8176C70.199 20.5798 70.4543 21.215 70.8372 21.5961C71.2201 21.9772 71.8582 22.2313 72.4964 22.2313C73.1346 22.2313 73.7727 21.9772 74.1556 21.4691C74.6662 20.9609 74.7938 20.4528 74.7938 19.6906C74.7938 18.9283 74.5385 18.4202 74.1556 17.9121C73.9004 17.5309 73.3898 17.2769 72.624 17.2769Z" fill="white"/>
<path d="M78.1123 23.8827V15.7524H79.8992V16.5146C80.0268 16.1335 80.2821 15.8794 80.665 15.7524C81.0479 15.6253 81.4308 15.4983 81.8137 15.4983V17.4038C81.3032 17.4038 80.7926 17.5309 80.5373 17.912C80.2821 18.2931 80.0268 18.8012 80.1544 19.5634V23.8827H78.1123Z" fill="white"/>
<path d="M83.9834 21.8501H82.0688V23.7556H83.9834V21.8501Z" fill="white"/>
<path d="M85.3872 21.3419H87.3017C87.3017 21.596 87.4293 21.8501 87.557 22.1042C87.8123 22.2312 88.0675 22.3582 88.3228 22.3582C88.5781 22.3582 88.8333 22.3582 88.961 22.1042C89.0886 21.9771 89.2162 21.723 89.2162 21.469C89.2162 21.3419 89.0886 21.0879 89.0886 20.9608C88.961 20.8338 88.8333 20.7068 88.5781 20.5797H88.4504C88.4504 20.5797 88.1952 20.4527 87.8123 20.3257C87.0465 20.0716 86.5359 19.8175 86.2806 19.4364C85.8977 19.0553 85.7701 18.5472 85.7701 18.039C85.7701 17.2768 86.0254 16.7686 86.5359 16.2605C87.0465 15.7524 87.6846 15.4983 88.4504 15.4983C89.2162 15.4983 89.8544 15.7524 90.2373 16.1335C90.7478 16.6416 91.0031 17.1498 91.0031 17.912H89.0886C89.0886 17.6579 88.961 17.5309 88.8333 17.4038C88.7057 17.2768 88.5781 17.2768 88.3228 17.2768C88.0675 17.2768 87.9399 17.2768 87.8123 17.4038C87.6846 17.5309 87.557 17.6579 87.557 17.912C87.557 18.166 87.6846 18.2931 87.8123 18.4201C87.9399 18.5472 88.3228 18.6742 88.8333 18.8012C89.7268 19.0553 90.3649 19.3094 90.6202 19.6905C90.8755 20.0716 91.1307 20.5797 91.1307 21.2149C91.1307 21.9771 90.8755 22.7393 90.3649 23.2475C89.8544 23.7556 89.0886 24.0097 88.1952 24.0097C87.3017 24.0097 86.5359 23.7556 86.0254 23.2475C85.6425 22.7393 85.3872 22.1042 85.3872 21.3419Z" fill="white"/>
<path d="M92.4072 23.8828V13.0847H94.3217V16.3876C94.577 16.1336 94.8323 15.8795 95.2152 15.7525C95.5981 15.6254 95.981 15.4984 96.3639 15.4984C97.2573 15.4984 98.0231 15.8795 98.6613 16.5147C99.2995 17.1499 99.5547 18.0391 99.5547 19.1824V23.8828H97.6402V19.5635C97.6402 18.8013 97.5126 18.2932 97.2573 17.9121C97.002 17.531 96.6192 17.4039 96.1086 17.4039C95.5981 17.4039 95.0875 17.531 94.8323 17.9121C94.577 18.2932 94.4494 18.8013 94.4494 19.5635V23.8828H92.4072Z" fill="white"/>
<path d="M105.043 15.4983C106.319 15.4983 107.34 15.8794 108.106 16.7686C108.872 17.6579 109.382 18.6742 109.382 19.8175C109.382 20.9608 108.999 21.9771 108.106 22.8664C107.34 23.7556 106.191 24.1367 105.043 24.1367C103.766 24.1367 102.745 23.7556 101.979 22.8664C101.214 21.9771 100.703 20.9608 100.703 19.8175C100.703 18.6742 101.086 17.6579 101.979 16.7686C102.745 15.8794 103.766 15.4983 105.043 15.4983ZM105.043 17.2768C104.277 17.2768 103.766 17.5309 103.383 18.039C103.001 18.5472 102.745 19.0553 102.745 19.8175C102.745 20.4527 103.001 21.0879 103.383 21.596C103.766 22.1042 104.405 22.3582 105.043 22.3582C105.681 22.3582 106.319 22.1042 106.702 21.596C107.085 21.0879 107.34 20.5797 107.34 19.8175C107.34 19.0553 107.085 18.5472 106.702 18.039C106.319 17.5309 105.808 17.2768 105.043 17.2768Z" fill="white"/>
<path d="M110.531 26.5505V15.7524H112.318V16.7687C112.573 16.3876 112.956 16.0065 113.339 15.7524C113.85 15.4984 114.36 15.3713 114.871 15.3713C116.02 15.3713 116.913 15.7524 117.806 16.5147C118.572 17.2769 118.955 18.2932 118.955 19.5635C118.955 20.7068 118.572 21.7231 117.806 22.6124C117.041 23.5016 116.02 23.8827 114.871 23.8827C114.36 23.8827 113.977 23.7557 113.467 23.6287C113.084 23.5016 112.701 23.1205 112.318 22.7394V26.2964H110.531V26.5505ZM114.743 17.2769C113.977 17.2769 113.467 17.5309 112.956 18.0391C112.573 18.5472 112.318 19.0554 112.318 19.8176C112.318 20.5798 112.573 21.215 112.956 21.5961C113.339 21.9772 113.977 22.2313 114.616 22.2313C115.254 22.2313 115.892 21.9772 116.275 21.4691C116.785 20.9609 116.913 20.4528 116.913 19.6906C116.913 18.9283 116.658 18.4202 116.275 17.9121C116.02 17.5309 115.509 17.2769 114.743 17.2769Z" fill="white"/>
<path d="M35.7376 0H3.44612C1.53161 0 0 1.52443 0 3.42997V35.57C0 37.4756 1.53161 39 3.44612 39H35.7376C37.6521 39 39.1837 37.4756 39.1837 35.57V3.42997C39.3113 1.52443 37.6521 0 35.7376 0Z" fill="white"/>
<path d="M19.5279 20.1986C23.1017 20.1986 26.0372 17.2768 26.0372 13.7198C26.0372 10.1628 23.1017 7.24097 19.5279 7.24097C15.9541 7.24097 13.0186 10.1628 13.0186 13.7198C13.0186 17.2768 15.9541 20.1986 19.5279 20.1986ZM19.5279 10.925C21.0595 10.925 22.2082 12.1954 22.2082 13.5928C22.2082 15.1172 20.9319 16.2605 19.5279 16.2605C17.9963 16.2605 16.8476 14.9902 16.8476 13.5928C16.8476 12.1954 17.9963 10.925 19.5279 10.925Z" fill="#4E5A65"/>
<path d="M22.2084 25.5341C23.4848 25.28 24.8888 24.6448 26.0375 24.0097C26.9309 23.5015 27.1862 22.2312 26.6756 21.3419C26.1651 20.4527 24.8888 20.1986 23.9953 20.7067C21.315 22.3582 17.8689 22.3582 15.1886 20.7067C14.2951 20.1986 13.1464 20.4527 12.5083 21.3419C11.9977 22.2312 12.253 23.3745 13.1464 24.0097C14.2951 24.7719 15.5715 25.28 16.9754 25.5341L13.2741 29.2181C12.5083 29.9804 12.5083 31.1237 13.2741 31.8859C13.657 32.267 14.1675 32.394 14.678 32.394C15.1886 32.394 15.6991 32.267 16.082 31.8859L19.6558 28.3289L23.2295 31.8859C23.9953 32.6481 25.144 32.6481 25.9098 31.8859C26.6756 31.1237 26.6756 29.9804 25.9098 29.2181L22.2084 25.5341Z" fill="#4E5A65"/>
</svg>
