<svg width="38" height="39" viewBox="0 0 38 39" fill="none" xmlns="http://www.w3.org/2000/svg">
<g clip-path="url(#clip0_27_31)">
<path d="M19.1159 5.47167H19.3476C27.2256 5.58809 31.5122 9.31346 33.3659 11.6418C34.2927 12.806 34.872 13.8538 35.2195 14.6687C33.8293 14.0866 31.9756 13.6209 30.4695 13.6209C30.2378 13.6209 30.0061 13.6209 29.7744 13.6209C27.6891 13.8538 25.8354 14.6687 24.6769 15.3672C23.2866 14.4358 21.2012 13.2717 19.1159 13.2717C19 13.2717 18.8842 13.2717 18.7683 13.2717C16.5671 13.3881 14.4817 14.4358 13.2073 15.2508C11.7012 14.4358 9.26832 13.3881 7.29881 13.2717C7.0671 13.2717 6.95125 13.2717 6.71954 13.2717C5.561 13.2717 4.40247 13.5045 3.47564 13.8538C3.93905 13.1552 4.40247 12.3403 5.21344 11.5254C7.0671 9.19704 11.4695 5.47167 19.1159 5.47167ZM19.1159 3.14331C3.12808 3.14331 -2.31705 18.0448 0.926856 18.0448C0.926856 18.0448 0.926856 18.0448 1.04271 18.0448C1.04271 18.0448 3.35978 15.6 6.71954 15.6C6.83539 15.6 7.0671 15.6 7.18295 15.6C9.73173 15.7164 13.4391 18.0448 13.4391 18.0448C13.4391 18.0448 16.1037 15.8329 19 15.6C19.1159 15.6 19.1159 15.6 19.2317 15.6C21.5488 15.6 24.561 18.1612 24.561 18.1612C24.561 18.1612 27.2256 16.2985 30.122 15.9493C30.2378 15.9493 30.4695 15.9493 30.5854 15.9493C33.1342 15.9493 37.0732 18.0448 37.0732 18.0448C37.0732 18.0448 37.0732 18.0448 37.189 18.0448C40.4329 18.0448 35.9147 3.37615 19.4634 3.14331C19.2317 3.14331 19.1159 3.14331 19.1159 3.14331Z" fill="white"/>
<path d="M15.6403 38.9999C14.7134 38.9999 13.9025 38.6506 13.3232 38.0686C12.0488 36.788 12.0488 34.8089 12.0488 34.576C12.0488 33.9939 12.6281 33.4118 13.2073 33.4118C13.9025 33.4118 14.3659 33.9939 14.3659 34.576C14.3659 34.9253 14.4817 35.973 14.9451 36.4387C15.061 36.5551 15.2927 36.6715 15.6403 36.6715C15.872 36.6715 16.1037 36.5551 16.3354 36.3223C17.4939 35.1581 17.6098 31.782 17.6098 30.6178L17.4939 15.3671C17.4939 14.6686 17.9573 14.2029 18.6525 14.2029C19.2317 14.2029 19.811 14.6686 19.811 15.3671L19.9268 30.6178C19.9268 31.0835 20.0427 35.8566 17.9573 37.9521C17.3781 38.6506 16.5671 38.9999 15.6403 38.9999Z" fill="white"/>
<path d="M18.4207 5.23881C17.7256 5.23881 17.2622 4.77313 17.2622 4.07463V1.16418C17.2622 0.465672 17.7256 0 18.4207 0C19.1159 0 19.5793 0.465672 19.5793 1.16418V4.07463C19.5793 4.65672 19.1159 5.23881 18.4207 5.23881Z" fill="white"/>
</g>
<defs>
<clipPath id="clip0_27_31">
<rect width="38" height="39" fill="white"/>
</clipPath>
</defs>
</svg>
