<svg width="32" height="41" viewBox="0 0 32 41" fill="none" xmlns="http://www.w3.org/2000/svg">
<g clip-path="url(#clip0_27_148)">
<path d="M8.13333 0C13.3333 0 18.5333 0 23.7333 0C23.7333 0 23.8667 0 23.8667 0.130159C24.8 0.390476 25.3333 1.04127 25.3333 2.08254C25.3333 2.2127 25.3333 2.34286 25.3333 2.47302C26 2.47302 26.5333 2.47302 27.0667 2.47302C29.8667 2.47302 31.8667 4.29524 31.8667 7.15873C31.8667 10.0222 31.8667 13.0159 31.8667 15.8794C31.8667 22.7778 31.8667 29.546 31.8667 36.4444C31.8667 38.6571 30.6667 40.3492 28.6667 40.8698C28.4 41 28.1333 41 27.8667 41.1302C19.8667 41.1302 11.7333 41.1302 3.73333 41.1302H3.6C1.46667 40.4794 0 38.7873 0 36.5746C0 26.6825 0 16.7905 0 6.89841C0 4.16508 2 2.34286 4.66667 2.34286C5.2 2.34286 5.86667 2.34286 6.4 2.34286C6.53333 1.82222 6.53333 1.43175 6.8 1.04127C7.06667 0.520635 7.6 0.260317 8.13333 0ZM6.53333 4.81587C5.86667 4.81587 5.33333 4.81587 4.66667 4.81587C3.33333 4.81587 2.4 5.59683 2.4 7.02857C2.4 16.9206 2.4 26.6825 2.4 36.5746C2.4 37.746 3.33333 38.6571 4.53333 38.6571C5.6 38.6571 6.66667 38.6571 7.6 38.6571C14.1333 38.6571 20.6667 38.6571 27.0667 38.6571C27.7333 38.6571 28.2667 38.527 28.8 38.0063C29.2 37.4857 29.3333 36.9651 29.3333 36.3143C29.3333 26.8127 29.3333 17.4413 29.3333 7.93968C29.3333 7.54921 29.3333 7.15873 29.3333 6.76825C29.3333 5.85714 28.8 5.33651 28 4.94603C27.0667 4.55556 26.1333 4.81587 25.2 4.81587C25.3333 6.50794 24.1333 7.28889 22.6667 7.28889C19.6 7.15873 16.6667 7.28889 13.6 7.28889C11.8667 7.28889 10.1333 7.28889 8.4 7.28889C7.46667 7.15873 6.66667 6.37778 6.53333 5.20635C6.53333 5.07619 6.53333 4.94603 6.53333 4.81587ZM9.06667 4.81587C13.7333 4.81587 18.4 4.81587 22.9333 4.81587C22.9333 4.03492 22.9333 3.25397 22.9333 2.47302C18.2667 2.47302 13.6 2.47302 9.06667 2.47302C9.06667 3.25397 9.06667 4.03492 9.06667 4.81587Z" fill="white"/>
<path d="M20.8 32.0191C19.3333 32.0191 18 32.0191 16.5333 32.0191C15.7333 32.0191 15.2 31.4985 15.2 30.8477C15.2 30.1969 15.7333 29.6763 16.5333 29.6763C19.3333 29.6763 22.1333 29.6763 25.0667 29.6763C25.8667 29.6763 26.4 30.1969 26.4 30.8477C26.4 31.4985 25.8667 32.0191 25.0667 32.0191C23.6 32.0191 22.2667 32.0191 20.8 32.0191Z" fill="white"/>
<path d="M20.8 16.0096C19.4667 16.0096 18 16.0096 16.6667 16.0096C15.8667 16.0096 15.3333 15.489 15.3333 14.8382C15.3333 14.1874 15.8667 13.6667 16.6667 13.6667C19.4667 13.6667 22.2667 13.6667 25.0667 13.6667C25.8667 13.6667 26.4 14.1874 26.5333 14.8382C26.5333 15.489 26 16.0096 25.0667 16.0096C23.6 16.0096 22.1333 16.0096 20.8 16.0096Z" fill="white"/>
<path d="M20.8 21.6064C22.1333 21.6064 23.6 21.6064 24.9333 21.6064C25.7333 21.6064 26.2667 22.1271 26.4 22.7779C26.4 23.4287 25.8667 23.9493 25.0667 23.9493C22.2667 23.9493 19.4667 23.9493 16.6667 23.9493C15.8667 23.9493 15.3333 23.4287 15.3333 22.7779C15.3333 22.1271 15.8667 21.6064 16.6667 21.6064C18 21.6064 19.3333 21.6064 20.8 21.6064Z" fill="white"/>
<path d="M8.26666 23.0381C9.2 22.127 10.1333 21.2159 11.0667 20.3048C11.3333 20.0445 11.7333 19.9143 12.1333 19.9143C12.6667 19.9143 12.9333 20.1746 13.2 20.5651C13.4667 21.0857 13.3333 21.4762 13.0667 21.8667C11.8667 23.1683 10.5333 24.3397 9.2 25.6413C8.8 26.0318 8.13333 26.0318 7.6 25.6413C7.06667 25.1207 6.4 24.6 5.86667 23.9492C5.46667 23.4286 5.46667 22.7778 5.86667 22.3873C6.26667 21.9968 7.06667 21.8667 7.6 22.2572C7.86667 22.3873 8 22.6476 8.26666 23.0381Z" fill="white"/>
<path d="M8.26666 30.9777C9.2 30.0666 10.1333 29.1555 11.0667 28.2444C11.4667 27.8539 11.8667 27.7237 12.4 27.9841C12.8 28.1142 13.0667 28.5047 13.2 28.8952C13.3333 29.2857 13.2 29.6761 12.8 29.9364C11.6 31.1079 10.4 32.2793 9.06667 33.5809C8.53333 34.1015 7.86667 34.1015 7.33333 33.5809C6.8 33.0603 6.26667 32.5396 5.73333 32.019C5.2 31.4984 5.2 30.8476 5.73333 30.3269C6.26667 29.8063 6.93333 29.8063 7.46667 30.3269C7.86667 30.4571 8.13333 30.7174 8.26666 30.9777Z" fill="white"/>
<path d="M8.4 14.4476C8.53333 14.1873 8.66666 14.0571 8.8 13.9269C9.6 13.146 10.4 12.365 11.2 11.5841C11.7333 11.0634 12.5333 11.0634 12.9333 11.5841C13.4667 12.1047 13.4667 12.7555 12.9333 13.2761C11.7333 14.4476 10.5333 15.619 9.33333 16.7904C8.8 17.3111 8.13333 17.3111 7.46666 16.7904C6.93333 16.2698 6.53333 15.8793 6 15.3587C5.46667 14.838 5.46667 14.0571 6 13.6666C6.53333 13.146 7.2 13.146 7.73333 13.6666C7.86667 13.9269 8 14.0571 8.4 14.4476Z" fill="white"/>
</g>
<defs>
<clipPath id="clip0_27_148">
<rect width="32" height="41" fill="white"/>
</clipPath>
</defs>
</svg>
