<svg width="38" height="31" viewBox="0 0 38 31" fill="none" xmlns="http://www.w3.org/2000/svg">
<g clip-path="url(#clip0_26_24)">
<path d="M35.5 25.6001H35.6C35.1 26.8001 33.9 28.2001 32.9 28.3001L5 28.6001C4.1 28.5001 2.9 27.0001 2.3 25.6001C2.5 25.6001 2.6 25.6001 2.9 25.6001H35.5ZM35.5 23.6001H2.9C1.5 23.6001 -0.199999 23.7001 1.11759e-06 24.8001C0.400001 26.9001 2.4 30.5001 4.9 30.6001L33.1 30.3001C35.2 30.1001 37.2 27.5001 37.7 25.8001C38.2 24.1001 36.9 23.6001 35.5 23.6001Z" fill="white"/>
<path d="M30.5798 2.03922C31.3616 2.03922 32.0456 2.75294 32.0456 3.56863V22.4314C32.0456 23.2471 31.3616 23.9608 30.5798 23.9608H7.4202C6.63844 23.9608 5.9544 23.2471 5.9544 22.4314V3.56863C5.9544 2.75294 6.63844 2.03922 7.4202 2.03922H30.5798ZM30.5798 0H7.4202C5.56352 0 4 1.63137 4 3.56863V22.4314C4 24.3686 5.56352 26 7.4202 26H30.5798C32.4365 26 34 24.3686 34 22.4314V3.56863C34 1.63137 32.4365 0 30.5798 0Z" fill="white"/>
</g>
<defs>
<clipPath id="clip0_26_24">
<rect width="37.8" height="30.6" fill="white"/>
</clipPath>
</defs>
</svg>
