<svg width="132" height="38" viewBox="0 0 132 38" fill="none" xmlns="http://www.w3.org/2000/svg">
<path d="M52.8989 22.9485V15.0524H54.6292V15.7927C54.8764 15.4225 55.1236 15.2992 55.4944 15.0524C55.8652 14.929 56.236 14.8057 56.6067 14.8057C57.1011 14.8057 57.5955 14.929 57.9663 15.1758C58.3371 15.4225 58.7079 15.6693 58.9551 16.0394C59.2022 15.6693 59.573 15.2992 60.0674 15.1758C60.4382 14.929 60.9326 14.8057 61.5506 14.8057C62.5393 14.8057 63.2809 15.1758 63.8989 15.7927C64.5169 16.4096 64.764 17.2732 64.764 18.3836V22.9485H62.9101V18.7537C62.9101 18.0135 62.7865 17.5199 62.5393 17.1498C62.2921 16.7797 61.9213 16.6563 61.427 16.6563C60.9326 16.6563 60.5618 16.9031 60.3146 17.1498C60.0674 17.5199 59.9438 18.0135 59.9438 18.7537V22.9485H58.0899V18.7537C58.0899 18.0135 57.9663 17.5199 57.7191 17.1498C57.4719 16.7797 57.1011 16.6563 56.6067 16.6563C56.1124 16.6563 55.7416 16.7797 55.4944 17.1498C55.2472 17.5199 55.1236 18.0135 55.1236 18.7537V22.9485H52.8989Z" fill="white"/>
<path d="M66.2472 25.5388V15.0518H67.9775V16.0388C68.2247 15.6687 68.5955 15.2985 68.9663 15.0518C69.4607 14.805 69.9551 14.6816 70.4494 14.6816C71.5618 14.6816 72.427 15.0518 73.2921 15.792C74.0337 16.5323 74.4045 17.5193 74.4045 18.7531C74.4045 19.8635 74.0337 20.8505 73.2921 21.7141C72.5506 22.5777 71.5618 22.9479 70.4494 22.9479C69.9551 22.9479 69.5843 22.8245 69.0899 22.7011C68.5955 22.5777 68.3483 22.2076 67.9775 21.8375V25.292H66.2472V25.5388ZM70.3258 16.6557C69.5843 16.6557 69.0899 16.9024 68.5955 17.3959C68.2247 17.8894 67.9775 18.3829 67.9775 19.1232C67.9775 19.8635 68.2247 20.4803 68.5955 20.8505C68.9663 21.2206 69.5843 21.4674 70.2022 21.4674C70.8202 21.4674 71.4382 21.2206 71.809 20.7271C72.3034 20.2336 72.427 19.7401 72.427 18.9998C72.427 18.2596 72.1798 17.7661 71.809 17.2725C71.5618 16.779 71.0674 16.6557 70.3258 16.6557Z" fill="white"/>
<path d="M75.6404 22.9485V15.0524H77.3708V15.7927C77.4944 15.4225 77.7416 15.1758 78.1124 15.0524C78.4831 14.929 78.8539 14.8057 79.2247 14.8057V16.6563C78.7303 16.6563 78.236 16.7797 77.9888 17.1498C77.7416 17.5199 77.4944 18.0135 77.618 18.7537V22.9485H75.6404Z" fill="white"/>
<path d="M81.3258 21.0977H79.4719V22.9483H81.3258V21.0977Z" fill="white"/>
<path d="M82.6854 20.481H84.5393C84.5393 20.7277 84.6629 20.9745 84.7865 21.2212C85.0337 21.3446 85.2809 21.468 85.5281 21.468C85.7753 21.468 86.0225 21.468 86.1461 21.2212C86.2697 21.0979 86.3933 20.8511 86.3933 20.6044C86.3933 20.481 86.2697 20.2342 86.2697 20.1109C86.1461 19.9875 86.0225 19.8641 85.7753 19.7407H85.6517C85.6517 19.7407 85.4045 19.6174 85.0337 19.494C84.2921 19.2472 83.7977 19.0005 83.5506 18.6303C83.1798 18.2602 83.0562 17.7667 83.0562 17.2732C83.0562 16.5329 83.3034 16.0394 83.7977 15.5459C84.2921 15.0524 84.9101 14.8057 85.6517 14.8057C86.3933 14.8057 87.0112 15.0524 87.382 15.4225C87.8764 15.9161 88.1236 16.4096 88.1236 17.1498H86.2697C86.2697 16.9031 86.1461 16.7797 86.0225 16.6563C85.8989 16.5329 85.7753 16.5329 85.5281 16.5329C85.2809 16.5329 85.1573 16.5329 85.0337 16.6563C84.9101 16.7797 84.7865 16.9031 84.7865 17.1498C84.7865 17.3966 84.9101 17.5199 85.0337 17.6433C85.1573 17.7667 85.5281 17.8901 86.0225 18.0135C86.8876 18.2602 87.5056 18.507 87.7528 18.8771C88.1236 19.2472 88.2472 19.7407 88.2472 20.3576C88.2472 21.0979 88 21.8381 87.5056 22.3316C87.0112 22.8251 86.2697 23.0719 85.4045 23.0719C84.5393 23.0719 83.7977 22.8251 83.3034 22.3316C82.9326 21.8381 82.6854 21.2212 82.6854 20.481Z" fill="white"/>
<path d="M89.4831 22.948V12.4609H91.3371V15.6687C91.5843 15.422 91.8315 15.1752 92.2022 15.0518C92.573 14.9285 92.9438 14.8051 93.3146 14.8051C94.1798 14.8051 94.9214 15.1752 95.5393 15.7921C96.1573 16.409 96.4045 17.2726 96.4045 18.383V22.948H94.5506V18.7531C94.5506 18.0129 94.427 17.5194 94.1798 17.1492C93.9326 16.7791 93.5618 16.6557 93.0674 16.6557C92.573 16.6557 92.0787 16.7791 91.8315 17.1492C91.5843 17.5194 91.4607 18.0129 91.4607 18.7531V22.948H89.4831Z" fill="white"/>
<path d="M101.719 14.8057C102.955 14.8057 103.944 15.1758 104.685 16.0394C105.427 16.9031 105.921 17.8901 105.921 19.0005C105.921 20.1109 105.551 21.0979 104.685 21.9615C103.944 22.8251 102.831 23.1953 101.719 23.1953C100.483 23.1953 99.4944 22.8251 98.7528 21.9615C98.0112 21.0979 97.5169 20.1109 97.5169 19.0005C97.5169 17.8901 97.8876 16.9031 98.7528 16.0394C99.4944 15.1758 100.607 14.8057 101.719 14.8057ZM101.719 16.6563C100.978 16.6563 100.483 16.9031 100.112 17.3966C99.7416 17.8901 99.4944 18.3836 99.4944 19.1238C99.4944 19.7407 99.7416 20.3576 100.112 20.8511C100.483 21.3446 101.101 21.5914 101.719 21.5914C102.337 21.5914 102.955 21.3446 103.326 20.8511C103.697 20.3576 103.944 19.8641 103.944 19.1238C103.944 18.507 103.697 17.8901 103.326 17.3966C102.955 16.9031 102.461 16.6563 101.719 16.6563Z" fill="white"/>
<path d="M107.034 25.5388V15.0518H108.764V16.0388C109.011 15.6687 109.382 15.2985 109.753 15.0518C110.247 14.805 110.742 14.6816 111.236 14.6816C112.348 14.6816 113.213 15.0518 114.079 15.792C114.82 16.5323 115.191 17.5193 115.191 18.7531C115.191 19.8635 114.82 20.8505 114.079 21.7141C113.337 22.5777 112.348 22.9479 111.236 22.9479C110.742 22.9479 110.371 22.8245 109.876 22.7011C109.506 22.5777 109.135 22.2076 108.764 21.8375V25.292H107.034V25.5388ZM111.112 16.6557C110.371 16.6557 109.876 16.9024 109.382 17.3959C109.011 17.8894 108.764 18.3829 108.764 19.1232C108.764 19.8635 109.011 20.4803 109.382 20.8505C109.753 21.2206 110.371 21.4674 110.989 21.4674C111.607 21.4674 112.225 21.2206 112.596 20.7271C113.09 20.2336 113.213 19.7401 113.213 18.9998C113.213 18.2596 112.966 17.7661 112.596 17.2725C112.348 16.779 111.854 16.6557 111.112 16.6557Z" fill="white"/>
<path d="M118.528 21.0977H116.674V22.9483H118.528V21.0977Z" fill="white"/>
<path d="M120.382 22.9485V15.0524H122.112V15.7927C122.236 15.4225 122.483 15.1758 122.854 15.0524C123.225 14.929 123.472 14.8057 123.966 14.8057V16.6563C123.472 16.6563 122.978 16.7797 122.73 17.1498C122.483 17.5199 122.236 18.0135 122.36 18.7537V22.9485H120.382Z" fill="white"/>
<path d="M132 15.0518V22.9479H130.27V22.2076C130.022 22.5777 129.775 22.7011 129.404 22.9479C129.034 23.0712 128.663 23.1946 128.292 23.1946C127.18 23.1946 126.438 22.8245 125.944 22.2076C125.449 21.5907 125.202 20.6037 125.202 19.3699V15.1751H127.056V19.1232C127.056 19.9868 127.18 20.4803 127.427 20.8505C127.674 21.2206 128.045 21.4673 128.663 21.344C129.157 21.344 129.652 21.2206 129.899 20.8505C130.146 20.4803 130.27 19.8634 130.27 19.1232V15.1751H132V15.0518Z" fill="white"/>
<path d="M34.6067 0H3.33708C1.48315 0 0 1.48052 0 3.33117V34.5455C0 36.3961 1.48315 37.8766 3.33708 37.8766H34.6067C36.4607 37.8766 37.9438 36.3961 37.9438 34.5455V3.33117C38.0674 1.48052 36.4607 0 34.6067 0Z" fill="white"/>
<path d="M21.1348 33.1888V20.7277H25.3371L25.9551 15.7927H21.1348V12.7082C21.1348 11.3511 21.5056 10.3641 23.6067 10.3641H26.2022V5.92253C25.7079 5.92253 24.2247 5.67578 22.3708 5.67578C18.6629 5.67578 16.0674 7.89656 16.0674 12.0914V15.6693H11.8652V20.6044H16.0674V33.0654H21.1348V33.1888Z" fill="#ED1D24"/>
</svg>
