<svg width="31" height="36" viewBox="0 0 31 36" fill="none" xmlns="http://www.w3.org/2000/svg">
<g clip-path="url(#clip0_26_73)">
<path d="M4.16252 10.125L27.0565 10.35C27.3851 10.4625 28.1519 11.25 28.5901 12.0375H2.62895C3.17665 11.025 3.83389 10.125 4.16252 10.125ZM4.05298 7.875C1.9717 7.9875 0.328594 11.25 -2.82247e-05 13.1625C-0.21911 14.175 1.20492 14.2875 2.40987 14.2875H29.2473C30.3427 14.2875 31.4381 13.8375 31 12.2625C30.5618 10.575 28.9187 8.325 27.2756 8.1L4.05298 7.875Z" fill="white"/>
<path d="M25.742 14.8499C26.6183 14.8499 27.3851 15.6374 27.3851 16.5374V32.1749C27.3851 33.0749 26.6183 33.8624 25.742 33.8624H5.91516C5.03883 33.8624 4.27205 33.0749 4.27205 32.1749V16.5374C4.27205 15.6374 5.03883 14.8499 5.91516 14.8499H25.742ZM25.742 12.5999H5.91516C3.83389 12.5999 2.08124 14.3999 2.08124 16.5374V32.1749C2.08124 34.3124 3.83389 36.1124 5.91516 36.1124H25.8516C27.9328 36.1124 29.6855 34.3124 29.6855 32.1749V16.5374C29.5759 14.2874 27.8233 12.5999 25.742 12.5999Z" fill="white"/>
<path d="M16.4311 7.9874H14.8975C14.0212 7.9874 13.3639 7.1999 13.3639 6.4124C13.3639 5.5124 14.1307 4.8374 14.8975 4.8374H16.4311C17.3074 4.8374 17.9646 5.6249 17.9646 6.4124C17.9646 7.3124 17.3074 7.9874 16.4311 7.9874Z" stroke="white" stroke-width="2" stroke-miterlimit="10"/>
<path d="M25.6325 8.09981H20.3745C19.4982 8.09981 18.7314 7.3123 18.7314 6.4123L18.2933 4.4998C18.2933 3.5998 23.6608 1.6873 23.6608 1.6873C26.2897 0.674805 27.2756 2.1373 27.2756 3.0373V6.4123C27.2756 7.3123 26.5088 8.09981 25.6325 8.09981Z" stroke="white" stroke-width="2" stroke-miterlimit="10"/>
<path d="M5.91517 7.87488H11.1731C12.0494 7.87488 12.8162 7.08738 12.8162 6.18738L13.1449 4.38738C13.1449 3.37488 7.77736 1.46238 7.77736 1.46238C5.14839 0.449882 4.27206 1.91238 4.27206 2.92488V6.29988C4.27206 7.19988 5.03885 7.87488 5.91517 7.87488Z" stroke="white" stroke-width="2" stroke-miterlimit="10"/>
<path d="M17.636 13.4999H14.0212C12.9258 13.4999 11.9399 12.5999 11.9399 11.3624C11.9399 10.2374 12.8162 9.22485 14.0212 9.22485H17.636C18.7314 9.22485 19.7173 10.1249 19.7173 11.3624C19.6078 12.4874 18.7314 13.4999 17.636 13.4999Z" stroke="white" stroke-width="2" stroke-miterlimit="10"/>
<path d="M13.1449 13.3875H18.6219C19.7173 13.3875 20.5936 14.2875 20.5936 15.4125V32.4C20.5936 33.525 19.7173 34.425 18.6219 34.425H13.1449C12.0495 34.425 11.1731 33.525 11.1731 32.4V15.4125C11.1731 14.2875 12.0495 13.3875 13.1449 13.3875Z" stroke="white" stroke-width="2" stroke-miterlimit="10"/>
</g>
<defs>
<clipPath id="clip0_26_73">
<rect width="31" height="36" fill="white"/>
</clipPath>
</defs>
</svg>
