<svg width="118" height="39" viewBox="0 0 118 39" fill="none" xmlns="http://www.w3.org/2000/svg">
<path d="M53.7095 23.2988V15.1949H55.4663V15.9546C55.7173 15.5748 55.9683 15.4481 56.3447 15.1949C56.7212 15.0683 57.0977 14.9417 57.4741 14.9417C57.9761 14.9417 58.4781 15.0683 58.8545 15.3215C59.231 15.5748 59.6075 15.828 59.8584 16.2079C60.1094 15.828 60.4859 15.4481 60.9878 15.3215C61.3643 15.0683 61.8663 14.9417 62.4937 14.9417C63.4976 14.9417 64.2506 15.3215 64.878 15.9546C65.5054 16.5878 65.7564 17.4741 65.7564 18.6137V23.2988H63.8741V18.9936C63.8741 18.2339 63.7486 17.7274 63.4976 17.3475C63.2466 16.9676 62.8702 16.841 62.3682 16.841C61.8663 16.841 61.4898 17.0942 61.2388 17.3475C60.9878 17.6007 60.8623 18.2339 60.8623 18.9936V23.2988H58.98V18.9936C58.98 18.2339 58.8545 17.7274 58.6035 17.3475C58.3526 16.9676 57.9761 16.841 57.4741 16.841C56.9722 16.841 56.5957 16.9676 56.3447 17.3475C56.0938 17.7274 55.9683 18.2339 55.9683 18.9936V23.2988H53.7095Z" fill="white"/>
<path d="M67.2622 25.9578V15.1948H69.0191V16.2078C69.27 15.8279 69.6465 15.4481 70.023 15.1948C70.5249 14.9416 71.0269 14.8149 71.5288 14.8149C72.6582 14.8149 73.5367 15.1948 74.4151 15.9546C75.168 16.7143 75.5445 17.7273 75.5445 18.9935C75.5445 20.1331 75.168 21.1461 74.4151 22.0325C73.6622 22.9188 72.6582 23.2987 71.5288 23.2987C71.0269 23.2987 70.6504 23.1721 70.1485 23.0455C69.772 22.9188 69.3955 22.539 69.0191 22.1591V25.7046H67.2622V25.9578ZM71.4034 16.8409C70.6504 16.8409 70.1485 17.0942 69.6465 17.6007C69.27 18.1071 69.0191 18.6136 69.0191 19.3734C69.0191 20.1331 69.27 20.7662 69.6465 21.1461C70.023 21.526 70.6504 21.7792 71.2779 21.7792C71.9053 21.7792 72.5328 21.526 72.9092 21.0195C73.4112 20.513 73.5367 20.0065 73.5367 19.2468C73.5367 18.487 73.2857 17.9805 72.9092 17.474C72.6582 17.0942 72.1563 16.8409 71.4034 16.8409Z" fill="white"/>
<path d="M76.7993 23.2988V15.1949H78.5562V15.9546C78.6816 15.5748 78.9326 15.3215 79.3091 15.1949C79.6856 15.0683 80.062 14.9417 80.4385 14.9417V16.841C79.9365 16.841 79.4346 16.9676 79.1836 17.3475C78.9326 17.7274 78.6816 18.2339 78.8071 18.9936V23.2988H76.7993Z" fill="white"/>
<path d="M82.5718 21.3994H80.6895V23.2988H82.5718V21.3994Z" fill="white"/>
<path d="M83.9521 20.7663H85.8345C85.8345 21.0196 85.96 21.2728 86.0855 21.5261C86.3364 21.6527 86.5874 21.7793 86.8384 21.7793C87.0894 21.7793 87.3403 21.7793 87.4658 21.5261C87.5913 21.3994 87.7168 21.1462 87.7168 20.8929C87.7168 20.7663 87.5913 20.5131 87.5913 20.3865C87.4658 20.2598 87.3404 20.1332 87.0894 20.0066H86.9639C86.9639 20.0066 86.7129 19.88 86.3364 19.7533C85.5835 19.5001 85.0815 19.2468 84.8306 18.867C84.4541 18.4871 84.3286 17.9806 84.3286 17.4741C84.3286 16.7144 84.5796 16.2079 85.0816 15.7014C85.5835 15.1949 86.211 14.9417 86.9639 14.9417C87.7168 14.9417 88.3443 15.1949 88.7207 15.5748C89.2227 16.0813 89.4737 16.5878 89.4737 17.3475H87.5913C87.5913 17.0942 87.4658 16.9676 87.3404 16.841C87.2149 16.7144 87.0894 16.7144 86.8384 16.7144C86.5874 16.7144 86.4619 16.7144 86.3364 16.841C86.211 16.9676 86.0855 17.0942 86.0855 17.3475C86.0855 17.6007 86.211 17.7274 86.3364 17.854C86.4619 17.9806 86.8384 18.1072 87.3404 18.2339C88.2188 18.4871 88.8462 18.7404 89.0972 19.1202C89.3482 19.5001 89.5992 20.0066 89.5992 20.6397C89.5992 21.3994 89.3482 22.1592 88.8462 22.6657C88.3443 23.1722 87.5913 23.4254 86.7129 23.4254C85.8345 23.4254 85.0816 23.1722 84.5796 22.6657C84.2031 22.1592 83.9521 21.5261 83.9521 20.7663Z" fill="white"/>
<path d="M90.854 23.2986V12.5356H92.7363V15.8279C92.9873 15.5746 93.2383 15.3214 93.6148 15.1947C93.9912 15.0681 94.3677 14.9415 94.7442 14.9415C95.6226 14.9415 96.3755 15.3214 97.003 15.9545C97.6304 16.5876 97.8814 17.474 97.8814 18.6136V23.2986H95.9991V18.9934C95.9991 18.2337 95.8736 17.7272 95.6226 17.3473C95.3716 16.9675 94.9951 16.8408 94.4932 16.8408C93.9912 16.8408 93.4893 16.9675 93.2383 17.3473C92.8618 17.7272 92.7363 18.3603 92.7363 18.9934V23.2986H90.854Z" fill="white"/>
<path d="M103.277 14.9417C104.532 14.9417 105.536 15.3215 106.289 16.2079C107.042 17.0942 107.544 18.1072 107.544 19.2468C107.544 20.3865 107.168 21.3994 106.289 22.2858C105.536 23.1722 104.407 23.552 103.277 23.552C102.022 23.552 101.019 23.1722 100.266 22.2858C99.5127 21.3994 99.0107 20.3865 99.0107 19.2468C99.0107 18.1072 99.3872 17.0942 100.266 16.2079C101.019 15.4481 102.148 14.9417 103.277 14.9417ZM103.277 16.841C102.524 16.841 102.022 17.0942 101.646 17.6007C101.27 18.1072 101.019 18.6137 101.019 19.3735C101.019 20.0066 101.27 20.6397 101.646 21.1462C102.022 21.6527 102.65 21.9059 103.277 21.9059C103.905 21.9059 104.532 21.6527 104.909 21.1462C105.285 20.6397 105.536 20.1332 105.536 19.3735C105.536 18.6137 105.285 18.1072 104.909 17.6007C104.532 17.0942 104.03 16.841 103.277 16.841Z" fill="white"/>
<path d="M108.673 25.9578V15.1948H110.43V16.2078C110.681 15.8279 111.058 15.4481 111.434 15.1948C111.936 14.9416 112.438 14.8149 112.94 14.8149C114.069 14.8149 114.948 15.1948 115.826 15.9546C116.579 16.7143 116.956 17.7273 116.956 18.9935C116.956 20.1331 116.579 21.1461 115.826 22.0325C115.073 22.9188 114.069 23.2987 112.94 23.2987C112.438 23.2987 112.062 23.1721 111.56 23.0455C111.183 22.9188 110.807 22.539 110.43 22.1591V25.7046H108.673V25.9578ZM112.814 16.8409C112.062 16.8409 111.56 17.0942 111.058 17.6007C110.681 18.1071 110.43 18.6136 110.43 19.3734C110.43 20.1331 110.681 20.7662 111.058 21.1461C111.434 21.526 112.062 21.7792 112.689 21.7792C113.316 21.7792 113.944 21.526 114.32 21.0195C114.822 20.513 114.948 20.0065 114.948 19.2468C114.948 18.487 114.697 17.9805 114.32 17.474C114.069 17.0942 113.567 16.8409 112.814 16.8409Z" fill="white"/>
<path d="M35.1369 0H3.3882C1.50587 0 0 1.51948 0 3.41883V35.4545C0 37.3539 1.50587 38.8734 3.3882 38.8734H35.1369C37.0193 38.8734 38.5251 37.3539 38.5251 35.4545V3.41883C38.6506 1.51948 37.0193 0 35.1369 0Z" fill="white"/>
<path fill-rule="evenodd" clip-rule="evenodd" d="M18.949 28.3637H20.7059C20.7059 28.3637 21.2078 28.3637 21.4588 27.9838C21.7098 27.7306 21.7098 27.2241 21.7098 27.2241C21.7098 27.2241 21.7098 24.8182 22.7137 24.565C23.8431 24.1851 25.098 26.8442 26.6039 27.8572C27.7333 28.6169 28.4862 28.4903 28.4862 28.4903H32.3764C32.3764 28.4903 34.3842 28.3637 33.5058 26.7176C33.3803 26.591 33.0038 25.578 30.6195 23.2988C28.2352 21.0195 28.4862 21.3994 31.4979 17.4741C33.2548 15.0682 34.0077 13.5488 33.7567 12.9156C33.5058 12.2825 32.2509 12.5358 32.2509 12.5358H27.8588C27.8588 12.5358 27.4823 12.5358 27.2313 12.6624C26.9803 12.789 26.8548 13.1689 26.8548 13.1689C26.8548 13.1689 26.1019 15.0682 25.2235 16.5877C23.2157 19.8799 22.4627 20.1332 22.2117 19.8799C21.4588 19.3734 21.7098 17.9806 21.7098 16.841C21.7098 13.5488 22.2117 12.2825 20.7059 11.9027C20.2039 11.776 19.8275 11.6494 18.6981 11.6494C17.1922 11.6494 15.8118 11.6494 15.0589 12.0293C14.5569 12.2825 14.1804 12.789 14.4314 12.9156C14.6824 12.9156 15.4353 13.0423 15.6863 13.5488C16.1883 14.1819 16.0628 15.5747 16.0628 15.5747C16.0628 15.5747 16.3138 19.3734 15.4353 19.8799C14.8079 20.2598 14.055 19.5001 12.2981 16.4611C11.4197 14.9416 10.7922 13.1689 10.7922 13.1689C10.7922 13.1689 10.7922 12.789 10.5413 12.6624C10.2903 12.4092 9.78833 12.4092 9.78833 12.4092H5.6472C5.6472 12.4092 5.01975 12.4092 4.76877 12.6624C4.51779 12.9156 4.76877 13.4221 4.76877 13.4221C4.76877 13.4221 8.03149 21.1462 11.6707 24.9449C15.1844 28.4903 18.949 28.3637 18.949 28.3637Z" fill="#4E5A65"/>
</svg>
