<svg width="120" height="39" viewBox="0 0 120 39" fill="none" xmlns="http://www.w3.org/2000/svg">
<path d="M57.018 17.896H55.898V24H54.036V17.896H53.126V16.244H54.036V13.64H55.898V16.244H57.018V17.896ZM66.4373 20.122V20.332C66.4373 20.528 66.4233 20.7333 66.3953 20.948H60.3193C60.4406 21.4147 60.6833 21.788 61.0473 22.068C61.4206 22.348 61.8546 22.488 62.3493 22.488C62.6759 22.488 62.9793 22.4367 63.2593 22.334C63.5953 22.2033 63.8706 22.012 64.0853 21.76H66.1853C65.8399 22.572 65.3266 23.1927 64.6453 23.622C63.9733 24.042 63.2313 24.252 62.4193 24.252C61.1313 24.252 60.0999 23.7947 59.3253 22.88C58.6533 22.0867 58.3173 21.186 58.3173 20.178C58.3173 19.1513 58.6533 18.232 59.3253 17.42C60.1093 16.468 61.1499 15.992 62.4473 15.992C63.6233 15.992 64.5799 16.3887 65.3173 17.182C66.0639 17.966 66.4373 18.946 66.4373 20.122ZM64.4913 19.296C64.3606 18.8107 64.1086 18.4327 63.7353 18.162C63.3619 17.8913 62.9326 17.756 62.4473 17.756C61.9433 17.756 61.4953 17.896 61.1033 18.176C60.7206 18.456 60.4499 18.8293 60.2913 19.296H64.4913ZM70.1703 24H68.3083V13.64H70.1703V24ZM80.1556 20.122V20.332C80.1556 20.528 80.1416 20.7333 80.1136 20.948H74.0376C74.159 21.4147 74.4016 21.788 74.7656 22.068C75.139 22.348 75.573 22.488 76.0676 22.488C76.3943 22.488 76.6976 22.4367 76.9776 22.334C77.3136 22.2033 77.589 22.012 77.8036 21.76H79.9036C79.5583 22.572 79.045 23.1927 78.3636 23.622C77.6916 24.042 76.9496 24.252 76.1376 24.252C74.8496 24.252 73.8183 23.7947 73.0436 22.88C72.3716 22.0867 72.0356 21.186 72.0356 20.178C72.0356 19.1513 72.3716 18.232 73.0436 17.42C73.8276 16.468 74.8683 15.992 76.1656 15.992C77.3416 15.992 78.2983 16.3887 79.0356 17.182C79.7823 17.966 80.1556 18.946 80.1556 20.122ZM78.2096 19.296C78.079 18.8107 77.827 18.4327 77.4536 18.162C77.0803 17.8913 76.651 17.756 76.1656 17.756C75.6616 17.756 75.2136 17.896 74.8216 18.176C74.439 18.456 74.1683 18.8293 74.0096 19.296H78.2096ZM89.7547 22.824C89.7547 24.1493 89.33 25.1947 88.4807 25.96C87.706 26.66 86.74 27.01 85.5827 27.01C84.64 27.01 83.814 26.7627 83.1047 26.268C82.4047 25.7733 81.938 25.0733 81.7047 24.168H83.8467C83.9587 24.5133 84.1687 24.7793 84.4767 24.966C84.794 25.1527 85.1627 25.246 85.5827 25.246C86.2267 25.246 86.7727 25.0407 87.2207 24.63C87.6687 24.2193 87.8927 23.7247 87.8927 23.146V22.866C87.5754 23.286 87.2254 23.594 86.8427 23.79C86.4694 23.986 86.04 24.084 85.5547 24.084C84.472 24.084 83.548 23.6873 82.7827 22.894C82.0174 22.1007 81.6347 21.1393 81.6347 20.01C81.6347 18.834 82.0174 17.8727 82.7827 17.126C83.5574 16.37 84.4954 15.992 85.5967 15.992C86.026 15.992 86.4134 16.062 86.7587 16.202C87.3 16.4167 87.72 16.7853 88.0187 17.308L88.0467 16.244H89.7547V22.824ZM88.0047 20.066C88.0047 19.366 87.7994 18.806 87.3887 18.386C86.978 17.966 86.432 17.756 85.7507 17.756C85.0507 17.756 84.4907 17.9847 84.0707 18.442C83.688 18.862 83.4967 19.38 83.4967 19.996C83.4967 20.6493 83.688 21.1907 84.0707 21.62C84.4907 22.0867 85.0507 22.32 85.7507 22.32C86.432 22.32 86.978 22.1053 87.3887 21.676C87.7994 21.2467 88.0047 20.71 88.0047 20.066ZM95.4969 17.798C94.9369 17.798 94.5169 17.9707 94.2369 18.316C93.9662 18.652 93.8309 19.1513 93.8309 19.814V24H91.9689V16.244H93.6769V16.944C94.0596 16.3 94.6056 15.978 95.3149 15.978C95.3989 15.9873 95.4596 15.992 95.4969 15.992V17.798ZM104.881 24H103.173V22.95C102.865 23.37 102.483 23.692 102.025 23.916C101.577 24.14 101.087 24.252 100.555 24.252C99.5286 24.252 98.6513 23.888 97.9233 23.16C97.1486 22.3853 96.7613 21.396 96.7613 20.192C96.7613 18.988 97.1299 17.9893 97.8673 17.196C98.6139 16.3933 99.5286 15.992 100.611 15.992C101.731 15.992 102.576 16.44 103.145 17.336L103.173 16.244H104.881V24ZM103.131 20.108C103.131 19.4267 102.926 18.8667 102.515 18.428C102.114 17.98 101.577 17.756 100.905 17.756C100.243 17.756 99.6966 17.9847 99.2673 18.442C98.8379 18.8993 98.6233 19.4827 98.6233 20.192C98.6233 20.8547 98.8333 21.4053 99.2533 21.844C99.6826 22.2733 100.233 22.488 100.905 22.488C101.568 22.488 102.105 22.2687 102.515 21.83C102.926 21.3913 103.131 20.8173 103.131 20.108ZM118.757 24H116.895V19.884C116.895 19.3147 116.825 18.876 116.685 18.568C116.443 18.0267 116.004 17.756 115.369 17.756C114.753 17.756 114.324 18.022 114.081 18.554C113.932 18.8807 113.857 19.324 113.857 19.884V24H111.995V19.884C111.995 19.3147 111.925 18.876 111.785 18.568C111.543 18.0267 111.104 17.756 110.469 17.756C109.853 17.756 109.424 18.022 109.181 18.554C109.032 18.8807 108.957 19.324 108.957 19.884V24H107.095V16.244H108.803V16.958C109.065 16.6033 109.377 16.356 109.741 16.216C110.115 16.0667 110.483 15.992 110.847 15.992C111.286 15.992 111.692 16.0807 112.065 16.258C112.513 16.4727 112.863 16.7853 113.115 17.196C113.367 16.8413 113.675 16.566 114.039 16.37C114.497 16.118 115.015 15.992 115.593 15.992C116.555 15.992 117.32 16.3 117.889 16.916C118.468 17.5227 118.757 18.372 118.757 19.464V24Z" fill="white"/>
<g clip-path="url(#clip0_303_588)">
<path d="M35.5079 0H3.49214C1.54614 0 0 1.54614 0 3.49214V35.5079C0 37.4272 1.54614 39 3.49214 39H35.5079C37.4272 39 39 37.4539 39 35.5079V3.49214C39 1.54614 37.4272 0 35.5079 0ZM31.6425 11.9159C30.4696 17.434 29.2966 22.9522 28.1237 28.4436C28.0704 28.7368 27.9638 29.0034 27.8305 29.27C27.5639 29.7498 27.1374 29.9364 26.6042 29.7765C26.3377 29.6965 26.0977 29.5899 25.8578 29.4299C24.0718 28.1504 22.3124 26.8442 20.553 25.5379C20.473 25.4846 20.4197 25.4313 20.3131 25.378C20.2331 25.4313 20.1798 25.4846 20.1265 25.5646C19.2201 26.4176 18.3137 27.2973 17.4074 28.1504C17.1408 28.4169 16.8209 28.5502 16.4211 28.5502C16.4477 28.2037 16.4744 27.8571 16.501 27.5106C16.6077 25.9911 16.7143 24.4716 16.8209 22.9788C16.8209 22.8722 16.9009 22.7389 16.9809 22.6589C20.4197 19.5666 23.8585 16.4744 27.2973 13.4087C27.324 13.3821 27.3506 13.3821 27.3773 13.3554C27.4306 13.2488 27.5106 13.1155 27.5639 12.9822C27.404 12.9556 27.2707 12.8756 27.1107 12.9023C26.9508 12.9289 26.7908 13.0355 26.6309 13.1155C22.3657 15.7813 18.0738 18.4737 13.8086 21.1394C13.702 21.1928 13.5687 21.2194 13.4621 21.1928C11.6493 20.6329 9.83664 20.0731 8.02392 19.5133C7.65072 19.4067 7.33083 19.2468 7.11757 18.8735C7.11757 18.7669 7.11757 18.6869 7.11757 18.5803C7.33083 18.1538 7.70403 17.9139 8.13055 17.7539C9.78332 17.1141 11.4627 16.4744 13.1155 15.8346C18.8202 13.6487 24.4983 11.4627 30.203 9.30349C30.3363 9.25017 30.4696 9.19686 30.6295 9.19686C31.4026 9.09023 31.9357 9.5434 31.9091 10.3431C31.8824 10.8496 31.7491 11.3828 31.6425 11.9159Z" fill="white"/>
</g>
<defs>
<clipPath id="clip0_303_588">
<rect width="39" height="39" fill="white"/>
</clipPath>
</defs>
</svg>
