<svg width="224" height="128" viewBox="0 0 224 128" fill="none" xmlns="http://www.w3.org/2000/svg">
<path d="M139.021 23.8424V15.7689H140.789V16.5258C141.042 16.1473 141.294 16.0212 141.673 15.7689C142.052 15.6427 142.431 15.5166 142.809 15.5166C143.315 15.5166 143.82 15.6428 144.198 15.895C144.577 16.1473 144.956 16.3996 145.209 16.7781C145.461 16.3996 145.84 16.0212 146.345 15.895C146.724 15.6428 147.229 15.5166 147.86 15.5166C148.87 15.5166 149.628 15.895 150.259 16.5258C150.891 17.1565 151.143 18.0396 151.143 19.1749V23.8424H149.249V19.5534C149.249 18.7965 149.123 18.2919 148.87 17.9134C148.618 17.535 148.239 17.4088 147.734 17.4088C147.229 17.4088 146.85 17.6611 146.598 17.9134C146.345 18.2919 146.219 18.7965 146.219 19.5534V23.8424H144.325V19.5534C144.325 18.7965 144.198 18.2919 143.946 17.9134C143.693 17.535 143.315 17.4088 142.809 17.4088C142.304 17.4088 141.926 17.535 141.673 17.9134C141.421 18.2919 141.294 18.7965 141.294 19.5534V23.8424H139.021Z" fill="white"/>
<path d="M152.658 26.6177V15.895H154.426V16.9042C154.679 16.5258 155.057 16.1473 155.436 15.895C155.941 15.6428 156.446 15.5166 156.952 15.5166C158.088 15.5166 158.972 15.895 159.856 16.6519C160.613 17.4088 160.992 18.418 160.992 19.6795C160.992 20.8148 160.613 21.824 159.856 22.7071C159.098 23.5901 158.088 23.9686 156.952 23.9686C156.446 23.9686 156.068 23.8424 155.563 23.7163C155.057 23.5901 154.805 23.2117 154.426 22.8332V26.3654H152.658V26.6177ZM156.825 17.4088C156.068 17.4088 155.563 17.6611 155.057 18.1657C154.679 18.6703 154.426 19.1749 154.426 19.9318C154.426 20.6887 154.679 21.3194 155.057 21.6979C155.436 22.0763 156.068 22.3286 156.699 22.3286C157.33 22.3286 157.962 22.0763 158.34 21.5717C158.846 21.0671 158.972 20.5625 158.972 19.8057C158.972 19.0488 158.719 18.5442 158.34 18.0396C157.962 17.6611 157.457 17.4088 156.825 17.4088Z" fill="white"/>
<path d="M162.255 23.8424V15.7689H164.023V16.5258C164.149 16.1473 164.401 15.895 164.78 15.7689C165.159 15.6427 165.538 15.5166 165.917 15.5166V17.4088C165.411 17.4088 164.906 17.535 164.654 17.9134C164.401 18.2919 164.149 18.7965 164.275 19.5534V23.8424H162.255Z" fill="white"/>
<path d="M173.24 24.5986H166.043V25.8601H173.24V24.5986Z" fill="white"/>
<path d="M173.619 21.3194H175.513C175.513 21.5717 175.639 21.824 175.766 22.0763C176.018 22.2025 176.271 22.3286 176.523 22.3286C176.776 22.3286 177.028 22.3286 177.154 22.0763C177.281 21.9502 177.407 21.6979 177.407 21.4456C177.407 21.3194 177.281 21.0671 177.281 20.941C177.154 20.8148 177.028 20.6887 176.776 20.5625H176.649C176.649 20.5625 176.397 20.4364 176.018 20.3103C175.26 20.058 174.755 19.8057 174.503 19.4272C174.124 19.0488 173.998 18.5442 173.998 18.0396C173.998 17.2827 174.25 16.7781 174.755 16.2735C175.26 15.7689 175.892 15.5166 176.649 15.5166C177.407 15.5166 178.038 15.7689 178.417 16.1473C178.922 16.6519 179.175 17.1565 179.175 17.9134H177.281C177.281 17.6611 177.154 17.535 177.028 17.4088C176.902 17.2827 176.776 17.2827 176.523 17.2827C176.271 17.2827 176.144 17.2827 176.018 17.4088C175.892 17.535 175.766 17.6611 175.766 17.9134C175.766 18.1657 175.892 18.2919 176.018 18.418C176.144 18.5442 176.523 18.6703 177.028 18.7965C177.912 19.0488 178.543 19.3011 178.796 19.6795C179.175 20.058 179.301 20.5625 179.301 21.1933C179.301 21.9502 179.048 22.7071 178.543 23.2117C178.038 23.7163 177.281 23.9686 176.397 23.9686C175.513 23.9686 174.755 23.7163 174.25 23.2117C173.871 22.8332 173.619 22.0763 173.619 21.3194Z" fill="white"/>
<path d="M180.437 23.8418V13.1191H182.331V16.399C182.584 16.1467 182.837 15.8944 183.215 15.7683C183.594 15.6421 183.973 15.516 184.352 15.516C185.236 15.516 185.993 15.8944 186.625 16.5252C187.256 17.1559 187.508 18.0389 187.508 19.1743V23.8418H185.614V19.5527C185.614 18.7958 185.488 18.2912 185.236 17.9128C184.983 17.5343 184.604 17.4082 184.099 17.4082C183.594 17.4082 183.089 17.5343 182.837 17.9128C182.584 18.2912 182.458 18.7958 182.458 19.5527V23.8418H180.437Z" fill="white"/>
<path d="M193.064 15.6426C194.327 15.6426 195.337 16.021 196.095 16.9041C196.852 17.7871 197.357 18.7963 197.357 19.9316C197.357 21.067 196.979 22.0762 196.095 22.9592C195.337 23.8422 194.201 24.2207 193.064 24.2207C191.802 24.2207 190.791 23.8422 190.034 22.9592C189.276 22.0762 188.771 21.067 188.771 19.9316C188.771 18.7963 189.15 17.7871 190.034 16.9041C190.791 16.021 191.802 15.6426 193.064 15.6426ZM193.064 17.4087C192.307 17.4087 191.802 17.661 191.423 18.1656C191.044 18.6701 190.791 19.1747 190.791 19.9316C190.791 20.5624 191.044 21.1931 191.423 21.6977C191.802 22.2023 192.433 22.4546 193.064 22.4546C193.696 22.4546 194.327 22.2023 194.706 21.6977C195.085 21.1931 195.337 20.6885 195.337 19.9316C195.337 19.3009 195.085 18.6701 194.706 18.1656C194.327 17.661 193.696 17.4087 193.064 17.4087Z" fill="white"/>
<path d="M198.494 26.6177V15.895H200.262V16.9042C200.514 16.5258 200.893 16.1473 201.272 15.895C201.777 15.6428 202.282 15.5166 202.787 15.5166C203.923 15.5166 204.807 15.895 205.691 16.6519C206.449 17.4088 206.828 18.418 206.828 19.6795C206.828 20.8148 206.449 21.824 205.691 22.7071C204.933 23.5901 203.923 23.9686 202.787 23.9686C202.282 23.9686 201.903 23.8424 201.398 23.7163C201.019 23.5901 200.64 23.2117 200.262 22.8332V26.3654H198.494V26.6177ZM202.661 17.4088C201.903 17.4088 201.398 17.6611 200.893 18.1657C200.514 18.6703 200.262 19.1749 200.262 19.9318C200.262 20.6887 200.514 21.3194 200.893 21.6979C201.272 22.0763 201.903 22.3286 202.534 22.3286C203.166 22.3286 203.797 22.0763 204.176 21.5717C204.681 21.0671 204.807 20.5625 204.807 19.8057C204.807 19.0488 204.555 18.5442 204.176 18.0396C203.923 17.6611 203.292 17.4088 202.661 17.4088Z" fill="white"/>
<path d="M210.237 21.9502H208.343V23.8424H210.237V21.9502Z" fill="white"/>
<path d="M212.131 23.8424V15.7689H213.899V16.5258C214.025 16.1473 214.277 15.895 214.656 15.7689C215.035 15.6427 215.287 15.5166 215.793 15.5166V17.4088C215.287 17.4088 214.782 17.535 214.53 17.9134C214.277 18.2919 214.025 18.7965 214.151 19.5534V23.8424H212.131Z" fill="white"/>
<path d="M224 15.8945V23.968H222.232V23.2112C221.98 23.5896 221.727 23.7158 221.348 23.968C220.97 24.0942 220.591 24.2203 220.212 24.2203C219.076 24.2203 218.318 23.8419 217.813 23.2112C217.308 22.5804 217.055 21.5712 217.055 20.3097V16.0207H218.949V20.0574C218.949 20.9405 219.076 21.4451 219.328 21.8235C219.581 22.202 219.959 22.4543 220.591 22.3281C221.096 22.3281 221.601 22.202 221.853 21.8235C222.106 21.4451 222.232 20.8143 222.232 20.0574V16.0207H224V15.8945Z" fill="white"/>
<path d="M120.334 0H88.3878C86.4938 0 84.9786 1.51378 84.9786 3.40601V35.3216C84.9786 37.2139 86.4938 38.7277 88.3878 38.7277H120.334C122.228 38.7277 123.743 37.2139 123.743 35.3216V3.40601C123.743 1.51378 122.228 0 120.334 0Z" fill="white"/>
<path d="M104.298 10.0918C107.328 10.0918 107.707 10.0918 108.97 10.0918C110.106 10.0918 110.737 10.3441 111.116 10.4702C111.621 10.7225 112 10.9748 112.379 11.3533C112.758 11.7317 113.01 12.1102 113.263 12.6148C113.389 12.9932 113.641 13.624 113.641 14.7593C113.641 16.0208 113.768 16.2731 113.768 19.3006C113.768 22.3282 113.768 22.7067 113.641 23.842C113.641 24.9773 113.389 25.6081 113.263 25.9865C113.01 26.4911 112.758 26.8696 112.379 27.248C112 27.6265 111.621 27.8788 111.116 28.1311C110.737 28.2572 110.106 28.5095 108.97 28.5095C107.707 28.5095 107.454 28.6357 104.424 28.6357C101.393 28.6357 101.015 28.6357 99.8782 28.5095C98.7418 28.5095 98.1105 28.2572 97.7317 28.1311C97.2266 27.8788 96.8478 27.6265 96.469 27.248C96.0902 26.8696 95.8376 26.4911 95.5851 25.9865C95.4588 25.6081 95.2063 24.9773 95.2063 23.842C95.2063 22.5805 95.08 22.3282 95.08 19.3006C95.08 16.2731 95.08 15.8946 95.2063 14.7593C95.2063 13.624 95.4588 12.9932 95.5851 12.6148C95.8376 12.1102 96.0902 11.7317 96.469 11.3533C96.8478 10.9748 97.2266 10.7225 97.7317 10.4702C97.9842 10.3441 98.6155 10.2179 99.752 10.0918C100.888 10.0918 101.267 10.0918 104.298 10.0918ZM104.298 7.94727C101.141 7.94727 100.762 7.94727 99.6257 8.07341C98.363 8.07341 97.6054 8.32571 96.8478 8.57801C96.0902 8.83031 95.4588 9.20875 94.8275 9.8395C94.1962 10.4702 93.8174 11.101 93.5648 11.8579C93.3123 12.6148 93.0597 13.3717 93.0597 14.6331C93.0597 15.8946 92.9335 16.2731 92.9335 19.3006C92.9335 22.4544 92.9335 22.8328 93.0597 23.9682C93.0597 25.2296 93.3123 25.9865 93.5648 26.7434C93.8174 27.5003 94.1962 28.1311 94.8275 28.7618C95.4588 29.3925 96.0902 29.771 96.8478 30.0233C97.6054 30.2756 98.363 30.5279 99.6257 30.5279C100.888 30.5279 101.267 30.654 104.298 30.654C107.454 30.654 107.833 30.654 108.97 30.5279C110.232 30.5279 110.99 30.2756 111.747 30.0233C112.505 29.771 113.136 29.3925 113.768 28.7618C114.399 28.1311 114.778 27.5003 115.03 26.7434C115.283 25.9865 115.536 25.2296 115.536 23.9682C115.536 22.7067 115.662 22.3282 115.662 19.3006C115.662 16.1469 115.662 15.7685 115.536 14.6331C115.536 13.3717 115.283 12.6148 115.03 11.8579C114.778 11.101 114.399 10.4702 113.768 9.8395C113.136 9.20875 112.505 8.83031 111.747 8.57801C110.99 8.32571 110.232 8.07341 108.97 8.07341C107.833 8.07341 107.454 7.94727 104.298 7.94727Z" fill="#ED1D24"/>
<path d="M104.298 13.498C101.015 13.498 98.4893 16.1472 98.4893 19.3009C98.4893 22.5808 101.141 25.1037 104.298 25.1037C107.581 25.1037 110.106 22.4546 110.106 19.3009C110.232 16.1472 107.581 13.498 104.298 13.498ZM104.298 23.2115C102.151 23.2115 100.51 21.5716 100.51 19.427C100.51 17.2825 102.151 15.6426 104.298 15.6426C106.444 15.6426 108.086 17.2825 108.086 19.427C108.086 21.4454 106.444 23.2115 104.298 23.2115Z" fill="#ED1D24"/>
<path d="M111.747 13.372C111.747 14.1289 111.116 14.7596 110.359 14.7596C109.601 14.7596 108.97 14.1289 108.97 13.372C108.97 12.6151 109.601 11.9844 110.359 11.9844C111.116 11.9844 111.747 12.6151 111.747 13.372Z" fill="#ED1D24"/>
</svg>
