<svg width="55" height="52" viewBox="0 0 55 52" fill="none" xmlns="http://www.w3.org/2000/svg">
<g clip-path="url(#clip0_14_6)">
<path d="M40.5263 23.1111C32.421 23.1111 26.0526 29.4667 26.0526 37.5556C26.0526 40.1556 26.6316 42.7556 28.0789 44.7778C28.0789 44.7778 31.5526 52.5778 42.2632 52C49.5 51.7111 52.9737 44.7778 52.9737 44.7778C54.1316 42.7556 55 40.1556 55 37.5556C55 29.4667 48.6316 23.1111 40.5263 23.1111ZM40.5263 44.4889C36.7632 44.4889 33.5789 41.3111 33.5789 37.5556C33.5789 33.8 36.7632 30.6222 40.5263 30.6222C44.2895 30.6222 47.4737 33.8 47.4737 37.5556C47.4737 41.3111 44.2895 44.4889 40.5263 44.4889Z" fill="#E30613"/>
<path d="M39.9474 0.577765C38.2105 -0.577791 35.8947 0.288876 34.7368 2.02221L9.55262 45.3555C8.6842 47.0889 8.97367 49.6889 11.2895 50.8444C14.7631 52.5778 15.921 49.1111 18.8158 44.4889L41.6842 5.48888C42.5526 3.75554 41.9737 1.44443 39.9474 0.577765Z" fill="#E30613"/>
<path d="M12.1579 26.2889C18.8158 26.2889 24.3158 20.8 24.3158 14.4444C24.3158 7.79999 18.8158 2.59999 12.1579 2.59999C5.5 2.3111 0 7.79999 0 14.4444C0 21.0889 5.5 26.2889 12.1579 26.2889ZM12.1579 9.82221C14.4737 9.82221 16.5 11.8444 16.5 14.4444C16.5 17.0444 14.4737 19.0667 11.8684 19.0667C9.55263 19.0667 7.52632 17.0444 7.52632 14.4444C7.52632 11.8444 9.55263 9.82221 12.1579 9.82221Z" fill="#E30613"/>
</g>
<defs>
<clipPath id="clip0_14_6">
<rect width="55" height="52" fill="white"/>
</clipPath>
</defs>
</svg>
