<svg width="24" height="32" viewBox="0 0 24 32" fill="none" xmlns="http://www.w3.org/2000/svg">
<g clip-path="url(#clip0_27_25)">
<path d="M17.9 10.8999C19.1 12.5999 20.6 19.8999 21.4 26.1999C21.4 27.6999 20.8 29.2999 18.1 29.2999H5.5C2.1 29.2999 2 27.5999 2 26.6999C2.4 19.3999 3.8 12.1999 5.1 10.9999L17.9 10.8999ZM18.4 8.8999L4.9 8.9999C0.9 8.9999 0 26.6999 0 26.6999C0 29.7999 2.1 31.2999 5.5 31.2999H18.2C21.6 31.2999 23.5 29.0999 23.5 25.9999C23.5 25.9999 21.3 8.8999 18.4 8.8999Z" fill="white"/>
<path d="M5 9.6C5 9.6 7.7 1 11.7 1C15.7 1 18 9 18 9" stroke="white" stroke-width="2" stroke-miterlimit="10"/>
</g>
<defs>
<clipPath id="clip0_27_25">
<rect width="23.5" height="31.3" fill="white"/>
</clipPath>
</defs>
</svg>
