<svg width="36" height="36" viewBox="0 0 36 36" fill="none" xmlns="http://www.w3.org/2000/svg">
<path d="M0 8.57725C0.122034 7.97323 0.488136 7.73162 0.976271 7.49C6.34576 5.0739 11.7153 2.53698 17.2068 0.120877C17.5729 7.20974e-05 17.939 7.20974e-05 18.3051 0.120877C23.6746 2.53698 29.1661 5.0739 34.5356 7.49C35.2678 7.85242 35.5119 8.45645 35.3898 9.18128C35.2678 9.6645 35.0237 9.90611 34.6576 10.1477C34.1695 10.3893 33.6814 10.6309 33.1932 10.7517C32.9492 10.8726 32.9492 10.9934 32.9492 11.235C32.9492 14.9799 32.9492 18.7249 32.9492 22.4699C32.9492 22.7115 33.0712 22.9531 33.1932 23.0739C33.9254 24.0403 34.7797 25.0068 35.5119 25.9732C35.7559 26.2148 35.878 26.5773 36.122 26.9397C36.122 27.1813 36.122 27.4229 36.122 27.6645C35.878 28.0269 35.6339 28.5101 35.2678 28.8726C34.6576 29.7182 33.9254 30.5638 33.1932 31.4095C32.9492 31.6511 32.9492 31.8927 32.9492 32.2551C32.9492 32.9799 32.9492 33.8256 32.9492 34.5504C32.9492 35.396 32.461 36.0001 31.8508 36.0001C31.2407 36.0001 30.8746 35.396 30.7525 34.5504C30.7525 33.7048 30.7525 32.8591 30.7525 32.1343C30.7525 31.8927 30.6305 31.6511 30.5085 31.5303C29.6542 30.443 28.922 29.4766 28.0678 28.3893C27.4576 27.6645 27.4576 26.9397 28.0678 26.2148C28.922 25.1276 29.7763 24.1611 30.5085 23.0739C30.6305 22.9531 30.6305 22.7115 30.6305 22.5907C30.6305 19.0873 30.6305 15.584 30.6305 12.0806C30.6305 12.0806 30.6305 11.9598 30.6305 11.839C29.8983 12.2014 29.2881 12.443 28.5559 12.8054C28.1898 12.9262 28.0678 13.1679 28.0678 13.6511C28.0678 16.188 28.0678 18.8457 28.0678 21.3826C28.0678 21.9867 27.9458 22.4699 27.5797 22.8323C26.3593 24.282 25.0169 25.1276 23.4305 25.6108C21.1119 26.5773 18.4271 26.8189 15.8644 26.5773C14.0339 26.4564 12.2034 26.094 10.3729 25.2484C9.27458 24.7652 8.2983 24.0403 7.44407 22.9531C7.07797 22.4699 6.8339 21.8658 6.8339 21.141C6.8339 18.4833 6.8339 15.9464 6.8339 13.2887C6.8339 12.9262 6.71186 12.8054 6.4678 12.6846C4.63729 11.839 2.80678 10.9934 0.976271 10.1477C0.488136 10.0269 0.244068 9.78531 0 9.18128C0 8.93967 0 8.81886 0 8.57725ZM4.14915 8.81886C4.27119 8.93967 4.39322 8.93967 4.51525 8.93967C8.78644 10.8726 12.9356 12.9262 17.2068 14.8591C17.4508 14.9799 17.6949 14.9799 17.8169 14.8591C21.6 13.1679 25.383 11.4766 29.1661 9.78531C29.8983 9.42289 30.5085 9.18128 31.2407 8.81886C31.1186 8.69806 30.9966 8.69806 30.9966 8.69806C26.7254 6.76517 22.3322 4.83229 18.061 2.7786C17.939 2.65779 17.6949 2.7786 17.4508 2.7786C14.278 4.22826 11.2271 5.55712 8.05424 7.00678C6.8339 7.61081 5.49153 8.21484 4.14915 8.81886ZM8.90847 13.8927C8.90847 14.0135 8.90847 14.0135 8.90847 14.1343C8.90847 16.3088 8.90847 18.6041 8.90847 20.7786C8.90847 21.0202 9.03051 21.141 9.15254 21.2618C9.76271 21.9867 10.4949 22.3491 11.3492 22.7115C15.0102 24.1611 18.6712 24.282 22.4542 23.1947C23.6746 22.8323 24.8949 22.2283 25.8712 21.2618C26.1153 21.141 26.1153 20.8994 26.1153 20.537C26.1153 18.4833 26.1153 16.3088 26.1153 14.2551C26.1153 14.1343 26.1153 14.0135 26.1153 13.7719C25.9932 13.8927 25.8712 13.8927 25.7492 14.0135C23.1864 15.1007 20.7458 16.3088 18.1831 17.396C17.8169 17.5169 17.4508 17.6377 17.0847 17.396C15.1322 16.4296 13.1797 15.584 11.3492 14.7383C10.4949 14.6175 9.76271 14.2551 8.90847 13.8927ZM31.8508 25.49C31.3627 26.094 30.8746 26.8189 30.3864 27.4229C30.8746 28.0269 31.3627 28.6309 31.8508 29.235C32.339 28.6309 32.8271 27.9061 33.3153 27.3021C32.8271 26.6981 32.339 26.094 31.8508 25.49Z" fill="#E30613"/>
</svg>
