<svg width="185" height="40" viewBox="0 0 185 40" fill="none" xmlns="http://www.w3.org/2000/svg">
<g clip-path="url(#clip0_303_789)">
<path d="M35.6685 0H3.33153C1.48068 0 0 1.5 0 3.375V35.625C0 37.4732 1.48068 39 3.33153 39H35.6949C37.5193 39 39.0264 37.5 39.0264 35.625V3.375C39 1.5 37.5193 0 35.6685 0ZM30.4068 17.0089C30.4068 17.0893 30.4068 17.1964 30.4068 17.3036C28.0536 17.3036 25.9912 16.5536 24.1139 15.1607C24.1139 15.2946 24.1139 15.375 24.1139 15.4554C24.1139 18.375 24.1403 21.2679 24.1403 24.1875C24.1403 25.7679 23.7702 27.2411 22.8712 28.5536C21.4434 30.6964 19.4339 31.875 16.8692 32.0893C16.7898 32.0893 16.6841 32.1161 16.6047 32.1429C16.4461 32.1429 16.2875 32.1429 16.1288 32.1429C15.5736 32.0625 15.0183 32.0089 14.4631 31.9018C11.3959 31.2054 8.98983 28.5 8.61966 25.3393C8.11729 21.1339 10.92 17.3304 15.0712 16.6339C15.8644 16.5 16.6841 16.4732 17.5037 16.6339C17.5037 18.0268 17.5037 19.3929 17.5037 20.7857C17.2922 20.7321 17.0807 20.7054 16.8692 20.6786C14.8597 20.3839 12.9559 21.8036 12.6915 23.7857C12.4007 25.9018 13.802 27.7768 15.8644 28.0446C17.9268 28.3393 20.042 26.7054 20.0156 24.2411C19.9892 21.2411 20.0156 18.2679 20.0156 15.2679C20.0156 12.6161 20.0156 9.96428 20.0156 7.3125C20.0156 7.20536 20.0156 7.09821 20.0156 6.99107C21.3641 6.99107 22.7125 6.99107 24.0346 6.99107C24.0875 7.41964 24.1403 7.84821 24.2197 8.25C24.8014 11.0625 27.2603 13.1786 30.0895 13.2589C30.3275 13.2589 30.4068 13.3393 30.4068 13.5804C30.4068 14.6786 30.4068 15.8304 30.4068 17.0089Z" fill="white"/>
</g>
<rect x="62.0962" y="7.43457" width="1.50816" height="24" transform="rotate(-1.47372 62.0962 7.43457)" fill="white"/>
<rect x="62.0962" y="7.43457" width="1.50816" height="24" transform="rotate(-1.47372 62.0962 7.43457)" fill="white"/>
<rect x="62.0962" y="7.43457" width="1.50816" height="24" transform="rotate(-1.47372 62.0962 7.43457)" fill="white"/>
<rect x="70.3882" y="7.22119" width="1.50816" height="24" transform="rotate(-1.47372 70.3882 7.22119)" fill="white"/>
<rect width="1.5482" height="23.3795" transform="matrix(0.0931877 0.995649 -0.995302 0.0968136 78.4707 13.1626)" fill="white"/>
<rect width="1.5482" height="23.3795" transform="matrix(0.0931877 0.995649 -0.995302 0.0968136 78.4707 13.1626)" fill="white"/>
<rect width="1.5482" height="23.3795" transform="matrix(0.0931877 0.995649 -0.995302 0.0968136 78.4707 13.1626)" fill="white"/>
<rect width="1.5482" height="23.3795" transform="matrix(0.0931877 0.995649 -0.995302 0.0968136 79.2642 21.6411)" fill="white"/>
<path d="M105.928 13H104.01V5.244L101.252 13H99.628L96.87 5.244V13H94.952V2.64H97.556L100.44 10.564L103.324 2.64H105.928V13ZM116.063 13H114.355V11.95C114.047 12.37 113.664 12.692 113.207 12.916C112.759 13.14 112.269 13.252 111.737 13.252C110.71 13.252 109.833 12.888 109.105 12.16C108.33 11.3853 107.943 10.396 107.943 9.192C107.943 7.988 108.312 6.98933 109.049 6.196C109.796 5.39333 110.71 4.992 111.793 4.992C112.913 4.992 113.758 5.44 114.327 6.336L114.355 5.244H116.063V13ZM114.313 9.108C114.313 8.42667 114.108 7.86667 113.697 7.428C113.296 6.98 112.759 6.756 112.087 6.756C111.424 6.756 110.878 6.98467 110.449 7.442C110.02 7.89933 109.805 8.48267 109.805 9.192C109.805 9.85467 110.015 10.4053 110.435 10.844C110.864 11.2733 111.415 11.488 112.087 11.488C112.75 11.488 113.286 11.2687 113.697 10.83C114.108 10.3913 114.313 9.81733 114.313 9.108ZM122.673 6.896H120.139V13H118.277V5.244H122.673V6.896ZM132.023 13H130.315V11.95C130.007 12.37 129.625 12.692 129.167 12.916C128.719 13.14 128.229 13.252 127.697 13.252C126.671 13.252 125.793 12.888 125.065 12.16C124.291 11.3853 123.903 10.396 123.903 9.192C123.903 7.988 124.272 6.98933 125.009 6.196C125.756 5.39333 126.671 4.992 127.753 4.992C128.873 4.992 129.718 5.44 130.287 6.336L130.315 5.244H132.023V13ZM130.273 9.108C130.273 8.42667 130.068 7.86667 129.657 7.428C129.256 6.98 128.719 6.756 128.047 6.756C127.385 6.756 126.839 6.98467 126.409 7.442C125.98 7.89933 125.765 8.48267 125.765 9.192C125.765 9.85467 125.975 10.4053 126.395 10.844C126.825 11.2733 127.375 11.488 128.047 11.488C128.71 11.488 129.247 11.2687 129.657 10.83C130.068 10.3913 130.273 9.81733 130.273 9.108ZM139.516 10.718C139.516 11.474 139.259 12.0853 138.746 12.552C138.232 13.0187 137.546 13.252 136.688 13.252C135.642 13.252 134.877 12.9253 134.392 12.272C134.018 11.768 133.832 11.138 133.832 10.382H135.694C135.694 10.69 135.773 10.942 135.932 11.138C136.128 11.3713 136.403 11.488 136.758 11.488C137.019 11.488 137.234 11.418 137.402 11.278C137.57 11.138 137.654 10.9373 137.654 10.676C137.654 10.34 137.542 10.1067 137.318 9.976C137.187 9.90133 137.024 9.864 136.828 9.864H136.394V8.268H136.744C137.033 8.268 137.238 8.198 137.36 8.058C137.49 7.90867 137.556 7.72667 137.556 7.512C137.556 7.204 137.458 6.98933 137.262 6.868C137.14 6.79333 136.977 6.756 136.772 6.756C136.52 6.756 136.314 6.83067 136.156 6.98C135.997 7.12 135.908 7.30667 135.89 7.54H134.028C134.028 6.84 134.27 6.24267 134.756 5.748C135.25 5.244 135.908 4.992 136.73 4.992C137.598 4.992 138.27 5.216 138.746 5.664C139.166 6.056 139.376 6.55533 139.376 7.162C139.376 7.54467 139.259 7.88533 139.026 8.184C138.802 8.47333 138.498 8.68333 138.116 8.814C138.573 8.926 138.918 9.15467 139.152 9.5C139.394 9.84533 139.516 10.2513 139.516 10.718ZM148.545 13H146.683V7.974L143.239 13H141.377V5.244H143.239V10.27L146.683 5.244H148.545V13ZM157.367 13H155.505V9.752H152.621V13H150.759V5.244H152.621V8.1H155.505V5.244H157.367V13ZM102.568 25H100.65V16.502H96.87V25H94.952V14.64H102.568V25ZM112.812 21.136C112.812 22.2747 112.42 23.2453 111.636 24.048C110.852 24.8507 109.872 25.252 108.696 25.252C107.529 25.252 106.549 24.8553 105.756 24.062C104.972 23.2593 104.58 22.284 104.58 21.136C104.58 19.988 104.967 19.0127 105.742 18.21C106.526 17.398 107.51 16.992 108.696 16.992C109.872 16.992 110.852 17.3933 111.636 18.196C112.42 18.9987 112.812 19.9787 112.812 21.136ZM110.95 21.136C110.95 20.4733 110.744 19.9133 110.334 19.456C109.923 18.9893 109.377 18.756 108.696 18.756C108.024 18.756 107.478 18.9893 107.058 19.456C106.647 19.9133 106.442 20.4733 106.442 21.136C106.442 21.7987 106.647 22.3587 107.058 22.816C107.468 23.264 108.014 23.488 108.696 23.488C109.358 23.488 109.9 23.2593 110.32 22.802C110.74 22.3447 110.95 21.7893 110.95 21.136ZM122.411 22.48C122.112 23.3293 121.631 24.006 120.969 24.51C120.315 25.0047 119.517 25.252 118.575 25.252C117.212 25.252 116.134 24.7993 115.341 23.894C114.641 23.1007 114.291 22.158 114.291 21.066C114.291 20.03 114.627 19.1247 115.299 18.35C116.083 17.4447 117.151 16.992 118.505 16.992C119.466 16.992 120.292 17.2487 120.983 17.762C121.673 18.2753 122.149 18.9613 122.411 19.82H120.311C120.133 19.4653 119.886 19.1993 119.569 19.022C119.261 18.8447 118.897 18.756 118.477 18.756C117.758 18.756 117.189 18.9847 116.769 19.442C116.358 19.89 116.153 20.4407 116.153 21.094C116.153 21.7753 116.363 22.3447 116.783 22.802C117.203 23.2593 117.767 23.488 118.477 23.488C118.915 23.488 119.284 23.404 119.583 23.236C119.881 23.068 120.124 22.816 120.311 22.48H122.411ZM129.252 18.896H127.39V25H125.528V18.896H123.666V17.244H129.252V18.896ZM138.701 21.136C138.701 22.2747 138.309 23.2453 137.525 24.048C136.741 24.8507 135.761 25.252 134.585 25.252C133.418 25.252 132.438 24.8553 131.645 24.062C130.861 23.2593 130.469 22.284 130.469 21.136C130.469 19.988 130.856 19.0127 131.631 18.21C132.415 17.398 133.399 16.992 134.585 16.992C135.761 16.992 136.741 17.3933 137.525 18.196C138.309 18.9987 138.701 19.9787 138.701 21.136ZM136.839 21.136C136.839 20.4733 136.633 19.9133 136.223 19.456C135.812 18.9893 135.266 18.756 134.585 18.756C133.913 18.756 133.367 18.9893 132.947 19.456C132.536 19.9133 132.331 20.4733 132.331 21.136C132.331 21.7987 132.536 22.3587 132.947 22.816C133.357 23.264 133.903 23.488 134.585 23.488C135.247 23.488 135.789 23.2593 136.209 22.802C136.629 22.3447 136.839 21.7893 136.839 21.136ZM146.564 25H144.702V22.018L142.406 25H140.082L142.42 22.256C141.785 22.1813 141.281 21.92 140.908 21.472C140.544 21.0147 140.362 20.464 140.362 19.82C140.362 19.1107 140.604 18.5133 141.09 18.028C141.612 17.5053 142.312 17.244 143.19 17.244H146.564V25ZM144.702 20.842V18.896H143.26C142.942 18.896 142.69 18.9893 142.504 19.176C142.317 19.3627 142.224 19.61 142.224 19.918C142.224 20.226 142.322 20.4593 142.518 20.618C142.714 20.7673 142.961 20.842 143.26 20.842H144.702ZM155.384 25H153.522V21.752H150.638V25H148.776V17.244H150.638V20.1H153.522V17.244H155.384V25ZM164.205 25H162.343V21.752H159.459V25H157.597V17.244H159.459V20.1H162.343V17.244H164.205V25ZM175.266 25H173.404V17.244H175.266V25ZM172.55 22.48C172.55 23.2453 172.308 23.8567 171.822 24.314C171.337 24.7713 170.712 25 169.946 25H166.418V17.244H168.28V19.96H169.946C170.805 19.96 171.463 20.212 171.92 20.716C172.34 21.1733 172.55 21.7613 172.55 22.48ZM170.688 22.48C170.688 22.2467 170.628 22.0553 170.506 21.906C170.338 21.71 170.086 21.612 169.75 21.612H168.28V23.348H169.75C170.04 23.348 170.268 23.278 170.436 23.138C170.604 22.9887 170.688 22.7693 170.688 22.48ZM184.51 25H182.214L180.646 22.494L179.078 25H176.782L179.4 21.024L176.992 17.244H179.162L180.632 19.568L182.102 17.244H184.272L181.808 21.024L184.51 25ZM101.56 29.874C101.56 30.714 101.322 31.4093 100.846 31.96C100.202 32.7067 99.2033 33.08 97.85 33.08H96.87V37H94.952V26.64H97.85C99.2873 26.64 100.319 27.0553 100.944 27.886C101.355 28.4367 101.56 29.0993 101.56 29.874ZM99.642 29.86C99.642 29.3093 99.432 28.9267 99.012 28.712C98.7413 28.572 98.4053 28.502 98.004 28.502H96.87V31.218H98.004C98.5733 31.218 98.9887 31.1013 99.25 30.868C99.5113 30.6347 99.642 30.2987 99.642 29.86ZM111.018 37H109.31V35.95C109.002 36.37 108.619 36.692 108.162 36.916C107.714 37.14 107.224 37.252 106.692 37.252C105.665 37.252 104.788 36.888 104.06 36.16C103.285 35.3853 102.898 34.396 102.898 33.192C102.898 31.988 103.267 30.9893 104.004 30.196C104.751 29.3933 105.665 28.992 106.748 28.992C107.868 28.992 108.713 29.44 109.282 30.336L109.31 29.244H111.018V37ZM109.268 33.108C109.268 32.4267 109.063 31.8667 108.652 31.428C108.251 30.98 107.714 30.756 107.042 30.756C106.379 30.756 105.833 30.9847 105.404 31.442C104.975 31.8993 104.76 32.4827 104.76 33.192C104.76 33.8547 104.97 34.4053 105.39 34.844C105.819 35.2733 106.37 35.488 107.042 35.488C107.705 35.488 108.241 35.2687 108.652 34.83C109.063 34.3913 109.268 33.8173 109.268 33.108ZM121.016 34.48C120.718 35.3293 120.237 36.006 119.574 36.51C118.921 37.0047 118.123 37.252 117.18 37.252C115.818 37.252 114.74 36.7993 113.946 35.894C113.246 35.1007 112.896 34.158 112.896 33.066C112.896 32.03 113.232 31.1247 113.904 30.35C114.688 29.4447 115.757 28.992 117.11 28.992C118.072 28.992 118.898 29.2487 119.588 29.762C120.279 30.2753 120.755 30.9613 121.016 31.82H118.916C118.739 31.4653 118.492 31.1993 118.174 31.022C117.866 30.8447 117.502 30.756 117.082 30.756C116.364 30.756 115.794 30.9847 115.374 31.442C114.964 31.89 114.758 32.4407 114.758 33.094C114.758 33.7753 114.968 34.3447 115.388 34.802C115.808 35.2593 116.373 35.488 117.082 35.488C117.521 35.488 117.89 35.404 118.188 35.236C118.487 35.068 118.73 34.816 118.916 34.48H121.016ZM129.495 37H127.633V30.896H124.749V37H122.887V29.244H129.495V37ZM139.828 33.122C139.828 34.242 139.488 35.194 138.806 35.978C138.069 36.8273 137.112 37.252 135.936 37.252C135.526 37.252 135.148 37.1867 134.802 37.056C134.326 36.8787 133.925 36.58 133.598 36.16L133.57 39.59H131.708V29.244H133.416V30.252C133.724 29.776 134.154 29.4307 134.704 29.216C135.096 29.0667 135.507 28.992 135.936 28.992C137.028 28.992 137.948 29.3747 138.694 30.14C139.45 30.896 139.828 31.89 139.828 33.122ZM137.966 33.108C137.966 32.5107 137.794 31.9927 137.448 31.554C137.028 31.022 136.459 30.756 135.74 30.756C135.068 30.756 134.518 30.98 134.088 31.428C133.668 31.8667 133.458 32.4313 133.458 33.122C133.458 33.85 133.664 34.4287 134.074 34.858C134.494 35.278 135.026 35.488 135.67 35.488C136.342 35.488 136.893 35.264 137.322 34.816C137.752 34.368 137.966 33.7987 137.966 33.108ZM149.491 33.136C149.491 34.2747 149.099 35.2453 148.315 36.048C147.531 36.8507 146.551 37.252 145.375 37.252C144.208 37.252 143.228 36.8553 142.435 36.062C141.651 35.2593 141.259 34.284 141.259 33.136C141.259 31.988 141.646 31.0127 142.421 30.21C143.205 29.398 144.189 28.992 145.375 28.992C146.551 28.992 147.531 29.3933 148.315 30.196C149.099 30.9987 149.491 31.9787 149.491 33.136ZM147.629 33.136C147.629 32.4733 147.423 31.9133 147.013 31.456C146.602 30.9893 146.056 30.756 145.375 30.756C144.703 30.756 144.157 30.9893 143.737 31.456C143.326 31.9133 143.121 32.4733 143.121 33.136C143.121 33.7987 143.326 34.3587 143.737 34.816C144.147 35.264 144.693 35.488 145.375 35.488C146.037 35.488 146.579 35.2593 146.999 34.802C147.419 34.3447 147.629 33.7893 147.629 33.136ZM159.916 38.96H158.096V37H152.524V38.96H150.704V35.348H151.628L154.47 29.244H156.15L158.992 35.348H159.916V38.96ZM156.892 35.348L155.31 31.764L153.728 35.348H156.892ZM169.249 37H167.541V35.95C167.233 36.37 166.851 36.692 166.393 36.916C165.945 37.14 165.455 37.252 164.923 37.252C163.897 37.252 163.019 36.888 162.291 36.16C161.517 35.3853 161.129 34.396 161.129 33.192C161.129 31.988 161.498 30.9893 162.235 30.196C162.982 29.3933 163.897 28.992 164.979 28.992C166.099 28.992 166.944 29.44 167.513 30.336L167.541 29.244H169.249V37ZM167.499 33.108C167.499 32.4267 167.294 31.8667 166.883 31.428C166.482 30.98 165.945 30.756 165.273 30.756C164.611 30.756 164.065 30.9847 163.635 31.442C163.206 31.8993 162.991 32.4827 162.991 33.192C162.991 33.8547 163.201 34.4053 163.621 34.844C164.051 35.2733 164.601 35.488 165.273 35.488C165.936 35.488 166.473 35.2687 166.883 34.83C167.294 34.3913 167.499 33.8173 167.499 33.108ZM182.243 37H180.045L177.525 33.276V37H175.663V33.276L173.143 37H170.945L173.773 32.94L171.113 29.244H173.311L175.663 32.8V29.244H177.525V32.8L179.877 29.244H182.075L179.415 32.94L182.243 37Z" fill="white"/>
<defs>
<clipPath id="clip0_303_789">
<rect width="39" height="39" fill="white"/>
</clipPath>
</defs>
</svg>
