<svg width="36" height="33" viewBox="0 0 36 33" fill="none" xmlns="http://www.w3.org/2000/svg">
<g clip-path="url(#clip0_25_7)">
<path d="M15.2 22.1H34.2C34.7 22.1 35.3 21.7 35.3 21.2V6.6C35.3 6 34.8 5.3 34 5.3H14.6C13.9 5.3 13.4 5.8 13.4 6.5C13.4 7.2 13.9 7.7 14.6 7.7H33.4V10.4H17.2C16.6 10.4 16 10.9 16 11.6C16 12.2 16.5 12.8 17.2 12.8H33.4V13.8V15.2H18.6C18 15.2 17.4 15.7 17.4 16.4C17.4 17 17.9 17.6 18.6 17.6H33.4V17.7C33.4 18.4 33.4 19.3 33.4 20H16L9.5 0.5C9.4 0.2 9.1 0 8.7 0H1.2C0.5 0 0 0.5 0 1.2C0 1.9 0.5 2.4 1.2 2.4H7.6L13.7 20.2C13.4 20.3 13.2 20.5 13.1 20.8L11.3 25.3C11.2 25.6 11.2 25.9 11.4 26.2C11.6 26.5 11.9 26.6 12.2 26.6H13.1C12.5 27.2 12.2 28.1 12.2 29C12.2 31 13.8 32.5 15.8 32.5C17.8 32.5 19.4 30.9 19.4 29C19.4 28.1 19.1 27.3 18.5 26.6H28.1C27.4 27.2 27 28 27 28.9C27 30.9 28.6 32.4 30.6 32.4C32.6 32.4 34.2 30.8 34.2 28.9C34.2 28 33.9 27.2 33.3 26.5H34.4C34.9 26.5 35.4 26.1 35.4 25.5C35.4 25 35 24.5 34.4 24.5H13.6L14.7 21.9C14.8 22.1 15 22.1 15.2 22.1ZM30.6 27.4C31.5 27.4 32.2 28.1 32.2 29C32.2 29.9 31.5 30.6 30.6 30.6C29.7 30.6 29 29.9 29 29C29 28.1 29.7 27.4 30.6 27.4ZM15.8 27.4C16.7 27.4 17.4 28.1 17.4 29C17.4 29.9 16.7 30.6 15.8 30.6C14.9 30.6 14.2 29.9 14.2 29C14.2 28.1 14.9 27.4 15.8 27.4Z" fill="white"/>
</g>
<defs>
<clipPath id="clip0_25_7">
<rect width="35.3" height="32.5" fill="white"/>
</clipPath>
</defs>
</svg>
