<svg width="34" height="30" viewBox="0 0 34 30" fill="none" xmlns="http://www.w3.org/2000/svg">
<path d="M0 21.7224C0 15.5496 0 9.37583 0 3.203C0.0150811 3.17363 0.0381464 3.14604 0.0452434 3.1149C0.497678 1.07864 1.83192 0 3.90424 0C12.6336 0 21.3638 0 30.0931 0.00088997C30.3468 0.00088997 30.605 -0.00266991 30.8534 0.0382687C32.7554 0.352428 33.9964 1.82711 33.9973 3.77525C34 9.52535 33.9991 15.2746 33.9982 21.0247C33.9982 23.3501 32.444 24.9129 30.1321 24.9138C27.4326 24.9147 24.7331 24.9192 22.0327 24.9076C21.731 24.9067 21.5456 25.0091 21.3709 25.2458C20.3897 26.5736 19.3988 27.8952 18.4034 29.2124C17.6024 30.2723 16.3568 30.2599 15.5655 29.1892C14.6048 27.8872 13.6413 26.587 12.6948 25.2752C12.5067 25.0144 12.308 24.9058 11.9824 24.9076C9.23853 24.9201 6.49465 24.9218 3.75077 24.912C2.29322 24.9067 1.16835 24.2748 0.45687 22.9915C0.242185 22.6035 0.149037 22.1478 0 21.7224ZM2.80066 2.18043C2.93639 2.30235 3.00647 2.36999 3.08099 2.43229C7.32766 5.96903 11.5752 9.50488 15.8219 13.0416C16.6043 13.6931 17.4028 13.6931 18.1905 13.0372C22.3103 9.60812 26.4301 6.17817 30.5491 2.74823C30.7487 2.5818 30.9474 2.41271 31.1461 2.2445C31.1417 2.20535 31.1381 2.16708 31.1337 2.12792C30.7922 2.08431 30.4497 2.00332 30.1082 2.00332C21.5119 1.9962 12.9157 1.99798 4.3203 1.99798C4.0657 1.99798 3.80932 1.98018 3.55738 2.00777C3.32229 2.03447 3.09341 2.1119 2.80066 2.18043ZM16.9982 27.7671C17.9563 26.4873 18.8896 25.2627 19.7998 24.0203C20.3542 23.2629 21.0692 22.9043 22.0105 22.9105C24.6328 22.9274 27.2561 22.9167 29.8784 22.9167C29.9902 22.9167 30.102 22.9167 30.3051 22.9167C26.871 19.8971 23.5195 16.9495 20.1493 13.9859C19.2515 14.8314 18.3005 15.53 17.0027 15.5282C15.7057 15.5264 14.7529 14.8305 13.8578 13.9823C10.4814 16.9513 7.12628 19.9024 3.69843 22.9167C3.91577 22.9167 4.03376 22.9167 4.15175 22.9167C6.78563 22.9167 9.41951 22.9274 12.0534 22.9114C12.9964 22.9052 13.7159 23.2656 14.2552 24.0345C14.6757 24.6326 15.1184 25.2164 15.5522 25.8056C16.0224 26.4455 16.4952 27.0853 16.9982 27.7671ZM2.03418 4.15972C2.03418 10.0211 2.03418 15.8281 2.03418 21.7206C5.49309 18.6787 8.88546 15.6946 12.292 12.699C8.85352 9.83684 5.45316 7.00584 2.03418 4.15972ZM31.9685 4.16417C28.5371 7.02097 25.1349 9.85375 21.7124 12.7034C25.1225 15.7017 28.5122 18.6823 31.9685 21.7215C31.9685 15.8246 31.9685 10.0166 31.9685 4.16417Z" fill="white"/>
</svg>
