<svg width="35" height="30" viewBox="0 0 35 30" fill="none" xmlns="http://www.w3.org/2000/svg">
<path d="M35.0002 2.42937C34.7502 3.44224 34.4925 4.4534 34.2511 5.4688C32.4431 13.0623 30.6411 20.6575 28.8322 28.2502C28.4256 29.956 26.6673 30.5433 25.283 29.4331C23.2054 27.7661 21.1363 26.0882 19.0715 24.4052C18.8686 24.2402 18.7453 24.2216 18.5279 24.3849C16.7669 25.7032 14.9949 27.0071 13.2263 28.3145C13.1167 28.3957 13.0097 28.4803 12.8958 28.5539C12.1673 29.0278 11.4414 28.7866 11.2231 27.954C10.9834 27.041 10.8019 26.1127 10.6007 25.1896C10.0469 22.6511 9.493 20.1126 8.94769 17.5724C8.90147 17.3574 8.78847 17.2576 8.59585 17.1747C6.1869 16.139 3.77966 15.1007 1.37585 14.054C0.16709 13.5277 -0.32172 12.2965 0.222734 11.1838C0.508658 10.6 0.997468 10.2623 1.60869 10.0652C3.05715 9.59894 4.50218 9.12255 5.94892 8.65124C14.6302 5.8225 23.3115 2.99377 31.9937 0.165877C33.4233 -0.299514 34.478 0.225109 34.9548 1.64075C34.9608 1.65936 34.9856 1.67121 35.001 1.68644C35.0002 1.93437 35.0002 2.18145 35.0002 2.42937ZM32.967 1.98852C22.619 5.3605 12.3463 8.70793 1.98536 12.0841C2.18825 12.1831 2.28669 12.2373 2.38942 12.2813C4.72218 13.2908 7.05751 14.2952 9.38685 15.3131C9.63425 15.4214 9.81659 15.4011 10.0486 15.2742C15.1558 12.4607 20.2682 9.65479 25.3806 6.84975C25.539 6.76259 25.7042 6.67967 25.8763 6.6289C26.2803 6.50959 26.7263 6.67205 26.9669 7.00375C27.204 7.33122 27.2254 7.77292 26.9994 8.11392C26.8941 8.27215 26.764 8.41685 26.6305 8.55477C23.2233 12.0791 19.8145 15.6017 16.4065 19.1242C16.3209 19.2131 16.237 19.3036 16.1352 19.4111C19.6801 22.2788 23.2071 25.1312 26.7734 28.0149C28.8425 19.3206 30.8954 10.6947 32.967 1.98852ZM12.3266 23.4625C12.3488 23.46 12.3711 23.4566 12.3942 23.4541C12.4147 23.3923 12.4378 23.3314 12.4567 23.2688C12.8205 22.0164 13.1664 20.7582 13.5576 19.5143C13.6612 19.1852 13.8503 18.8492 14.0883 18.5988C16.136 16.4546 18.2034 14.3299 20.2648 12.1984C20.3496 12.1112 20.4275 12.0181 20.5088 11.9276C20.4925 11.9107 20.4762 11.8937 20.4591 11.8768C17.284 13.6199 14.1089 15.363 10.9389 17.1028C11.4072 19.252 11.8669 21.3573 12.3266 23.4625ZM15.179 21.2659C14.804 22.5597 14.4402 23.8171 14.049 25.1676C15.1302 24.3679 16.1343 23.625 17.1599 22.8668C16.4964 22.3312 15.8561 21.8134 15.179 21.2659Z" fill="white"/>
</svg>
