<svg width="31" height="31" viewBox="0 0 31 31" fill="none" xmlns="http://www.w3.org/2000/svg">
<g clip-path="url(#clip0_134_2198)">
<path d="M0 31.0001C0.238105 30.1302 0.464012 29.3046 0.690407 28.4789C1.15979 26.7683 1.63502 25.0587 2.09123 23.3447C2.13514 23.18 2.11562 22.9545 2.03463 22.8073C-2.15807 15.2029 0.780672 5.63628 8.52835 1.6961C17.0914 -2.6586 27.5002 1.7204 30.3213 10.8652C32.8116 18.9375 28.2325 27.5818 20.1194 30.0583C16.0901 31.2883 12.1809 30.9029 8.41662 29.0164C8.27171 28.944 8.0619 28.9236 7.90382 28.9639C5.3842 29.6093 2.86848 30.2687 0.351302 30.9243C0.251279 30.95 0.148328 30.968 0 31.0001ZM3.70039 27.367C5.24807 26.9627 6.73135 26.5812 8.21072 26.1832C8.462 26.1157 8.65375 26.1497 8.87575 26.2819C11.7316 27.9876 14.8094 28.5494 18.0701 27.9035C24.9839 26.5336 29.465 19.8721 28.1623 12.9602C26.8678 6.09309 20.1047 1.50706 13.1987 2.81284C4.56352 4.44616 0.0634298 14.0361 4.40738 21.6395C4.85724 22.4272 4.94897 23.0741 4.66842 23.9036C4.29126 25.0189 4.02778 26.173 3.70039 27.367Z" fill="white"/>
<path d="M10.5595 8.29885C11.2275 8.13411 11.5481 8.52531 11.7764 9.11527C12.1263 10.0172 12.5078 10.9075 12.8923 11.7953C13.026 12.1044 13.0143 12.3766 12.8132 12.6429C12.5083 13.0472 12.216 13.4612 11.8935 13.851C11.6759 14.1139 11.6559 14.3491 11.8306 14.6411C13.0904 16.7483 14.8479 18.2722 17.1396 19.1815C17.4548 19.3064 17.7042 19.2495 17.9154 18.9866C18.2931 18.5162 18.68 18.0526 19.0542 17.5793C19.3294 17.2313 19.488 17.1448 19.8837 17.3246C20.9732 17.8193 22.053 18.3359 23.122 18.8729C23.2542 18.9395 23.3728 19.182 23.3704 19.3409C23.346 20.9786 22.862 21.7634 21.1103 22.4972C20.1164 22.9137 19.0845 22.8155 18.0594 22.5312C14.3399 21.4995 11.5998 19.1708 9.40805 16.1015C8.7274 15.148 8.11311 14.1649 7.85207 13.0088C7.47637 11.3449 7.88623 9.90204 9.11578 8.6988C9.51442 8.30906 9.9955 8.22159 10.5595 8.29885Z" fill="white"/>
</g>
<defs>
<clipPath id="clip0_134_2198">
<rect width="31" height="31" fill="white"/>
</clipPath>
</defs>
</svg>
