<svg width="109" height="37" viewBox="0 0 109 37" fill="none" xmlns="http://www.w3.org/2000/svg">
<rect x="5.94971" y="4.37207" width="1.26453" height="20.1231" transform="rotate(-1.47372 5.94971 4.37207)" fill="white"/>
<rect x="5.94971" y="4.37207" width="1.26453" height="20.1231" transform="rotate(-1.47372 5.94971 4.37207)" fill="white"/>
<rect x="5.94971" y="4.37207" width="1.26453" height="20.1231" transform="rotate(-1.47372 5.94971 4.37207)" fill="white"/>
<rect x="12.9023" y="4.19312" width="1.26453" height="20.1231" transform="rotate(-1.47372 12.9023 4.19312)" fill="white"/>
<rect width="1.2981" height="19.6028" transform="matrix(0.0931876 0.995649 -0.995302 0.0968136 19.6792 9.1748)" fill="white"/>
<rect width="1.2981" height="19.6028" transform="matrix(0.0931876 0.995649 -0.995302 0.0968136 19.6792 9.1748)" fill="white"/>
<rect width="1.2981" height="19.6028" transform="matrix(0.0931876 0.995649 -0.995302 0.0968136 19.6792 9.1748)" fill="white"/>
<rect width="1.2981" height="19.6028" transform="matrix(0.0931876 0.995649 -0.995302 0.0968136 20.3447 16.2837)" fill="white"/>
<path d="M42.372 10H40.865V3.906L38.698 10H37.422L35.255 3.906V10H33.748V1.86H35.794L38.06 8.086L40.326 1.86H42.372V10ZM50.3351 10H48.9931V9.175C48.7511 9.505 48.4505 9.758 48.0911 9.934C47.7391 10.11 47.3541 10.198 46.9361 10.198C46.1295 10.198 45.4401 9.912 44.8681 9.34C44.2595 8.73133 43.9551 7.954 43.9551 7.008C43.9551 6.062 44.2448 5.27733 44.8241 4.654C45.4108 4.02333 46.1295 3.708 46.9801 3.708C47.8601 3.708 48.5238 4.06 48.9711 4.764L48.9931 3.906H50.3351V10ZM48.9601 6.942C48.9601 6.40667 48.7988 5.96667 48.4761 5.622C48.1608 5.27 47.7391 5.094 47.2111 5.094C46.6905 5.094 46.2615 5.27367 45.9241 5.633C45.5868 5.99233 45.4181 6.45067 45.4181 7.008C45.4181 7.52867 45.5831 7.96133 45.9131 8.306C46.2505 8.64333 46.6831 8.812 47.2111 8.812C47.7318 8.812 48.1535 8.63967 48.4761 8.295C48.7988 7.95033 48.9601 7.49933 48.9601 6.942ZM55.5289 5.204H53.5379V10H52.0749V3.906H55.5289V5.204ZM62.8756 10H61.5336V9.175C61.2916 9.505 60.9909 9.758 60.6316 9.934C60.2796 10.11 59.8946 10.198 59.4766 10.198C58.6699 10.198 57.9806 9.912 57.4086 9.34C56.7999 8.73133 56.4956 7.954 56.4956 7.008C56.4956 6.062 56.7852 5.27733 57.3646 4.654C57.9512 4.02333 58.6699 3.708 59.5206 3.708C60.4006 3.708 61.0642 4.06 61.5116 4.764L61.5336 3.906H62.8756V10ZM61.5006 6.942C61.5006 6.40667 61.3392 5.96667 61.0166 5.622C60.7012 5.27 60.2796 5.094 59.7516 5.094C59.2309 5.094 58.8019 5.27367 58.4646 5.633C58.1272 5.99233 57.9586 6.45067 57.9586 7.008C57.9586 7.52867 58.1236 7.96133 58.4536 8.306C58.7909 8.64333 59.2236 8.812 59.7516 8.812C60.2722 8.812 60.6939 8.63967 61.0166 8.295C61.3392 7.95033 61.5006 7.49933 61.5006 6.942ZM68.7623 8.207C68.7623 8.801 68.5606 9.28133 68.1573 9.648C67.754 10.0147 67.215 10.198 66.5403 10.198C65.719 10.198 65.1176 9.94133 64.7363 9.428C64.443 9.032 64.2963 8.537 64.2963 7.943H65.7593C65.7593 8.185 65.8216 8.383 65.9463 8.537C66.1003 8.72033 66.3166 8.812 66.5953 8.812C66.8006 8.812 66.9693 8.757 67.1013 8.647C67.2333 8.537 67.2993 8.37933 67.2993 8.174C67.2993 7.91 67.2113 7.72667 67.0353 7.624C66.9326 7.56533 66.8043 7.536 66.6503 7.536H66.3093V6.282H66.5843C66.8116 6.282 66.973 6.227 67.0683 6.117C67.171 5.99967 67.2223 5.85667 67.2223 5.688C67.2223 5.446 67.1453 5.27733 66.9913 5.182C66.896 5.12333 66.7676 5.094 66.6063 5.094C66.4083 5.094 66.247 5.15267 66.1223 5.27C65.9976 5.38 65.928 5.52667 65.9133 5.71H64.4503C64.4503 5.16 64.641 4.69067 65.0223 4.302C65.411 3.906 65.928 3.708 66.5733 3.708C67.2553 3.708 67.7833 3.884 68.1573 4.236C68.4873 4.544 68.6523 4.93633 68.6523 5.413C68.6523 5.71367 68.5606 5.98133 68.3773 6.216C68.2013 6.44333 67.963 6.60833 67.6623 6.711C68.0216 6.799 68.293 6.97867 68.4763 7.25C68.667 7.52133 68.7623 7.84033 68.7623 8.207ZM75.8569 10H74.3939V6.051L71.6879 10H70.2249V3.906H71.6879V7.855L74.3939 3.906H75.8569V10ZM82.7881 10H81.3251V7.448H79.0591V10H77.5961V3.906H79.0591V6.15H81.3251V3.906H82.7881V10ZM39.732 22H38.225V15.323H35.255V22H33.748V13.86H39.732V22ZM47.7806 18.964C47.7806 19.8587 47.4726 20.6213 46.8566 21.252C46.2406 21.8827 45.4706 22.198 44.5466 22.198C43.6299 22.198 42.8599 21.8863 42.2366 21.263C41.6206 20.6323 41.3126 19.866 41.3126 18.964C41.3126 18.062 41.6169 17.2957 42.2256 16.665C42.8416 16.027 43.6152 15.708 44.5466 15.708C45.4706 15.708 46.2406 16.0233 46.8566 16.654C47.4726 17.2847 47.7806 18.0547 47.7806 18.964ZM46.3176 18.964C46.3176 18.4433 46.1562 18.0033 45.8336 17.644C45.5109 17.2773 45.0819 17.094 44.5466 17.094C44.0186 17.094 43.5896 17.2773 43.2596 17.644C42.9369 18.0033 42.7756 18.4433 42.7756 18.964C42.7756 19.4847 42.9369 19.9247 43.2596 20.284C43.5822 20.636 44.0112 20.812 44.5466 20.812C45.0672 20.812 45.4926 20.6323 45.8226 20.273C46.1526 19.9137 46.3176 19.4773 46.3176 18.964ZM55.3227 20.02C55.088 20.6873 54.7104 21.219 54.1897 21.615C53.6764 22.0037 53.0494 22.198 52.3087 22.198C51.238 22.198 50.391 21.8423 49.7677 21.131C49.2177 20.5077 48.9427 19.767 48.9427 18.909C48.9427 18.095 49.2067 17.3837 49.7347 16.775C50.3507 16.0637 51.1904 15.708 52.2537 15.708C53.009 15.708 53.658 15.9097 54.2007 16.313C54.7434 16.7163 55.1174 17.2553 55.3227 17.93H53.6727C53.5334 17.6513 53.339 17.4423 53.0897 17.303C52.8477 17.1637 52.5617 17.094 52.2317 17.094C51.667 17.094 51.2197 17.2737 50.8897 17.633C50.567 17.985 50.4057 18.4177 50.4057 18.931C50.4057 19.4663 50.5707 19.9137 50.9007 20.273C51.2307 20.6323 51.6744 20.812 52.2317 20.812C52.5764 20.812 52.866 20.746 53.1007 20.614C53.3354 20.482 53.526 20.284 53.6727 20.02H55.3227ZM60.6978 17.204H59.2348V22H57.7718V17.204H56.3088V15.906H60.6978V17.204ZM68.122 18.964C68.122 19.8587 67.814 20.6213 67.198 21.252C66.582 21.8827 65.812 22.198 64.888 22.198C63.9713 22.198 63.2013 21.8863 62.578 21.263C61.962 20.6323 61.654 19.866 61.654 18.964C61.654 18.062 61.9583 17.2957 62.567 16.665C63.183 16.027 63.9566 15.708 64.888 15.708C65.812 15.708 66.582 16.0233 67.198 16.654C67.814 17.2847 68.122 18.0547 68.122 18.964ZM66.659 18.964C66.659 18.4433 66.4976 18.0033 66.175 17.644C65.8523 17.2773 65.4233 17.094 64.888 17.094C64.36 17.094 63.931 17.2773 63.601 17.644C63.2783 18.0033 63.117 18.4433 63.117 18.964C63.117 19.4847 63.2783 19.9247 63.601 20.284C63.9236 20.636 64.3526 20.812 64.888 20.812C65.4086 20.812 65.834 20.6323 66.164 20.273C66.494 19.9137 66.659 19.4773 66.659 18.964ZM74.3001 22H72.8371V19.657L71.0331 22H69.2071L71.0441 19.844C70.5454 19.7853 70.1494 19.58 69.8561 19.228C69.5701 18.8687 69.4271 18.436 69.4271 17.93C69.4271 17.3727 69.6178 16.9033 69.9991 16.522C70.4098 16.1113 70.9598 15.906 71.6491 15.906H74.3001V22ZM72.8371 18.733V17.204H71.7041C71.4548 17.204 71.2568 17.2773 71.1101 17.424C70.9634 17.5707 70.8901 17.765 70.8901 18.007C70.8901 18.249 70.9671 18.4323 71.1211 18.557C71.2751 18.6743 71.4694 18.733 71.7041 18.733H72.8371ZM81.2305 22H79.7675V19.448H77.5015V22H76.0385V15.906H77.5015V18.15H79.7675V15.906H81.2305V22ZM88.1614 22H86.6984V19.448H84.4324V22H82.9694V15.906H84.4324V18.15H86.6984V15.906H88.1614V22ZM96.8523 22H95.3893V15.906H96.8523V22ZM94.7183 20.02C94.7183 20.6213 94.5276 21.1017 94.1463 21.461C93.7649 21.8203 93.2736 22 92.6723 22H89.9003V15.906H91.3633V18.04H92.6723C93.3469 18.04 93.8639 18.238 94.2233 18.634C94.5533 18.9933 94.7183 19.4553 94.7183 20.02ZM93.2553 20.02C93.2553 19.8367 93.2076 19.6863 93.1123 19.569C92.9803 19.415 92.7823 19.338 92.5183 19.338H91.3633V20.702H92.5183C92.7456 20.702 92.9253 20.647 93.0573 20.537C93.1893 20.4197 93.2553 20.2473 93.2553 20.02ZM104.115 22H102.311L101.079 20.031L99.8468 22H98.0428L100.1 18.876L98.2078 15.906H99.9128L101.068 17.732L102.223 15.906H103.928L101.992 18.876L104.115 22ZM38.94 28.401C38.94 29.061 38.753 29.6073 38.379 30.04C37.873 30.6267 37.0883 30.92 36.025 30.92H35.255V34H33.748V25.86H36.025C37.1543 25.86 37.9647 26.1863 38.456 26.839C38.7787 27.2717 38.94 27.7923 38.94 28.401ZM37.433 28.39C37.433 27.9573 37.268 27.6567 36.938 27.488C36.7253 27.378 36.4613 27.323 36.146 27.323H35.255V29.457H36.146C36.5933 29.457 36.9197 29.3653 37.125 29.182C37.3303 28.9987 37.433 28.7347 37.433 28.39ZM46.3713 34H45.0293V33.175C44.7873 33.505 44.4866 33.758 44.1273 33.934C43.7753 34.11 43.3903 34.198 42.9723 34.198C42.1656 34.198 41.4763 33.912 40.9043 33.34C40.2956 32.7313 39.9913 31.954 39.9913 31.008C39.9913 30.062 40.2809 29.2773 40.8603 28.654C41.4469 28.0233 42.1656 27.708 43.0163 27.708C43.8963 27.708 44.5599 28.06 45.0073 28.764L45.0293 27.906H46.3713V34ZM44.9963 30.942C44.9963 30.4067 44.8349 29.9667 44.5123 29.622C44.1969 29.27 43.7753 29.094 43.2473 29.094C42.7266 29.094 42.2976 29.2737 41.9603 29.633C41.6229 29.9923 41.4543 30.4507 41.4543 31.008C41.4543 31.5287 41.6193 31.9613 41.9493 32.306C42.2866 32.6433 42.7193 32.812 43.2473 32.812C43.7679 32.812 44.1896 32.6397 44.5123 32.295C44.8349 31.9503 44.9963 31.4993 44.9963 30.942ZM54.227 32.02C53.9923 32.6873 53.6147 33.219 53.094 33.615C52.5807 34.0037 51.9537 34.198 51.213 34.198C50.1423 34.198 49.2953 33.8423 48.672 33.131C48.122 32.5077 47.847 31.767 47.847 30.909C47.847 30.095 48.111 29.3837 48.639 28.775C49.255 28.0637 50.0947 27.708 51.158 27.708C51.9133 27.708 52.5623 27.9097 53.105 28.313C53.6477 28.7163 54.0217 29.2553 54.227 29.93H52.577C52.4377 29.6513 52.2433 29.4423 51.994 29.303C51.752 29.1637 51.466 29.094 51.136 29.094C50.5713 29.094 50.124 29.2737 49.794 29.633C49.4713 29.985 49.31 30.4177 49.31 30.931C49.31 31.4663 49.475 31.9137 49.805 32.273C50.135 32.6323 50.5787 32.812 51.136 32.812C51.4807 32.812 51.7703 32.746 52.005 32.614C52.2397 32.482 52.4303 32.284 52.577 32.02H54.227ZM60.8891 34H59.4261V29.204H57.1601V34H55.6971V27.906H60.8891V34ZM69.008 30.953C69.008 31.833 68.7403 32.581 68.205 33.197C67.6257 33.8643 66.874 34.198 65.95 34.198C65.6273 34.198 65.3303 34.1467 65.059 34.044C64.685 33.9047 64.3697 33.67 64.113 33.34L64.091 36.035H62.628V27.906H63.97V28.698C64.212 28.324 64.5493 28.0527 64.982 27.884C65.29 27.7667 65.6127 27.708 65.95 27.708C66.808 27.708 67.5303 28.0087 68.117 28.61C68.711 29.204 69.008 29.985 69.008 30.953ZM67.545 30.942C67.545 30.4727 67.4093 30.0657 67.138 29.721C66.808 29.303 66.3607 29.094 65.796 29.094C65.268 29.094 64.8353 29.27 64.498 29.622C64.168 29.9667 64.003 30.4103 64.003 30.953C64.003 31.525 64.1643 31.9797 64.487 32.317C64.817 32.647 65.235 32.812 65.741 32.812C66.269 32.812 66.7017 32.636 67.039 32.284C67.3763 31.932 67.545 31.4847 67.545 30.942ZM76.5997 30.964C76.5997 31.8587 76.2917 32.6213 75.6757 33.252C75.0597 33.8827 74.2897 34.198 73.3657 34.198C72.449 34.198 71.679 33.8863 71.0557 33.263C70.4397 32.6323 70.1317 31.866 70.1317 30.964C70.1317 30.062 70.436 29.2957 71.0447 28.665C71.6607 28.027 72.4344 27.708 73.3657 27.708C74.2897 27.708 75.0597 28.0233 75.6757 28.654C76.2917 29.2847 76.5997 30.0547 76.5997 30.964ZM75.1367 30.964C75.1367 30.4433 74.9754 30.0033 74.6527 29.644C74.33 29.2773 73.901 29.094 73.3657 29.094C72.8377 29.094 72.4087 29.2773 72.0787 29.644C71.756 30.0033 71.5947 30.4433 71.5947 30.964C71.5947 31.4847 71.756 31.9247 72.0787 32.284C72.4014 32.636 72.8304 32.812 73.3657 32.812C73.8864 32.812 74.3117 32.6323 74.6417 32.273C74.9717 31.9137 75.1367 31.4773 75.1367 30.964ZM84.7908 35.54H83.3608V34H78.9828V35.54H77.5528V32.702H78.2788L80.5118 27.906H81.8318L84.0648 32.702H84.7908V35.54ZM82.4148 32.702L81.1718 29.886L79.9288 32.702H82.4148ZM92.1244 34H90.7824V33.175C90.5404 33.505 90.2397 33.758 89.8804 33.934C89.5284 34.11 89.1434 34.198 88.7254 34.198C87.9187 34.198 87.2294 33.912 86.6574 33.34C86.0487 32.7313 85.7444 31.954 85.7444 31.008C85.7444 30.062 86.0341 29.2773 86.6134 28.654C87.2001 28.0233 87.9187 27.708 88.7694 27.708C89.6494 27.708 90.3131 28.06 90.7604 28.764L90.7824 27.906H92.1244V34ZM90.7494 30.942C90.7494 30.4067 90.5881 29.9667 90.2654 29.622C89.9501 29.27 89.5284 29.094 89.0004 29.094C88.4797 29.094 88.0507 29.2737 87.7134 29.633C87.3761 29.9923 87.2074 30.4507 87.2074 31.008C87.2074 31.5287 87.3724 31.9613 87.7024 32.306C88.0397 32.6433 88.4724 32.812 89.0004 32.812C89.5211 32.812 89.9427 32.6397 90.2654 32.295C90.5881 31.9503 90.7494 31.4993 90.7494 30.942ZM102.334 34H100.607L98.6271 31.074V34H97.1641V31.074L95.1841 34H93.4571L95.6791 30.81L93.5891 27.906H95.3161L97.1641 30.7V27.906H98.6271V30.7L100.475 27.906H102.202L100.112 30.81L102.334 34Z" fill="white"/>
</svg>
