<?xml version="1.0" encoding="utf-8"?><svg viewBox="0 0 185 52" xmlns="http://www.w3.org/2000/svg" xmlns:xlink="http://www.w3.org/1999/xlink"><style>:root>svg{display:none}:root>svg:target{display:block}</style><svg fill="none" viewBox="0 0 24 35" id="button-up" xmlns="http://www.w3.org/2000/svg"><path d="M13.06.94a1.5 1.5 0 0 0-2.12 0l-9.547 9.545a1.5 1.5 0 1 0 2.122 2.122L12 4.12l8.485 8.486a1.5 1.5 0 1 0 2.122-2.122L13.06.94ZM13.5 35V2h-3v33h3Z" fill="#E30613"/></svg><svg fill="none" viewBox="0 0 26 16" id="concerns-arrow" xmlns="http://www.w3.org/2000/svg"><path d="M25.707 8.707a1 1 0 0 0 0-1.414L19.343.929a1 1 0 1 0-1.414 1.414L23.586 8l-5.657 5.657a1 1 0 0 0 1.414 1.414l6.364-6.364ZM0 9h25V7H0v2Z" fill="#000"/></svg><svg fill="none" viewBox="0 0 27 14" id="icon-arrow-dropdown" xmlns="http://www.w3.org/2000/svg"><path d="m2 2 11.1 9.6M24.8 2.1l-11.4 9.3" stroke="#E30613" stroke-width="3" stroke-miterlimit="10" stroke-linecap="round"/></svg><svg fill="none" viewBox="0 0 27 14" id="icon-arrow-dropdown-white" xmlns="http://www.w3.org/2000/svg"><path d="m2 2 11.1 9.6M24.8 2.1l-11.4 9.3" stroke="#fff" stroke-width="3" stroke-miterlimit="10" stroke-linecap="round"/></svg><svg fill="none" viewBox="0 0 64 24" id="icon-arrow-next" xmlns="http://www.w3.org/2000/svg"><path d="M63.06 13.06a1.5 1.5 0 0 0 0-2.12l-9.545-9.547a1.5 1.5 0 1 0-2.122 2.122L59.88 12l-8.486 8.485a1.5 1.5 0 1 0 2.122 2.122l9.546-9.546ZM0 13.5h62v-3H0v3Z" fill="#E30613"/></svg><svg fill="none" viewBox="0 0 24 52" id="icon-arrow-right-slider" xmlns="http://www.w3.org/2000/svg"><g clip-path="url(#fa)" stroke="#E30613" stroke-width="7" stroke-miterlimit="10" stroke-linecap="round"><path d="M3.5 48 20 26.3M3.6 3.5l16 22.2"/></g><defs><clipPath id="fa"><path fill="#fff" transform="rotate(-90 25.75 25.75)" d="M0 0h51.5v23.5H0z"/></clipPath></defs></svg><svg fill="none" viewBox="0 0 31 36" id="icon-bonus" xmlns="http://www.w3.org/2000/svg"><g clip-path="url(#ga)"><path d="m4.163 10.125 22.893.225c.33.113 1.096.9 1.534 1.688H2.63c.548-1.013 1.205-1.913 1.534-1.913Zm-.11-2.25C1.972 7.987.329 11.25 0 13.162c-.22 1.013 1.205 1.125 2.41 1.125h26.837c1.096 0 2.191-.45 1.753-2.025-.438-1.687-2.081-3.937-3.724-4.162L4.053 7.875Z" fill="#fff"/><path d="M25.742 14.85c.876 0 1.643.787 1.643 1.687v15.638c0 .9-.767 1.687-1.643 1.687H5.915c-.876 0-1.643-.787-1.643-1.687V16.537c0-.9.767-1.687 1.643-1.687h19.827Zm0-2.25H5.915c-2.081 0-3.834 1.8-3.834 3.937v15.638c0 2.137 1.753 3.937 3.834 3.937h19.937c2.08 0 3.834-1.8 3.834-3.937V16.537c-.11-2.25-1.863-3.937-3.944-3.937Z" fill="#fff"/><path d="M16.431 7.987h-1.534c-.876 0-1.533-.787-1.533-1.575 0-.9.767-1.575 1.534-1.575h1.533c.876 0 1.534.788 1.534 1.575 0 .9-.658 1.575-1.534 1.575ZM25.633 8.1h-5.258c-.877 0-1.644-.788-1.644-1.688L18.293 4.5c0-.9 5.368-2.813 5.368-2.813 2.629-1.012 3.615.45 3.615 1.35v3.375c0 .9-.767 1.688-1.643 1.688ZM5.915 7.875h5.258c.876 0 1.643-.788 1.643-1.688l.329-1.8c0-1.012-5.368-2.925-5.368-2.925-2.629-1.012-3.505.45-3.505 1.463V6.3c0 .9.767 1.575 1.643 1.575ZM17.636 13.5h-3.615c-1.095 0-2.081-.9-2.081-2.138 0-1.125.876-2.137 2.081-2.137h3.615c1.095 0 2.081.9 2.081 2.137-.11 1.125-.986 2.138-2.081 2.138Z" stroke="#fff" stroke-width="2" stroke-miterlimit="10"/><path d="M13.145 13.387h5.477c1.095 0 1.972.9 1.972 2.025V32.4c0 1.125-.877 2.025-1.972 2.025h-5.477c-1.095 0-1.972-.9-1.972-2.025V15.413c0-1.126.877-2.026 1.972-2.026Z" stroke="#fff" stroke-width="2" stroke-miterlimit="10"/></g><defs><clipPath id="ga"><path fill="#fff" d="M0 0h31v36H0z"/></clipPath></defs></svg><svg fill="none" viewBox="0 0 24 32" id="icon-brend" xmlns="http://www.w3.org/2000/svg"><g clip-path="url(#ha)"><path d="M17.9 10.9c1.2 1.7 2.7 9 3.5 15.3 0 1.5-.6 3.1-3.3 3.1H5.5c-3.4 0-3.5-1.7-3.5-2.6.4-7.3 1.8-14.5 3.1-15.7l12.8-.1Zm.5-2L4.9 9C.9 9 0 26.7 0 26.7c0 3.1 2.1 4.6 5.5 4.6h12.7c3.4 0 5.3-2.2 5.3-5.3 0 0-2.2-17.1-5.1-17.1Z" fill="#fff"/><path d="M5 9.6S7.7 1 11.7 1 18 9 18 9" stroke="#fff" stroke-width="2" stroke-miterlimit="10"/></g><defs><clipPath id="ha"><path fill="#fff" d="M0 0h23.5v31.3H0z"/></clipPath></defs></svg><svg fill="none" viewBox="0 0 32 41" id="icon-complaints" xmlns="http://www.w3.org/2000/svg"><g clip-path="url(#ia)" fill="#fff"><path d="M8.133 0h15.6s.134 0 .134.13c.933.26 1.466.911 1.466 1.953v.39h1.734c2.8 0 4.8 1.822 4.8 4.686V36.444c0 2.213-1.2 3.905-3.2 4.426-.267.13-.534.13-.8.26H3.6C1.467 40.48 0 38.787 0 36.575V6.898c0-2.733 2-4.555 4.667-4.555H6.4c.133-.52.133-.911.4-1.302.267-.52.8-.78 1.333-1.041Zm-1.6 4.816H4.667c-1.334 0-2.267.78-2.267 2.213v29.546c0 1.171.933 2.082 2.133 2.082h22.534c.666 0 1.2-.13 1.733-.65.4-.521.533-1.042.533-1.693V6.768c0-.91-.533-1.431-1.333-1.822-.933-.39-1.867-.13-2.8-.13.133 1.692-1.067 2.473-2.533 2.473-3.067-.13-6 0-9.067 0H8.4c-.933-.13-1.733-.911-1.867-2.083v-.39Zm2.534 0h13.866V2.473H9.067v2.343Z"/><path d="M20.8 32.02h-4.267c-.8 0-1.333-.522-1.333-1.172 0-.651.533-1.172 1.333-1.172h8.534c.8 0 1.333.52 1.333 1.172 0 .65-.533 1.171-1.333 1.171H20.8ZM20.8 16.01h-4.133c-.8 0-1.334-.521-1.334-1.172 0-.65.534-1.171 1.334-1.171h8.4c.8 0 1.333.52 1.466 1.171 0 .651-.533 1.172-1.466 1.172H20.8ZM20.8 21.606h4.133c.8 0 1.334.521 1.467 1.172 0 .65-.533 1.171-1.333 1.171h-8.4c-.8 0-1.334-.52-1.334-1.171 0-.65.534-1.172 1.334-1.172H20.8ZM8.267 23.038l2.8-2.733c.266-.26.666-.39 1.066-.39.534 0 .8.26 1.067.65.267.52.133.911-.133 1.302-1.2 1.301-2.534 2.473-3.867 3.774-.4.39-1.067.39-1.6 0-.533-.52-1.2-1.041-1.733-1.692-.4-.52-.4-1.171 0-1.562.4-.39 1.2-.52 1.733-.13.267.13.4.39.667.781ZM8.267 30.978l2.8-2.734c.4-.39.8-.52 1.333-.26.4.13.667.52.8.911.133.39 0 .781-.4 1.041l-3.733 3.645c-.534.52-1.2.52-1.734 0l-1.6-1.562c-.533-.52-.533-1.171 0-1.692.534-.52 1.2-.52 1.734 0 .4.13.666.39.8.65ZM8.4 14.448c.133-.26.267-.39.4-.521l2.4-2.343c.533-.52 1.333-.52 1.733 0 .534.52.534 1.171 0 1.692l-3.6 3.514c-.533.521-1.2.521-1.866 0L6 15.36c-.533-.521-.533-1.302 0-1.692.533-.521 1.2-.521 1.733 0 .134.26.267.39.667.78Z"/></g><defs><clipPath id="ia"><path fill="#fff" d="M0 0h32v41H0z"/></clipPath></defs></svg><svg fill="none" viewBox="0 0 38 31" id="icon-computer" xmlns="http://www.w3.org/2000/svg"><g clip-path="url(#ja)" fill="#fff"><path d="M35.5 25.6h.1c-.5 1.2-1.7 2.6-2.7 2.7L5 28.6c-.9-.1-2.1-1.6-2.7-3h33.2Zm0-2H2.9c-1.4 0-3.1.1-2.9 1.2.4 2.1 2.4 5.7 4.9 5.8l28.2-.3c2.1-.2 4.1-2.8 4.6-4.5.5-1.7-.8-2.2-2.2-2.2Z"/><path d="M30.58 2.04c.782 0 1.466.713 1.466 1.529V22.43c0 .816-.684 1.53-1.466 1.53H7.42c-.782 0-1.466-.714-1.466-1.53V3.57c0-.816.684-1.53 1.466-1.53h23.16Zm0-2.04H7.42C5.564 0 4 1.631 4 3.569V22.43C4 24.37 5.564 26 7.42 26h23.16c1.857 0 3.42-1.631 3.42-3.569V3.57C34 1.63 32.437 0 30.58 0Z"/></g><defs><clipPath id="ja"><path fill="#fff" d="M0 0h37.8v30.6H0z"/></clipPath></defs></svg><svg fill="none" viewBox="0 0 39 42" id="icon-cube" xmlns="http://www.w3.org/2000/svg"><path d="m19.5 2.836 15.818 10.669L19.5 23.363 3.545 13.1 19.5 2.836ZM19.5 0a2.32 2.32 0 0 0-1.364.405L.955 11.48c-1.228.81-1.228 2.431 0 3.241l17.181 10.94c.41.27.819.404 1.364.404.41 0 .954-.135 1.364-.405L38.045 14.99c1.228-.81 1.364-2.43 0-3.24L20.864.404A2.32 2.32 0 0 0 19.5 0ZM38.045 27.685l-2.727 1.62L19.5 39.164 3.545 28.9l-2.59-1.62c-1.228.81-1.228 2.43 0 3.24l17.181 10.94c.41.27.819.405 1.364.405.41 0 .954-.135 1.364-.405L38.045 30.79c1.228-.675 1.228-2.296 0-3.106Z" fill="#fff"/><path d="M1.5 13.1v15.665M19.636 24.714V40.38M37.5 13.505v15.53" stroke="#fff" stroke-width="2" stroke-miterlimit="10" stroke-linecap="round"/></svg><svg fill="none" viewBox="0 0 44 36" id="icon-delivery" xmlns="http://www.w3.org/2000/svg"><g clip-path="url(#la)" fill="#fff"><path d="M28.995 2.271v23.395H2.256V2.27h26.739ZM29.559 0H1.579C.677 0 0 .681 0 1.59v24.643c0 .909.677 1.59 1.58 1.59h27.979c.902 0 1.58-.681 1.58-1.59V1.59C31.25.68 30.462 0 29.559 0Z"/><path d="M30.236 28.959a2.27 2.27 0 0 1 2.256 2.271 2.27 2.27 0 0 1-2.256 2.272 2.27 2.27 0 0 1-2.256-2.272 2.27 2.27 0 0 1 2.256-2.271Zm0-2.271c-2.482 0-4.513 2.044-4.513 4.542 0 2.499 2.03 4.543 4.513 4.543 2.482 0 4.513-2.044 4.513-4.543 0-2.498-1.918-4.542-4.513-4.542ZM7.22 29.073a2.27 2.27 0 0 1 2.257 2.27 2.27 2.27 0 0 1-2.256 2.272 2.27 2.27 0 0 1-2.257-2.271 2.27 2.27 0 0 1 2.257-2.271Zm0-2.272c-2.482 0-4.512 2.044-4.512 4.543 0 2.498 2.03 4.542 4.513 4.542 2.482 0 4.512-2.044 4.512-4.542 0-2.499-2.03-4.543-4.512-4.543Z"/><path d="M44 18.057c0-2.385-6.882-10.562-9.364-10.562h-5.19V9.54l5.077.227c1.805.568 6.77 6.473 7.22 8.29l.113 4.429c0 1.25-1.58 2.953-2.82 2.953 0 0-16.02.34-16.246.34-.113 0 1.918 1.93 3.497 1.93h12.749c2.37 0 5.077-2.838 5.077-5.223L44 18.056Z"/></g><defs><clipPath id="la"><path fill="#fff" d="M0 0h44v36H0z"/></clipPath></defs></svg><svg fill="none" viewBox="0 0 37 34" id="icon-escort" xmlns="http://www.w3.org/2000/svg"><g clip-path="url(#ma)"><path d="M0 11.45c1.671-1.519 3.223-3.038 4.894-4.556C6.923 4.907 9.07 2.92 11.1.934l.239-.233c.358.234.596.467.954.701l1.433 1.052c.358.233.597.584 1.074.7.358 0 .716-.233 1.193-.35.478-.117 1.075-.233 1.671-.233H22.2c.239 0 .358-.117.597-.234l2.267-2.22c4.059 4.09 8.117 8.062 12.175 12.151-1.552 1.402-2.984 2.804-4.655 4.206.239.234.477.35.716.584l1.671 1.636c2.029 1.87 1.194 5.141-1.552 5.842H33.3c.12 1.169-.12 2.22-1.074 2.921-.836.818-1.91 1.052-3.103.935-.24.935-.836 1.752-1.671 2.22-.836.467-1.79.584-2.865.234-.477 1.285-1.432 2.103-2.864 2.336-1.433.234-2.507-.467-3.462-1.402-.477.35-.835.818-1.313 1.169-1.074.934-2.267 1.285-3.7.817-.954-.35-1.551-.934-2.029-1.869 0-.117-.119-.117-.119-.234-.477 0-1.074.117-1.552 0-1.432-.116-2.745-1.402-2.983-2.804 0-.117 0-.35-.24-.35-1.67-.117-2.983-1.402-3.102-3.272v-.117c-.597-.233-1.194-.467-1.552-.818C0 23.017-.119 20.797 1.432 19.28c.716-.585 1.433-1.286 2.149-1.987 0 0-.12-.117-.12-.234-1.074-1.752-2.267-3.505-3.342-5.374 0 0-.119-.117-.119-.234 0 .117 0 0 0 0Zm22.916 8.763c.12.117.12.234.239.35l5.251 5.142.359.35c.835.584 1.91.117 2.029-.818.119-.467-.12-.934-.478-1.285l-5.37-5.258c-.12-.117-.12-.233-.24-.233l1.552-1.52.239.234 2.984 2.921 1.91 1.87c.357.35.715.584 1.312.467.478-.117.836-.467.955-.935.12-.584 0-1.051-.477-1.402L22.558 9.698c-.12-.117-.358-.234-.477-.234h-3.223a.922.922 0 0 0-.597.234c-.954.934-1.91 1.87-2.745 2.804-.477.467-1.074.934-1.91 1.051-1.79.468-3.819-.584-4.296-2.336-.478-1.402-.12-2.688.954-3.74l2.865-2.803c-.597-.468-1.074-.818-1.67-1.169-2.985 2.804-5.85 5.609-8.833 8.413.955 1.519 1.91 3.154 2.864 4.673.12.234.358.35.597.35 1.432.234 2.507 1.403 2.626 2.805 0 .234.12.35.358.35 1.552.234 2.745 1.285 2.864 2.921 0 .234.12.35.358.35.359.118.717.118 1.075.351 1.074.468 1.67 1.402 1.91 2.57 0 .118 0 .351.238.351 1.671.234 2.626 1.169 2.984 2.804 0 .117.12.234.239.35.477.351.835.819 1.313 1.17.358.35.835.35 1.193.233.955-.234 1.194-1.402.478-2.103l-2.149-2.103-1.79-1.753 1.552-1.519c0 .117.119.234.238.234l4.536 4.44.238.233c.358.351.955.468 1.433.117.477-.233.716-.7.716-1.168 0-.35-.239-.701-.478-.935l-4.654-4.556c-.12-.117-.12-.234-.24-.234.717-.584 1.194-1.052 1.791-1.636Zm1.91-17.175L23.393 4.44c-.119.117-.358.234-.477.234h-5.37c-.836 0-1.553.233-2.15.934-1.193 1.169-2.267 2.337-3.46 3.389-.12 0-.24.117-.359.233-.716.818-.238 2.103.836 2.337.597.117 1.074-.117 1.551-.467 1.194-1.169 2.268-2.337 3.462-3.505a.922.922 0 0 1 .597-.234h4.893c.239 0 .477.117.716.234 2.268 2.336 4.655 4.556 7.042 6.893.12.117.12.234.239.35 1.074-.934 2.029-1.869 3.103-2.803l-9.19-8.997ZM13.248 26.756c0-.7-.238-1.051-.716-1.285-.477-.234-.955-.117-1.313.234-.716.7-1.432 1.285-2.029 1.986a1.251 1.251 0 0 0 0 1.752c.478.468 1.194.468 1.79 0 .717-.7 1.433-1.285 2.03-1.986 0-.233.119-.584.238-.7Zm-6.445-.234c.12 0 .478-.116.597-.233a20.139 20.139 0 0 0 2.268-2.22c.477-.467.358-1.169-.12-1.636-.477-.467-1.193-.467-1.551-.117a20.13 20.13 0 0 0-2.268 2.22c-.358.35-.358.818-.12 1.285.12.468.478.701 1.194.701ZM3.82 23.134c.12 0 .358-.117.597-.234.716-.7 1.432-1.285 2.03-1.986.357-.467.357-1.168-.12-1.519-.478-.467-1.194-.467-1.552-.116a16.12 16.12 0 0 0-2.029 1.986.885.885 0 0 0-.12 1.168c.24.467.598.584 1.194.701Zm12.652 6.777c0-.701-.239-1.052-.716-1.286-.478-.233-.955-.116-1.313.117l-1.074 1.052c-.478.467-.478 1.168 0 1.636.477.467 1.193.467 1.79 0 .358-.35.716-.584.955-.935.239-.117.358-.467.358-.584Z" fill="#fff"/></g><defs><clipPath id="ma"><path fill="#fff" d="M0 0h37v34H0z"/></clipPath></defs></svg><svg fill="none" viewBox="0 0 132 38" id="icon-fb" xmlns="http://www.w3.org/2000/svg"><path d="M52.899 22.948v-7.896h1.73v.74c.247-.37.495-.493.865-.74.371-.123.742-.246 1.113-.246.494 0 .989.123 1.36.37.37.246.74.493.988.863.247-.37.618-.74 1.112-.863.371-.247.866-.37 1.484-.37.988 0 1.73.37 2.348.987.618.617.865 1.48.865 2.59v4.566H62.91v-4.195c0-.74-.123-1.234-.37-1.604-.248-.37-.619-.494-1.113-.494s-.865.247-1.112.494c-.248.37-.371.864-.371 1.604v4.194H58.09v-4.194c0-.74-.124-1.234-.37-1.604-.248-.37-.619-.494-1.113-.494-.495 0-.865.124-1.113.494-.247.37-.37.864-.37 1.604v4.194h-2.225ZM66.247 25.539V15.052h1.73v.987c.248-.37.618-.74.99-.987.494-.247.988-.37 1.482-.37 1.113 0 1.978.37 2.843 1.11.742.74 1.112 1.727 1.112 2.961 0 1.11-.37 2.098-1.112 2.961-.741.864-1.73 1.234-2.843 1.234-.494 0-.865-.123-1.36-.247-.493-.123-.74-.493-1.111-.864v3.455h-1.73v.247Zm4.079-8.883c-.742 0-1.236.246-1.73.74-.371.493-.618.987-.618 1.727 0 .74.247 1.357.618 1.727.37.37.988.617 1.606.617.618 0 1.236-.246 1.607-.74.494-.493.618-.987.618-1.727 0-.74-.247-1.234-.618-1.727-.247-.494-.742-.617-1.483-.617ZM75.64 22.948v-7.896h1.73v.74c.124-.37.372-.616.742-.74.371-.123.742-.246 1.113-.246v1.85c-.495 0-.989.124-1.236.494s-.495.864-.371 1.604v4.194H75.64ZM81.326 21.098h-1.854v1.85h1.854v-1.85ZM82.685 20.481h1.854c0 .247.124.493.248.74.247.124.494.247.741.247s.494 0 .618-.247a.941.941 0 0 0 .247-.617c0-.123-.123-.37-.123-.493a1.706 1.706 0 0 0-.495-.37h-.123s-.248-.124-.618-.247c-.742-.247-1.236-.494-1.483-.864-.371-.37-.495-.863-.495-1.357 0-.74.247-1.234.742-1.727.494-.494 1.112-.74 1.854-.74.741 0 1.36.246 1.73.617.494.493.742.987.742 1.727H86.27c0-.247-.124-.37-.248-.494-.123-.123-.247-.123-.494-.123s-.37 0-.494.123c-.124.124-.248.247-.248.494s.124.37.248.493c.123.124.494.247.988.37.866.247 1.484.494 1.73.864.372.37.495.864.495 1.48 0 .74-.247 1.481-.741 1.975-.495.493-1.236.74-2.102.74-.865 0-1.606-.247-2.1-.74a3.027 3.027 0 0 1-.619-1.851ZM89.483 22.948V12.461h1.854v3.208c.247-.247.495-.494.865-.617.371-.123.742-.247 1.113-.247.865 0 1.606.37 2.224.987.618.617.865 1.48.865 2.591v4.565h-1.853v-4.195c0-.74-.124-1.234-.371-1.604-.247-.37-.618-.493-1.113-.493-.494 0-.988.123-1.235.493-.248.37-.371.864-.371 1.604v4.195h-1.978ZM101.719 14.806c1.236 0 2.225.37 2.966 1.233.742.864 1.236 1.851 1.236 2.961 0 1.11-.37 2.098-1.236 2.962-.741.863-1.854 1.233-2.966 1.233-1.236 0-2.225-.37-2.966-1.233-.742-.864-1.236-1.851-1.236-2.962 0-1.11.37-2.097 1.236-2.96.741-.864 1.854-1.234 2.966-1.234Zm0 1.85c-.741 0-1.236.247-1.607.74-.37.494-.618.988-.618 1.728 0 .617.248 1.234.618 1.727.371.494.989.74 1.607.74s1.236-.246 1.607-.74c.371-.493.618-.987.618-1.727 0-.617-.247-1.234-.618-1.727-.371-.494-.865-.74-1.607-.74ZM107.034 25.539V15.052h1.73v.987c.247-.37.618-.74.989-.987.494-.247.989-.37 1.483-.37 1.112 0 1.977.37 2.843 1.11.741.74 1.112 1.727 1.112 2.961 0 1.11-.371 2.098-1.112 2.961-.742.864-1.731 1.234-2.843 1.234-.494 0-.865-.123-1.36-.247-.37-.123-.741-.493-1.112-.864v3.455h-1.73v.247Zm4.078-8.883c-.741 0-1.236.246-1.73.74-.371.493-.618.987-.618 1.727 0 .74.247 1.357.618 1.727.371.37.989.617 1.607.617s1.236-.246 1.607-.74c.494-.493.617-.987.617-1.727 0-.74-.247-1.234-.617-1.727-.248-.494-.742-.617-1.484-.617ZM118.528 21.098h-1.854v1.85h1.854v-1.85ZM120.382 22.948v-7.896h1.73v.74c.124-.37.371-.616.742-.74.371-.123.618-.246 1.112-.246v1.85c-.494 0-.988.124-1.236.494-.247.37-.494.864-.37 1.604v4.194h-1.978ZM132 15.052v7.896h-1.73v-.74c-.248.37-.495.493-.866.74-.37.123-.741.247-1.112.247-1.112 0-1.854-.37-2.348-.987-.495-.617-.742-1.604-.742-2.838v-4.195h1.854v3.948c0 .864.124 1.357.371 1.727.247.37.618.617 1.236.494.494 0 .989-.123 1.236-.494.247-.37.371-.987.371-1.727v-3.948H132v-.123ZM34.607 0H3.337A3.32 3.32 0 0 0 0 3.331v31.214a3.32 3.32 0 0 0 3.337 3.332h31.27a3.32 3.32 0 0 0 3.337-3.332V3.331C38.067 1.481 36.46 0 34.607 0Z" fill="#fff"/><path d="M21.135 33.189V20.728h4.202l.618-4.935h-4.82v-3.085c0-1.357.37-2.344 2.472-2.344h2.595V5.923c-.494 0-1.977-.247-3.831-.247-3.708 0-6.304 2.22-6.304 6.415v3.578h-4.202v4.935h4.202v12.461h5.068v.124Z" fill="#ED1D24"/></svg><svg fill="none" viewBox="0 0 140 39" id="icon-inst" xmlns="http://www.w3.org/2000/svg"><path d="M55.022 23.842V15.77h1.767v.757c.253-.379.505-.505.884-.757.379-.126.758-.252 1.136-.252.506 0 1.01.126 1.39.378.378.252.757.505 1.01.883.252-.378.631-.757 1.136-.883.379-.252.884-.378 1.515-.378 1.01 0 1.768.378 2.4 1.009.63.63.883 1.514.883 2.649v4.667H65.25v-4.289c0-.756-.126-1.261-.379-1.64-.252-.378-.63-.504-1.136-.504-.505 0-.884.252-1.136.504-.253.379-.38.884-.38 1.64v4.29h-1.893v-4.29c0-.756-.127-1.261-.38-1.64-.252-.378-.63-.504-1.136-.504-.505 0-.883.126-1.136.504-.252.379-.379.884-.379 1.64v4.29h-2.272ZM68.658 26.618V15.895h1.768v1.01a3.84 3.84 0 0 1 1.01-1.01 3.365 3.365 0 0 1 1.516-.378c1.136 0 2.02.378 2.904 1.135.757.757 1.136 1.766 1.136 3.027 0 1.136-.379 2.145-1.136 3.028-.758.883-1.768 1.262-2.904 1.262-.505 0-.884-.127-1.39-.253-.504-.126-.757-.504-1.136-.883v3.532h-1.768v.253Zm4.167-9.21c-.757 0-1.262.253-1.767.758-.38.504-.632 1.009-.632 1.766 0 .757.253 1.387.632 1.766.378.378 1.01.63 1.641.63s1.263-.252 1.642-.756c.505-.505.63-1.01.63-1.766 0-.757-.252-1.262-.63-1.766a2.092 2.092 0 0 0-1.516-.631ZM78.255 23.842V15.77h1.767v.757c.127-.379.38-.631.758-.757.379-.126.758-.252 1.136-.252v1.892c-.504 0-1.01.126-1.262.504-.253.379-.505.884-.379 1.64v4.29h-2.02ZM89.24 24.599h-7.197v1.261h7.197V24.6ZM89.619 21.32h1.894c0 .252.126.504.252.756.253.127.505.253.758.253s.505 0 .631-.253a.963.963 0 0 0 .253-.63c0-.127-.126-.379-.126-.505a1.744 1.744 0 0 0-.505-.378h-.127s-.252-.127-.631-.253c-.758-.252-1.263-.504-1.515-.883-.379-.378-.505-.883-.505-1.387 0-.757.252-1.262.757-1.767.505-.504 1.137-.756 1.894-.756.758 0 1.39.252 1.768.63.505.505.758 1.01.758 1.766H93.28c0-.252-.127-.378-.253-.504s-.252-.126-.505-.126c-.252 0-.379 0-.505.126s-.252.252-.252.504c0 .253.126.379.252.505s.505.252 1.01.379c.884.252 1.515.504 1.768.883.379.378.505.883.505 1.513 0 .757-.253 1.514-.758 2.019-.505.504-1.262.757-2.146.757-.884 0-1.642-.253-2.147-.757-.379-.379-.631-1.136-.631-1.893ZM96.438 23.842V13.119h1.894v3.28c.252-.252.505-.505.883-.63.38-.127.758-.253 1.137-.253.884 0 1.641.378 2.273 1.01.631.63.884 1.513.884 2.648v4.668h-1.894v-4.29c0-.756-.127-1.26-.379-1.64-.253-.378-.632-.504-1.137-.504s-1.01.126-1.262.505c-.253.378-.38.883-.38 1.64v4.289h-2.02ZM109.064 15.643c1.263 0 2.273.378 3.031 1.261.757.883 1.262 1.892 1.262 3.028 0 1.135-.378 2.144-1.262 3.027-.758.883-1.894 1.262-3.031 1.262-1.262 0-2.273-.379-3.03-1.262-.758-.883-1.263-1.892-1.263-3.027 0-1.136.379-2.145 1.263-3.028.757-.883 1.768-1.261 3.03-1.261Zm0 1.766c-.757 0-1.262.252-1.641.757-.379.504-.632 1.009-.632 1.766 0 .63.253 1.261.632 1.766.379.504 1.01.757 1.641.757.632 0 1.263-.253 1.642-.757.379-.505.631-1.01.631-1.766 0-.631-.252-1.262-.631-1.766-.379-.505-1.01-.757-1.642-.757ZM114.494 26.618V15.895h1.768v1.01a3.83 3.83 0 0 1 1.01-1.01 3.365 3.365 0 0 1 1.515-.378c1.136 0 2.02.378 2.904 1.135.758.757 1.136 1.766 1.136 3.027 0 1.136-.378 2.145-1.136 3.028-.758.883-1.768 1.262-2.904 1.262-.505 0-.884-.127-1.389-.253-.379-.126-.758-.504-1.136-.883v3.532h-1.768v.253Zm4.167-9.21c-.758 0-1.263.253-1.768.758-.379.504-.631 1.009-.631 1.766 0 .757.252 1.387.631 1.766.379.378 1.01.63 1.641.63.632 0 1.263-.252 1.642-.756.505-.505.631-1.01.631-1.766 0-.757-.252-1.262-.631-1.766-.253-.379-.884-.631-1.515-.631ZM126.237 21.95h-1.894v1.892h1.894V21.95ZM128.131 23.842V15.77h1.768v.757c.126-.379.378-.631.757-.757s.632-.252 1.137-.252v1.892c-.505 0-1.011.126-1.263.504-.253.379-.505.884-.379 1.64v4.29h-2.02ZM140 15.895v8.073h-1.768v-.757c-.252.379-.505.505-.884.757-.379.126-.757.252-1.136.252-1.137 0-1.894-.378-2.399-1.009-.505-.63-.758-1.64-.758-2.901v-4.29h1.894v4.037c0 .884.126 1.388.379 1.767.253.378.631.63 1.263.504.505 0 1.01-.126 1.262-.505.253-.378.379-1.009.379-1.766v-4.036H140v-.127ZM36.334 0H4.388a3.393 3.393 0 0 0-3.41 3.406v31.916a3.393 3.393 0 0 0 3.41 3.406h31.946a3.394 3.394 0 0 0 3.409-3.406V3.406A3.394 3.394 0 0 0 36.333 0Z" fill="#fff"/><path d="M20.298 10.092h4.672c1.136 0 1.767.252 2.146.378.505.252.884.505 1.263.883.379.379.631.757.884 1.262.126.378.378 1.009.378 2.144 0 1.262.127 1.514.127 4.542 0 3.027 0 3.406-.127 4.541 0 1.135-.252 1.766-.378 2.145-.253.504-.505.883-.884 1.261-.379.378-.758.63-1.263.883-.379.126-1.01.378-2.146.378-1.263 0-1.516.127-4.546.127-3.03 0-3.41 0-4.546-.127-1.136 0-1.768-.252-2.146-.378-.505-.252-.884-.505-1.263-.883-.379-.378-.631-.757-.884-1.262-.126-.378-.379-1.009-.379-2.144 0-1.261-.126-1.514-.126-4.541 0-3.028 0-3.406.126-4.542 0-1.135.253-1.766.38-2.144.252-.505.504-.883.883-1.262.379-.378.758-.63 1.263-.883.252-.126.884-.252 2.02-.378h4.546Zm0-2.145c-3.157 0-3.536 0-4.672.126-1.263 0-2.02.253-2.778.505s-1.39.63-2.02 1.261c-.632.631-1.01 1.262-1.263 2.019-.253.757-.505 1.514-.505 2.775 0 1.262-.127 1.64-.127 4.668 0 3.153 0 3.532.127 4.667 0 1.262.252 2.018.505 2.775.252.757.631 1.388 1.263 2.019.63.63 1.262 1.009 2.02 1.261.757.253 1.515.505 2.778.505 1.262 0 1.641.126 4.672.126 3.156 0 3.535 0 4.672-.126 1.262 0 2.02-.252 2.777-.505.758-.252 1.39-.63 2.02-1.261.632-.63 1.01-1.262 1.263-2.019.253-.756.505-1.513.505-2.775 0-1.261.127-1.64.127-4.667 0-3.154 0-3.532-.127-4.668 0-1.261-.252-2.018-.505-2.775-.252-.757-.63-1.388-1.262-2.019-.632-.63-1.263-1.009-2.02-1.261-.758-.252-1.516-.505-2.778-.505-1.137 0-1.516-.126-4.672-.126Z" fill="#ED1D24"/><path d="M20.298 13.498a5.79 5.79 0 0 0-5.809 5.803c0 3.28 2.652 5.803 5.809 5.803a5.79 5.79 0 0 0 5.808-5.803c.126-3.154-2.525-5.803-5.808-5.803Zm0 9.714c-2.147 0-3.788-1.64-3.788-3.785 0-2.145 1.641-3.784 3.788-3.784 2.146 0 3.788 1.64 3.788 3.784 0 2.018-1.642 3.785-3.788 3.785ZM27.747 13.372a1.4 1.4 0 0 1-1.388 1.388 1.4 1.4 0 0 1-1.39-1.388 1.4 1.4 0 0 1 1.39-1.388 1.4 1.4 0 0 1 1.388 1.388Z" fill="#ED1D24"/></svg><svg fill="none" viewBox="0 0 120 39" id="icon-ok" xmlns="http://www.w3.org/2000/svg"><path d="M54.627 23.883v-8.13h1.787v.762c.256-.381.51-.509.894-.763.383-.127.766-.254 1.148-.254.511 0 1.021.127 1.404.381.383.255.766.508 1.022.89.255-.381.638-.763 1.148-.89.383-.254.894-.38 1.532-.38 1.02 0 1.787.38 2.425 1.016.638.635.893 1.524.893 2.667v4.7h-1.914v-4.319c0-.762-.128-1.27-.383-1.651s-.638-.508-1.149-.508c-.51 0-.893.254-1.148.508-.256.381-.383.89-.383 1.651v4.32h-1.915v-4.32c0-.762-.128-1.27-.383-1.651s-.638-.508-1.148-.508c-.511 0-.894.127-1.15.508-.255.381-.382.89-.382 1.651v4.32h-2.298ZM68.412 26.55V15.752H70.2v1.017a3.877 3.877 0 0 1 1.021-1.017 3.412 3.412 0 0 1 1.532-.38c1.148 0 2.042.38 2.935 1.143.766.762 1.149 1.778 1.149 3.049 0 1.143-.383 2.16-1.149 3.048-.766.89-1.787 1.27-2.935 1.27-.51 0-.894-.126-1.404-.253-.51-.127-.766-.509-1.149-.89v3.557h-1.787v.255Zm4.212-9.273c-.766 0-1.276.254-1.787.762-.383.508-.638 1.016-.638 1.779 0 .762.255 1.397.638 1.778s1.021.635 1.66.635c.638 0 1.276-.254 1.659-.762.51-.508.638-1.016.638-1.778 0-.763-.255-1.27-.638-1.779-.256-.381-.766-.635-1.532-.635ZM78.112 23.883v-8.13H79.9v.762c.128-.381.383-.636.766-.763s.766-.254 1.149-.254v1.906c-.51 0-1.021.127-1.277.508-.255.381-.51.89-.383 1.651v4.32h-2.042ZM83.983 21.85H82.07v1.906h1.914V21.85ZM85.387 21.342h1.915c0 .254.127.508.255.762.255.127.51.254.766.254.255 0 .51 0 .638-.254a.968.968 0 0 0 .255-.635c0-.127-.127-.381-.127-.508a1.763 1.763 0 0 0-.51-.381h-.129s-.255-.127-.638-.254c-.766-.254-1.276-.509-1.531-.89-.383-.38-.51-.889-.51-1.397 0-.762.254-1.27.765-1.779.51-.508 1.149-.762 1.914-.762.766 0 1.404.254 1.787.636.51.508.766 1.016.766 1.778H89.09c0-.254-.128-.381-.256-.508-.127-.127-.255-.127-.51-.127s-.383 0-.51.127c-.128.127-.256.254-.256.508s.128.381.255.508c.128.127.51.254 1.021.381.894.254 1.532.508 1.787.89.255.38.51.889.51 1.524 0 .762-.254 1.524-.765 2.032-.51.509-1.276.763-2.17.763-.893 0-1.66-.254-2.17-.763a3.111 3.111 0 0 1-.638-1.905ZM92.407 23.883V13.085h1.915v3.303c.255-.254.51-.509.893-.636s.766-.254 1.149-.254c.893 0 1.66.382 2.297 1.017.638.635.894 1.524.894 2.667v4.7H97.64v-4.319c0-.762-.127-1.27-.383-1.65-.255-.382-.638-.51-1.148-.51-.51 0-1.021.128-1.277.51-.255.38-.383.888-.383 1.65v4.32h-2.042ZM105.043 15.498c1.276 0 2.297.381 3.063 1.27.766.89 1.276 1.906 1.276 3.05 0 1.143-.383 2.16-1.276 3.048-.766.89-1.915 1.27-3.063 1.27-1.277 0-2.298-.38-3.064-1.27-.765-.889-1.276-1.905-1.276-3.049 0-1.143.383-2.16 1.276-3.048.766-.89 1.787-1.27 3.064-1.27Zm0 1.779c-.766 0-1.277.254-1.66.762-.382.508-.638 1.016-.638 1.778 0 .636.256 1.27.638 1.779.383.508 1.022.762 1.66.762.638 0 1.276-.254 1.659-.762s.638-1.016.638-1.779c0-.762-.255-1.27-.638-1.778s-.894-.762-1.659-.762ZM110.531 26.55V15.752h1.787v1.017a3.87 3.87 0 0 1 1.021-1.017 3.414 3.414 0 0 1 1.532-.38c1.149 0 2.042.38 2.935 1.143.766.762 1.149 1.778 1.149 3.049 0 1.143-.383 2.16-1.149 3.048-.765.89-1.786 1.27-2.935 1.27-.511 0-.894-.126-1.404-.253-.383-.127-.766-.509-1.149-.89v3.557h-1.787v.255Zm4.212-9.273c-.766 0-1.276.254-1.787.762-.383.508-.638 1.016-.638 1.779 0 .762.255 1.397.638 1.778s1.021.635 1.66.635c.638 0 1.276-.254 1.659-.762.51-.508.638-1.016.638-1.778 0-.763-.255-1.27-.638-1.779-.255-.381-.766-.635-1.532-.635ZM35.738 0H3.446A3.424 3.424 0 0 0 0 3.43v32.14A3.424 3.424 0 0 0 3.446 39h32.292a3.424 3.424 0 0 0 3.446-3.43V3.43C39.31 1.524 37.652 0 35.738 0Z" fill="#fff"/><path d="M19.528 20.199c3.574 0 6.51-2.922 6.51-6.48 0-3.556-2.936-6.478-6.51-6.478s-6.51 2.922-6.51 6.479 2.936 6.479 6.51 6.479Zm0-9.274c1.532 0 2.68 1.27 2.68 2.668 0 1.524-1.276 2.668-2.68 2.668-1.532 0-2.68-1.27-2.68-2.668 0-1.398 1.148-2.668 2.68-2.668ZM22.208 25.534c1.277-.254 2.68-.89 3.83-1.524.893-.509 1.148-1.779.638-2.668-.51-.89-1.787-1.143-2.68-.635a8.446 8.446 0 0 1-8.807 0c-.894-.508-2.043-.254-2.68.635-.511.89-.256 2.033.637 2.668a10.1 10.1 0 0 0 3.83 1.524l-3.702 3.684c-.766.762-.766 1.906 0 2.668.383.381.894.508 1.404.508.51 0 1.021-.127 1.404-.508l3.574-3.557 3.574 3.557c.765.762 1.914.762 2.68 0 .766-.762.766-1.906 0-2.668l-3.702-3.684Z" fill="#4E5A65"/></svg><svg fill="none" viewBox="0 0 55 52" id="icon-percent" xmlns="http://www.w3.org/2000/svg"><g clip-path="url(#qa)" fill="#E30613"><path d="M40.526 23.111c-8.105 0-14.473 6.356-14.473 14.445 0 2.6.579 5.2 2.026 7.222 0 0 3.474 7.8 14.184 7.222 7.237-.289 10.71-7.222 10.71-7.222C54.133 42.756 55 40.156 55 37.556c0-8.09-6.368-14.445-14.474-14.445Zm0 21.378c-3.763 0-6.947-3.178-6.947-6.933 0-3.756 3.184-6.934 6.947-6.934s6.948 3.178 6.948 6.934c0 3.755-3.184 6.933-6.948 6.933Z"/><path d="M39.947.578c-1.736-1.156-4.052-.29-5.21 1.444L9.553 45.356c-.869 1.733-.58 4.333 1.736 5.488 3.474 1.734 4.632-1.733 7.527-6.355l22.868-39c.869-1.733.29-4.045-1.737-4.911ZM12.158 26.289c6.658 0 12.158-5.489 12.158-11.845 0-6.644-5.5-11.844-12.158-11.844C5.5 2.311 0 7.8 0 14.444 0 21.09 5.5 26.29 12.158 26.29Zm0-16.467c2.316 0 4.342 2.022 4.342 4.622s-2.026 4.623-4.632 4.623c-2.315 0-4.342-2.023-4.342-4.623s2.027-4.622 4.632-4.622Z"/></g><defs><clipPath id="qa"><path fill="#fff" d="M0 0h55v52H0z"/></clipPath></defs></svg><svg fill="none" viewBox="0 0 36 33" id="icon-services" xmlns="http://www.w3.org/2000/svg"><g clip-path="url(#ra)"><path d="M15.2 22.1h19c.5 0 1.1-.4 1.1-.9V6.6c0-.6-.5-1.3-1.3-1.3H14.6c-.7 0-1.2.5-1.2 1.2s.5 1.2 1.2 1.2h18.8v2.7H17.2c-.6 0-1.2.5-1.2 1.2 0 .6.5 1.2 1.2 1.2h16.2v2.4H18.6c-.6 0-1.2.5-1.2 1.2 0 .6.5 1.2 1.2 1.2h14.8V20H16L9.5.5C9.4.2 9.1 0 8.7 0H1.2C.5 0 0 .5 0 1.2s.5 1.2 1.2 1.2h6.4l6.1 17.8c-.3.1-.5.3-.6.6l-1.8 4.5c-.1.3-.1.6.1.9.2.3.5.4.8.4h.9c-.6.6-.9 1.5-.9 2.4 0 2 1.6 3.5 3.6 3.5s3.6-1.6 3.6-3.5c0-.9-.3-1.7-.9-2.4h9.6c-.7.6-1.1 1.4-1.1 2.3 0 2 1.6 3.5 3.6 3.5s3.6-1.6 3.6-3.5c0-.9-.3-1.7-.9-2.4h1.1c.5 0 1-.4 1-1 0-.5-.4-1-1-1H13.6l1.1-2.6c.1.2.3.2.5.2Zm15.4 5.3c.9 0 1.6.7 1.6 1.6 0 .9-.7 1.6-1.6 1.6-.9 0-1.6-.7-1.6-1.6 0-.9.7-1.6 1.6-1.6Zm-14.8 0c.9 0 1.6.7 1.6 1.6 0 .9-.7 1.6-1.6 1.6-.9 0-1.6-.7-1.6-1.6 0-.9.7-1.6 1.6-1.6Z" fill="#fff"/></g><defs><clipPath id="ra"><path fill="#fff" d="M0 0h35.3v32.5H0z"/></clipPath></defs></svg><svg fill="none" viewBox="0 0 120 39" id="icon-tg" xmlns="http://www.w3.org/2000/svg"><path d="M57.018 17.896h-1.12V24h-1.862v-6.104h-.91v-1.652h.91V13.64h1.862v2.604h1.12v1.652Zm9.42 2.226v.21c0 .196-.015.401-.043.616H60.32c.122.467.364.84.728 1.12.374.28.808.42 1.302.42.327 0 .63-.051.91-.154.336-.13.612-.322.826-.574h2.1c-.345.812-.858 1.433-1.54 1.862-.672.42-1.414.63-2.226.63-1.288 0-2.32-.457-3.094-1.372-.672-.793-1.008-1.694-1.008-2.702 0-1.027.336-1.946 1.008-2.758.784-.952 1.825-1.428 3.122-1.428 1.176 0 2.133.397 2.87 1.19.747.784 1.12 1.764 1.12 2.94Zm-1.947-.826c-.13-.485-.382-.863-.756-1.134a2.138 2.138 0 0 0-1.288-.406c-.504 0-.952.14-1.344.42-.382.28-.653.653-.812 1.12h4.2ZM70.171 24h-1.863V13.64h1.862V24Zm9.985-3.878v.21c0 .196-.014.401-.042.616h-6.076c.121.467.364.84.728 1.12.373.28.807.42 1.302.42.326 0 .63-.051.91-.154.336-.13.611-.322.826-.574h2.1c-.346.812-.859 1.433-1.54 1.862-.672.42-1.414.63-2.226.63-1.288 0-2.32-.457-3.094-1.372-.672-.793-1.008-1.694-1.008-2.702 0-1.027.336-1.946 1.008-2.758.784-.952 1.824-1.428 3.122-1.428 1.176 0 2.132.397 2.87 1.19.746.784 1.12 1.764 1.12 2.94Zm-1.946-.826c-.131-.485-.383-.863-.756-1.134a2.137 2.137 0 0 0-1.288-.406c-.504 0-.952.14-1.344.42-.383.28-.654.653-.812 1.12h4.2Zm11.545 3.528c0 1.325-.425 2.37-1.274 3.136-.775.7-1.741 1.05-2.898 1.05-.943 0-1.769-.247-2.478-.742-.7-.495-1.167-1.195-1.4-2.1h2.142c.112.345.322.611.63.798.317.187.686.28 1.106.28.644 0 1.19-.205 1.638-.616.448-.41.672-.905.672-1.484v-.28c-.318.42-.668.728-1.05.924a2.73 2.73 0 0 1-1.288.294c-1.083 0-2.007-.397-2.772-1.19-.766-.793-1.148-1.755-1.148-2.884 0-1.176.382-2.137 1.148-2.884.774-.756 1.712-1.134 2.814-1.134.429 0 .816.07 1.162.21.541.215.961.583 1.26 1.106l.028-1.064h1.708v6.58Zm-1.75-2.758c0-.7-.206-1.26-.616-1.68-.411-.42-.957-.63-1.638-.63-.7 0-1.26.229-1.68.686-.383.42-.574.938-.574 1.554 0 .653.191 1.195.574 1.624.42.467.98.7 1.68.7.681 0 1.227-.215 1.638-.644.41-.43.616-.966.616-1.61Zm7.492-2.268c-.56 0-.98.173-1.26.518-.27.336-.406.835-.406 1.498V24h-1.862v-7.756h1.708v.7c.383-.644.929-.966 1.638-.966.084.01.145.014.182.014v1.806ZM104.88 24h-1.708v-1.05a3.09 3.09 0 0 1-1.148.966 3.24 3.24 0 0 1-1.47.336 3.587 3.587 0 0 1-2.632-1.092c-.774-.775-1.162-1.764-1.162-2.968s.369-2.203 1.106-2.996c.747-.803 1.662-1.204 2.744-1.204 1.12 0 1.965.448 2.534 1.344l.028-1.092h1.708V24Zm-1.75-3.892c0-.681-.205-1.241-.616-1.68-.401-.448-.938-.672-1.61-.672-.662 0-1.208.229-1.638.686-.43.457-.644 1.04-.644 1.75 0 .663.21 1.213.63 1.652.43.43.98.644 1.652.644.663 0 1.2-.22 1.61-.658.411-.439.616-1.013.616-1.722ZM118.757 24h-1.862v-4.116c0-.57-.07-1.008-.21-1.316-.242-.541-.681-.812-1.316-.812-.616 0-1.045.266-1.288.798-.149.327-.224.77-.224 1.33V24h-1.862v-4.116c0-.57-.07-1.008-.21-1.316-.242-.541-.681-.812-1.316-.812-.616 0-1.045.266-1.288.798-.149.327-.224.77-.224 1.33V24h-1.862v-7.756h1.708v.714c.262-.355.574-.602.938-.742.374-.15.742-.224 1.106-.224a2.8 2.8 0 0 1 1.218.266 2.44 2.44 0 0 1 1.05.938c.252-.355.56-.63.924-.826a3.17 3.17 0 0 1 1.554-.378c.962 0 1.727.308 2.296.924.579.607.868 1.456.868 2.548V24Z" fill="#fff"/><g clip-path="url(#sa)"><path d="M35.508 0H3.492A3.47 3.47 0 0 0 0 3.492v32.016A3.487 3.487 0 0 0 3.492 39h32.016A3.487 3.487 0 0 0 39 35.508V3.492A3.487 3.487 0 0 0 35.508 0Zm-3.866 11.916c-1.172 5.518-2.345 11.036-3.518 16.528-.054.293-.16.56-.293.826-.267.48-.694.666-1.227.506a2.71 2.71 0 0 1-.746-.346 386.41 386.41 0 0 1-5.305-3.892c-.08-.053-.133-.107-.24-.16a.622.622 0 0 0-.186.187c-.907.853-1.813 1.732-2.72 2.585-.266.267-.586.4-.986.4l.08-1.04c.107-1.519.213-3.038.32-4.531 0-.107.08-.24.16-.32a3231.48 3231.48 0 0 1 10.316-9.25c.027-.027.054-.027.08-.054.054-.106.134-.24.187-.373-.16-.026-.293-.106-.453-.08-.16.027-.32.134-.48.214-4.265 2.665-8.557 5.358-12.822 8.023-.107.054-.24.08-.347.054l-5.438-1.68c-.373-.106-.693-.266-.906-.64v-.293c.213-.426.586-.666 1.013-.826 1.652-.64 3.332-1.28 4.985-1.92 5.704-2.185 11.382-4.371 17.087-6.53.133-.054.267-.107.427-.107.773-.107 1.306.346 1.28 1.146-.028.507-.16 1.04-.268 1.573Z" fill="#fff"/></g><defs><clipPath id="sa"><path fill="#fff" d="M0 0h39v39H0z"/></clipPath></defs></svg><svg fill="none" viewBox="0 0 185 40" id="icon-tiktok" xmlns="http://www.w3.org/2000/svg"><g clip-path="url(#ta)"><path d="M35.669 0H3.331C1.48 0 0 1.5 0 3.375v32.25C0 37.473 1.48 39 3.332 39h32.363c1.824 0 3.331-1.5 3.331-3.375V3.375C39 1.5 37.52 0 35.668 0Zm-5.262 17.009v.295c-2.353 0-4.416-.75-6.293-2.143v.294c0 2.92.026 5.813.026 8.732 0 1.58-.37 3.054-1.269 4.367-1.428 2.142-3.437 3.321-6.002 3.535a.929.929 0 0 0-.264.054h-.476c-.555-.08-1.11-.134-1.666-.241-3.067-.697-5.473-3.402-5.843-6.563-.503-4.205 2.3-8.009 6.451-8.705.793-.134 1.613-.16 2.433 0v4.152c-.212-.054-.423-.08-.635-.107-2.01-.295-3.913 1.125-4.178 3.107-.29 2.116 1.111 3.99 3.173 4.259 2.063.294 4.178-1.34 4.152-3.804-.027-3 0-5.973 0-8.973V6.992h4.019c.052.428.105.856.185 1.258.581 2.813 3.04 4.929 5.87 5.009.238 0 .317.08.317.321v3.429Z" fill="#fff"/></g><path fill="#fff" d="m62.096 7.435 1.508-.039.617 23.992-1.508.04z"/><path fill="#fff" d="m62.096 7.435 1.508-.039.617 23.992-1.508.04z"/><path fill="#fff" d="m62.096 7.435 1.508-.039.617 23.992-1.508.04zM70.388 7.221l1.507-.039.618 23.992-1.508.04z"/><path fill="#fff" d="m78.47 13.163.145 1.54-23.27 2.264-.144-1.54z"/><path fill="#fff" d="m78.47 13.163.145 1.54-23.27 2.264-.144-1.54z"/><path fill="#fff" d="m78.47 13.163.145 1.54-23.27 2.264-.144-1.54zM79.264 21.641l.144 1.541-23.27 2.264-.144-1.541zM105.928 13h-1.918V5.244L101.252 13h-1.624L96.87 5.244V13h-1.918V2.64h2.604l2.884 7.924 2.884-7.924h2.604V13Zm10.135 0h-1.708v-1.05c-.308.42-.691.742-1.148.966a3.24 3.24 0 0 1-1.47.336 3.587 3.587 0 0 1-2.632-1.092c-.775-.775-1.162-1.764-1.162-2.968s.369-2.203 1.106-2.996c.747-.803 1.661-1.204 2.744-1.204 1.12 0 1.965.448 2.534 1.344l.028-1.092h1.708V13Zm-1.75-3.892c0-.681-.205-1.241-.616-1.68-.401-.448-.938-.672-1.61-.672-.663 0-1.209.229-1.638.686-.429.457-.644 1.04-.644 1.75 0 .663.21 1.213.63 1.652.429.43.98.644 1.652.644.663 0 1.199-.22 1.61-.658.411-.439.616-1.013.616-1.722Zm8.36-2.212h-2.534V13h-1.862V5.244h4.396v1.652Zm9.35 6.104h-1.708v-1.05a3.09 3.09 0 0 1-1.148.966 3.24 3.24 0 0 1-1.47.336 3.588 3.588 0 0 1-2.632-1.092c-.774-.775-1.162-1.764-1.162-2.968s.369-2.203 1.106-2.996c.747-.803 1.662-1.204 2.744-1.204 1.12 0 1.965.448 2.534 1.344l.028-1.092h1.708V13Zm-1.75-3.892c0-.681-.205-1.241-.616-1.68-.401-.448-.938-.672-1.61-.672-.662 0-1.208.229-1.638.686-.429.457-.644 1.04-.644 1.75 0 .663.21 1.213.63 1.652.43.43.98.644 1.652.644.663 0 1.2-.22 1.61-.658.411-.439.616-1.013.616-1.722Zm9.243 1.61c0 .756-.257 1.367-.77 1.834-.514.467-1.2.7-2.058.7-1.046 0-1.811-.327-2.296-.98-.374-.504-.56-1.134-.56-1.89h1.862c0 .308.079.56.238.756.196.233.471.35.826.35.261 0 .476-.07.644-.21.168-.14.252-.34.252-.602 0-.336-.112-.57-.336-.7a.977.977 0 0 0-.49-.112h-.434V8.268h.35c.289 0 .494-.07.616-.21a.803.803 0 0 0 .196-.546c0-.308-.098-.523-.294-.644-.122-.075-.285-.112-.49-.112a.861.861 0 0 0-.616.224.796.796 0 0 0-.266.56h-1.862c0-.7.242-1.297.728-1.792.494-.504 1.152-.756 1.974-.756.868 0 1.54.224 2.016.672.42.392.63.891.63 1.498 0 .383-.117.723-.35 1.022-.224.29-.528.5-.91.63.457.112.802.34 1.036.686.242.345.364.751.364 1.218ZM148.545 13h-1.862V7.974L143.239 13h-1.862V5.244h1.862v5.026l3.444-5.026h1.862V13Zm8.822 0h-1.862V9.752h-2.884V13h-1.862V5.244h1.862V8.1h2.884V5.244h1.862V13Zm-54.799 12h-1.918v-8.498h-3.78V25h-1.918V14.64h7.616V25Zm10.244-3.864c0 1.139-.392 2.11-1.176 2.912-.784.803-1.764 1.204-2.94 1.204-1.167 0-2.147-.397-2.94-1.19-.784-.803-1.176-1.778-1.176-2.926 0-1.148.387-2.123 1.162-2.926.784-.812 1.768-1.218 2.954-1.218 1.176 0 2.156.401 2.94 1.204.784.803 1.176 1.783 1.176 2.94Zm-1.862 0c0-.663-.206-1.223-.616-1.68-.411-.467-.957-.7-1.638-.7-.672 0-1.218.233-1.638.7-.411.457-.616 1.017-.616 1.68s.205 1.223.616 1.68c.41.448.956.672 1.638.672.662 0 1.204-.229 1.624-.686.42-.457.63-1.013.63-1.666Zm11.461 1.344c-.299.85-.78 1.526-1.442 2.03-.654.495-1.452.742-2.394.742-1.363 0-2.441-.453-3.234-1.358-.7-.793-1.05-1.736-1.05-2.828 0-1.036.336-1.941 1.008-2.716.784-.905 1.852-1.358 3.206-1.358.961 0 1.787.257 2.478.77.69.513 1.166 1.2 1.428 2.058h-2.1a1.819 1.819 0 0 0-.742-.798c-.308-.177-.672-.266-1.092-.266-.719 0-1.288.229-1.708.686-.411.448-.616.999-.616 1.652 0 .681.21 1.25.63 1.708.42.457.984.686 1.694.686.438 0 .807-.084 1.106-.252.298-.168.541-.42.728-.756h2.1Zm6.841-3.584h-1.862V25h-1.862v-6.104h-1.862v-1.652h5.586v1.652Zm9.449 2.24c0 1.139-.392 2.11-1.176 2.912-.784.803-1.764 1.204-2.94 1.204-1.167 0-2.147-.397-2.94-1.19-.784-.803-1.176-1.778-1.176-2.926 0-1.148.387-2.123 1.162-2.926.784-.812 1.768-1.218 2.954-1.218 1.176 0 2.156.401 2.94 1.204.784.803 1.176 1.783 1.176 2.94Zm-1.862 0c0-.663-.206-1.223-.616-1.68-.411-.467-.957-.7-1.638-.7-.672 0-1.218.233-1.638.7-.411.457-.616 1.017-.616 1.68s.205 1.223.616 1.68c.41.448.956.672 1.638.672.662 0 1.204-.229 1.624-.686.42-.457.63-1.013.63-1.666ZM146.564 25h-1.862v-2.982L142.406 25h-2.324l2.338-2.744c-.635-.075-1.139-.336-1.512-.784-.364-.457-.546-1.008-.546-1.652 0-.71.242-1.307.728-1.792.522-.523 1.222-.784 2.1-.784h3.374V25Zm-1.862-4.158v-1.946h-1.442c-.318 0-.57.093-.756.28-.187.187-.28.434-.28.742s.098.541.294.7c.196.15.443.224.742.224h1.442ZM155.384 25h-1.862v-3.248h-2.884V25h-1.862v-7.756h1.862V20.1h2.884v-2.856h1.862V25Zm8.821 0h-1.862v-3.248h-2.884V25h-1.862v-7.756h1.862V20.1h2.884v-2.856h1.862V25Zm11.061 0h-1.862v-7.756h1.862V25Zm-2.716-2.52c0 .765-.242 1.377-.728 1.834-.485.457-1.11.686-1.876.686h-3.528v-7.756h1.862v2.716h1.666c.859 0 1.517.252 1.974.756.42.457.63 1.045.63 1.764Zm-1.862 0c0-.233-.06-.425-.182-.574-.168-.196-.42-.294-.756-.294h-1.47v1.736h1.47c.29 0 .518-.07.686-.21.168-.15.252-.369.252-.658ZM184.51 25h-2.296l-1.568-2.506L179.078 25h-2.296l2.618-3.976-2.408-3.78h2.17l1.47 2.324 1.47-2.324h2.17l-2.464 3.78L184.51 25Zm-82.95 4.874c0 .84-.238 1.535-.714 2.086-.644.747-1.643 1.12-2.996 1.12h-.98V37h-1.918V26.64h2.898c1.437 0 2.469.415 3.094 1.246.411.55.616 1.213.616 1.988Zm-1.918-.014c0-.55-.21-.933-.63-1.148-.27-.14-.607-.21-1.008-.21H96.87v2.716h1.134c.57 0 .985-.117 1.246-.35.261-.233.392-.57.392-1.008ZM111.018 37h-1.708v-1.05c-.308.42-.691.742-1.148.966a3.24 3.24 0 0 1-1.47.336 3.587 3.587 0 0 1-2.632-1.092c-.775-.775-1.162-1.764-1.162-2.968s.369-2.203 1.106-2.996c.747-.803 1.661-1.204 2.744-1.204 1.12 0 1.965.448 2.534 1.344l.028-1.092h1.708V37Zm-1.75-3.892c0-.681-.205-1.241-.616-1.68-.401-.448-.938-.672-1.61-.672-.663 0-1.209.229-1.638.686-.429.457-.644 1.04-.644 1.75 0 .663.21 1.213.63 1.652.429.43.98.644 1.652.644.663 0 1.199-.22 1.61-.658.411-.439.616-1.013.616-1.722Zm11.748 1.372c-.298.85-.779 1.526-1.442 2.03-.653.495-1.451.742-2.394.742-1.362 0-2.44-.453-3.234-1.358-.7-.793-1.05-1.736-1.05-2.828 0-1.036.336-1.941 1.008-2.716.784-.905 1.853-1.358 3.206-1.358.962 0 1.788.257 2.478.77.691.513 1.167 1.2 1.428 2.058h-2.1a1.808 1.808 0 0 0-.742-.798c-.308-.177-.672-.266-1.092-.266-.718 0-1.288.229-1.708.686-.41.448-.616.999-.616 1.652 0 .681.21 1.25.63 1.708.42.457.985.686 1.694.686.439 0 .808-.084 1.106-.252a1.89 1.89 0 0 0 .728-.756h2.1Zm8.479 2.52h-1.862v-6.104h-2.884V37h-1.862v-7.756h6.608V37Zm10.333-3.878c0 1.12-.34 2.072-1.022 2.856-.737.85-1.694 1.274-2.87 1.274-.41 0-.788-.065-1.134-.196a2.7 2.7 0 0 1-1.204-.896l-.028 3.43h-1.862V29.244h1.708v1.008a2.63 2.63 0 0 1 1.288-1.036c.392-.15.803-.224 1.232-.224 1.092 0 2.012.383 2.758 1.148.756.756 1.134 1.75 1.134 2.982Zm-1.862-.014c0-.597-.172-1.115-.518-1.554-.42-.532-.989-.798-1.708-.798-.672 0-1.222.224-1.652.672-.42.439-.63 1.003-.63 1.694 0 .728.206 1.307.616 1.736.42.42.952.63 1.596.63.672 0 1.223-.224 1.652-.672.43-.448.644-1.017.644-1.708Zm11.525.028c0 1.139-.392 2.11-1.176 2.912-.784.803-1.764 1.204-2.94 1.204-1.167 0-2.147-.397-2.94-1.19-.784-.803-1.176-1.778-1.176-2.926 0-1.148.387-2.123 1.162-2.926.784-.812 1.768-1.218 2.954-1.218 1.176 0 2.156.401 2.94 1.204.784.803 1.176 1.783 1.176 2.94Zm-1.862 0c0-.663-.206-1.223-.616-1.68-.411-.467-.957-.7-1.638-.7-.672 0-1.218.233-1.638.7-.411.457-.616 1.017-.616 1.68s.205 1.223.616 1.68c.41.448.956.672 1.638.672.662 0 1.204-.229 1.624-.686.42-.457.63-1.013.63-1.666Zm12.287 5.824h-1.82V37h-5.572v1.96h-1.82v-3.612h.924l2.842-6.104h1.68l2.842 6.104h.924v3.612Zm-3.024-3.612-1.582-3.584-1.582 3.584h3.164ZM169.249 37h-1.708v-1.05a3.09 3.09 0 0 1-1.148.966 3.24 3.24 0 0 1-1.47.336 3.588 3.588 0 0 1-2.632-1.092c-.774-.775-1.162-1.764-1.162-2.968s.369-2.203 1.106-2.996c.747-.803 1.662-1.204 2.744-1.204 1.12 0 1.965.448 2.534 1.344l.028-1.092h1.708V37Zm-1.75-3.892c0-.681-.205-1.241-.616-1.68-.401-.448-.938-.672-1.61-.672-.662 0-1.208.229-1.638.686-.429.457-.644 1.04-.644 1.75 0 .663.21 1.213.63 1.652.43.43.98.644 1.652.644.663 0 1.2-.22 1.61-.658.411-.439.616-1.013.616-1.722ZM182.243 37h-2.198l-2.52-3.724V37h-1.862v-3.724L173.143 37h-2.198l2.828-4.06-2.66-3.696h2.198l2.352 3.556v-3.556h1.862V32.8l2.352-3.556h2.198l-2.66 3.696 2.828 4.06Z"/><defs><clipPath id="ta"><path fill="#fff" d="M0 0h39v39H0z"/></clipPath></defs></svg><svg fill="none" viewBox="0 0 36 36" id="icon-training" xmlns="http://www.w3.org/2000/svg"><path d="M0 8.577c.122-.604.488-.845.976-1.087 5.37-2.416 10.74-4.953 16.23-7.37a1.71 1.71 0 0 1 1.1 0c5.369 2.417 10.86 4.954 16.23 7.37.732.362.976.966.854 1.691-.122.484-.366.725-.732.967-.489.241-.977.483-1.465.604-.244.12-.244.241-.244.483V22.47c0 .242.122.483.244.604.732.966 1.587 1.933 2.319 2.9.244.24.366.603.61.966v.724c-.244.363-.488.846-.854 1.209-.61.845-1.343 1.69-2.075 2.537-.244.241-.244.483-.244.845v2.295c0 .846-.488 1.45-1.098 1.45-.61 0-.976-.604-1.098-1.45v-2.416a.918.918 0 0 0-.244-.604c-.855-1.087-1.587-2.053-2.441-3.14-.61-.726-.61-1.45 0-2.175.854-1.087 1.708-2.054 2.44-3.141.123-.12.123-.363.123-.483V11.839c-.733.362-1.343.604-2.075.966-.366.121-.488.363-.488.846v7.732c0 .604-.122 1.087-.488 1.45-1.22 1.449-2.563 2.295-4.15 2.778-2.318.966-5.003 1.208-7.566.966-1.83-.12-3.66-.483-5.491-1.329-1.098-.483-2.075-1.208-2.929-2.295a2.948 2.948 0 0 1-.61-1.812v-7.852c0-.363-.122-.484-.366-.604L.976 10.148C.488 10.027.244 9.785 0 9.18v-.604Zm4.15.242c.121.12.243.12.365.12 4.271 1.934 8.42 3.987 12.692 5.92.244.12.488.12.61 0l11.35-5.074c.731-.362 1.341-.604 2.074-.966-.122-.12-.244-.12-.244-.12-4.272-1.934-8.665-3.867-12.936-5.92-.122-.121-.366 0-.61 0-3.173 1.45-6.224 2.778-9.397 4.228-1.22.604-2.562 1.208-3.905 1.812Zm4.758 5.074V20.779c0 .241.123.362.245.483.61.725 1.342 1.087 2.196 1.45 3.661 1.45 7.322 1.57 11.105.483 1.22-.363 2.44-.967 3.417-1.933.244-.121.244-.363.244-.725v-6.765c-.122.12-.244.12-.366.242-2.563 1.087-5.003 2.295-7.566 3.382-.366.12-.732.242-1.098 0-1.953-.966-3.905-1.812-5.736-2.658-.854-.12-1.586-.483-2.44-.845ZM31.851 25.49c-.488.604-.976 1.329-1.465 1.933l1.465 1.812c.488-.604.976-1.329 1.464-1.933l-1.464-1.812Z" fill="#fff"/></svg><svg fill="none" viewBox="0 0 36 36" id="icon-training-red" xmlns="http://www.w3.org/2000/svg"><path d="M0 8.577c.122-.604.488-.845.976-1.087 5.37-2.416 10.74-4.953 16.23-7.37a1.71 1.71 0 0 1 1.1 0c5.369 2.417 10.86 4.954 16.23 7.37.732.362.976.966.854 1.691-.122.484-.366.725-.732.967-.489.241-.977.483-1.465.604-.244.12-.244.241-.244.483V22.47c0 .242.122.483.244.604.732.966 1.587 1.933 2.319 2.9.244.24.366.603.61.966v.724c-.244.363-.488.846-.854 1.209-.61.845-1.343 1.69-2.075 2.537-.244.241-.244.483-.244.845v2.295c0 .846-.488 1.45-1.098 1.45-.61 0-.976-.604-1.098-1.45v-2.416a.918.918 0 0 0-.244-.604c-.855-1.087-1.587-2.053-2.441-3.14-.61-.726-.61-1.45 0-2.175.854-1.087 1.708-2.054 2.44-3.141.123-.12.123-.363.123-.483V11.839c-.733.362-1.343.604-2.075.966-.366.121-.488.363-.488.846v7.732c0 .604-.122 1.087-.488 1.45-1.22 1.449-2.563 2.295-4.15 2.778-2.318.966-5.003 1.208-7.566.966-1.83-.12-3.66-.483-5.491-1.329-1.098-.483-2.075-1.208-2.929-2.295a2.948 2.948 0 0 1-.61-1.812v-7.852c0-.363-.122-.484-.366-.604L.976 10.148C.488 10.027.244 9.785 0 9.18v-.604Zm4.15.242c.121.12.243.12.365.12 4.271 1.934 8.42 3.987 12.692 5.92.244.12.488.12.61 0l11.35-5.074c.731-.362 1.341-.604 2.074-.966-.122-.12-.244-.12-.244-.12-4.272-1.934-8.665-3.867-12.936-5.92-.122-.121-.366 0-.61 0-3.173 1.45-6.224 2.778-9.397 4.228-1.22.604-2.562 1.208-3.905 1.812Zm4.758 5.074V20.779c0 .241.123.362.245.483.61.725 1.342 1.087 2.196 1.45 3.661 1.45 7.322 1.57 11.105.483 1.22-.363 2.44-.967 3.417-1.933.244-.121.244-.363.244-.725v-6.765c-.122.12-.244.12-.366.242-2.563 1.087-5.003 2.295-7.566 3.382-.366.12-.732.242-1.098 0-1.953-.966-3.905-1.812-5.736-2.658-.854-.12-1.586-.483-2.44-.845ZM31.851 25.49c-.488.604-.976 1.329-1.465 1.933l1.465 1.812c.488-.604.976-1.329 1.464-1.933l-1.464-1.812Z" fill="#E30613"/></svg><svg fill="none" viewBox="0 0 38 39" id="icon-umbrella" xmlns="http://www.w3.org/2000/svg"><g clip-path="url(#wa)" fill="#fff"><path d="M19.116 5.472h.232c7.878.116 12.164 3.841 14.018 6.17.927 1.164 1.506 2.212 1.853 3.027-1.39-.582-3.243-1.048-4.75-1.048h-.695c-2.085.233-3.939 1.048-5.097 1.746-1.39-.931-3.476-2.095-5.561-2.095h-.348c-2.2.116-4.286 1.164-5.56 1.979-1.507-.815-3.94-1.863-5.91-1.98H6.72a9.47 9.47 0 0 0-3.244.583c.463-.699.926-1.514 1.737-2.329 1.854-2.328 6.256-6.053 13.903-6.053Zm0-2.329C3.128 3.143-2.317 18.045.926 18.045h.117S3.36 15.6 6.72 15.6h.463c2.549.116 6.256 2.445 6.256 2.445S16.104 15.833 19 15.6h.232c2.317 0 5.329 2.561 5.329 2.561s2.665-1.863 5.561-2.212h.463c2.55 0 6.488 2.096 6.488 2.096h.116c3.244 0-1.274-14.669-17.726-14.902h-.347Z"/><path d="M15.64 39c-.927 0-1.738-.35-2.317-.931-1.274-1.281-1.274-3.26-1.274-3.493 0-.582.58-1.164 1.158-1.164.695 0 1.159.582 1.159 1.164 0 .35.116 1.397.58 1.863.115.116.347.233.694.233.232 0 .464-.117.695-.35 1.159-1.164 1.275-4.54 1.275-5.704l-.116-15.25c0-.7.463-1.165 1.159-1.165.579 0 1.158.466 1.158 1.164l.116 15.25c0 .466.116 5.24-1.97 7.335-.579.699-1.39 1.048-2.317 1.048ZM18.42 5.239c-.694 0-1.158-.466-1.158-1.164v-2.91c0-.7.464-1.165 1.159-1.165.695 0 1.158.466 1.158 1.164v2.91c0 .583-.463 1.165-1.158 1.165Z"/></g><defs><clipPath id="wa"><path fill="#fff" d="M0 0h38v39H0z"/></clipPath></defs></svg><svg fill="none" viewBox="0 0 118 39" id="icon-vk" xmlns="http://www.w3.org/2000/svg"><path d="M53.71 23.299v-8.104h1.756v.76c.251-.38.502-.507.879-.76.376-.127.753-.253 1.13-.253.501 0 1.003.126 1.38.38.376.253.753.506 1.003.886.251-.38.628-.76 1.13-.886.376-.254.878-.38 1.506-.38 1.004 0 1.757.38 2.384 1.013.627.633.878 1.52.878 2.659v4.685h-1.882v-4.305c0-.76-.125-1.267-.376-1.646-.251-.38-.628-.507-1.13-.507-.502 0-.878.253-1.13.506-.25.254-.376.887-.376 1.647v4.305H58.98v-4.305c0-.76-.125-1.267-.377-1.646-.25-.38-.627-.507-1.129-.507s-.878.127-1.13.506c-.25.38-.376.887-.376 1.647v4.305H53.71ZM67.262 25.958V15.195h1.757v1.013c.251-.38.627-.76 1.004-1.013a3.318 3.318 0 0 1 1.506-.38c1.13 0 2.008.38 2.886 1.14.753.76 1.13 1.772 1.13 3.039 0 1.14-.377 2.152-1.13 3.038-.753.887-1.757 1.267-2.886 1.267-.502 0-.879-.127-1.38-.253-.377-.127-.754-.507-1.13-.887v3.546h-1.757v.253Zm4.141-9.117c-.753 0-1.255.253-1.757.76-.376.506-.627 1.013-.627 1.772 0 .76.251 1.393.627 1.773.377.38 1.004.633 1.632.633.627 0 1.255-.253 1.631-.76.502-.506.628-1.012.628-1.772s-.251-1.267-.628-1.773c-.25-.38-.753-.633-1.506-.633ZM76.8 23.299v-8.104h1.756v.76c.126-.38.377-.633.753-.76.377-.127.753-.253 1.13-.253v1.899c-.502 0-1.004.127-1.255.506-.251.38-.502.887-.377 1.647v4.305H76.8ZM82.572 21.4h-1.883v1.899h1.883v-1.9ZM83.952 20.766h1.883c0 .254.125.507.25.76.251.127.502.253.753.253s.502 0 .628-.253a.972.972 0 0 0 .25-.633c0-.127-.125-.38-.125-.506-.125-.127-.25-.254-.502-.38h-.125s-.251-.127-.628-.254c-.752-.253-1.254-.506-1.505-.886-.377-.38-.502-.886-.502-1.393 0-.76.25-1.266.753-1.773.502-.506 1.129-.76 1.882-.76.753 0 1.38.254 1.757.634.502.506.753 1.013.753 1.773H87.59c0-.254-.125-.38-.25-.507-.126-.127-.252-.127-.503-.127-.25 0-.376 0-.502.127-.125.127-.25.253-.25.506 0 .254.125.38.25.507.126.127.502.253 1.004.38.879.253 1.506.506 1.757.886.251.38.502.887.502 1.52 0 .76-.25 1.52-.753 2.026-.502.506-1.255.76-2.133.76-.878 0-1.631-.254-2.133-.76a3.128 3.128 0 0 1-.628-1.9ZM90.854 23.299V12.536h1.882v3.292c.251-.253.502-.507.879-.633.376-.127.753-.254 1.13-.254.878 0 1.63.38 2.258 1.013.627.634.878 1.52.878 2.66v4.685H96v-4.306c0-.76-.125-1.266-.376-1.646-.251-.38-.628-.506-1.13-.506-.502 0-1.004.127-1.255.506-.376.38-.502 1.013-.502 1.646V23.3h-1.882ZM103.277 14.942c1.255 0 2.259.38 3.012 1.266.753.886 1.255 1.9 1.255 3.039 0 1.14-.376 2.152-1.255 3.039-.753.886-1.882 1.266-3.012 1.266-1.255 0-2.258-.38-3.011-1.266-.753-.887-1.255-1.9-1.255-3.04 0-1.139.376-2.152 1.255-3.038.753-.76 1.882-1.266 3.011-1.266Zm0 1.899c-.753 0-1.255.253-1.631.76-.376.506-.627 1.013-.627 1.773 0 .633.251 1.266.627 1.772.376.507 1.004.76 1.631.76.628 0 1.255-.253 1.632-.76.376-.506.627-1.013.627-1.773s-.251-1.266-.627-1.772c-.377-.507-.879-.76-1.632-.76ZM108.673 25.958V15.195h1.757v1.013c.251-.38.628-.76 1.004-1.013a3.319 3.319 0 0 1 1.506-.38c1.129 0 2.008.38 2.886 1.14.753.76 1.13 1.772 1.13 3.039 0 1.14-.377 2.152-1.13 3.038-.753.887-1.757 1.267-2.886 1.267-.502 0-.878-.127-1.38-.253-.377-.127-.753-.507-1.13-.887v3.546h-1.757v.253Zm4.141-9.117c-.752 0-1.254.253-1.756.76-.377.506-.628 1.013-.628 1.772 0 .76.251 1.393.628 1.773.376.38 1.004.633 1.631.633s1.255-.253 1.631-.76c.502-.506.628-1.012.628-1.772s-.251-1.267-.628-1.773c-.251-.38-.753-.633-1.506-.633ZM35.137 0H3.388C1.506 0 0 1.52 0 3.419v32.036c0 1.899 1.506 3.418 3.388 3.418h31.749c1.882 0 3.388-1.52 3.388-3.418V3.419C38.651 1.519 37.02 0 35.137 0Z" fill="#fff"/><path fill-rule="evenodd" clip-rule="evenodd" d="M18.949 28.364h1.757s.502 0 .753-.38c.25-.253.25-.76.25-.76s0-2.406 1.005-2.659c1.13-.38 2.384 2.28 3.89 3.292 1.13.76 1.882.633 1.882.633h3.89s2.008-.126 1.13-1.772c-.126-.127-.502-1.14-2.887-3.42-2.384-2.278-2.133-1.899.879-5.824 1.757-2.406 2.51-3.925 2.259-4.558-.251-.633-1.506-.38-1.506-.38h-4.392s-.377 0-.628.126c-.25.127-.376.507-.376.507s-.753 1.9-1.631 3.419c-2.008 3.292-2.761 3.545-3.012 3.292-.753-.507-.502-1.9-.502-3.039 0-3.292.502-4.559-1.004-4.938-.502-.127-.878-.254-2.008-.254-1.506 0-2.886 0-3.64.38-.501.254-.878.76-.627.887.251 0 1.004.126 1.255.633.502.633.377 2.026.377 2.026s.25 3.798-.628 4.305c-.627.38-1.38-.38-3.137-3.419-.878-1.52-1.506-3.292-1.506-3.292s0-.38-.25-.507c-.252-.253-.754-.253-.754-.253h-4.14s-.628 0-.88.253c-.25.254 0 .76 0 .76s3.263 7.724 6.903 11.523c3.513 3.545 7.278 3.419 7.278 3.419Z" fill="#4E5A65"/></svg></svg>