<svg width="441" height="37" viewBox="0 0 441 37" fill="none" xmlns="http://www.w3.org/2000/svg">
<g clip-path="url(#clip0_3_3)">
<path d="M25.7512 8.37735C26.775 8.37735 27.6412 9.2306 27.6412 10.239C27.6412 11.2474 26.775 12.1006 25.7512 12.1006C24.7275 12.1006 23.8612 11.2474 23.8612 10.239C23.8612 9.2306 24.7275 8.37735 25.7512 8.37735ZM14.5687 35.2159C13.7812 35.2159 13.0725 34.5954 13.0725 33.8197C13.0725 33.044 13.7025 32.3459 14.5687 32.3459C15.3562 32.3459 16.065 32.9664 16.065 33.8197C16.065 34.5954 15.3562 35.2159 14.5687 35.2159ZM17.64 7.05869C19.4512 7.05869 20.9475 5.58489 20.9475 3.87839C20.9475 2.09433 19.4512 0.698101 17.64 0.698101C15.8287 0.698101 14.3325 2.1719 14.3325 3.87839C14.4113 5.66246 15.8287 7.05869 17.64 7.05869ZM17.64 2.6373C18.3487 2.6373 18.9 3.18028 18.9 3.87839C18.9 4.57651 18.3487 5.11948 17.64 5.11948C16.9312 5.11948 16.38 4.57651 16.38 3.87839C16.38 3.18028 16.9312 2.6373 17.64 2.6373ZM30.87 16.8323H15.9075C15.2775 16.8323 14.805 17.2977 14.805 17.9182C14.805 18.5388 15.2775 19.0042 15.9075 19.0042H30.87V19.2369V19.935V21.1761H17.1675C16.5375 21.1761 16.065 21.6415 16.065 22.262C16.065 22.8826 16.5375 23.348 17.1675 23.348H30.87V23.5031C30.87 24.2012 30.87 24.8994 30.87 25.5975H30.6337H14.8837L8.82 8.06707C8.74125 7.7568 8.42625 7.60167 8.11125 7.60167H1.1025C0.4725 7.44653 0 7.91194 0 8.53248C0 9.15303 0.4725 9.61844 1.1025 9.61844H7.00875L12.6 25.9077C12.3637 25.9853 12.1275 26.218 12.0487 26.4507L10.395 30.4843C10.3162 30.7945 10.3162 31.0272 10.4738 31.3375C10.6312 31.5702 10.9462 31.7254 11.1825 31.7254H12.0487C11.4975 32.2683 11.1825 33.044 11.1825 33.8973C11.1825 35.6813 12.6787 37.1551 14.49 37.1551C16.3012 37.1551 17.7975 35.6813 17.7975 33.8973C17.7975 33.044 17.4825 32.3459 16.9312 31.7254H25.7512C25.2 32.2683 24.885 33.044 24.885 33.8973C24.885 35.6813 26.3812 37.1551 28.1925 37.1551C30.0037 37.1551 31.5 35.6813 31.5 33.8973C31.5 33.044 31.185 32.3459 30.6337 31.7254H31.6575C32.13 31.7254 32.6025 31.3375 32.6025 30.7945C32.6025 30.3291 32.2087 29.8637 31.6575 29.8637H12.6L13.6237 27.5367C13.7812 27.6142 13.86 27.6142 14.0175 27.6142H31.6575C32.13 27.6142 32.6812 27.2264 32.6812 26.761V13.4193C32.6812 12.8763 32.2087 12.1782 31.4212 12.1782H29.1375C29.4525 11.6352 29.6887 10.9371 29.6887 10.239C29.6887 8.14464 27.9562 6.36058 25.7512 6.36058C23.5462 6.36058 21.8137 8.06707 21.8137 10.239C21.8137 10.9371 21.9712 11.6352 22.365 12.1782H19.53L25.9088 1.47378C26.2237 1.00837 25.9875 0.387828 25.515 0.0775558C25.0425 -0.232717 24.4125 -1.23605e-05 24.0975 0.465397L17.1675 12.1782H13.545C12.915 12.1782 12.4425 12.6436 12.4425 13.2641C12.4425 13.8847 12.915 14.3501 13.545 14.3501H30.87V15.3585V16.1342V16.8323ZM28.2712 35.2159C27.4837 35.2159 26.775 34.5954 26.775 33.8197C26.775 33.044 27.405 32.3459 28.2712 32.3459C29.0588 32.3459 29.7675 32.9664 29.7675 33.8197C29.7675 34.5954 29.1375 35.2159 28.2712 35.2159Z" fill="#E30613"/>
<path fill-rule="evenodd" clip-rule="evenodd" d="M55.2825 18.4612H55.125L53.7863 21.4088L52.4475 24.2788C52.29 24.7442 52.0538 24.9769 51.8175 25.2097C51.5813 25.3648 51.345 25.4424 50.9513 25.4424H49.2188C48.7463 25.4424 48.51 25.3648 48.2738 25.2097C48.1163 25.0545 47.88 24.7442 47.7225 24.2788L46.5413 21.9518L45.045 18.7715H44.8875V27.0713C44.8875 27.304 44.8088 27.4591 44.73 27.5367C44.6513 27.6143 44.4938 27.6143 44.2575 27.6143H40.635C40.4775 27.6143 40.32 27.6143 40.1625 27.5367C40.0838 27.4591 40.005 27.3816 40.005 27.0713V11.4801C40.005 10.7044 40.1625 10.1614 40.4775 9.85116C40.7925 9.54089 41.265 9.46332 41.895 9.46332H43.9425C44.4938 9.46332 44.8875 9.54089 45.1238 9.77359C45.36 10.0063 45.5963 10.3166 45.8325 10.782L47.9588 15.0482L50.0063 19.3145H50.085L52.1325 15.1258L54.2588 10.8595C54.495 10.3941 54.7313 10.0839 55.0463 9.85116C55.3613 9.61845 55.8338 9.54089 56.4638 9.54089H58.1175C58.4325 9.54089 58.6688 9.54089 58.905 9.61845C59.1413 9.69602 59.2988 9.77359 59.4563 9.85116C59.6138 10.0063 59.7713 10.1614 59.85 10.3941C59.9288 10.6268 60.0075 10.9371 60.0075 11.325V27.0713C60.0075 27.304 59.9288 27.4591 59.85 27.5367C59.7713 27.6143 59.6138 27.6143 59.3775 27.6143H55.9125C55.755 27.6143 55.5975 27.6143 55.44 27.5367C55.3613 27.4591 55.2825 27.3816 55.2825 27.0713V18.4612ZM72.6075 14.1174H75.4425C75.6788 14.1174 75.915 14.3501 75.915 14.5828V27.1489C75.915 27.3816 75.6788 27.6143 75.4425 27.6143H72.6075C72.3713 27.6143 72.135 27.3816 72.135 27.1489V26.5283C71.505 27.0713 70.875 27.4591 70.245 27.6143C69.3788 27.9245 68.5913 27.9245 68.2763 27.9245C66.465 27.9245 64.7325 27.2264 63.4725 25.8302C62.2913 24.5891 61.5825 22.9602 61.5825 20.8658C61.5825 18.7715 62.2913 16.9874 63.5513 15.7463C64.8113 14.4277 66.465 13.652 68.4338 13.652C69.3788 13.652 70.3238 13.8847 71.0325 14.2725C71.4263 14.5052 71.82 14.738 72.135 15.1258V14.5828C72.2138 14.2725 72.3713 14.1174 72.6075 14.1174ZM71.19 18.3837C70.6388 17.8407 69.8513 17.4528 68.9063 17.4528C67.9613 17.4528 67.095 17.8407 66.5438 18.4612C65.9138 19.0818 65.5988 19.935 65.5988 21.021C65.5988 21.9518 65.9138 22.805 66.5438 23.4256C67.095 23.9686 67.9613 24.3564 68.9063 24.3564C69.8513 24.3564 70.6388 24.0461 71.19 23.4256C71.7413 22.805 72.0563 21.9518 72.0563 20.9434C72.135 19.8574 71.82 19.0042 71.19 18.3837ZM77.9625 27.1489V14.5828C77.9625 14.3501 78.1988 14.1174 78.435 14.1174H85.68C85.9163 14.1174 86.1525 14.3501 86.1525 14.5828V17.2201C86.1525 17.4528 85.9163 17.6855 85.68 17.6855H81.9V27.1489C81.9 27.3816 81.6638 27.6143 81.4275 27.6143H78.3563C78.12 27.5367 77.9625 27.3816 77.9625 27.1489ZM97.5713 14.1174H100.406C100.642 14.1174 100.879 14.3501 100.879 14.5828V27.1489C100.879 27.3816 100.642 27.6143 100.406 27.6143H97.5713C97.335 27.6143 97.0988 27.3816 97.0988 27.1489V26.5283C96.4688 27.0713 95.8388 27.4591 95.2088 27.6143C94.3425 27.9245 93.555 27.9245 93.24 27.9245C91.4288 27.9245 89.6963 27.2264 88.4363 25.8302C87.255 24.5891 86.5463 22.9602 86.5463 20.8658C86.5463 18.7715 87.255 16.9874 88.515 15.7463C89.775 14.4277 91.4288 13.652 93.3975 13.652C94.4213 13.652 95.2875 13.8847 95.9963 14.2725C96.39 14.5052 96.7838 14.738 97.0988 15.1258V14.5828C97.0988 14.2725 97.2563 14.1174 97.5713 14.1174ZM96.075 18.3837C95.5238 17.8407 94.7363 17.4528 93.7913 17.4528C92.8463 17.4528 91.98 17.8407 91.4288 18.4612C90.8775 19.0818 90.4838 19.935 90.4838 21.021C90.4838 21.9518 90.7988 22.805 91.4288 23.4256C91.98 23.9686 92.8463 24.3564 93.7913 24.3564C94.7363 24.3564 95.5238 24.0461 96.1538 23.4256C96.705 22.805 97.02 21.9518 97.02 20.9434C97.02 19.8574 96.705 19.0042 96.075 18.3837ZM106.785 17.6855C106.628 17.8407 106.549 18.0734 106.47 18.3061C106.47 18.5388 106.234 18.7715 105.998 18.7715H102.926C102.69 18.7715 102.454 18.5388 102.532 18.3061C102.611 17.065 103.084 15.8239 104.029 14.9707C104.816 14.195 105.997 13.7296 107.415 13.7296C108.911 13.7296 110.092 14.1174 110.88 14.738C111.825 15.5136 112.298 16.5996 112.298 17.6855C112.298 18.3837 112.061 19.0818 111.668 19.6247C111.431 19.935 111.195 20.1677 110.88 20.3229C111.274 20.5556 111.589 20.8658 111.825 21.1761C112.298 21.7967 112.534 22.5723 112.534 23.4256C112.534 24.7442 112.061 25.9078 111.116 26.761C110.25 27.5367 108.99 28.0021 107.415 28.0021C107.415 28.0021 107.336 28.0021 107.257 28.0021C105.289 27.9245 104.029 27.2264 103.32 26.218C102.532 25.2097 102.296 24.0461 102.296 23.0377V22.9602C102.296 22.7275 102.533 22.4948 102.769 22.4948H105.84C106.076 22.4948 106.312 22.7275 106.312 22.9602C106.312 23.348 106.391 23.7359 106.706 23.9686C106.942 24.2013 107.179 24.2788 107.651 24.2788C107.73 24.2788 107.966 24.2788 108.281 24.1237C108.518 24.0461 108.675 23.8134 108.675 23.348C108.675 22.8826 108.518 22.7275 108.36 22.5723C108.124 22.4948 107.887 22.4172 107.809 22.4172H107.1C106.864 22.4172 106.627 22.1845 106.627 21.9518V19.392C106.627 19.1593 106.864 18.9266 107.1 18.9266H107.651C107.966 18.9266 108.203 18.8491 108.36 18.6939C108.518 18.5388 108.596 18.3061 108.596 18.0734C108.596 17.6855 108.439 17.5304 108.36 17.4528C108.203 17.3753 107.966 17.2977 107.809 17.2977C107.179 17.4528 106.943 17.5304 106.785 17.6855ZM113.951 27.1489V14.5828C113.951 14.3501 114.188 14.1174 114.424 14.1174H117.495C117.731 14.1174 117.967 14.3501 117.967 14.5828V21.2537L122.771 14.3501C122.85 14.195 123.007 14.1174 123.165 14.1174H126.236C126.473 14.1174 126.709 14.3501 126.709 14.5828V27.1489C126.709 27.3816 126.473 27.6143 126.236 27.6143H123.165C122.929 27.6143 122.693 27.3816 122.693 27.1489V20.4004L117.889 27.304C117.81 27.4591 117.652 27.5367 117.495 27.5367H114.424C114.109 27.5367 113.951 27.3816 113.951 27.1489ZM128.677 27.1489V14.5828C128.677 14.3501 128.914 14.1174 129.15 14.1174H132.221C132.457 14.1174 132.694 14.3501 132.694 14.5828V18.7715H136.552V14.5828C136.552 14.3501 136.789 14.1174 137.025 14.1174H140.096C140.332 14.1174 140.569 14.3501 140.569 14.5828V27.1489C140.569 27.3816 140.332 27.6143 140.096 27.6143H137.025C136.789 27.6143 136.552 27.3816 136.552 27.1489V22.3396H132.694V27.1489C132.694 27.3816 132.457 27.6143 132.221 27.6143H129.15C128.835 27.5367 128.677 27.3816 128.677 27.1489Z" fill="#E30613"/>
<path fill-rule="evenodd" clip-rule="evenodd" d="M163.564 26.9937C163.564 27.2264 163.564 27.304 163.485 27.3816C163.406 27.4591 163.249 27.4591 162.934 27.4591H159.232C158.839 27.4591 158.602 27.304 158.602 26.9162V13.652H152.775V26.9937C152.775 27.2264 152.775 27.304 152.696 27.3816C152.617 27.4591 152.46 27.4591 152.145 27.4591H148.444C148.05 27.4591 147.814 27.304 147.814 26.9162V11.1698C147.814 10.6268 147.892 10.1614 148.129 9.85116C148.365 9.54089 148.837 9.46332 149.546 9.46332H161.91C162.619 9.46332 163.091 9.61845 163.327 9.85116C163.564 10.1614 163.642 10.5493 163.642 11.1698V26.9937H163.564ZM167.029 15.7463C168.289 14.5052 170.1 13.7296 172.147 13.7296C174.195 13.7296 176.006 14.5052 177.266 15.7463C178.605 17.065 179.392 18.8491 179.392 20.8658C179.392 22.805 178.605 24.6667 177.266 25.9078C176.006 27.1489 174.195 27.9245 172.147 27.9245C170.1 27.9245 168.289 27.1489 167.029 25.9078C165.69 24.5891 164.902 22.805 164.902 20.8658C164.981 18.8491 165.769 17.065 167.029 15.7463ZM174.51 18.3837C173.959 17.8407 173.171 17.4528 172.226 17.4528C171.281 17.4528 170.494 17.8407 169.942 18.3837C169.312 19.0042 168.997 19.935 168.997 20.8658C168.997 21.7967 169.312 22.6499 169.942 23.2704C170.494 23.8134 171.281 24.2013 172.226 24.2013C173.171 24.2013 173.959 23.8134 174.51 23.2704C175.14 22.6499 175.455 21.7967 175.455 20.8658C175.455 19.935 175.14 19.0042 174.51 18.3837ZM188.842 24.0461C189.315 23.891 189.866 23.5032 190.26 22.8826C190.339 22.7275 190.496 22.6499 190.654 22.6499H194.119C194.197 22.6499 194.197 22.6499 194.276 22.6499C194.512 22.7275 194.67 22.9602 194.591 23.1929C194.04 24.6667 193.174 25.9078 191.992 26.761C190.89 27.5367 189.472 28.0021 187.819 28.0021C185.535 28.0021 183.724 27.2264 182.542 25.9853C181.046 24.5891 180.337 22.5723 180.337 20.7107C180.337 17.608 182.621 13.652 187.74 13.652C189.394 13.652 190.89 14.1174 192.071 14.9707C193.252 15.8239 194.119 17.065 194.591 18.5388C194.591 18.6164 194.591 18.6164 194.591 18.6939C194.591 18.9266 194.355 19.1593 194.119 19.1593H190.654C190.496 19.1593 190.339 19.0818 190.26 18.9266C190.024 18.4612 189.63 18.0734 189.236 17.8407C188.764 17.608 188.212 17.4528 187.661 17.4528C186.637 17.4528 185.771 17.8407 185.22 18.3837C184.59 19.0042 184.275 19.8574 184.275 20.7883C184.275 21.7967 184.59 22.6499 185.22 23.2704C185.771 23.891 186.637 24.2013 187.661 24.2013C187.819 24.2013 188.37 24.2013 188.842 24.0461ZM194.985 17.2201V14.5052C194.985 14.2725 195.221 14.0398 195.457 14.0398H204.671C204.907 14.0398 205.144 14.2725 205.144 14.5052V17.2201C205.144 17.4528 204.907 17.6855 204.671 17.6855H202.072V27.1489C202.072 27.3816 201.836 27.6143 201.6 27.6143H198.529C198.292 27.6143 198.056 27.3816 198.056 27.1489V17.6855H195.457C195.221 17.6855 194.985 17.4528 194.985 17.2201ZM207.664 15.7463C208.924 14.5052 210.735 13.7296 212.782 13.7296C214.83 13.7296 216.641 14.5052 217.901 15.7463C219.24 17.065 220.027 18.8491 220.027 20.8658C220.027 22.805 219.24 24.6667 217.901 25.9078C216.641 27.1489 214.83 27.9245 212.782 27.9245C210.735 27.9245 208.924 27.1489 207.664 25.9078C206.325 24.5891 205.537 22.805 205.537 20.8658C205.537 18.8491 206.325 17.065 207.664 15.7463ZM215.066 18.3837C214.515 17.8407 213.727 17.4528 212.782 17.4528C211.837 17.4528 211.05 17.8407 210.499 18.3837C209.869 19.0042 209.554 19.935 209.554 20.8658C209.554 21.7967 209.869 22.6499 210.499 23.2704C211.05 23.8134 211.837 24.2013 212.782 24.2013C213.727 24.2013 214.515 23.8134 215.066 23.2704C215.696 22.6499 216.011 21.7967 216.011 20.8658C216.011 19.935 215.696 19.0042 215.066 18.3837ZM226.249 14.1174H231.84C232.076 14.1174 232.312 14.3501 232.312 14.5828V27.1489C232.312 27.3816 232.076 27.6143 231.84 27.6143H228.769C228.532 27.6143 228.296 27.3816 228.296 27.1489V23.6583L225.382 27.4591C225.304 27.6143 225.146 27.6918 224.989 27.6918H221.13C221.051 27.6918 220.894 27.6918 220.815 27.6143C220.657 27.4591 220.579 27.1489 220.736 26.9937L224.122 23.1153C223.335 22.8826 222.705 22.4172 222.154 21.8742C221.445 21.0985 221.13 20.0126 221.13 18.9266C221.13 17.6855 221.602 16.4445 222.626 15.5912C223.492 14.5828 224.674 14.1174 226.249 14.1174ZM226.327 19.935H228.217V17.6855H226.327C225.934 17.6855 225.619 17.7631 225.382 17.9958C225.146 18.2285 225.067 18.5388 225.067 18.9266C225.067 19.2369 225.225 19.5472 225.382 19.7023C225.619 19.8574 226.012 19.935 226.327 19.935ZM234.281 27.1489V14.5828C234.281 14.3501 234.517 14.1174 234.754 14.1174H237.825C238.061 14.1174 238.297 14.3501 238.297 14.5828V18.7715H242.156V14.5828C242.156 14.3501 242.392 14.1174 242.629 14.1174H245.7C245.936 14.1174 246.172 14.3501 246.172 14.5828V27.1489C246.172 27.3816 245.936 27.6143 245.7 27.6143H242.55C242.314 27.6143 242.077 27.3816 242.077 27.1489V22.3396H238.219V27.1489C238.219 27.3816 237.982 27.6143 237.746 27.6143H234.675C234.517 27.5367 234.281 27.3816 234.281 27.1489ZM248.141 27.1489V14.5828C248.141 14.3501 248.377 14.1174 248.614 14.1174H251.685C251.921 14.1174 252.157 14.3501 252.157 14.5828V18.7715H256.016V14.5828C256.016 14.3501 256.252 14.1174 256.489 14.1174H259.56C259.796 14.1174 260.032 14.3501 260.032 14.5828V27.1489C260.032 27.3816 259.796 27.6143 259.56 27.6143H256.489C256.252 27.6143 256.016 27.3816 256.016 27.1489V22.3396H252.157V27.1489C252.157 27.3816 251.921 27.6143 251.685 27.6143H248.614C248.299 27.5367 248.141 27.3816 248.141 27.1489ZM262.001 27.1489V14.5828C262.001 14.3501 262.159 14.1174 262.474 14.1174H265.545C265.781 14.1174 266.017 14.3501 266.017 14.5828V18.5388H268.301C269.797 18.5388 270.979 19.0042 271.687 19.7799C272.554 20.6331 273.026 21.8742 273.026 23.1153C273.026 24.5115 272.554 25.5975 271.687 26.3732C270.821 27.1489 269.64 27.6143 268.222 27.6143H262.395C262.159 27.5367 262.001 27.3816 262.001 27.1489ZM267.907 22.1069H265.939V24.0461H267.907C267.986 24.0461 268.301 24.0461 268.537 23.891C268.774 23.8134 269.01 23.5807 269.01 23.0377C269.01 22.805 268.931 22.4948 268.774 22.3396C268.537 22.1845 268.301 22.1069 267.907 22.1069ZM276.964 27.5367H273.892C273.656 27.5367 273.42 27.304 273.42 27.0713V14.5828C273.42 14.3501 273.656 14.1174 273.892 14.1174H276.964C277.2 14.1174 277.436 14.3501 277.436 14.5828V27.1489C277.436 27.3816 277.2 27.5367 276.964 27.5367ZM282.555 27.5367H278.775C278.696 27.5367 278.617 27.5367 278.539 27.4591C278.302 27.304 278.302 27.0713 278.381 26.8386L282.555 20.6331L278.775 14.8155C278.696 14.738 278.696 14.6604 278.696 14.5052C278.696 14.2725 278.932 14.0398 279.169 14.0398H282.712C282.87 14.0398 283.027 14.1174 283.106 14.2725L285.154 17.4528L287.201 14.2725C287.28 14.1174 287.437 14.0398 287.595 14.0398H291.139C291.217 14.0398 291.296 14.0398 291.375 14.1174C291.611 14.2725 291.611 14.5052 291.532 14.738L287.674 20.6331L291.926 26.8386C292.005 26.9161 292.005 26.9937 292.005 27.1489C292.005 27.3816 291.769 27.6143 291.532 27.6143H287.752C287.595 27.6143 287.437 27.5367 287.359 27.3816L285.154 23.891L282.949 27.304C282.87 27.4591 282.712 27.5367 282.555 27.5367Z" fill="#E30613"/>
<path fill-rule="evenodd" clip-rule="evenodd" d="M308.936 15.5912C308.936 15.4361 308.936 15.2034 308.858 14.9706C308.779 14.7379 308.7 14.5052 308.542 14.3501C308.385 14.195 308.228 13.9623 307.991 13.8847C307.755 13.7296 307.44 13.652 307.046 13.652H304.211V17.5304H307.046C307.676 17.5304 308.149 17.2977 308.464 16.9099C308.779 16.5996 308.936 16.1342 308.936 15.5912ZM325.316 14.1174H328.151C328.388 14.1174 328.624 14.3501 328.624 14.5828V27.1488C328.624 27.3816 328.388 27.6143 328.151 27.6143H325.316C325.08 27.6143 324.844 27.3816 324.844 27.1488V26.5283C324.214 27.0713 323.584 27.4591 322.954 27.6143C322.088 27.9245 321.3 27.9245 320.985 27.9245C319.174 27.9245 317.441 27.1488 316.181 25.8302C315 24.5891 314.291 22.9602 314.291 20.8658C314.291 18.7715 315 16.9874 316.181 15.6688C317.441 14.3501 319.095 13.5744 321.064 13.5744C322.009 13.5744 322.954 13.8071 323.662 14.195C324.056 14.4277 324.45 14.6604 324.765 15.0482V14.5052C324.844 14.2725 325.08 14.1174 325.316 14.1174ZM323.899 18.3836C323.347 17.8407 322.56 17.4528 321.615 17.4528C320.67 17.4528 319.804 17.8407 319.252 18.4612C318.622 19.0818 318.308 19.935 318.308 21.021C318.308 21.9518 318.622 22.805 319.252 23.4256C319.804 23.9686 320.67 24.3564 321.615 24.3564C322.56 24.3564 323.347 24.0461 323.977 23.4256C324.529 22.805 324.844 21.9518 324.844 20.9434C324.765 19.8574 324.45 18.9266 323.899 18.3836ZM338.625 24.0461C339.097 23.891 339.649 23.5031 339.964 22.8826C340.043 22.7275 340.2 22.6499 340.358 22.6499H343.823C343.901 22.6499 343.901 22.6499 343.98 22.6499C344.216 22.7275 344.374 22.9602 344.216 23.1929C343.665 24.6667 342.799 25.9078 341.617 26.761C340.515 27.5367 339.097 28.0021 337.444 28.0021C335.16 28.0021 333.349 27.2264 332.167 25.9853C330.671 24.5891 329.962 22.5723 329.962 20.7107C329.962 17.608 332.246 13.652 337.365 13.652C339.019 13.652 340.515 14.1174 341.696 14.9706C342.877 15.8239 343.744 17.065 344.216 18.5388C344.216 18.6164 344.216 18.6164 344.216 18.6939C344.216 18.9266 343.98 19.1593 343.744 19.1593H340.279C340.121 19.1593 339.964 19.0818 339.885 18.9266C339.649 18.4612 339.255 18.0734 338.861 17.8407C338.389 17.608 337.916 17.4528 337.286 17.4528C336.262 17.4528 335.396 17.8407 334.845 18.3836C334.215 19.0042 333.9 19.8574 333.9 20.7883C333.9 21.7966 334.215 22.6499 334.845 23.2704C335.396 23.891 336.262 24.2013 337.286 24.2013C337.68 24.2013 338.152 24.2013 338.625 24.0461ZM345.87 27.1488V14.5052C345.87 14.2725 346.106 14.0398 346.342 14.0398H357.21C357.446 14.0398 357.683 14.2725 357.683 14.5052V27.1488C357.683 27.3816 357.446 27.6143 357.21 27.6143H354.139C353.903 27.6143 353.666 27.3816 353.666 27.1488V17.6855H349.808V27.1488C349.808 27.3816 349.571 27.6143 349.335 27.6143H346.264C346.028 27.5367 345.87 27.3816 345.87 27.1488ZM363.195 31.8029H360.124C359.887 31.8029 359.651 31.5702 359.651 31.3375V14.5052C359.651 14.2725 359.887 14.0398 360.124 14.0398H362.959C363.195 14.0398 363.431 14.2725 363.431 14.5052V14.9706C363.746 14.6604 364.14 14.4277 364.455 14.2725C365.479 13.8071 366.503 13.652 367.133 13.652C369.023 13.652 370.834 14.4277 372.094 15.7463C373.275 16.9874 373.984 18.6939 373.984 20.8658C373.984 22.805 373.275 24.6667 372.015 25.9853C370.834 27.2264 369.18 28.0021 367.133 28.0021C366.581 28.0021 365.873 27.9245 365.085 27.6143C364.613 27.4591 364.14 27.1488 363.667 26.761V31.26C363.667 31.5702 363.431 31.8029 363.195 31.8029ZM369.967 20.7883C369.967 19.3145 369.023 17.4528 366.739 17.4528C365.794 17.4528 364.928 17.8407 364.376 18.3836C363.825 19.0042 363.431 19.8574 363.431 20.8658C363.431 21.9518 363.746 22.7275 364.298 23.348C364.849 23.9686 365.715 24.2788 366.581 24.2788C367.526 24.2788 368.392 23.891 368.944 23.348C369.652 22.6499 369.967 21.7966 369.967 20.7883ZM376.819 15.7463C378.079 14.5052 379.89 13.652 381.938 13.652C383.985 13.652 385.796 14.4277 387.056 15.7463C388.395 17.065 389.183 18.8491 389.183 20.8658C389.183 22.805 388.395 24.6667 387.056 25.9078C385.796 27.1488 383.985 28.0021 381.938 28.0021C379.89 28.0021 378.079 27.2264 376.819 25.9078C375.48 24.5891 374.692 22.805 374.692 20.8658C374.692 18.8491 375.48 17.065 376.819 15.7463ZM384.221 18.3836C383.67 17.7631 382.882 17.4528 381.938 17.4528C380.992 17.4528 380.205 17.8407 379.654 18.3836C379.024 19.0042 378.709 19.935 378.709 20.8658C378.709 21.7966 379.024 22.6499 379.654 23.2704C380.205 23.8134 380.992 24.2013 381.938 24.2013C382.882 24.2013 383.67 23.8134 384.221 23.2704C384.851 22.6499 385.166 21.7966 385.166 20.8658C385.166 19.935 384.851 19.0042 384.221 18.3836ZM396.27 14.1174H399.026C399.184 14.1174 399.341 14.195 399.42 14.3501L403.987 23.9686H405.247C405.484 23.9686 405.72 24.2013 405.72 24.434V30.3291C405.72 30.5618 405.484 30.7946 405.247 30.7946H402.255C402.019 30.7946 401.783 30.5618 401.783 30.3291V27.6143H393.514V30.3291C393.514 30.5618 393.278 30.7946 393.041 30.7946H390.049C389.812 30.7946 389.576 30.5618 389.576 30.3291V24.434C389.576 24.2013 389.812 23.9686 390.049 23.9686H391.309L395.876 14.3501C395.876 14.195 396.034 14.1174 396.27 14.1174ZM397.609 19.7023L395.719 23.9686H399.499L397.609 19.7023ZM417.06 14.1174H419.895C420.131 14.1174 420.367 14.3501 420.367 14.5828V27.1488C420.367 27.3816 420.131 27.6143 419.895 27.6143H417.06C416.824 27.6143 416.587 27.3816 416.587 27.1488V26.5283C415.957 27.0713 415.327 27.4591 414.697 27.6143C413.831 27.9245 413.044 27.9245 412.729 27.9245C410.917 27.9245 409.185 27.1488 407.925 25.8302C406.744 24.5891 406.035 22.9602 406.035 20.8658C406.035 18.7715 406.744 16.9874 408.004 15.6688C409.264 14.3501 410.917 13.5744 412.886 13.5744C413.91 13.5744 414.776 13.8071 415.564 14.195C415.958 14.4277 416.351 14.6604 416.666 15.0482V14.5052C416.587 14.2725 416.824 14.1174 417.06 14.1174ZM415.642 18.3836C415.091 17.8407 414.304 17.4528 413.359 17.4528C412.414 17.4528 411.548 17.8407 410.996 18.4612C410.445 19.0818 410.051 19.935 410.051 21.021C410.051 21.9518 410.366 22.805 410.996 23.4256C411.548 23.9686 412.414 24.3564 413.359 24.3564C414.304 24.3564 415.091 24.0461 415.642 23.4256C416.194 22.805 416.509 21.9518 416.509 20.9434C416.588 19.8574 416.194 18.9266 415.642 18.3836ZM432.81 27.5367H429.739C429.503 27.5367 429.266 27.304 429.266 27.0713V22.4948L425.959 27.304C425.88 27.4591 425.723 27.5367 425.565 27.5367H421.942C421.864 27.5367 421.785 27.5367 421.706 27.4591C421.47 27.304 421.47 27.0713 421.628 26.8386L426.116 20.478L421.942 14.7379C421.864 14.6604 421.864 14.5828 421.864 14.4277C421.864 14.195 422.1 13.9623 422.336 13.9623H425.959C426.116 13.9623 426.274 14.0398 426.353 14.195L429.424 18.6939V14.4277C429.424 14.195 429.66 13.9623 429.896 13.9623H432.967C433.204 13.9623 433.44 14.195 433.44 14.4277V18.6939L436.433 14.195C436.511 14.0398 436.669 13.9623 436.826 13.9623H440.449C440.527 13.9623 440.606 13.9623 440.685 14.0398C440.921 14.195 440.921 14.4277 440.764 14.6604L436.59 20.4004L441.079 26.6834C441.157 26.761 441.158 26.8386 441.158 26.9161C441.158 27.1488 440.921 27.3816 440.685 27.3816H437.062C436.905 27.3816 436.747 27.304 436.669 27.1488L433.361 22.3396V27.1488C433.282 27.3816 433.046 27.5367 432.81 27.5367ZM304.211 27.0713C304.211 27.304 304.211 27.3816 304.133 27.4591C304.054 27.5367 303.896 27.5367 303.581 27.5367H299.88C299.486 27.5367 299.25 27.3816 299.25 26.9937V11.1698C299.25 10.7044 299.329 10.3166 299.565 9.92872C299.801 9.61845 300.274 9.38574 300.983 9.38574H307.676C308.7 9.38574 309.645 9.54088 310.433 9.85115C311.22 10.1614 311.929 10.5493 312.48 11.0922C313.031 11.6352 313.425 12.2558 313.74 12.9539C314.055 13.652 314.134 14.4277 314.134 15.2809C314.134 15.5912 314.134 15.9015 314.055 16.2893C313.976 16.6771 313.897 17.1426 313.74 17.608C313.582 18.0734 313.346 18.5388 313.031 19.0042C312.716 19.4696 312.322 19.8574 311.771 20.2453C311.22 20.6331 310.59 20.8658 309.802 21.0985C309.015 21.3312 308.07 21.4088 306.967 21.4088H304.369V27.0713H304.211Z" fill="#E30613"/>
</g>
<defs>
<clipPath id="clip0_3_3">
<rect width="441" height="37" fill="white"/>
</clipPath>
</defs>
</svg>
