<svg width="30" height="30" viewBox="0 0 30 30" fill="none" xmlns="http://www.w3.org/2000/svg">
<path d="M26.9688 0.0325537L2.60057 0.336905C1.15581 0.354949 0.0144382 1.5254 0.0324859 2.97041L0.33689 27.343C0.354938 28.788 1.52518 29.9296 2.96994 29.9115L27.3382 29.6072C28.783 29.5891 29.9243 28.4187 29.9063 26.9737L29.6019 2.6011C29.6802 1.15488 28.4136 0.0145092 26.9688 0.0325537Z" fill="white"/>
<path d="M14.9828 15.8415C17.3706 15.8116 19.3085 13.9042 19.2799 11.6118C19.2512 9.31951 17.2663 7.46102 14.8785 7.49085C12.4907 7.52067 10.5528 9.42815 10.5814 11.7205C10.6101 14.0128 12.595 15.8713 14.9828 15.8415ZM14.9082 9.86504C15.9315 9.85226 16.7092 10.6614 16.7205 11.5619C16.7328 12.5443 15.8892 13.2918 14.9511 13.3035C13.9278 13.3163 13.15 12.5072 13.1388 11.6067C13.1275 10.7061 13.8848 9.87782 14.9082 9.86504Z" fill="#4E5A65"/>
<path d="M17.1978 19.499C18.2538 19.3018 19.4121 18.8272 20.3587 18.3552C21.0949 17.9779 21.295 17.0552 20.8637 16.4164C20.4324 15.7777 19.3718 15.6069 18.6357 15.9841C16.4283 17.208 13.5711 17.2437 11.3339 16.0753C10.5886 15.7166 9.63845 15.9125 9.11738 16.5631C8.70213 17.2125 8.92412 18.0379 9.67063 18.4887C10.6299 19.0289 11.6927 19.3837 12.8591 19.5532L9.82356 22.2598C9.19552 22.8198 9.20587 23.6478 9.8477 24.192C10.1686 24.464 10.5931 24.5508 11.0163 24.5455C11.4396 24.5402 11.8618 24.4429 12.1758 24.1629L15.1067 21.5496L18.1019 24.0889C18.7437 24.633 19.6961 24.6211 20.3241 24.0611C20.9522 23.5011 20.9418 22.6731 20.3 22.1289L17.1978 19.499Z" fill="#4E5A65"/>
</svg>
