<svg width="30" height="30" viewBox="0 0 30 30" fill="none" xmlns="http://www.w3.org/2000/svg">
<path d="M26.9265 0.032839L2.64817 0.336066C1.17247 0.354497 0.0146438 1.54161 0.0330747 3.01731L0.336302 27.2956C0.35448 28.7511 1.54185 29.9291 3.01755 29.9107L27.2958 29.6075C28.7513 29.5893 29.9294 28.4019 29.9109 26.9262L29.6077 2.64794C29.5893 1.17224 28.3819 0.0146605 26.9265 0.032839ZM24.1081 9.10558C23.2709 13.3012 22.4337 17.4968 21.5963 21.6722C21.5586 21.8951 21.4803 22.0983 21.3817 22.3017C21.1841 22.6681 20.8625 22.8136 20.4566 22.6974C20.2537 22.6393 20.0708 22.5607 19.8873 22.4417C18.5208 21.4883 17.1742 20.5144 15.8277 19.5405C15.7665 19.5008 15.7256 19.4609 15.6442 19.4215C15.5841 19.4627 15.5442 19.5036 15.5045 19.5648C14.8253 20.2202 14.1463 20.8959 13.467 21.5514C13.2674 21.756 13.0261 21.8601 12.7229 21.8639C12.7398 21.6009 12.7567 21.3378 12.7737 21.0748C12.8401 19.9215 12.9066 18.7683 12.9733 17.6352C12.9723 17.5543 13.0317 17.4525 13.0916 17.3911C15.6701 15.0136 18.2485 12.6361 20.8272 10.2788C20.8472 10.2583 20.8674 10.2581 20.8874 10.2376C20.9268 10.1562 20.9862 10.0544 21.0253 9.95281C20.9038 9.93411 20.8019 9.87473 20.6809 9.89646C20.5599 9.91819 20.4396 10.0006 20.3191 10.0627C17.1099 12.1246 13.8808 14.207 10.6716 16.2689C10.5913 16.3103 10.4904 16.3318 10.4093 16.3126C9.0294 15.9053 7.64947 15.4979 6.26955 15.0906C5.98553 15.0132 5.74143 14.895 5.57617 14.614C5.57516 14.5331 5.57441 14.4725 5.5734 14.3916C5.73108 14.0662 6.01182 13.8807 6.33374 13.7554C7.58102 13.2545 8.84851 12.7535 10.0958 12.2527C14.4011 10.541 18.6862 8.82959 22.9918 7.13814C23.0923 7.09644 23.1929 7.05475 23.3142 7.05324C23.8994 6.96505 24.308 7.30366 24.2954 7.91036C24.28 8.2947 24.1839 8.70027 24.1081 9.10558Z" fill="white"/>
</svg>
