<svg width="160" height="37" viewBox="0 0 160 37" fill="none" xmlns="http://www.w3.org/2000/svg">
<path d="M27.0299 3.03155L2.52466 3.33761C1.12207 3.35513 0.0142068 4.50663 0.0319653 5.92848L0.337411 30.3844C0.354916 31.786 1.49145 32.9297 2.89404 32.9122L27.4193 32.6059C28.8019 32.5887 29.9298 31.4369 29.912 30.015L29.6066 5.55911C29.5688 4.1375 28.4325 3.01403 27.0299 3.03155ZM23.2037 15.9796C23.2044 16.0406 23.2054 16.1218 23.2064 16.2031C21.4232 16.2253 19.8532 15.6761 18.4173 14.6376C18.4186 14.7392 18.4194 14.8001 18.4201 14.8611C18.4478 17.0751 18.4952 19.2686 18.5229 21.4826C18.5378 22.681 18.2713 23.8017 17.6024 24.8055C16.5407 26.444 15.0291 27.3568 13.0875 27.5435C13.0274 27.5443 12.9475 27.5656 12.8877 27.5867C12.7674 27.5882 12.6472 27.5897 12.527 27.5912C12.1055 27.5355 11.6842 27.5001 11.2624 27.4241C8.9315 26.925 7.08251 24.8963 6.77206 22.5029C6.35152 19.3187 8.43942 16.4078 11.5786 15.8404C12.1785 15.7313 12.7994 15.7033 13.422 15.8174C13.4352 16.8736 13.4482 17.9095 13.4614 18.9658C13.3006 18.9271 13.14 18.9088 12.9795 18.8905C11.4539 18.6861 10.0246 19.7807 9.84304 21.2863C9.64268 22.8937 10.7224 24.3023 12.2878 24.4859C13.8535 24.6898 15.441 23.4308 15.3976 21.5623C15.3492 19.2876 15.341 17.0326 15.3126 14.7577C15.2875 12.7468 15.2624 10.7359 15.2373 8.72494C15.2363 8.64369 15.2352 8.56244 15.2342 8.48119C16.2561 8.46843 17.278 8.45567 18.2799 8.44315C18.324 8.76765 18.3681 9.09214 18.432 9.39608C18.8995 11.5234 20.783 13.1048 22.9277 13.1389C23.108 13.1367 23.1689 13.1968 23.1712 13.3797C23.1816 14.2125 23.1925 15.0859 23.2037 15.9796Z" fill="white"/>
<rect x="56.9497" y="4.37207" width="1.26453" height="20.1231" transform="rotate(-1.47372 56.9497 4.37207)" fill="white"/>
<rect x="56.9497" y="4.37207" width="1.26453" height="20.1231" transform="rotate(-1.47372 56.9497 4.37207)" fill="white"/>
<rect x="56.9497" y="4.37207" width="1.26453" height="20.1231" transform="rotate(-1.47372 56.9497 4.37207)" fill="white"/>
<rect x="63.9023" y="4.19312" width="1.26453" height="20.1231" transform="rotate(-1.47372 63.9023 4.19312)" fill="white"/>
<rect width="1.2981" height="19.6028" transform="matrix(0.0931876 0.995649 -0.995302 0.0968136 70.6792 9.1748)" fill="white"/>
<rect width="1.2981" height="19.6028" transform="matrix(0.0931876 0.995649 -0.995302 0.0968136 70.6792 9.1748)" fill="white"/>
<rect width="1.2981" height="19.6028" transform="matrix(0.0931876 0.995649 -0.995302 0.0968136 70.6792 9.1748)" fill="white"/>
<rect width="1.2981" height="19.6028" transform="matrix(0.0931876 0.995649 -0.995302 0.0968136 71.3447 16.2837)" fill="white"/>
<path d="M93.372 10H91.865V3.906L89.698 10H88.422L86.255 3.906V10H84.748V1.86H86.794L89.06 8.086L91.326 1.86H93.372V10ZM101.335 10H99.9931V9.175C99.7511 9.505 99.4505 9.758 99.0911 9.934C98.7391 10.11 98.3541 10.198 97.9361 10.198C97.1295 10.198 96.4401 9.912 95.8681 9.34C95.2595 8.73133 94.9551 7.954 94.9551 7.008C94.9551 6.062 95.2448 5.27733 95.8241 4.654C96.4108 4.02333 97.1295 3.708 97.9801 3.708C98.8601 3.708 99.5238 4.06 99.9711 4.764L99.9931 3.906H101.335V10ZM99.9601 6.942C99.9601 6.40667 99.7988 5.96667 99.4761 5.622C99.1608 5.27 98.7391 5.094 98.2111 5.094C97.6905 5.094 97.2615 5.27367 96.9241 5.633C96.5868 5.99233 96.4181 6.45067 96.4181 7.008C96.4181 7.52867 96.5831 7.96133 96.9131 8.306C97.2505 8.64333 97.6831 8.812 98.2111 8.812C98.7318 8.812 99.1535 8.63967 99.4761 8.295C99.7988 7.95033 99.9601 7.49933 99.9601 6.942ZM106.529 5.204H104.538V10H103.075V3.906H106.529V5.204ZM113.876 10H112.534V9.175C112.292 9.505 111.991 9.758 111.632 9.934C111.28 10.11 110.895 10.198 110.477 10.198C109.67 10.198 108.981 9.912 108.409 9.34C107.8 8.73133 107.496 7.954 107.496 7.008C107.496 6.062 107.785 5.27733 108.365 4.654C108.951 4.02333 109.67 3.708 110.521 3.708C111.401 3.708 112.064 4.06 112.512 4.764L112.534 3.906H113.876V10ZM112.501 6.942C112.501 6.40667 112.339 5.96667 112.017 5.622C111.701 5.27 111.28 5.094 110.752 5.094C110.231 5.094 109.802 5.27367 109.465 5.633C109.127 5.99233 108.959 6.45067 108.959 7.008C108.959 7.52867 109.124 7.96133 109.454 8.306C109.791 8.64333 110.224 8.812 110.752 8.812C111.272 8.812 111.694 8.63967 112.017 8.295C112.339 7.95033 112.501 7.49933 112.501 6.942ZM119.762 8.207C119.762 8.801 119.561 9.28133 119.157 9.648C118.754 10.0147 118.215 10.198 117.54 10.198C116.719 10.198 116.118 9.94133 115.736 9.428C115.443 9.032 115.296 8.537 115.296 7.943H116.759C116.759 8.185 116.822 8.383 116.946 8.537C117.1 8.72033 117.317 8.812 117.595 8.812C117.801 8.812 117.969 8.757 118.101 8.647C118.233 8.537 118.299 8.37933 118.299 8.174C118.299 7.91 118.211 7.72667 118.035 7.624C117.933 7.56533 117.804 7.536 117.65 7.536H117.309V6.282H117.584C117.812 6.282 117.973 6.227 118.068 6.117C118.171 5.99967 118.222 5.85667 118.222 5.688C118.222 5.446 118.145 5.27733 117.991 5.182C117.896 5.12333 117.768 5.094 117.606 5.094C117.408 5.094 117.247 5.15267 117.122 5.27C116.998 5.38 116.928 5.52667 116.913 5.71H115.45C115.45 5.16 115.641 4.69067 116.022 4.302C116.411 3.906 116.928 3.708 117.573 3.708C118.255 3.708 118.783 3.884 119.157 4.236C119.487 4.544 119.652 4.93633 119.652 5.413C119.652 5.71367 119.561 5.98133 119.377 6.216C119.201 6.44333 118.963 6.60833 118.662 6.711C119.022 6.799 119.293 6.97867 119.476 7.25C119.667 7.52133 119.762 7.84033 119.762 8.207ZM126.857 10H125.394V6.051L122.688 10H121.225V3.906H122.688V7.855L125.394 3.906H126.857V10ZM133.788 10H132.325V7.448H130.059V10H128.596V3.906H130.059V6.15H132.325V3.906H133.788V10ZM90.732 22H89.225V15.323H86.255V22H84.748V13.86H90.732V22ZM98.7806 18.964C98.7806 19.8587 98.4726 20.6213 97.8566 21.252C97.2406 21.8827 96.4706 22.198 95.5466 22.198C94.6299 22.198 93.8599 21.8863 93.2366 21.263C92.6206 20.6323 92.3126 19.866 92.3126 18.964C92.3126 18.062 92.6169 17.2957 93.2256 16.665C93.8416 16.027 94.6152 15.708 95.5466 15.708C96.4706 15.708 97.2406 16.0233 97.8566 16.654C98.4726 17.2847 98.7806 18.0547 98.7806 18.964ZM97.3176 18.964C97.3176 18.4433 97.1562 18.0033 96.8336 17.644C96.5109 17.2773 96.0819 17.094 95.5466 17.094C95.0186 17.094 94.5896 17.2773 94.2596 17.644C93.9369 18.0033 93.7756 18.4433 93.7756 18.964C93.7756 19.4847 93.9369 19.9247 94.2596 20.284C94.5822 20.636 95.0112 20.812 95.5466 20.812C96.0672 20.812 96.4926 20.6323 96.8226 20.273C97.1526 19.9137 97.3176 19.4773 97.3176 18.964ZM106.323 20.02C106.088 20.6873 105.71 21.219 105.19 21.615C104.676 22.0037 104.049 22.198 103.309 22.198C102.238 22.198 101.391 21.8423 100.768 21.131C100.218 20.5077 99.9427 19.767 99.9427 18.909C99.9427 18.095 100.207 17.3837 100.735 16.775C101.351 16.0637 102.19 15.708 103.254 15.708C104.009 15.708 104.658 15.9097 105.201 16.313C105.743 16.7163 106.117 17.2553 106.323 17.93H104.673C104.533 17.6513 104.339 17.4423 104.09 17.303C103.848 17.1637 103.562 17.094 103.232 17.094C102.667 17.094 102.22 17.2737 101.89 17.633C101.567 17.985 101.406 18.4177 101.406 18.931C101.406 19.4663 101.571 19.9137 101.901 20.273C102.231 20.6323 102.674 20.812 103.232 20.812C103.576 20.812 103.866 20.746 104.101 20.614C104.335 20.482 104.526 20.284 104.673 20.02H106.323ZM111.698 17.204H110.235V22H108.772V17.204H107.309V15.906H111.698V17.204ZM119.122 18.964C119.122 19.8587 118.814 20.6213 118.198 21.252C117.582 21.8827 116.812 22.198 115.888 22.198C114.971 22.198 114.201 21.8863 113.578 21.263C112.962 20.6323 112.654 19.866 112.654 18.964C112.654 18.062 112.958 17.2957 113.567 16.665C114.183 16.027 114.957 15.708 115.888 15.708C116.812 15.708 117.582 16.0233 118.198 16.654C118.814 17.2847 119.122 18.0547 119.122 18.964ZM117.659 18.964C117.659 18.4433 117.498 18.0033 117.175 17.644C116.852 17.2773 116.423 17.094 115.888 17.094C115.36 17.094 114.931 17.2773 114.601 17.644C114.278 18.0033 114.117 18.4433 114.117 18.964C114.117 19.4847 114.278 19.9247 114.601 20.284C114.924 20.636 115.353 20.812 115.888 20.812C116.409 20.812 116.834 20.6323 117.164 20.273C117.494 19.9137 117.659 19.4773 117.659 18.964ZM125.3 22H123.837V19.657L122.033 22H120.207L122.044 19.844C121.545 19.7853 121.149 19.58 120.856 19.228C120.57 18.8687 120.427 18.436 120.427 17.93C120.427 17.3727 120.618 16.9033 120.999 16.522C121.41 16.1113 121.96 15.906 122.649 15.906H125.3V22ZM123.837 18.733V17.204H122.704C122.455 17.204 122.257 17.2773 122.11 17.424C121.963 17.5707 121.89 17.765 121.89 18.007C121.89 18.249 121.967 18.4323 122.121 18.557C122.275 18.6743 122.469 18.733 122.704 18.733H123.837ZM132.231 22H130.768V19.448H128.502V22H127.039V15.906H128.502V18.15H130.768V15.906H132.231V22ZM139.161 22H137.698V19.448H135.432V22H133.969V15.906H135.432V18.15H137.698V15.906H139.161V22ZM147.852 22H146.389V15.906H147.852V22ZM145.718 20.02C145.718 20.6213 145.528 21.1017 145.146 21.461C144.765 21.8203 144.274 22 143.672 22H140.9V15.906H142.363V18.04H143.672C144.347 18.04 144.864 18.238 145.223 18.634C145.553 18.9933 145.718 19.4553 145.718 20.02ZM144.255 20.02C144.255 19.8367 144.208 19.6863 144.112 19.569C143.98 19.415 143.782 19.338 143.518 19.338H142.363V20.702H143.518C143.746 20.702 143.925 20.647 144.057 20.537C144.189 20.4197 144.255 20.2473 144.255 20.02ZM155.115 22H153.311L152.079 20.031L150.847 22H149.043L151.1 18.876L149.208 15.906H150.913L152.068 17.732L153.223 15.906H154.928L152.992 18.876L155.115 22ZM89.94 28.401C89.94 29.061 89.753 29.6073 89.379 30.04C88.873 30.6267 88.0883 30.92 87.025 30.92H86.255V34H84.748V25.86H87.025C88.1543 25.86 88.9647 26.1863 89.456 26.839C89.7787 27.2717 89.94 27.7923 89.94 28.401ZM88.433 28.39C88.433 27.9573 88.268 27.6567 87.938 27.488C87.7253 27.378 87.4613 27.323 87.146 27.323H86.255V29.457H87.146C87.5933 29.457 87.9197 29.3653 88.125 29.182C88.3303 28.9987 88.433 28.7347 88.433 28.39ZM97.3713 34H96.0293V33.175C95.7873 33.505 95.4866 33.758 95.1273 33.934C94.7753 34.11 94.3903 34.198 93.9723 34.198C93.1656 34.198 92.4763 33.912 91.9043 33.34C91.2956 32.7313 90.9913 31.954 90.9913 31.008C90.9913 30.062 91.2809 29.2773 91.8603 28.654C92.4469 28.0233 93.1656 27.708 94.0163 27.708C94.8963 27.708 95.5599 28.06 96.0073 28.764L96.0293 27.906H97.3713V34ZM95.9963 30.942C95.9963 30.4067 95.8349 29.9667 95.5123 29.622C95.1969 29.27 94.7753 29.094 94.2473 29.094C93.7266 29.094 93.2976 29.2737 92.9603 29.633C92.6229 29.9923 92.4543 30.4507 92.4543 31.008C92.4543 31.5287 92.6193 31.9613 92.9493 32.306C93.2866 32.6433 93.7193 32.812 94.2473 32.812C94.7679 32.812 95.1896 32.6397 95.5123 32.295C95.8349 31.9503 95.9963 31.4993 95.9963 30.942ZM105.227 32.02C104.992 32.6873 104.615 33.219 104.094 33.615C103.581 34.0037 102.954 34.198 102.213 34.198C101.142 34.198 100.295 33.8423 99.672 33.131C99.122 32.5077 98.847 31.767 98.847 30.909C98.847 30.095 99.111 29.3837 99.639 28.775C100.255 28.0637 101.095 27.708 102.158 27.708C102.913 27.708 103.562 27.9097 104.105 28.313C104.648 28.7163 105.022 29.2553 105.227 29.93H103.577C103.438 29.6513 103.243 29.4423 102.994 29.303C102.752 29.1637 102.466 29.094 102.136 29.094C101.571 29.094 101.124 29.2737 100.794 29.633C100.471 29.985 100.31 30.4177 100.31 30.931C100.31 31.4663 100.475 31.9137 100.805 32.273C101.135 32.6323 101.579 32.812 102.136 32.812C102.481 32.812 102.77 32.746 103.005 32.614C103.24 32.482 103.43 32.284 103.577 32.02H105.227ZM111.889 34H110.426V29.204H108.16V34H106.697V27.906H111.889V34ZM120.008 30.953C120.008 31.833 119.74 32.581 119.205 33.197C118.626 33.8643 117.874 34.198 116.95 34.198C116.627 34.198 116.33 34.1467 116.059 34.044C115.685 33.9047 115.37 33.67 115.113 33.34L115.091 36.035H113.628V27.906H114.97V28.698C115.212 28.324 115.549 28.0527 115.982 27.884C116.29 27.7667 116.613 27.708 116.95 27.708C117.808 27.708 118.53 28.0087 119.117 28.61C119.711 29.204 120.008 29.985 120.008 30.953ZM118.545 30.942C118.545 30.4727 118.409 30.0657 118.138 29.721C117.808 29.303 117.361 29.094 116.796 29.094C116.268 29.094 115.835 29.27 115.498 29.622C115.168 29.9667 115.003 30.4103 115.003 30.953C115.003 31.525 115.164 31.9797 115.487 32.317C115.817 32.647 116.235 32.812 116.741 32.812C117.269 32.812 117.702 32.636 118.039 32.284C118.376 31.932 118.545 31.4847 118.545 30.942ZM127.6 30.964C127.6 31.8587 127.292 32.6213 126.676 33.252C126.06 33.8827 125.29 34.198 124.366 34.198C123.449 34.198 122.679 33.8863 122.056 33.263C121.44 32.6323 121.132 31.866 121.132 30.964C121.132 30.062 121.436 29.2957 122.045 28.665C122.661 28.027 123.434 27.708 124.366 27.708C125.29 27.708 126.06 28.0233 126.676 28.654C127.292 29.2847 127.6 30.0547 127.6 30.964ZM126.137 30.964C126.137 30.4433 125.975 30.0033 125.653 29.644C125.33 29.2773 124.901 29.094 124.366 29.094C123.838 29.094 123.409 29.2773 123.079 29.644C122.756 30.0033 122.595 30.4433 122.595 30.964C122.595 31.4847 122.756 31.9247 123.079 32.284C123.401 32.636 123.83 32.812 124.366 32.812C124.886 32.812 125.312 32.6323 125.642 32.273C125.972 31.9137 126.137 31.4773 126.137 30.964ZM135.791 35.54H134.361V34H129.983V35.54H128.553V32.702H129.279L131.512 27.906H132.832L135.065 32.702H135.791V35.54ZM133.415 32.702L132.172 29.886L130.929 32.702H133.415ZM143.124 34H141.782V33.175C141.54 33.505 141.24 33.758 140.88 33.934C140.528 34.11 140.143 34.198 139.725 34.198C138.919 34.198 138.229 33.912 137.657 33.34C137.049 32.7313 136.744 31.954 136.744 31.008C136.744 30.062 137.034 29.2773 137.613 28.654C138.2 28.0233 138.919 27.708 139.769 27.708C140.649 27.708 141.313 28.06 141.76 28.764L141.782 27.906H143.124V34ZM141.749 30.942C141.749 30.4067 141.588 29.9667 141.265 29.622C140.95 29.27 140.528 29.094 140 29.094C139.48 29.094 139.051 29.2737 138.713 29.633C138.376 29.9923 138.207 30.4507 138.207 31.008C138.207 31.5287 138.372 31.9613 138.702 32.306C139.04 32.6433 139.472 32.812 140 32.812C140.521 32.812 140.943 32.6397 141.265 32.295C141.588 31.9503 141.749 31.4993 141.749 30.942ZM153.334 34H151.607L149.627 31.074V34H148.164V31.074L146.184 34H144.457L146.679 30.81L144.589 27.906H146.316L148.164 30.7V27.906H149.627V30.7L151.475 27.906H153.202L151.112 30.81L153.334 34Z" fill="white"/>
</svg>
