<svg width="30" height="30" viewBox="0 0 30 30" fill="none" xmlns="http://www.w3.org/2000/svg">
<path d="M26.9688 0.0325537L2.60057 0.336905C1.15581 0.354949 0.0144382 1.5254 0.0324859 2.97041L0.33689 27.343C0.354938 28.788 1.52518 29.9296 2.96994 29.9115L27.3382 29.6072C28.783 29.5891 29.9243 28.4187 29.9063 26.9737L29.6019 2.6011C29.6802 1.15488 28.4136 0.0145092 26.9688 0.0325537Z" fill="white"/>
<path fill-rule="evenodd" clip-rule="evenodd" d="M14.8288 20.9667L16.192 20.9497C16.192 20.9497 16.5815 20.9448 16.7728 20.6678C16.9653 20.4824 16.9607 20.1163 16.9607 20.1163C16.9607 20.1163 16.939 18.3774 17.7156 18.1846C18.5886 17.8991 19.5863 19.8089 20.7639 20.5264C21.6471 21.0646 22.2302 20.9658 22.2302 20.9658L25.2487 20.9281C25.2487 20.9281 26.8055 20.8171 26.109 19.6359C26.0105 19.5456 25.7093 18.8171 23.8386 17.1928C21.968 15.5686 22.1662 15.8407 24.4676 12.9744C25.8091 11.2185 26.3796 10.113 26.1792 9.65784C25.9787 9.20268 25.0073 9.39788 25.0073 9.39788L21.5993 9.44044C21.5993 9.44044 21.3072 9.44409 21.1136 9.53804C20.92 9.632 20.826 9.90777 20.826 9.90777C20.826 9.90777 20.259 11.2879 19.5911 12.3946C18.0628 14.7936 17.4809 14.9839 17.2839 14.8033C16.6951 14.4445 16.8772 13.4354 16.867 12.6117C16.8372 10.2322 17.2153 9.31213 16.0434 9.05217C15.6528 8.96551 15.3595 8.87764 14.4832 8.88859C13.3147 8.90318 12.2436 8.91656 11.6628 9.19841C11.2756 9.38632 10.9881 9.75604 11.184 9.84513C11.3787 9.8427 11.9641 9.92692 12.1634 10.2906C12.5586 10.7433 12.4738 11.7512 12.4738 11.7512C12.4738 11.7512 12.7028 14.4944 12.0258 14.869C11.5424 15.1496 10.9513 14.6078 9.56066 12.4283C8.86534 11.3386 8.36248 10.0634 8.36248 10.0634C8.36248 10.0634 8.35905 9.78888 8.16317 9.69979C7.96614 9.51918 7.57665 9.52405 7.57665 9.52405L4.36339 9.56418C4.36339 9.56418 3.87653 9.57026 3.68408 9.75573C3.49162 9.9412 3.69093 10.3048 3.69093 10.3048C3.69093 10.3048 6.29232 15.8559 9.15039 18.5662C11.9088 21.0947 14.8288 20.9667 14.8288 20.9667Z" fill="#4E5A65"/>
</svg>
